G04 #@! TF.GenerationSoftware,KiCad,Pcbnew,7.0.1*
G04 #@! TF.CreationDate,2024-12-13T09:25:40+01:00*
G04 #@! TF.ProjectId,front_panel,66726f6e-745f-4706-916e-656c2e6b6963,rev?*
G04 #@! TF.SameCoordinates,Original*
G04 #@! TF.FileFunction,Soldermask,Top*
G04 #@! TF.FilePolarity,Negative*
%FSLAX46Y46*%
G04 Gerber Fmt 4.6, Leading zero omitted, Abs format (unit mm)*
G04 Created by KiCad (PCBNEW 7.0.1) date 2024-12-13 09:25:40*
%MOMM*%
%LPD*%
G01*
G04 APERTURE LIST*
%ADD10C,0.150000*%
%ADD11C,0.004000*%
%ADD12C,1.100000*%
%ADD13C,2.500000*%
%ADD14C,0.300000*%
G04 APERTURE END LIST*
D10*
X96500000Y-117560000D02*
X102450000Y-117560000D01*
X102450000Y-117750000D01*
X96500000Y-117750000D01*
X96500000Y-117560000D01*
G36*
X96500000Y-117560000D02*
G01*
X102450000Y-117560000D01*
X102450000Y-117750000D01*
X96500000Y-117750000D01*
X96500000Y-117560000D01*
G37*
X133500000Y-117510000D02*
X139500000Y-117510000D01*
X139500000Y-117750000D01*
X133500000Y-117750000D01*
X133500000Y-117510000D01*
G36*
X133500000Y-117510000D02*
G01*
X139500000Y-117510000D01*
X139500000Y-117750000D01*
X133500000Y-117750000D01*
X133500000Y-117510000D01*
G37*
X169500000Y-115750000D02*
X171280000Y-115750000D01*
X171280000Y-117750000D01*
X169500000Y-117750000D01*
X169500000Y-115750000D01*
G36*
X169500000Y-115750000D02*
G01*
X171280000Y-115750000D01*
X171280000Y-117750000D01*
X169500000Y-117750000D01*
X169500000Y-115750000D01*
G37*
X133500000Y-115750000D02*
X135350000Y-115750000D01*
X135350000Y-117750000D01*
X133500000Y-117750000D01*
X133500000Y-115750000D01*
G36*
X133500000Y-115750000D02*
G01*
X135350000Y-115750000D01*
X135350000Y-117750000D01*
X133500000Y-117750000D01*
X133500000Y-115750000D01*
G37*
X96500000Y-104750000D02*
X102500000Y-104750000D01*
X102500000Y-105070000D01*
X96500000Y-105070000D01*
X96500000Y-104750000D01*
G36*
X96500000Y-104750000D02*
G01*
X102500000Y-104750000D01*
X102500000Y-105070000D01*
X96500000Y-105070000D01*
X96500000Y-104750000D01*
G37*
X179500000Y-117400000D02*
X185500000Y-117400000D01*
X185500000Y-117750000D01*
X179500000Y-117750000D01*
X179500000Y-117400000D01*
G36*
X179500000Y-117400000D02*
G01*
X185500000Y-117400000D01*
X185500000Y-117750000D01*
X179500000Y-117750000D01*
X179500000Y-117400000D01*
G37*
X179500000Y-104750000D02*
X180710000Y-104750000D01*
X180710000Y-106750000D01*
X179500000Y-106750000D01*
X179500000Y-104750000D01*
G36*
X179500000Y-104750000D02*
G01*
X180710000Y-104750000D01*
X180710000Y-106750000D01*
X179500000Y-106750000D01*
X179500000Y-104750000D01*
G37*
X164650000Y-115750000D02*
X166500000Y-115750000D01*
X166500000Y-117750000D01*
X164650000Y-117750000D01*
X164650000Y-115750000D01*
G36*
X164650000Y-115750000D02*
G01*
X166500000Y-115750000D01*
X166500000Y-117750000D01*
X164650000Y-117750000D01*
X164650000Y-115750000D01*
G37*
X106500000Y-104750000D02*
X112500000Y-104750000D01*
X112500000Y-104990000D01*
X106500000Y-104990000D01*
X106500000Y-104750000D01*
G36*
X106500000Y-104750000D02*
G01*
X112500000Y-104750000D01*
X112500000Y-104990000D01*
X106500000Y-104990000D01*
X106500000Y-104750000D01*
G37*
X169500000Y-106550000D02*
X175500000Y-106550000D01*
X175500000Y-106750000D01*
X169500000Y-106750000D01*
X169500000Y-106550000D01*
G36*
X169500000Y-106550000D02*
G01*
X175500000Y-106550000D01*
X175500000Y-106750000D01*
X169500000Y-106750000D01*
X169500000Y-106550000D01*
G37*
X160500000Y-106430000D02*
X166500000Y-106430000D01*
X166500000Y-106750000D01*
X160500000Y-106750000D01*
X160500000Y-106430000D01*
G36*
X160500000Y-106430000D02*
G01*
X166500000Y-106430000D01*
X166500000Y-106750000D01*
X160500000Y-106750000D01*
X160500000Y-106430000D01*
G37*
X179500000Y-93750000D02*
X179740000Y-93750000D01*
X179740000Y-95750000D01*
X179500000Y-95750000D01*
X179500000Y-93750000D01*
G36*
X179500000Y-93750000D02*
G01*
X179740000Y-93750000D01*
X179740000Y-95750000D01*
X179500000Y-95750000D01*
X179500000Y-93750000D01*
G37*
X160500000Y-115750000D02*
X162290000Y-115750000D01*
X162290000Y-117750000D01*
X160500000Y-117750000D01*
X160500000Y-115750000D01*
G36*
X160500000Y-115750000D02*
G01*
X162290000Y-115750000D01*
X162290000Y-117750000D01*
X160500000Y-117750000D01*
X160500000Y-115750000D01*
G37*
X128460000Y-115750000D02*
X130500000Y-115750000D01*
X130500000Y-117750000D01*
X128460000Y-117750000D01*
X128460000Y-115750000D01*
G36*
X128460000Y-115750000D02*
G01*
X130500000Y-115750000D01*
X130500000Y-117750000D01*
X128460000Y-117750000D01*
X128460000Y-115750000D01*
G37*
X106500000Y-117420000D02*
X112500000Y-117420000D01*
X112500000Y-117750000D01*
X106500000Y-117750000D01*
X106500000Y-117420000D01*
G36*
X106500000Y-117420000D02*
G01*
X112500000Y-117420000D01*
X112500000Y-117750000D01*
X106500000Y-117750000D01*
X106500000Y-117420000D01*
G37*
X137340000Y-104750000D02*
X139500000Y-104750000D01*
X139500000Y-106750000D01*
X137340000Y-106750000D01*
X137340000Y-104750000D01*
G36*
X137340000Y-104750000D02*
G01*
X139500000Y-104750000D01*
X139500000Y-106750000D01*
X137340000Y-106750000D01*
X137340000Y-104750000D01*
G37*
X155710000Y-115750000D02*
X157500000Y-115750000D01*
X157500000Y-117750000D01*
X155710000Y-117750000D01*
X155710000Y-115750000D01*
G36*
X155710000Y-115750000D02*
G01*
X157500000Y-115750000D01*
X157500000Y-117750000D01*
X155710000Y-117750000D01*
X155710000Y-115750000D01*
G37*
X169500000Y-104750000D02*
X171790000Y-104750000D01*
X171790000Y-106750000D01*
X169500000Y-106750000D01*
X169500000Y-104750000D01*
G36*
X169500000Y-104750000D02*
G01*
X171790000Y-104750000D01*
X171790000Y-106750000D01*
X169500000Y-106750000D01*
X169500000Y-104750000D01*
G37*
X173320000Y-104750000D02*
X175500000Y-104750000D01*
X175500000Y-106750000D01*
X173320000Y-106750000D01*
X173320000Y-104750000D01*
G36*
X173320000Y-104750000D02*
G01*
X175500000Y-104750000D01*
X175500000Y-106750000D01*
X173320000Y-106750000D01*
X173320000Y-104750000D01*
G37*
X160500000Y-93750000D02*
X161380000Y-93750000D01*
X161380000Y-95750000D01*
X160500000Y-95750000D01*
X160500000Y-93750000D01*
G36*
X160500000Y-93750000D02*
G01*
X161380000Y-93750000D01*
X161380000Y-95750000D01*
X160500000Y-95750000D01*
X160500000Y-93750000D01*
G37*
X119330000Y-104750000D02*
X121500000Y-104750000D01*
X121500000Y-106750000D01*
X119330000Y-106750000D01*
X119330000Y-104750000D01*
G36*
X119330000Y-104750000D02*
G01*
X121500000Y-104750000D01*
X121500000Y-106750000D01*
X119330000Y-106750000D01*
X119330000Y-104750000D01*
G37*
X151500000Y-93750000D02*
X152270000Y-93750000D01*
X152270000Y-95750000D01*
X151500000Y-95750000D01*
X151500000Y-93750000D01*
G36*
X151500000Y-93750000D02*
G01*
X152270000Y-93750000D01*
X152270000Y-95750000D01*
X151500000Y-95750000D01*
X151500000Y-93750000D01*
G37*
X115500000Y-115750000D02*
X121500000Y-115750000D01*
X121500000Y-115980000D01*
X115500000Y-115980000D01*
X115500000Y-115750000D01*
G36*
X115500000Y-115750000D02*
G01*
X121500000Y-115750000D01*
X121500000Y-115980000D01*
X115500000Y-115980000D01*
X115500000Y-115750000D01*
G37*
X169500000Y-95410000D02*
X175500000Y-95410000D01*
X175500000Y-95750000D01*
X169500000Y-95750000D01*
X169500000Y-95410000D01*
G36*
X169500000Y-95410000D02*
G01*
X175500000Y-95410000D01*
X175500000Y-95750000D01*
X169500000Y-95750000D01*
X169500000Y-95410000D01*
G37*
X97120000Y-115750000D02*
X102500000Y-115750000D01*
X102500000Y-115940000D01*
X97120000Y-115940000D01*
X97120000Y-115750000D01*
G36*
X97120000Y-115750000D02*
G01*
X102500000Y-115750000D01*
X102500000Y-115940000D01*
X97120000Y-115940000D01*
X97120000Y-115750000D01*
G37*
X169500000Y-93750000D02*
X175500000Y-93750000D01*
X175500000Y-93890000D01*
X169500000Y-93890000D01*
X169500000Y-93750000D01*
G36*
X169500000Y-93750000D02*
G01*
X175500000Y-93750000D01*
X175500000Y-93890000D01*
X169500000Y-93890000D01*
X169500000Y-93750000D01*
G37*
X106500000Y-115750000D02*
X108670000Y-115750000D01*
X108670000Y-117750000D01*
X106500000Y-117750000D01*
X106500000Y-115750000D01*
G36*
X106500000Y-115750000D02*
G01*
X108670000Y-115750000D01*
X108670000Y-117750000D01*
X106500000Y-117750000D01*
X106500000Y-115750000D01*
G37*
X115500000Y-106440000D02*
X121500000Y-106440000D01*
X121500000Y-106750000D01*
X115500000Y-106750000D01*
X115500000Y-106440000D01*
G36*
X115500000Y-106440000D02*
G01*
X121500000Y-106440000D01*
X121500000Y-106750000D01*
X115500000Y-106750000D01*
X115500000Y-106440000D01*
G37*
D11*
X102232066Y-129548051D02*
X102232066Y-129553625D01*
X102117067Y-129553625D01*
X102117067Y-129539846D01*
X102232066Y-129548051D01*
G36*
X102232066Y-129548051D02*
G01*
X102232066Y-129553625D01*
X102117067Y-129553625D01*
X102117067Y-129539846D01*
X102232066Y-129548051D01*
G37*
D10*
X101370000Y-115750000D02*
X102500000Y-115750000D01*
X102500000Y-117750000D01*
X101370000Y-117750000D01*
X101370000Y-115750000D01*
G36*
X101370000Y-115750000D02*
G01*
X102500000Y-115750000D01*
X102500000Y-117750000D01*
X101370000Y-117750000D01*
X101370000Y-115750000D01*
G37*
X124500000Y-106410000D02*
X130500000Y-106410000D01*
X130500000Y-106750000D01*
X124500000Y-106750000D01*
X124500000Y-106410000D01*
G36*
X124500000Y-106410000D02*
G01*
X130500000Y-106410000D01*
X130500000Y-106750000D01*
X124500000Y-106750000D01*
X124500000Y-106410000D01*
G37*
X179500000Y-104750000D02*
X185500000Y-104750000D01*
X185500000Y-104870000D01*
X179500000Y-104870000D01*
X179500000Y-104750000D01*
G36*
X179500000Y-104750000D02*
G01*
X185500000Y-104750000D01*
X185500000Y-104870000D01*
X179500000Y-104870000D01*
X179500000Y-104750000D01*
G37*
X115500000Y-104750000D02*
X117760000Y-104750000D01*
X117760000Y-106750000D01*
X115500000Y-106750000D01*
X115500000Y-104750000D01*
G36*
X115500000Y-104750000D02*
G01*
X117760000Y-104750000D01*
X117760000Y-106750000D01*
X115500000Y-106750000D01*
X115500000Y-104750000D01*
G37*
X124500000Y-117520000D02*
X130500000Y-117520000D01*
X130500000Y-117750000D01*
X124500000Y-117750000D01*
X124500000Y-117520000D01*
G36*
X124500000Y-117520000D02*
G01*
X130500000Y-117520000D01*
X130500000Y-117750000D01*
X124500000Y-117750000D01*
X124500000Y-117520000D01*
G37*
X151500000Y-115750000D02*
X153340000Y-115750000D01*
X153340000Y-117750000D01*
X151500000Y-117750000D01*
X151500000Y-115750000D01*
G36*
X151500000Y-115750000D02*
G01*
X153340000Y-115750000D01*
X153340000Y-117750000D01*
X151500000Y-117750000D01*
X151500000Y-115750000D01*
G37*
X160500000Y-104750000D02*
X162680000Y-104750000D01*
X162680000Y-106750000D01*
X160500000Y-106750000D01*
X160500000Y-104750000D01*
G36*
X160500000Y-104750000D02*
G01*
X162680000Y-104750000D01*
X162680000Y-106750000D01*
X160500000Y-106750000D01*
X160500000Y-104750000D01*
G37*
X124500000Y-115750000D02*
X126570000Y-115750000D01*
X126570000Y-117750000D01*
X124500000Y-117750000D01*
X124500000Y-115750000D01*
G36*
X124500000Y-115750000D02*
G01*
X126570000Y-115750000D01*
X126570000Y-117750000D01*
X124500000Y-117750000D01*
X124500000Y-115750000D01*
G37*
X165640000Y-93750000D02*
X166500000Y-93750000D01*
X166500000Y-95750000D01*
X165640000Y-95750000D01*
X165640000Y-93750000D01*
G36*
X165640000Y-93750000D02*
G01*
X166500000Y-93750000D01*
X166500000Y-95750000D01*
X165640000Y-95750000D01*
X165640000Y-93750000D01*
G37*
X115500000Y-115750000D02*
X117330000Y-115750000D01*
X117330000Y-117750000D01*
X115500000Y-117750000D01*
X115500000Y-115750000D01*
G36*
X115500000Y-115750000D02*
G01*
X117330000Y-115750000D01*
X117330000Y-117750000D01*
X115500000Y-117750000D01*
X115500000Y-115750000D01*
G37*
X115500000Y-117450000D02*
X121500000Y-117450000D01*
X121500000Y-117750000D01*
X115500000Y-117750000D01*
X115500000Y-117450000D01*
G36*
X115500000Y-117450000D02*
G01*
X121500000Y-117450000D01*
X121500000Y-117750000D01*
X115500000Y-117750000D01*
X115500000Y-117450000D01*
G37*
X115000000Y-73950000D02*
X117500000Y-73950000D01*
X117500000Y-75330000D01*
X115000000Y-75330000D01*
X115000000Y-73950000D01*
G36*
X115000000Y-73950000D02*
G01*
X117500000Y-73950000D01*
X117500000Y-75330000D01*
X115000000Y-75330000D01*
X115000000Y-73950000D01*
G37*
X110330000Y-115750000D02*
X112500000Y-115750000D01*
X112500000Y-117750000D01*
X110330000Y-117750000D01*
X110330000Y-115750000D01*
G36*
X110330000Y-115750000D02*
G01*
X112500000Y-115750000D01*
X112500000Y-117750000D01*
X110330000Y-117750000D01*
X110330000Y-115750000D01*
G37*
X146330000Y-104750000D02*
X148500000Y-104750000D01*
X148500000Y-106750000D01*
X146330000Y-106750000D01*
X146330000Y-104750000D01*
G36*
X146330000Y-104750000D02*
G01*
X148500000Y-104750000D01*
X148500000Y-106750000D01*
X146330000Y-106750000D01*
X146330000Y-104750000D01*
G37*
X142500000Y-115750000D02*
X148500000Y-115750000D01*
X148500000Y-116020000D01*
X142500000Y-116020000D01*
X142500000Y-115750000D01*
G36*
X142500000Y-115750000D02*
G01*
X148500000Y-115750000D01*
X148500000Y-116020000D01*
X142500000Y-116020000D01*
X142500000Y-115750000D01*
G37*
X142500000Y-104750000D02*
X144720000Y-104750000D01*
X144720000Y-106750000D01*
X142500000Y-106750000D01*
X142500000Y-104750000D01*
G36*
X142500000Y-104750000D02*
G01*
X144720000Y-104750000D01*
X144720000Y-106750000D01*
X142500000Y-106750000D01*
X142500000Y-104750000D01*
G37*
X179500000Y-95520000D02*
X185500000Y-95520000D01*
X185500000Y-95750000D01*
X179500000Y-95750000D01*
X179500000Y-95520000D01*
G36*
X179500000Y-95520000D02*
G01*
X185500000Y-95520000D01*
X185500000Y-95750000D01*
X179500000Y-95750000D01*
X179500000Y-95520000D01*
G37*
X160500000Y-104750000D02*
X166500000Y-104750000D01*
X166500000Y-104960000D01*
X160500000Y-104960000D01*
X160500000Y-104750000D01*
G36*
X160500000Y-104750000D02*
G01*
X166500000Y-104750000D01*
X166500000Y-104960000D01*
X160500000Y-104960000D01*
X160500000Y-104750000D01*
G37*
X142500000Y-106460000D02*
X148500000Y-106460000D01*
X148500000Y-106750000D01*
X142500000Y-106750000D01*
X142500000Y-106460000D01*
G36*
X142500000Y-106460000D02*
G01*
X148500000Y-106460000D01*
X148500000Y-106750000D01*
X142500000Y-106750000D01*
X142500000Y-106460000D01*
G37*
D11*
X106549771Y-129196634D02*
X106434765Y-129196634D01*
X106434765Y-127755100D01*
X102232067Y-127755100D01*
X102232067Y-129507869D01*
X103232574Y-129440552D01*
X103487533Y-129251223D01*
X103622533Y-129456335D01*
X103945036Y-128699070D01*
X104155037Y-129692993D01*
X104672492Y-127973357D01*
X104860000Y-129408999D01*
X105108752Y-128935727D01*
X105302497Y-129480000D01*
X105355004Y-129424776D01*
X106434765Y-129500087D01*
X106549771Y-129508080D01*
X106549771Y-131131473D01*
X102117062Y-131131473D01*
X102117062Y-129853979D01*
X102232067Y-129853979D01*
X102232067Y-131010512D01*
X106434765Y-131010512D01*
X106434765Y-129544424D01*
X105489956Y-129629408D01*
X105204997Y-129898097D01*
X105077502Y-129566769D01*
X104747492Y-130442363D01*
X104574991Y-129207838D01*
X104110037Y-130742140D01*
X103862536Y-129550999D01*
X103682533Y-129953329D01*
X103412581Y-129558888D01*
X103367582Y-129629408D01*
X102232068Y-129548050D01*
X102117062Y-129539845D01*
X102117062Y-127634139D01*
X106549771Y-127634139D01*
X106549771Y-129196634D01*
G36*
X106549771Y-129196634D02*
G01*
X106434765Y-129196634D01*
X106434765Y-127755100D01*
X102232067Y-127755100D01*
X102232067Y-129507869D01*
X103232574Y-129440552D01*
X103487533Y-129251223D01*
X103622533Y-129456335D01*
X103945036Y-128699070D01*
X104155037Y-129692993D01*
X104672492Y-127973357D01*
X104860000Y-129408999D01*
X105108752Y-128935727D01*
X105302497Y-129480000D01*
X105355004Y-129424776D01*
X106434765Y-129500087D01*
X106549771Y-129508080D01*
X106549771Y-131131473D01*
X102117062Y-131131473D01*
X102117062Y-129853979D01*
X102232067Y-129853979D01*
X102232067Y-131010512D01*
X106434765Y-131010512D01*
X106434765Y-129544424D01*
X105489956Y-129629408D01*
X105204997Y-129898097D01*
X105077502Y-129566769D01*
X104747492Y-130442363D01*
X104574991Y-129207838D01*
X104110037Y-130742140D01*
X103862536Y-129550999D01*
X103682533Y-129953329D01*
X103412581Y-129558888D01*
X103367582Y-129629408D01*
X102232068Y-129548050D01*
X102117062Y-129539845D01*
X102117062Y-127634139D01*
X106549771Y-127634139D01*
X106549771Y-129196634D01*
G37*
D10*
X110100000Y-104750000D02*
X112500000Y-104750000D01*
X112500000Y-106750000D01*
X110100000Y-106750000D01*
X110100000Y-104750000D01*
G36*
X110100000Y-104750000D02*
G01*
X112500000Y-104750000D01*
X112500000Y-106750000D01*
X110100000Y-106750000D01*
X110100000Y-104750000D01*
G37*
X96500000Y-106350000D02*
X102500000Y-106350000D01*
X102500000Y-106750000D01*
X96500000Y-106750000D01*
X96500000Y-106350000D01*
G36*
X96500000Y-106350000D02*
G01*
X102500000Y-106350000D01*
X102500000Y-106750000D01*
X96500000Y-106750000D01*
X96500000Y-106350000D01*
G37*
X169500000Y-115750000D02*
X175500000Y-115750000D01*
X175500000Y-116020000D01*
X169500000Y-116020000D01*
X169500000Y-115750000D01*
G36*
X169500000Y-115750000D02*
G01*
X175500000Y-115750000D01*
X175500000Y-116020000D01*
X169500000Y-116020000D01*
X169500000Y-115750000D01*
G37*
X184080000Y-115750000D02*
X185500000Y-115750000D01*
X185500000Y-117750000D01*
X184080000Y-117750000D01*
X184080000Y-115750000D01*
G36*
X184080000Y-115750000D02*
G01*
X185500000Y-115750000D01*
X185500000Y-117750000D01*
X184080000Y-117750000D01*
X184080000Y-115750000D01*
G37*
X175454600Y-93750000D02*
X175500000Y-93750000D01*
X175500000Y-95750000D01*
X175454600Y-95750000D01*
X175454600Y-93750000D01*
G36*
X175454600Y-93750000D02*
G01*
X175500000Y-93750000D01*
X175500000Y-95750000D01*
X175454600Y-95750000D01*
X175454600Y-93750000D01*
G37*
X96500000Y-115750000D02*
X97620000Y-115750000D01*
X97620000Y-117750000D01*
X96500000Y-117750000D01*
X96500000Y-115750000D01*
G36*
X96500000Y-115750000D02*
G01*
X97620000Y-115750000D01*
X97620000Y-117750000D01*
X96500000Y-117750000D01*
X96500000Y-115750000D01*
G37*
X124500000Y-104750000D02*
X130500000Y-104750000D01*
X130500000Y-104950000D01*
X124500000Y-104950000D01*
X124500000Y-104750000D01*
G36*
X124500000Y-104750000D02*
G01*
X130500000Y-104750000D01*
X130500000Y-104950000D01*
X124500000Y-104950000D01*
X124500000Y-104750000D01*
G37*
X160500000Y-95600000D02*
X166500000Y-95600000D01*
X166500000Y-95750000D01*
X160500000Y-95750000D01*
X160500000Y-95600000D01*
G36*
X160500000Y-95600000D02*
G01*
X166500000Y-95600000D01*
X166500000Y-95750000D01*
X160500000Y-95750000D01*
X160500000Y-95600000D01*
G37*
X106500000Y-106420000D02*
X112500000Y-106420000D01*
X112500000Y-106750000D01*
X106500000Y-106750000D01*
X106500000Y-106420000D01*
G36*
X106500000Y-106420000D02*
G01*
X112500000Y-106420000D01*
X112500000Y-106750000D01*
X106500000Y-106750000D01*
X106500000Y-106420000D01*
G37*
X184350000Y-104750000D02*
X185500000Y-104750000D01*
X185500000Y-106750000D01*
X184350000Y-106750000D01*
X184350000Y-104750000D01*
G36*
X184350000Y-104750000D02*
G01*
X185500000Y-104750000D01*
X185500000Y-106750000D01*
X184350000Y-106750000D01*
X184350000Y-104750000D01*
G37*
X142500000Y-117450000D02*
X148500000Y-117450000D01*
X148500000Y-117750000D01*
X142500000Y-117750000D01*
X142500000Y-117450000D01*
G36*
X142500000Y-117450000D02*
G01*
X148500000Y-117450000D01*
X148500000Y-117750000D01*
X142500000Y-117750000D01*
X142500000Y-117450000D01*
G37*
X156760000Y-93750000D02*
X157500000Y-93750000D01*
X157500000Y-95750000D01*
X156760000Y-95750000D01*
X156760000Y-93750000D01*
G36*
X156760000Y-93750000D02*
G01*
X157500000Y-93750000D01*
X157500000Y-95750000D01*
X156760000Y-95750000D01*
X156760000Y-93750000D01*
G37*
X173700000Y-115750000D02*
X175500000Y-115750000D01*
X175500000Y-117750000D01*
X173700000Y-117750000D01*
X173700000Y-115750000D01*
G36*
X173700000Y-115750000D02*
G01*
X175500000Y-115750000D01*
X175500000Y-117750000D01*
X173700000Y-117750000D01*
X173700000Y-115750000D01*
G37*
X142500000Y-104750000D02*
X148500000Y-104750000D01*
X148500000Y-104960000D01*
X142500000Y-104960000D01*
X142500000Y-104750000D01*
G36*
X142500000Y-104750000D02*
G01*
X148500000Y-104750000D01*
X148500000Y-104960000D01*
X142500000Y-104960000D01*
X142500000Y-104750000D01*
G37*
X133500000Y-115750000D02*
X139500000Y-115750000D01*
X139500000Y-115980000D01*
X133500000Y-115980000D01*
X133500000Y-115750000D01*
G36*
X133500000Y-115750000D02*
G01*
X139500000Y-115750000D01*
X139500000Y-115980000D01*
X133500000Y-115980000D01*
X133500000Y-115750000D01*
G37*
X106500000Y-115750000D02*
X112500000Y-115750000D01*
X112500000Y-115990000D01*
X106500000Y-115990000D01*
X106500000Y-115750000D01*
G36*
X106500000Y-115750000D02*
G01*
X112500000Y-115750000D01*
X112500000Y-115990000D01*
X106500000Y-115990000D01*
X106500000Y-115750000D01*
G37*
X151500000Y-104750000D02*
X157500000Y-104750000D01*
X157500000Y-105010000D01*
X151500000Y-105010000D01*
X151500000Y-104750000D01*
G36*
X151500000Y-104750000D02*
G01*
X157500000Y-104750000D01*
X157500000Y-105010000D01*
X151500000Y-105010000D01*
X151500000Y-104750000D01*
G37*
X151500000Y-104750000D02*
X153620000Y-104750000D01*
X153620000Y-106750000D01*
X151500000Y-106750000D01*
X151500000Y-104750000D01*
G36*
X151500000Y-104750000D02*
G01*
X153620000Y-104750000D01*
X153620000Y-106750000D01*
X151500000Y-106750000D01*
X151500000Y-104750000D01*
G37*
X169500000Y-104750000D02*
X175500000Y-104750000D01*
X175500000Y-105010000D01*
X169500000Y-105010000D01*
X169500000Y-104750000D01*
G36*
X169500000Y-104750000D02*
G01*
X175500000Y-104750000D01*
X175500000Y-105010000D01*
X169500000Y-105010000D01*
X169500000Y-104750000D01*
G37*
X146650000Y-115750000D02*
X148500000Y-115750000D01*
X148500000Y-117750000D01*
X146650000Y-117750000D01*
X146650000Y-115750000D01*
G36*
X146650000Y-115750000D02*
G01*
X148500000Y-115750000D01*
X148500000Y-117750000D01*
X146650000Y-117750000D01*
X146650000Y-115750000D01*
G37*
X169500000Y-117450000D02*
X175500000Y-117450000D01*
X175500000Y-117750000D01*
X169500000Y-117750000D01*
X169500000Y-117450000D01*
G36*
X169500000Y-117450000D02*
G01*
X175500000Y-117450000D01*
X175500000Y-117750000D01*
X169500000Y-117750000D01*
X169500000Y-117450000D01*
G37*
X124500000Y-104750000D02*
X126740000Y-104750000D01*
X126740000Y-106750000D01*
X124500000Y-106750000D01*
X124500000Y-104750000D01*
G36*
X124500000Y-104750000D02*
G01*
X126740000Y-104750000D01*
X126740000Y-106750000D01*
X124500000Y-106750000D01*
X124500000Y-104750000D01*
G37*
X179500000Y-115750000D02*
X181080000Y-115750000D01*
X181080000Y-117750000D01*
X179500000Y-117750000D01*
X179500000Y-115750000D01*
G36*
X179500000Y-115750000D02*
G01*
X181080000Y-115750000D01*
X181080000Y-117750000D01*
X179500000Y-117750000D01*
X179500000Y-115750000D01*
G37*
X164310000Y-104750000D02*
X166500000Y-104750000D01*
X166500000Y-106750000D01*
X164310000Y-106750000D01*
X164310000Y-104750000D01*
G36*
X164310000Y-104750000D02*
G01*
X166500000Y-104750000D01*
X166500000Y-106750000D01*
X164310000Y-106750000D01*
X164310000Y-104750000D01*
G37*
X128260000Y-104750000D02*
X130500000Y-104750000D01*
X130500000Y-106750000D01*
X128260000Y-106750000D01*
X128260000Y-104750000D01*
G36*
X128260000Y-104750000D02*
G01*
X130500000Y-104750000D01*
X130500000Y-106750000D01*
X128260000Y-106750000D01*
X128260000Y-104750000D01*
G37*
X137620000Y-115750000D02*
X139500000Y-115750000D01*
X139500000Y-117750000D01*
X137620000Y-117750000D01*
X137620000Y-115750000D01*
G36*
X137620000Y-115750000D02*
G01*
X139500000Y-115750000D01*
X139500000Y-117750000D01*
X137620000Y-117750000D01*
X137620000Y-115750000D01*
G37*
X155310000Y-104750000D02*
X157500000Y-104750000D01*
X157500000Y-106750000D01*
X155310000Y-106750000D01*
X155310000Y-104750000D01*
G36*
X155310000Y-104750000D02*
G01*
X157500000Y-104750000D01*
X157500000Y-106750000D01*
X155310000Y-106750000D01*
X155310000Y-104750000D01*
G37*
X185204600Y-93750000D02*
X185500000Y-93750000D01*
X185500000Y-95750000D01*
X185204600Y-95750000D01*
X185204600Y-93750000D01*
G36*
X185204600Y-93750000D02*
G01*
X185500000Y-93750000D01*
X185500000Y-95750000D01*
X185204600Y-95750000D01*
X185204600Y-93750000D01*
G37*
X151500000Y-106430000D02*
X157500000Y-106430000D01*
X157500000Y-106750000D01*
X151500000Y-106750000D01*
X151500000Y-106430000D01*
G36*
X151500000Y-106430000D02*
G01*
X157500000Y-106430000D01*
X157500000Y-106750000D01*
X151500000Y-106750000D01*
X151500000Y-106430000D01*
G37*
X102050000Y-104750000D02*
X102500000Y-104750000D01*
X102500000Y-106750000D01*
X102050000Y-106750000D01*
X102050000Y-104750000D01*
G36*
X102050000Y-104750000D02*
G01*
X102500000Y-104750000D01*
X102500000Y-106750000D01*
X102050000Y-106750000D01*
X102050000Y-104750000D01*
G37*
X133500000Y-106430000D02*
X139500000Y-106430000D01*
X139500000Y-106750000D01*
X133500000Y-106750000D01*
X133500000Y-106430000D01*
G36*
X133500000Y-106430000D02*
G01*
X139500000Y-106430000D01*
X139500000Y-106750000D01*
X133500000Y-106750000D01*
X133500000Y-106430000D01*
G37*
X96500000Y-104750000D02*
X96990000Y-104750000D01*
X96990000Y-106750000D01*
X96500000Y-106750000D01*
X96500000Y-104750000D01*
G36*
X96500000Y-104750000D02*
G01*
X96990000Y-104750000D01*
X96990000Y-106750000D01*
X96500000Y-106750000D01*
X96500000Y-104750000D01*
G37*
X133500000Y-104750000D02*
X139500000Y-104750000D01*
X139500000Y-105035400D01*
X133500000Y-105035400D01*
X133500000Y-104750000D01*
G36*
X133500000Y-104750000D02*
G01*
X139500000Y-104750000D01*
X139500000Y-105035400D01*
X133500000Y-105035400D01*
X133500000Y-104750000D01*
G37*
X179500000Y-93750000D02*
X185500000Y-93750000D01*
X185500000Y-93920000D01*
X179500000Y-93920000D01*
X179500000Y-93750000D01*
G36*
X179500000Y-93750000D02*
G01*
X185500000Y-93750000D01*
X185500000Y-93920000D01*
X179500000Y-93920000D01*
X179500000Y-93750000D01*
G37*
X106500000Y-104750000D02*
X108960000Y-104750000D01*
X108960000Y-106750000D01*
X106500000Y-106750000D01*
X106500000Y-104750000D01*
G36*
X106500000Y-104750000D02*
G01*
X108960000Y-104750000D01*
X108960000Y-106750000D01*
X106500000Y-106750000D01*
X106500000Y-104750000D01*
G37*
X115500000Y-104750000D02*
X121500000Y-104750000D01*
X121500000Y-104950000D01*
X115500000Y-104950000D01*
X115500000Y-104750000D01*
G36*
X115500000Y-104750000D02*
G01*
X121500000Y-104750000D01*
X121500000Y-104950000D01*
X115500000Y-104950000D01*
X115500000Y-104750000D01*
G37*
X142500000Y-115750000D02*
X144310000Y-115750000D01*
X144310000Y-117750000D01*
X142500000Y-117750000D01*
X142500000Y-115750000D01*
G36*
X142500000Y-115750000D02*
G01*
X144310000Y-115750000D01*
X144310000Y-117750000D01*
X142500000Y-117750000D01*
X142500000Y-115750000D01*
G37*
X160500000Y-117450000D02*
X166500000Y-117450000D01*
X166500000Y-117750000D01*
X160500000Y-117750000D01*
X160500000Y-117450000D01*
G36*
X160500000Y-117450000D02*
G01*
X166500000Y-117450000D01*
X166500000Y-117750000D01*
X160500000Y-117750000D01*
X160500000Y-117450000D01*
G37*
X179500000Y-115750000D02*
X185500000Y-115750000D01*
X185500000Y-115890000D01*
X179500000Y-115890000D01*
X179500000Y-115750000D01*
G36*
X179500000Y-115750000D02*
G01*
X185500000Y-115750000D01*
X185500000Y-115890000D01*
X179500000Y-115890000D01*
X179500000Y-115750000D01*
G37*
X151500000Y-117460000D02*
X157500000Y-117460000D01*
X157500000Y-117750000D01*
X151500000Y-117750000D01*
X151500000Y-117460000D01*
G36*
X151500000Y-117460000D02*
G01*
X157500000Y-117460000D01*
X157500000Y-117750000D01*
X151500000Y-117750000D01*
X151500000Y-117460000D01*
G37*
X151500000Y-93750000D02*
X157500000Y-93750000D01*
X157500000Y-94030000D01*
X151500000Y-94030000D01*
X151500000Y-93750000D01*
G36*
X151500000Y-93750000D02*
G01*
X157500000Y-93750000D01*
X157500000Y-94030000D01*
X151500000Y-94030000D01*
X151500000Y-93750000D01*
G37*
X151500000Y-95410000D02*
X157500000Y-95410000D01*
X157500000Y-95750000D01*
X151500000Y-95750000D01*
X151500000Y-95410000D01*
G36*
X151500000Y-95410000D02*
G01*
X157500000Y-95410000D01*
X157500000Y-95750000D01*
X151500000Y-95750000D01*
X151500000Y-95410000D01*
G37*
X133500000Y-104750000D02*
X135620000Y-104750000D01*
X135620000Y-106750000D01*
X133500000Y-106750000D01*
X133500000Y-104750000D01*
G36*
X133500000Y-104750000D02*
G01*
X135620000Y-104750000D01*
X135620000Y-106750000D01*
X133500000Y-106750000D01*
X133500000Y-104750000D01*
G37*
X119670000Y-115750000D02*
X121500000Y-115750000D01*
X121500000Y-117750000D01*
X119670000Y-117750000D01*
X119670000Y-115750000D01*
G36*
X119670000Y-115750000D02*
G01*
X121500000Y-115750000D01*
X121500000Y-117750000D01*
X119670000Y-117750000D01*
X119670000Y-115750000D01*
G37*
X160500000Y-93750000D02*
X166500000Y-93750000D01*
X166500000Y-94010000D01*
X160500000Y-94010000D01*
X160500000Y-93750000D01*
G36*
X160500000Y-93750000D02*
G01*
X166500000Y-93750000D01*
X166500000Y-94010000D01*
X160500000Y-94010000D01*
X160500000Y-93750000D01*
G37*
X160500000Y-115750000D02*
X166500000Y-115750000D01*
X166500000Y-116020000D01*
X160500000Y-116020000D01*
X160500000Y-115750000D01*
G36*
X160500000Y-115750000D02*
G01*
X166500000Y-115750000D01*
X166500000Y-116020000D01*
X160500000Y-116020000D01*
X160500000Y-115750000D01*
G37*
X179500000Y-106610000D02*
X185500000Y-106610000D01*
X185500000Y-106750000D01*
X179500000Y-106750000D01*
X179500000Y-106610000D01*
G36*
X179500000Y-106610000D02*
G01*
X185500000Y-106610000D01*
X185500000Y-106750000D01*
X179500000Y-106750000D01*
X179500000Y-106610000D01*
G37*
X124500000Y-115750000D02*
X130500000Y-115750000D01*
X130500000Y-116040000D01*
X124500000Y-116040000D01*
X124500000Y-115750000D01*
G36*
X124500000Y-115750000D02*
G01*
X130500000Y-115750000D01*
X130500000Y-116040000D01*
X124500000Y-116040000D01*
X124500000Y-115750000D01*
G37*
X151500000Y-115750000D02*
X157500000Y-115750000D01*
X157500000Y-115980000D01*
X151500000Y-115980000D01*
X151500000Y-115750000D01*
G36*
X151500000Y-115750000D02*
G01*
X157500000Y-115750000D01*
X157500000Y-115980000D01*
X151500000Y-115980000D01*
X151500000Y-115750000D01*
G37*
X169500000Y-93750000D02*
X169560000Y-93750000D01*
X169560000Y-95750000D01*
X169500000Y-95750000D01*
X169500000Y-93750000D01*
G36*
X169500000Y-93750000D02*
G01*
X169560000Y-93750000D01*
X169560000Y-95750000D01*
X169500000Y-95750000D01*
X169500000Y-93750000D01*
G37*
G36*
X172830644Y-106050152D02*
G01*
X172172715Y-106050152D01*
X172172715Y-105828807D01*
X172830644Y-105828807D01*
X172830644Y-106050152D01*
G37*
G36*
X172830644Y-105623948D02*
G01*
X172172715Y-105623948D01*
X172172715Y-105395276D01*
X172830644Y-105395276D01*
X172830644Y-105623948D01*
G37*
G36*
X173453118Y-106672321D02*
G01*
X171546883Y-106672321D01*
X171546883Y-106050152D01*
X171950454Y-106050152D01*
X171950674Y-106063700D01*
X171951333Y-106076807D01*
X171952432Y-106089476D01*
X171953969Y-106101707D01*
X171958355Y-106124857D01*
X171964488Y-106146261D01*
X171972364Y-106165924D01*
X171981978Y-106183852D01*
X171993325Y-106200049D01*
X172006401Y-106214520D01*
X172021201Y-106227270D01*
X172037722Y-106238304D01*
X172055958Y-106247628D01*
X172075905Y-106255245D01*
X172097559Y-106261160D01*
X172120915Y-106265380D01*
X172133230Y-106266855D01*
X172145968Y-106267908D01*
X172159130Y-106268539D01*
X172172715Y-106268750D01*
X172830644Y-106268750D01*
X172844058Y-106268539D01*
X172857051Y-106267908D01*
X172869623Y-106266855D01*
X172881774Y-106265380D01*
X172904810Y-106261160D01*
X172926156Y-106255245D01*
X172945811Y-106247628D01*
X172963770Y-106238304D01*
X172980031Y-106227270D01*
X172994592Y-106214520D01*
X173007450Y-106200049D01*
X173018603Y-106183852D01*
X173028047Y-106165924D01*
X173035780Y-106146261D01*
X173041799Y-106124857D01*
X173046101Y-106101707D01*
X173047608Y-106089476D01*
X173048685Y-106076807D01*
X173049331Y-106063700D01*
X173049547Y-106050152D01*
X173049547Y-105888952D01*
X173048620Y-105871382D01*
X173045834Y-105854399D01*
X173041181Y-105838006D01*
X173034654Y-105822212D01*
X173026246Y-105807021D01*
X173015948Y-105792440D01*
X173008030Y-105783062D01*
X172999266Y-105773958D01*
X172989655Y-105765132D01*
X172979194Y-105756585D01*
X172967881Y-105748319D01*
X172955714Y-105740336D01*
X172942691Y-105732636D01*
X172955714Y-105725198D01*
X172967881Y-105717309D01*
X172979194Y-105708969D01*
X172989655Y-105700179D01*
X172999266Y-105690937D01*
X173008030Y-105681245D01*
X173015948Y-105671102D01*
X173023024Y-105660508D01*
X173029258Y-105649464D01*
X173034654Y-105637968D01*
X173039214Y-105626022D01*
X173042940Y-105613625D01*
X173045834Y-105600778D01*
X173047898Y-105587479D01*
X173049135Y-105573730D01*
X173049547Y-105559529D01*
X173049547Y-105395276D01*
X173048417Y-105372873D01*
X173045100Y-105351080D01*
X173039706Y-105330011D01*
X173032345Y-105309781D01*
X173023127Y-105290508D01*
X173012163Y-105272304D01*
X172999561Y-105255287D01*
X172985433Y-105239571D01*
X172969888Y-105225272D01*
X172953036Y-105212505D01*
X172934988Y-105201386D01*
X172915852Y-105192030D01*
X172895740Y-105184552D01*
X172874762Y-105179067D01*
X172853026Y-105175692D01*
X172830644Y-105174542D01*
X172172715Y-105174542D01*
X172150295Y-105175675D01*
X172128453Y-105179005D01*
X172107309Y-105184421D01*
X172086982Y-105191815D01*
X172067592Y-105201079D01*
X172049260Y-105212103D01*
X172032105Y-105224779D01*
X172016247Y-105238999D01*
X172001806Y-105254653D01*
X171988901Y-105271633D01*
X171977653Y-105289831D01*
X171968181Y-105309137D01*
X171960605Y-105329444D01*
X171955045Y-105350641D01*
X171951622Y-105372622D01*
X171950454Y-105395276D01*
X171950454Y-105559529D01*
X171950883Y-105573730D01*
X171952165Y-105587479D01*
X171954296Y-105600778D01*
X171957271Y-105613625D01*
X171961085Y-105626022D01*
X171965733Y-105637968D01*
X171971210Y-105649464D01*
X171977512Y-105660508D01*
X171984632Y-105671102D01*
X171992567Y-105681245D01*
X172001312Y-105690937D01*
X172010861Y-105700179D01*
X172021210Y-105708969D01*
X172032353Y-105717309D01*
X172044287Y-105725198D01*
X172057005Y-105732636D01*
X172044287Y-105740336D01*
X172032353Y-105748319D01*
X172021210Y-105756585D01*
X172010861Y-105765132D01*
X172001312Y-105773958D01*
X171992567Y-105783062D01*
X171984632Y-105792440D01*
X171974258Y-105807021D01*
X171965733Y-105822212D01*
X171962952Y-105828807D01*
X171959073Y-105838006D01*
X171954296Y-105854399D01*
X171951417Y-105871382D01*
X171950454Y-105888952D01*
X171950454Y-106050152D01*
X171546883Y-106050152D01*
X171546883Y-104770971D01*
X173453118Y-104770971D01*
X173453118Y-106672321D01*
G37*
G36*
X128610349Y-117672321D02*
G01*
X126401558Y-117672321D01*
X126401558Y-116174542D01*
X126805129Y-116174542D01*
X126805129Y-116395276D01*
X127025558Y-116395276D01*
X127025558Y-117050152D01*
X126805129Y-117050152D01*
X126805129Y-117268750D01*
X127463058Y-117268750D01*
X127463058Y-117050152D01*
X127244461Y-117050152D01*
X127244461Y-116174542D01*
X127548849Y-116174542D01*
X127548849Y-116395276D01*
X127769278Y-116395276D01*
X127769278Y-117050152D01*
X127548849Y-117050152D01*
X127548849Y-117268750D01*
X128206778Y-117268750D01*
X128206778Y-117050152D01*
X127988180Y-117050152D01*
X127988180Y-116174542D01*
X127548849Y-116174542D01*
X127244461Y-116174542D01*
X126805129Y-116174542D01*
X126401558Y-116174542D01*
X126401558Y-115770971D01*
X128610349Y-115770971D01*
X128610349Y-117672321D01*
G37*
G36*
X181630740Y-94646228D02*
G01*
X181116853Y-94646228D01*
X181116853Y-94466221D01*
X181630740Y-94466221D01*
X181630740Y-94646228D01*
G37*
G36*
X185435582Y-95642277D02*
G01*
X179613755Y-95642277D01*
X179613755Y-95274420D01*
X182547383Y-95274420D01*
X182709561Y-95274420D01*
X183155793Y-94289633D01*
X183274983Y-94289633D01*
X183274983Y-95165000D01*
X183449861Y-95165000D01*
X184013573Y-95165000D01*
X184247314Y-95165000D01*
X184534299Y-94825013D01*
X184825437Y-95165000D01*
X185067725Y-95165000D01*
X184663015Y-94702404D01*
X185057956Y-94289633D01*
X184822750Y-94289633D01*
X184545534Y-94592250D01*
X184265388Y-94289633D01*
X184023343Y-94289633D01*
X184420970Y-94703625D01*
X184013573Y-95165000D01*
X183449861Y-95165000D01*
X183449861Y-94821106D01*
X183973517Y-94821106D01*
X183973517Y-94646228D01*
X183449861Y-94646228D01*
X183449861Y-94466221D01*
X183977670Y-94466221D01*
X183977670Y-94289633D01*
X183274983Y-94289633D01*
X183155793Y-94289633D01*
X183198291Y-94195844D01*
X183035869Y-94195844D01*
X182547383Y-95274420D01*
X179613755Y-95274420D01*
X179613755Y-94990122D01*
X179981612Y-94990122D01*
X179981785Y-95000960D01*
X179982302Y-95011446D01*
X179983163Y-95021581D01*
X179984369Y-95031366D01*
X179987811Y-95049885D01*
X179992626Y-95067009D01*
X179998813Y-95082739D01*
X180006368Y-95097081D01*
X180015290Y-95110039D01*
X180025576Y-95121616D01*
X180037225Y-95131816D01*
X180050234Y-95140643D01*
X180064601Y-95148102D01*
X180080325Y-95154196D01*
X180097402Y-95158928D01*
X180115830Y-95162304D01*
X180125551Y-95163484D01*
X180135609Y-95164326D01*
X180146003Y-95164831D01*
X180156734Y-95165000D01*
X180830112Y-95165000D01*
X180830112Y-94990122D01*
X180156734Y-94990122D01*
X180156734Y-94466221D01*
X180830112Y-94466221D01*
X180830112Y-94289633D01*
X180941975Y-94289633D01*
X180941975Y-94466221D01*
X180941975Y-95165000D01*
X181116853Y-95165000D01*
X181116853Y-94821106D01*
X181630740Y-94821106D01*
X181641471Y-94820937D01*
X181651866Y-94820432D01*
X181661923Y-94819590D01*
X181671644Y-94818410D01*
X181690073Y-94815034D01*
X181707150Y-94810302D01*
X181722873Y-94804208D01*
X181737240Y-94796750D01*
X181750250Y-94787922D01*
X181761898Y-94777722D01*
X181772185Y-94766145D01*
X181781107Y-94753187D01*
X181788662Y-94738845D01*
X181794848Y-94723115D01*
X181799664Y-94705991D01*
X181803106Y-94687472D01*
X181804311Y-94677687D01*
X181805173Y-94667552D01*
X181805690Y-94657066D01*
X181805862Y-94646228D01*
X181805862Y-94466221D01*
X181804958Y-94448299D01*
X181802304Y-94430864D01*
X181797989Y-94414008D01*
X181792101Y-94397825D01*
X181784726Y-94382406D01*
X181775955Y-94367843D01*
X181765874Y-94354230D01*
X181754571Y-94341657D01*
X181742135Y-94330218D01*
X181728654Y-94320004D01*
X181714215Y-94311109D01*
X181698907Y-94303624D01*
X181682817Y-94297641D01*
X181666034Y-94293254D01*
X181648646Y-94290554D01*
X181630740Y-94289633D01*
X181854222Y-94289633D01*
X182202757Y-94859940D01*
X182202757Y-95165000D01*
X182379344Y-95165000D01*
X182379344Y-94859940D01*
X182733497Y-94289633D01*
X182536148Y-94289633D01*
X182293859Y-94681399D01*
X182057188Y-94289633D01*
X181854222Y-94289633D01*
X181630740Y-94289633D01*
X180941975Y-94289633D01*
X180830112Y-94289633D01*
X180156734Y-94289633D01*
X180146003Y-94289858D01*
X180135609Y-94290524D01*
X180125551Y-94291623D01*
X180115830Y-94293144D01*
X180097402Y-94297411D01*
X180080325Y-94303246D01*
X180064601Y-94310568D01*
X180050234Y-94319296D01*
X180037225Y-94329350D01*
X180025576Y-94340649D01*
X180015290Y-94353114D01*
X180006368Y-94366663D01*
X179998813Y-94381215D01*
X179992626Y-94396692D01*
X179987811Y-94413011D01*
X179984369Y-94430092D01*
X179982302Y-94447856D01*
X179981612Y-94466221D01*
X179981612Y-94990122D01*
X179613755Y-94990122D01*
X179613755Y-93827987D01*
X185435582Y-93827987D01*
X185435582Y-95642277D01*
G37*
G36*
X164452202Y-106672321D02*
G01*
X162545967Y-106672321D01*
X162545967Y-105174542D01*
X162949538Y-105174542D01*
X162949538Y-105395276D01*
X163750960Y-105395276D01*
X162966940Y-106268750D01*
X163252094Y-106268750D01*
X164048631Y-105379400D01*
X164048631Y-105174542D01*
X162949538Y-105174542D01*
X162545967Y-105174542D01*
X162545967Y-104770971D01*
X164452202Y-104770971D01*
X164452202Y-106672321D01*
G37*
G36*
X146792004Y-117672321D02*
G01*
X144180518Y-117672321D01*
X144180518Y-116174542D01*
X144584089Y-116174542D01*
X144584089Y-116395276D01*
X144804518Y-116395276D01*
X144804518Y-117050152D01*
X144584089Y-117050152D01*
X144584089Y-117268750D01*
X145242018Y-117268750D01*
X145308574Y-117268750D01*
X146169530Y-117268750D01*
X146183106Y-117268539D01*
X146196239Y-117267908D01*
X146208933Y-117266855D01*
X146221186Y-117265380D01*
X146244377Y-117261160D01*
X146265816Y-117255245D01*
X146285509Y-117247628D01*
X146303461Y-117238304D01*
X146319678Y-117227270D01*
X146334165Y-117214520D01*
X146346928Y-117200049D01*
X146357972Y-117183852D01*
X146367302Y-117165924D01*
X146374923Y-117146261D01*
X146380842Y-117124857D01*
X146385063Y-117101707D01*
X146386538Y-117089476D01*
X146387591Y-117076807D01*
X146388223Y-117063700D01*
X146388433Y-117050152D01*
X146388433Y-116892616D01*
X146388021Y-116876592D01*
X146386784Y-116861683D01*
X146384720Y-116847832D01*
X146381826Y-116834980D01*
X146378100Y-116823069D01*
X146370947Y-116806839D01*
X146361910Y-116792400D01*
X146350981Y-116779554D01*
X146338152Y-116768106D01*
X146323417Y-116757860D01*
X146312530Y-116751599D01*
X146300791Y-116745727D01*
X146288196Y-116740186D01*
X146281577Y-116737521D01*
X146294240Y-116732763D01*
X146306018Y-116727589D01*
X146316921Y-116721913D01*
X146331654Y-116712270D01*
X146344469Y-116701012D01*
X146355398Y-116687848D01*
X146364474Y-116672487D01*
X146369510Y-116660882D01*
X146373745Y-116648085D01*
X146377189Y-116634009D01*
X146379852Y-116618568D01*
X146381742Y-116601676D01*
X146382869Y-116583246D01*
X146383243Y-116563193D01*
X146383243Y-116395276D01*
X146383048Y-116382475D01*
X146382460Y-116370006D01*
X146380096Y-116346083D01*
X146376131Y-116323549D01*
X146370544Y-116302440D01*
X146363315Y-116282796D01*
X146354424Y-116264657D01*
X146343849Y-116248060D01*
X146331570Y-116233045D01*
X146317567Y-116219651D01*
X146301819Y-116207917D01*
X146284305Y-116197881D01*
X146265005Y-116189583D01*
X146243898Y-116183060D01*
X146220963Y-116178354D01*
X146208805Y-116176693D01*
X146196181Y-116175501D01*
X146183091Y-116174782D01*
X146169530Y-116174542D01*
X145310406Y-116174542D01*
X145310406Y-116395276D01*
X146169530Y-116395276D01*
X146169530Y-116620285D01*
X145315596Y-116620285D01*
X145315596Y-116838882D01*
X146169530Y-116838882D01*
X146169530Y-117050152D01*
X145308574Y-117050152D01*
X145308574Y-117268750D01*
X145242018Y-117268750D01*
X145242018Y-117050152D01*
X145023421Y-117050152D01*
X145023421Y-116174542D01*
X144584089Y-116174542D01*
X144180518Y-116174542D01*
X144180518Y-115770971D01*
X146792004Y-115770971D01*
X146792004Y-117672321D01*
G37*
G36*
X182774041Y-116988921D02*
G01*
X182261619Y-116988921D01*
X182261619Y-116467640D01*
X182774041Y-116467640D01*
X182774041Y-116988921D01*
G37*
G36*
X184143801Y-117530068D02*
G01*
X180904560Y-117530068D01*
X180904560Y-116291935D01*
X181271703Y-116291935D01*
X181271703Y-117162925D01*
X181974390Y-117162925D01*
X181974390Y-116988921D01*
X182086497Y-116988921D01*
X182087340Y-117007856D01*
X182089824Y-117025982D01*
X182093889Y-117043242D01*
X182099469Y-117059580D01*
X182106501Y-117074937D01*
X182114923Y-117089259D01*
X182124671Y-117102486D01*
X182135682Y-117114563D01*
X182147891Y-117125433D01*
X182161237Y-117135038D01*
X182175655Y-117143321D01*
X182191083Y-117150227D01*
X182207456Y-117155697D01*
X182224712Y-117159674D01*
X182242788Y-117162102D01*
X182261619Y-117162925D01*
X182948919Y-117162925D01*
X182948919Y-116291935D01*
X183102547Y-116291935D01*
X183102547Y-117162925D01*
X183277425Y-117162925D01*
X183277425Y-116291935D01*
X183102547Y-116291935D01*
X182948919Y-116291935D01*
X182948919Y-116043081D01*
X183425192Y-116043081D01*
X183425192Y-116988921D01*
X183426035Y-117007415D01*
X183428519Y-117025214D01*
X183432582Y-117042249D01*
X183438160Y-117058452D01*
X183445189Y-117073753D01*
X183453605Y-117088084D01*
X183463346Y-117101376D01*
X183474346Y-117113561D01*
X183486543Y-117124569D01*
X183499872Y-117134333D01*
X183514271Y-117142783D01*
X183529675Y-117149851D01*
X183546020Y-117155467D01*
X183563244Y-117159564D01*
X183581282Y-117162073D01*
X183600070Y-117162925D01*
X183776658Y-117162925D01*
X183776658Y-116988921D01*
X183600070Y-116988921D01*
X183600070Y-116453544D01*
X183776658Y-116453544D01*
X183776658Y-116291935D01*
X183600070Y-116291935D01*
X183600070Y-116043081D01*
X183425192Y-116043081D01*
X182948919Y-116043081D01*
X182774041Y-116043081D01*
X182774041Y-116291935D01*
X182261619Y-116291935D01*
X182244197Y-116292805D01*
X182227167Y-116295360D01*
X182210631Y-116299522D01*
X182194689Y-116305210D01*
X182179443Y-116312345D01*
X182164994Y-116320847D01*
X182151441Y-116330636D01*
X182138887Y-116341633D01*
X182127432Y-116353757D01*
X182117177Y-116366930D01*
X182108223Y-116381071D01*
X182100671Y-116396100D01*
X182094621Y-116411938D01*
X182090175Y-116428506D01*
X182087433Y-116445722D01*
X182086497Y-116463508D01*
X182086497Y-116467640D01*
X182086497Y-116988921D01*
X181974390Y-116988921D01*
X181446581Y-116988921D01*
X181446581Y-116820750D01*
X181970238Y-116820750D01*
X181970238Y-116646747D01*
X181446581Y-116646747D01*
X181446581Y-116467640D01*
X181973168Y-116467640D01*
X181973168Y-116291935D01*
X181271703Y-116291935D01*
X180904560Y-116291935D01*
X180904560Y-115675938D01*
X184143801Y-115675938D01*
X184143801Y-117530068D01*
G37*
G36*
X119200672Y-117050152D02*
G01*
X118542742Y-117050152D01*
X118542742Y-116395276D01*
X119200672Y-116395276D01*
X119200672Y-117050152D01*
G37*
G36*
X119823145Y-117672321D02*
G01*
X117145103Y-117672321D01*
X117145103Y-116174542D01*
X117548674Y-116174542D01*
X117548674Y-116395276D01*
X117769103Y-116395276D01*
X117769103Y-117050152D01*
X117548674Y-117050152D01*
X117548674Y-117268750D01*
X118206603Y-117268750D01*
X118206603Y-117050152D01*
X118323840Y-117050152D01*
X118324055Y-117063700D01*
X118324702Y-117076807D01*
X118325778Y-117089476D01*
X118327285Y-117101707D01*
X118331588Y-117124857D01*
X118337607Y-117146261D01*
X118345340Y-117165924D01*
X118354784Y-117183852D01*
X118365936Y-117200049D01*
X118378794Y-117214520D01*
X118393356Y-117227270D01*
X118409617Y-117238304D01*
X118427576Y-117247628D01*
X118447230Y-117255245D01*
X118468577Y-117261160D01*
X118491612Y-117265380D01*
X118503763Y-117266855D01*
X118516335Y-117267908D01*
X118529329Y-117268539D01*
X118542742Y-117268750D01*
X119200672Y-117268750D01*
X119214086Y-117268539D01*
X119227079Y-117267908D01*
X119239651Y-117266855D01*
X119251802Y-117265380D01*
X119274838Y-117261160D01*
X119296184Y-117255245D01*
X119315838Y-117247628D01*
X119333797Y-117238304D01*
X119350059Y-117227270D01*
X119364620Y-117214520D01*
X119377478Y-117200049D01*
X119388630Y-117183852D01*
X119398074Y-117165924D01*
X119405807Y-117146261D01*
X119411826Y-117124857D01*
X119416129Y-117101707D01*
X119417636Y-117089476D01*
X119418712Y-117076807D01*
X119419359Y-117063700D01*
X119419574Y-117050152D01*
X119419574Y-116395276D01*
X119418444Y-116372873D01*
X119415127Y-116351080D01*
X119409733Y-116330011D01*
X119402372Y-116309781D01*
X119393155Y-116290508D01*
X119382190Y-116272304D01*
X119369589Y-116255287D01*
X119355461Y-116239571D01*
X119339916Y-116225272D01*
X119323064Y-116212505D01*
X119305015Y-116201386D01*
X119285880Y-116192030D01*
X119265768Y-116184552D01*
X119244789Y-116179067D01*
X119223054Y-116175692D01*
X119200672Y-116174542D01*
X118542742Y-116174542D01*
X118520964Y-116175655D01*
X118499677Y-116178930D01*
X118479007Y-116184264D01*
X118459080Y-116191557D01*
X118440022Y-116200710D01*
X118421960Y-116211620D01*
X118405020Y-116224187D01*
X118389327Y-116238312D01*
X118375009Y-116253892D01*
X118362190Y-116270828D01*
X118350997Y-116289019D01*
X118341557Y-116308365D01*
X118333995Y-116328764D01*
X118328437Y-116350116D01*
X118325010Y-116372320D01*
X118323840Y-116395276D01*
X118323840Y-117050152D01*
X118206603Y-117050152D01*
X117988006Y-117050152D01*
X117988006Y-116174542D01*
X117548674Y-116174542D01*
X117145103Y-116174542D01*
X117145103Y-115770971D01*
X119823145Y-115770971D01*
X119823145Y-117672321D01*
G37*
G36*
X109825453Y-116623948D02*
G01*
X109164166Y-116623948D01*
X109164166Y-116395276D01*
X109825453Y-116395276D01*
X109825453Y-116623948D01*
G37*
G36*
X110446095Y-117672321D02*
G01*
X108543524Y-117672321D01*
X108543524Y-117268750D01*
X108947095Y-117268750D01*
X109825453Y-117268750D01*
X109838110Y-117268475D01*
X109850431Y-117267660D01*
X109874050Y-117264453D01*
X109896276Y-117259224D01*
X109917073Y-117252068D01*
X109936407Y-117243077D01*
X109954243Y-117232347D01*
X109970545Y-117219973D01*
X109985280Y-117206048D01*
X109998412Y-117190667D01*
X110009906Y-117173924D01*
X110019727Y-117155913D01*
X110027841Y-117136730D01*
X110034213Y-117116467D01*
X110038807Y-117095221D01*
X110041589Y-117073084D01*
X110042524Y-117050152D01*
X110042524Y-116395276D01*
X110041683Y-116371465D01*
X110039157Y-116348625D01*
X110034945Y-116326836D01*
X110029043Y-116306175D01*
X110021449Y-116286720D01*
X110012160Y-116268548D01*
X110001173Y-116251737D01*
X109988485Y-116236366D01*
X109974095Y-116222511D01*
X109957999Y-116210251D01*
X109940195Y-116199664D01*
X109920679Y-116190828D01*
X109899450Y-116183819D01*
X109876505Y-116178717D01*
X109864387Y-116176905D01*
X109851840Y-116175598D01*
X109838862Y-116174807D01*
X109825453Y-116174542D01*
X109164166Y-116174542D01*
X109150757Y-116174782D01*
X109137779Y-116175501D01*
X109125232Y-116176693D01*
X109113115Y-116178354D01*
X109090169Y-116183060D01*
X109068940Y-116189583D01*
X109049424Y-116197881D01*
X109031620Y-116207917D01*
X109015524Y-116219651D01*
X109001134Y-116233045D01*
X108988447Y-116248060D01*
X108977460Y-116264657D01*
X108968170Y-116282796D01*
X108960576Y-116302440D01*
X108954674Y-116323549D01*
X108950462Y-116346083D01*
X108947936Y-116370006D01*
X108947305Y-116382475D01*
X108947095Y-116395276D01*
X108947095Y-116623948D01*
X108947325Y-116636750D01*
X108948013Y-116649219D01*
X108950750Y-116673141D01*
X108955276Y-116695676D01*
X108961564Y-116716785D01*
X108969585Y-116736428D01*
X108979311Y-116754568D01*
X108990715Y-116771164D01*
X109003767Y-116786179D01*
X109018440Y-116799573D01*
X109034706Y-116811308D01*
X109052536Y-116821343D01*
X109071902Y-116829642D01*
X109092776Y-116836164D01*
X109115131Y-116840871D01*
X109138936Y-116843723D01*
X109151375Y-116844442D01*
X109164166Y-116844683D01*
X109825453Y-116844683D01*
X109825453Y-117050152D01*
X108947095Y-117050152D01*
X108947095Y-117268750D01*
X108543524Y-117268750D01*
X108543524Y-115770971D01*
X110446095Y-115770971D01*
X110446095Y-117672321D01*
G37*
G36*
X99734962Y-105990122D02*
G01*
X99208618Y-105990122D01*
X99208618Y-105821106D01*
X99734962Y-105821106D01*
X99734962Y-105990122D01*
G37*
G36*
X102230174Y-106548488D02*
G01*
X96784237Y-106548488D01*
X96784237Y-105289633D01*
X97152094Y-105289633D01*
X97152094Y-105466221D01*
X97504780Y-105466221D01*
X97504780Y-106165000D01*
X97678437Y-106165000D01*
X97678437Y-105466221D01*
X98031368Y-105466221D01*
X98031368Y-105289633D01*
X98134927Y-105289633D01*
X98134927Y-106165000D01*
X98309805Y-106165000D01*
X98309805Y-105466221D01*
X98762142Y-105466221D01*
X98762142Y-105641587D01*
X98938486Y-105641587D01*
X98938486Y-105466221D01*
X98938313Y-105455356D01*
X98937796Y-105444837D01*
X98936934Y-105434663D01*
X98935727Y-105424833D01*
X98932279Y-105406209D01*
X98927453Y-105388964D01*
X98921248Y-105373098D01*
X98913666Y-105358613D01*
X98904706Y-105345507D01*
X98894369Y-105333780D01*
X98882656Y-105323433D01*
X98869566Y-105314466D01*
X98855100Y-105306878D01*
X98839258Y-105300670D01*
X98822041Y-105295841D01*
X98803449Y-105292392D01*
X98793638Y-105291185D01*
X98783483Y-105290323D01*
X98772984Y-105289806D01*
X98762142Y-105289633D01*
X99033496Y-105289633D01*
X99033496Y-105466221D01*
X99734962Y-105466221D01*
X99734962Y-105646228D01*
X99208618Y-105646228D01*
X99189787Y-105647070D01*
X99171711Y-105649555D01*
X99154455Y-105653618D01*
X99138082Y-105659195D01*
X99122654Y-105666224D01*
X99108236Y-105674641D01*
X99094890Y-105684381D01*
X99082681Y-105695382D01*
X99071670Y-105707578D01*
X99061922Y-105720908D01*
X99053500Y-105735306D01*
X99046468Y-105750710D01*
X99040888Y-105767056D01*
X99036823Y-105784279D01*
X99034339Y-105802317D01*
X99033496Y-105821106D01*
X99033496Y-105990122D01*
X99034339Y-106008709D01*
X99036823Y-106026597D01*
X99040888Y-106043718D01*
X99046468Y-106060002D01*
X99053500Y-106075380D01*
X99061922Y-106089783D01*
X99071670Y-106103142D01*
X99082681Y-106115388D01*
X99094890Y-106126452D01*
X99108236Y-106136264D01*
X99122654Y-106144757D01*
X99138082Y-106151860D01*
X99154455Y-106157505D01*
X99171711Y-106161623D01*
X99189787Y-106164144D01*
X99208618Y-106165000D01*
X99911305Y-106165000D01*
X99911305Y-105728049D01*
X100034403Y-105728049D01*
X100034997Y-105751202D01*
X100036760Y-105774066D01*
X100039663Y-105796613D01*
X100043677Y-105818812D01*
X100048773Y-105840636D01*
X100054921Y-105862054D01*
X100062094Y-105883037D01*
X100070261Y-105903557D01*
X100079395Y-105923582D01*
X100089465Y-105943086D01*
X100100444Y-105962037D01*
X100112302Y-105980407D01*
X100125009Y-105998166D01*
X100138538Y-106015286D01*
X100152859Y-106031736D01*
X100167943Y-106047488D01*
X100183761Y-106062512D01*
X100200285Y-106076780D01*
X100217484Y-106090261D01*
X100235331Y-106102926D01*
X100253796Y-106114747D01*
X100272851Y-106125693D01*
X100292465Y-106135736D01*
X100312611Y-106144846D01*
X100333259Y-106152994D01*
X100354381Y-106160150D01*
X100375947Y-106166286D01*
X100397928Y-106171372D01*
X100420296Y-106175379D01*
X100443021Y-106178277D01*
X100466075Y-106180038D01*
X100489428Y-106180631D01*
X100503567Y-106180411D01*
X100517633Y-106179753D01*
X100531617Y-106178662D01*
X100545512Y-106177142D01*
X100559309Y-106175198D01*
X100573000Y-106172835D01*
X100586578Y-106170058D01*
X100600035Y-106166869D01*
X100613363Y-106163276D01*
X100626554Y-106159281D01*
X100639600Y-106154889D01*
X100652493Y-106150105D01*
X100665225Y-106144934D01*
X100677788Y-106139380D01*
X100690175Y-106133448D01*
X100702377Y-106127142D01*
X100714387Y-106120466D01*
X100726196Y-106113426D01*
X100737797Y-106106026D01*
X100749181Y-106098271D01*
X100760342Y-106090164D01*
X100771270Y-106081711D01*
X100781959Y-106072916D01*
X100792400Y-106063784D01*
X100802584Y-106054319D01*
X100812505Y-106044526D01*
X100822155Y-106034409D01*
X100831525Y-106023973D01*
X100840607Y-106013223D01*
X100849394Y-106002163D01*
X100857878Y-105990797D01*
X100866050Y-105979131D01*
X100706315Y-105901217D01*
X100695647Y-105913862D01*
X100684614Y-105925694D01*
X100673212Y-105936713D01*
X100661436Y-105946917D01*
X100649282Y-105956308D01*
X100636746Y-105964883D01*
X100623824Y-105972644D01*
X100610511Y-105979589D01*
X100596803Y-105985718D01*
X100582696Y-105991031D01*
X100568185Y-105995528D01*
X100553267Y-105999208D01*
X100537936Y-106002071D01*
X100522189Y-106004116D01*
X100506021Y-106005344D01*
X100489428Y-106005753D01*
X100475198Y-106005380D01*
X100461142Y-106004274D01*
X100447278Y-106002454D01*
X100433625Y-105999941D01*
X100420201Y-105996754D01*
X100407024Y-105992913D01*
X100394112Y-105988438D01*
X100381484Y-105983348D01*
X100369157Y-105977663D01*
X100357150Y-105971402D01*
X100345481Y-105964586D01*
X100334168Y-105957234D01*
X100323230Y-105949366D01*
X100312684Y-105941002D01*
X100302549Y-105932161D01*
X100292843Y-105922863D01*
X100283584Y-105913128D01*
X100274791Y-105902976D01*
X100266481Y-105892425D01*
X100258673Y-105881497D01*
X100251385Y-105870210D01*
X100244636Y-105858585D01*
X100238442Y-105846641D01*
X100232824Y-105834398D01*
X100227798Y-105821875D01*
X100223384Y-105809093D01*
X100219598Y-105796070D01*
X100216460Y-105782828D01*
X100213988Y-105769385D01*
X100212199Y-105755761D01*
X100211113Y-105741975D01*
X100210747Y-105728049D01*
X100211109Y-105713990D01*
X100212183Y-105700082D01*
X100213953Y-105686345D01*
X100216400Y-105672797D01*
X100219508Y-105659459D01*
X100223258Y-105646349D01*
X100227634Y-105633486D01*
X100232618Y-105620891D01*
X100238193Y-105608583D01*
X100244341Y-105596580D01*
X100251044Y-105584903D01*
X100258287Y-105573571D01*
X100266050Y-105562602D01*
X100274317Y-105552017D01*
X100283071Y-105541835D01*
X100292293Y-105532075D01*
X100301967Y-105522756D01*
X100312075Y-105513898D01*
X100322600Y-105505521D01*
X100333524Y-105497643D01*
X100344830Y-105490284D01*
X100356501Y-105483463D01*
X100368518Y-105477200D01*
X100380866Y-105471514D01*
X100393525Y-105466424D01*
X100406480Y-105461951D01*
X100419712Y-105458112D01*
X100433205Y-105454928D01*
X100446940Y-105452418D01*
X100460900Y-105450601D01*
X100475069Y-105449496D01*
X100489428Y-105449124D01*
X100506021Y-105449533D01*
X100522189Y-105450760D01*
X100537936Y-105452806D01*
X100553267Y-105455669D01*
X100568185Y-105459349D01*
X100582696Y-105463846D01*
X100596803Y-105469159D01*
X100610511Y-105475288D01*
X100623824Y-105482233D01*
X100636746Y-105489994D01*
X100649282Y-105498569D01*
X100661436Y-105507960D01*
X100673212Y-105518164D01*
X100684614Y-105529182D01*
X100695647Y-105541014D01*
X100706315Y-105553660D01*
X100866050Y-105474281D01*
X100857878Y-105462747D01*
X100849394Y-105451504D01*
X100840607Y-105440557D01*
X100831525Y-105429912D01*
X100822155Y-105419572D01*
X100812505Y-105409543D01*
X100802584Y-105399829D01*
X100792400Y-105390437D01*
X100781959Y-105381370D01*
X100771270Y-105372633D01*
X100760342Y-105364232D01*
X100749181Y-105356171D01*
X100737797Y-105348456D01*
X100726196Y-105341090D01*
X100714387Y-105334080D01*
X100702377Y-105327430D01*
X100690175Y-105321144D01*
X100677788Y-105315229D01*
X100665225Y-105309688D01*
X100652493Y-105304527D01*
X100639600Y-105299751D01*
X100626554Y-105295364D01*
X100613363Y-105291371D01*
X100606916Y-105289633D01*
X100981821Y-105289633D01*
X100981821Y-106165000D01*
X101156699Y-106165000D01*
X101156699Y-105783248D01*
X101593650Y-106165000D01*
X101862317Y-106165000D01*
X101340126Y-105714860D01*
X101848395Y-105289633D01*
X101582415Y-105289633D01*
X101156699Y-105650868D01*
X101156699Y-105289633D01*
X100981821Y-105289633D01*
X100606916Y-105289633D01*
X100600035Y-105287778D01*
X100586578Y-105284590D01*
X100573000Y-105281810D01*
X100559309Y-105279445D01*
X100545512Y-105277498D01*
X100531617Y-105275976D01*
X100517633Y-105274882D01*
X100503567Y-105274223D01*
X100489428Y-105274002D01*
X100466075Y-105274600D01*
X100443021Y-105276374D01*
X100420296Y-105279296D01*
X100397928Y-105283333D01*
X100375947Y-105288458D01*
X100354381Y-105294639D01*
X100333259Y-105301846D01*
X100312611Y-105310050D01*
X100292465Y-105319221D01*
X100272851Y-105329329D01*
X100253796Y-105340343D01*
X100235331Y-105352235D01*
X100217484Y-105364973D01*
X100200285Y-105378528D01*
X100183761Y-105392870D01*
X100167943Y-105407969D01*
X100152859Y-105423795D01*
X100138538Y-105440318D01*
X100125009Y-105457508D01*
X100112302Y-105475335D01*
X100100444Y-105493769D01*
X100089465Y-105512781D01*
X100079395Y-105532340D01*
X100070261Y-105552416D01*
X100062094Y-105572979D01*
X100054921Y-105593999D01*
X100048773Y-105615447D01*
X100043677Y-105637293D01*
X100039663Y-105659506D01*
X100036760Y-105682056D01*
X100034997Y-105704914D01*
X100034403Y-105728049D01*
X99911305Y-105728049D01*
X99911305Y-105466221D01*
X99910462Y-105447373D01*
X99907975Y-105429251D01*
X99903905Y-105411922D01*
X99898314Y-105395455D01*
X99891263Y-105379917D01*
X99882814Y-105365375D01*
X99873029Y-105351897D01*
X99861968Y-105339550D01*
X99849694Y-105328403D01*
X99836267Y-105318523D01*
X99821750Y-105309977D01*
X99806204Y-105302834D01*
X99789691Y-105297160D01*
X99772272Y-105293023D01*
X99754008Y-105290492D01*
X99734962Y-105289633D01*
X99033496Y-105289633D01*
X98762142Y-105289633D01*
X98134927Y-105289633D01*
X98031368Y-105289633D01*
X97152094Y-105289633D01*
X96784237Y-105289633D01*
X96784237Y-104906145D01*
X102230174Y-104906145D01*
X102230174Y-106548488D01*
G37*
G36*
X137823146Y-117672321D02*
G01*
X135148767Y-117672321D01*
X135148767Y-116174542D01*
X135552338Y-116174542D01*
X135552338Y-116395276D01*
X135772767Y-116395276D01*
X135772767Y-117050152D01*
X135552338Y-117050152D01*
X135552338Y-117268750D01*
X136210267Y-117268750D01*
X136322314Y-117268750D01*
X137419575Y-117268750D01*
X137419575Y-117050152D01*
X136542743Y-117050152D01*
X136542743Y-116838882D01*
X137200977Y-116838882D01*
X137224765Y-116837770D01*
X137247536Y-116834493D01*
X137269220Y-116829142D01*
X137289744Y-116821804D01*
X137309038Y-116812571D01*
X137327029Y-116801530D01*
X137343647Y-116788772D01*
X137358819Y-116774387D01*
X137372474Y-116758463D01*
X137384541Y-116741090D01*
X137394948Y-116722357D01*
X137403623Y-116702354D01*
X137410494Y-116681171D01*
X137415491Y-116658896D01*
X137418542Y-116635620D01*
X137419575Y-116611431D01*
X137419575Y-116395276D01*
X137419330Y-116382636D01*
X137418599Y-116370307D01*
X137415704Y-116346609D01*
X137410939Y-116324229D01*
X137404352Y-116303213D01*
X137395993Y-116283608D01*
X137385910Y-116265462D01*
X137374151Y-116248821D01*
X137360766Y-116233732D01*
X137345802Y-116220243D01*
X137329310Y-116208400D01*
X137311338Y-116198250D01*
X137291934Y-116189840D01*
X137271147Y-116183217D01*
X137249026Y-116178429D01*
X137225620Y-116175521D01*
X137200977Y-116174542D01*
X136336358Y-116174542D01*
X136336358Y-116395276D01*
X137200977Y-116395276D01*
X137200977Y-116620285D01*
X136542743Y-116620285D01*
X136518935Y-116621338D01*
X136496105Y-116624443D01*
X136474331Y-116629522D01*
X136453690Y-116636494D01*
X136434257Y-116645281D01*
X136416111Y-116655801D01*
X136399328Y-116667977D01*
X136383985Y-116681727D01*
X136370159Y-116696973D01*
X136357927Y-116713635D01*
X136347366Y-116731633D01*
X136338552Y-116750888D01*
X136331563Y-116771320D01*
X136326476Y-116792849D01*
X136323367Y-116815397D01*
X136322314Y-116838882D01*
X136322314Y-117268750D01*
X136210267Y-117268750D01*
X136210267Y-117050152D01*
X135991670Y-117050152D01*
X135991670Y-116174542D01*
X135552338Y-116174542D01*
X135148767Y-116174542D01*
X135148767Y-115770971D01*
X137823146Y-115770971D01*
X137823146Y-117672321D01*
G37*
G36*
X182972365Y-105987720D02*
G01*
X182446022Y-105987720D01*
X182446022Y-105820395D01*
X182972365Y-105820395D01*
X182972365Y-105987720D01*
G37*
G36*
X181664445Y-105647265D02*
G01*
X181150558Y-105647265D01*
X181150558Y-105469059D01*
X181664445Y-105469059D01*
X181664445Y-105647265D01*
G37*
G36*
X184452786Y-106821308D02*
G01*
X180609251Y-106821308D01*
X180609251Y-105294237D01*
X180975680Y-105294237D01*
X180975680Y-105469059D01*
X180975680Y-106160850D01*
X181150558Y-106160850D01*
X181150558Y-105820395D01*
X181664445Y-105820395D01*
X181675176Y-105820228D01*
X181685571Y-105819728D01*
X181695628Y-105818894D01*
X181705349Y-105817726D01*
X181723778Y-105814384D01*
X181740855Y-105809699D01*
X181756578Y-105803666D01*
X181770945Y-105796282D01*
X181783954Y-105787543D01*
X181795603Y-105777445D01*
X181805890Y-105765984D01*
X181814812Y-105753156D01*
X181822367Y-105738957D01*
X181828553Y-105723383D01*
X181833368Y-105706431D01*
X181836811Y-105688097D01*
X181838016Y-105678410D01*
X181838878Y-105668376D01*
X181839395Y-105657995D01*
X181839567Y-105647265D01*
X181839567Y-105469059D01*
X181838663Y-105451316D01*
X181836009Y-105434055D01*
X181831694Y-105417368D01*
X181825805Y-105401347D01*
X181818431Y-105386082D01*
X181809660Y-105371665D01*
X181799579Y-105358187D01*
X181788276Y-105345740D01*
X181775840Y-105334415D01*
X181762359Y-105324304D01*
X181747920Y-105315498D01*
X181732611Y-105308087D01*
X181716522Y-105302165D01*
X181699739Y-105297821D01*
X181682351Y-105295148D01*
X181664445Y-105294237D01*
X180975680Y-105294237D01*
X180609251Y-105294237D01*
X180609251Y-105046633D01*
X181956559Y-105046633D01*
X181956559Y-106160850D01*
X182134368Y-106160850D01*
X182134368Y-105294237D01*
X182270900Y-105294237D01*
X182270900Y-105469059D01*
X182972365Y-105469059D01*
X182972365Y-105647265D01*
X182446022Y-105647265D01*
X182427190Y-105648099D01*
X182409115Y-105650559D01*
X182391859Y-105654581D01*
X182375485Y-105660104D01*
X182360058Y-105667062D01*
X182345640Y-105675395D01*
X182332294Y-105685037D01*
X182320084Y-105695928D01*
X182309074Y-105708003D01*
X182299326Y-105721199D01*
X182290904Y-105735453D01*
X182283871Y-105750703D01*
X182278291Y-105766885D01*
X182274227Y-105783936D01*
X182271742Y-105801794D01*
X182270900Y-105820395D01*
X182270900Y-105987720D01*
X182271742Y-106006122D01*
X182274227Y-106023831D01*
X182278291Y-106040781D01*
X182283871Y-106056902D01*
X182290904Y-106072126D01*
X182299326Y-106086385D01*
X182309074Y-106099610D01*
X182320084Y-106111734D01*
X182332294Y-106122687D01*
X182345640Y-106132402D01*
X182360058Y-106140809D01*
X182375485Y-106147841D01*
X182391859Y-106153430D01*
X182409115Y-106157506D01*
X182427190Y-106160002D01*
X182446022Y-106160850D01*
X183148709Y-106160850D01*
X183148709Y-105469059D01*
X183147866Y-105450399D01*
X183145379Y-105432458D01*
X183141309Y-105415303D01*
X183135718Y-105399001D01*
X183128667Y-105383618D01*
X183120218Y-105369221D01*
X183110432Y-105355878D01*
X183099372Y-105343655D01*
X183087097Y-105332619D01*
X183073671Y-105322838D01*
X183059154Y-105314377D01*
X183043608Y-105307305D01*
X183027095Y-105301688D01*
X183009675Y-105297593D01*
X182991412Y-105295087D01*
X182972365Y-105294237D01*
X183207083Y-105294237D01*
X183544382Y-106152386D01*
X183419818Y-106454879D01*
X183615701Y-106454879D01*
X184086357Y-105294237D01*
X183894382Y-105294237D01*
X183641102Y-105917840D01*
X183411270Y-105294237D01*
X183207083Y-105294237D01*
X182972365Y-105294237D01*
X182270900Y-105294237D01*
X182134368Y-105294237D01*
X182134368Y-105046633D01*
X181956559Y-105046633D01*
X180609251Y-105046633D01*
X180609251Y-104680204D01*
X184452786Y-104680204D01*
X184452786Y-106821308D01*
G37*
G36*
X100969121Y-116988921D02*
G01*
X100442533Y-116988921D01*
X100442533Y-116467640D01*
X100969121Y-116467640D01*
X100969121Y-116988921D01*
G37*
G36*
X99695391Y-116450850D02*
G01*
X99706319Y-116451511D01*
X99717174Y-116452603D01*
X99727947Y-116454116D01*
X99738624Y-116456044D01*
X99749195Y-116458377D01*
X99759649Y-116461107D01*
X99769973Y-116464226D01*
X99780155Y-116467725D01*
X99790186Y-116471597D01*
X99800052Y-116475833D01*
X99809743Y-116480424D01*
X99819247Y-116485363D01*
X99828552Y-116490640D01*
X99837647Y-116496249D01*
X99846520Y-116502179D01*
X99855160Y-116508423D01*
X99863555Y-116514974D01*
X99871693Y-116521821D01*
X99879564Y-116528957D01*
X99887155Y-116536375D01*
X99894456Y-116544064D01*
X99901454Y-116552018D01*
X99908138Y-116560227D01*
X99914496Y-116568684D01*
X99920517Y-116577380D01*
X99926190Y-116586306D01*
X99931502Y-116595455D01*
X99936443Y-116604818D01*
X99941000Y-116614387D01*
X99945162Y-116624154D01*
X99948919Y-116634109D01*
X99419644Y-116634109D01*
X99423393Y-116624047D01*
X99427534Y-116614187D01*
X99432056Y-116604538D01*
X99436951Y-116595106D01*
X99442208Y-116585901D01*
X99447817Y-116576928D01*
X99453768Y-116568197D01*
X99460051Y-116559714D01*
X99466656Y-116551488D01*
X99473573Y-116543526D01*
X99480792Y-116535835D01*
X99488303Y-116528423D01*
X99496096Y-116521299D01*
X99504161Y-116514469D01*
X99512488Y-116507941D01*
X99521066Y-116501723D01*
X99529887Y-116495823D01*
X99538939Y-116490248D01*
X99548213Y-116485006D01*
X99557699Y-116480104D01*
X99567386Y-116475550D01*
X99577266Y-116471353D01*
X99587327Y-116467518D01*
X99597560Y-116464055D01*
X99607955Y-116460971D01*
X99618501Y-116458273D01*
X99629189Y-116455969D01*
X99640009Y-116454066D01*
X99650950Y-116452574D01*
X99662003Y-116451498D01*
X99673157Y-116450847D01*
X99684404Y-116450628D01*
X99695391Y-116450850D01*
G37*
G36*
X101512607Y-117825582D02*
G01*
X97477868Y-117825582D01*
X97477868Y-116646747D01*
X97845011Y-116646747D01*
X97845218Y-116657295D01*
X97845837Y-116667524D01*
X97846859Y-116677431D01*
X97850085Y-116696280D01*
X97854840Y-116713833D01*
X97861066Y-116730083D01*
X97868705Y-116745021D01*
X97877702Y-116758641D01*
X97887998Y-116770934D01*
X97899536Y-116781893D01*
X97912259Y-116791509D01*
X97926110Y-116799774D01*
X97941031Y-116806682D01*
X97956965Y-116812224D01*
X97973856Y-116816392D01*
X97991645Y-116819178D01*
X98010276Y-116820575D01*
X98019889Y-116820750D01*
X98486148Y-116820750D01*
X98486148Y-116988921D01*
X97857467Y-116988921D01*
X97857467Y-117162925D01*
X98486148Y-117162925D01*
X98496651Y-117162745D01*
X98506861Y-117162209D01*
X98516777Y-117161318D01*
X98535715Y-117158476D01*
X98553442Y-117154235D01*
X98569936Y-117148608D01*
X98585175Y-117141610D01*
X98599139Y-117133255D01*
X98611804Y-117123557D01*
X98623149Y-117112530D01*
X98633152Y-117100189D01*
X98641791Y-117086548D01*
X98649045Y-117071622D01*
X98654892Y-117055423D01*
X98659309Y-117037968D01*
X98662276Y-117019269D01*
X98663208Y-117009458D01*
X98663769Y-116999341D01*
X98663957Y-116988921D01*
X98663957Y-116820750D01*
X98663753Y-116810950D01*
X98662141Y-116792030D01*
X98658962Y-116774055D01*
X98654262Y-116757071D01*
X98648087Y-116741121D01*
X98640484Y-116726253D01*
X98631500Y-116712510D01*
X98621181Y-116699938D01*
X98609574Y-116688582D01*
X98596725Y-116678488D01*
X98582681Y-116669701D01*
X98567487Y-116662265D01*
X98551192Y-116656227D01*
X98533840Y-116651630D01*
X98515480Y-116648522D01*
X98496156Y-116646946D01*
X98486148Y-116646747D01*
X98019889Y-116646747D01*
X98019889Y-116467640D01*
X98620482Y-116467640D01*
X98620482Y-116291935D01*
X98019889Y-116291935D01*
X98010039Y-116292122D01*
X97991024Y-116293613D01*
X97972959Y-116296570D01*
X97955889Y-116300970D01*
X97939860Y-116306787D01*
X97924916Y-116313997D01*
X97911104Y-116322576D01*
X97898469Y-116332499D01*
X97887057Y-116343742D01*
X97876912Y-116356279D01*
X97868080Y-116370087D01*
X97860607Y-116385141D01*
X97854538Y-116401415D01*
X97849919Y-116418887D01*
X97846795Y-116437530D01*
X97845807Y-116447284D01*
X97845211Y-116457321D01*
X97845011Y-116467640D01*
X97845011Y-116646747D01*
X97477868Y-116646747D01*
X97477868Y-116043081D01*
X98797558Y-116043081D01*
X98797558Y-116988921D01*
X98798400Y-117007415D01*
X98800885Y-117025214D01*
X98804948Y-117042249D01*
X98810526Y-117058452D01*
X98817555Y-117073753D01*
X98825971Y-117088084D01*
X98835711Y-117101376D01*
X98846712Y-117113561D01*
X98858908Y-117124569D01*
X98872238Y-117134333D01*
X98886636Y-117142783D01*
X98902040Y-117149851D01*
X98918386Y-117155467D01*
X98935609Y-117159564D01*
X98953647Y-117162073D01*
X98972436Y-117162925D01*
X99149023Y-117162925D01*
X99149023Y-116988921D01*
X98972436Y-116988921D01*
X98972436Y-116722083D01*
X99229379Y-116722083D01*
X99229981Y-116745672D01*
X99231766Y-116768940D01*
X99234703Y-116791858D01*
X99238763Y-116814398D01*
X99243914Y-116836533D01*
X99250127Y-116858235D01*
X99257371Y-116879475D01*
X99265615Y-116900226D01*
X99274829Y-116920459D01*
X99284982Y-116940146D01*
X99296045Y-116959260D01*
X99307986Y-116977771D01*
X99320775Y-116995654D01*
X99334382Y-117012878D01*
X99348776Y-117029417D01*
X99363926Y-117045241D01*
X99379803Y-117060324D01*
X99396376Y-117074637D01*
X99413615Y-117088152D01*
X99431488Y-117100841D01*
X99449965Y-117112676D01*
X99469017Y-117123629D01*
X99488612Y-117133672D01*
X99508720Y-117142776D01*
X99529311Y-117150915D01*
X99550355Y-117158059D01*
X99571819Y-117164182D01*
X99593675Y-117169254D01*
X99615892Y-117173247D01*
X99638440Y-117176134D01*
X99661287Y-117177887D01*
X99684404Y-117178478D01*
X99701415Y-117178154D01*
X99718321Y-117177187D01*
X99735108Y-117175590D01*
X99751759Y-117173372D01*
X99768261Y-117170543D01*
X99784599Y-117167114D01*
X99800758Y-117163095D01*
X99816722Y-117158497D01*
X99832478Y-117153330D01*
X99848009Y-117147605D01*
X99863302Y-117141331D01*
X99878342Y-117134520D01*
X99893113Y-117127182D01*
X99907601Y-117119327D01*
X99921791Y-117110966D01*
X99935668Y-117102108D01*
X99949218Y-117092765D01*
X99962425Y-117082947D01*
X99975274Y-117072664D01*
X99987751Y-117061927D01*
X99999841Y-117050746D01*
X100011529Y-117039131D01*
X100022801Y-117027094D01*
X100033640Y-117014643D01*
X100044033Y-117001791D01*
X100053965Y-116988546D01*
X100063421Y-116974920D01*
X100072385Y-116960923D01*
X100080844Y-116946566D01*
X100088782Y-116931858D01*
X100096184Y-116916810D01*
X100103036Y-116901433D01*
X99901291Y-116901433D01*
X99890623Y-116913684D01*
X99879590Y-116925188D01*
X99868187Y-116935940D01*
X99856412Y-116945933D01*
X99844258Y-116955161D01*
X99831722Y-116963619D01*
X99818800Y-116971300D01*
X99805487Y-116978198D01*
X99791779Y-116984307D01*
X99777672Y-116989621D01*
X99763161Y-116994134D01*
X99748243Y-116997841D01*
X99732912Y-117000734D01*
X99717165Y-117002808D01*
X99700997Y-117004057D01*
X99684404Y-117004474D01*
X99673157Y-117004241D01*
X99662003Y-117003545D01*
X99650950Y-117002396D01*
X99640009Y-117000802D01*
X99629189Y-116998770D01*
X99618501Y-116996309D01*
X99607955Y-116993427D01*
X99597560Y-116990132D01*
X99587327Y-116986433D01*
X99577266Y-116982336D01*
X99567386Y-116977852D01*
X99557699Y-116972986D01*
X99548213Y-116967749D01*
X99538939Y-116962148D01*
X99529887Y-116956191D01*
X99521066Y-116949886D01*
X99512488Y-116943241D01*
X99504161Y-116936265D01*
X99496096Y-116928966D01*
X99488303Y-116921351D01*
X99480792Y-116913429D01*
X99473573Y-116905209D01*
X99466656Y-116896698D01*
X99460051Y-116887904D01*
X99453768Y-116878835D01*
X99447817Y-116869501D01*
X99442208Y-116859908D01*
X99436951Y-116850065D01*
X99432056Y-116839980D01*
X99427534Y-116829662D01*
X99423393Y-116819118D01*
X99419644Y-116808356D01*
X100129658Y-116808356D01*
X100132042Y-116797472D01*
X100134070Y-116786674D01*
X100135755Y-116775932D01*
X100137108Y-116765220D01*
X100138140Y-116754507D01*
X100138863Y-116743765D01*
X100139289Y-116732967D01*
X100139428Y-116722083D01*
X100138830Y-116699509D01*
X100137055Y-116677189D01*
X100134133Y-116655155D01*
X100130094Y-116633437D01*
X100124968Y-116612065D01*
X100118785Y-116591069D01*
X100111573Y-116570480D01*
X100103364Y-116550328D01*
X100094187Y-116530642D01*
X100084071Y-116511454D01*
X100073047Y-116492794D01*
X100061143Y-116474691D01*
X100048391Y-116457176D01*
X100034820Y-116440280D01*
X100020459Y-116424033D01*
X100005339Y-116408464D01*
X99989488Y-116393604D01*
X99972938Y-116379484D01*
X99955717Y-116366133D01*
X99937856Y-116353583D01*
X99919384Y-116341862D01*
X99900331Y-116331002D01*
X99880727Y-116321033D01*
X99860602Y-116311984D01*
X99839985Y-116303887D01*
X99818906Y-116296771D01*
X99801864Y-116291935D01*
X100267655Y-116291935D01*
X100267655Y-116467640D01*
X100267655Y-117458439D01*
X100442533Y-117458439D01*
X100442533Y-117162925D01*
X100969121Y-117162925D01*
X100986557Y-117162058D01*
X101003626Y-117159513D01*
X101020222Y-117155370D01*
X101036242Y-117149710D01*
X101051580Y-117142615D01*
X101066133Y-117134166D01*
X101079796Y-117124444D01*
X101092464Y-117113530D01*
X101104032Y-117101506D01*
X101114398Y-117088452D01*
X101123455Y-117074449D01*
X101131100Y-117059580D01*
X101137228Y-117043924D01*
X101141734Y-117027563D01*
X101144514Y-117010579D01*
X101145464Y-116993052D01*
X101145464Y-116467640D01*
X101144651Y-116448686D01*
X101142245Y-116430506D01*
X101138295Y-116413162D01*
X101132851Y-116396715D01*
X101125964Y-116381229D01*
X101117682Y-116366764D01*
X101108056Y-116353383D01*
X101097135Y-116341147D01*
X101084969Y-116330119D01*
X101071607Y-116320360D01*
X101057100Y-116311933D01*
X101041497Y-116304899D01*
X101024848Y-116299320D01*
X101007202Y-116295258D01*
X100988610Y-116292776D01*
X100969121Y-116291935D01*
X100267655Y-116291935D01*
X99801864Y-116291935D01*
X99797395Y-116290667D01*
X99775482Y-116285605D01*
X99753197Y-116281615D01*
X99730569Y-116278728D01*
X99707628Y-116276973D01*
X99684404Y-116276382D01*
X99661287Y-116276973D01*
X99638440Y-116278728D01*
X99615892Y-116281615D01*
X99593675Y-116285605D01*
X99571819Y-116290667D01*
X99550355Y-116296771D01*
X99529311Y-116303887D01*
X99508720Y-116311984D01*
X99488612Y-116321033D01*
X99469017Y-116331002D01*
X99449965Y-116341862D01*
X99431488Y-116353583D01*
X99413615Y-116366133D01*
X99396376Y-116379484D01*
X99379803Y-116393604D01*
X99363926Y-116408464D01*
X99348776Y-116424033D01*
X99334382Y-116440280D01*
X99320775Y-116457176D01*
X99307986Y-116474691D01*
X99296045Y-116492794D01*
X99284982Y-116511454D01*
X99274829Y-116530642D01*
X99265615Y-116550328D01*
X99257371Y-116570480D01*
X99250127Y-116591069D01*
X99243914Y-116612065D01*
X99238763Y-116633437D01*
X99238637Y-116634109D01*
X99234703Y-116655155D01*
X99231766Y-116677189D01*
X99229981Y-116699509D01*
X99229379Y-116722083D01*
X98972436Y-116722083D01*
X98972436Y-116453544D01*
X99149023Y-116453544D01*
X99149023Y-116291935D01*
X98972436Y-116291935D01*
X98972436Y-116043081D01*
X98797558Y-116043081D01*
X97477868Y-116043081D01*
X97477868Y-115675938D01*
X101512607Y-115675938D01*
X101512607Y-117825582D01*
G37*
G36*
X110238489Y-106672321D02*
G01*
X108773418Y-106672321D01*
X108773418Y-105174542D01*
X109176989Y-105174542D01*
X109176989Y-105395276D01*
X109397418Y-105395276D01*
X109397418Y-106050152D01*
X109176989Y-106050152D01*
X109176989Y-106268750D01*
X109834918Y-106268750D01*
X109834918Y-106050152D01*
X109616321Y-106050152D01*
X109616321Y-105174542D01*
X109176989Y-105174542D01*
X108773418Y-105174542D01*
X108773418Y-104770971D01*
X110238489Y-104770971D01*
X110238489Y-106672321D01*
G37*
G36*
X173202504Y-117050152D02*
G01*
X172544574Y-117050152D01*
X172544574Y-116825143D01*
X173202504Y-116825143D01*
X173202504Y-117050152D01*
G37*
G36*
X173828336Y-117672321D02*
G01*
X171146935Y-117672321D01*
X171146935Y-116174542D01*
X171550506Y-116174542D01*
X171550506Y-116395276D01*
X171770935Y-116395276D01*
X171770935Y-117050152D01*
X171550506Y-117050152D01*
X171550506Y-117268750D01*
X172208435Y-117268750D01*
X172208435Y-117050152D01*
X172325672Y-117050152D01*
X172326765Y-117073386D01*
X172329981Y-117095747D01*
X172335225Y-117117148D01*
X172342401Y-117137502D01*
X172351415Y-117156725D01*
X172362170Y-117174729D01*
X172374573Y-117191427D01*
X172388526Y-117206735D01*
X172403936Y-117220565D01*
X172420706Y-117232830D01*
X172438743Y-117243446D01*
X172457949Y-117252325D01*
X172478231Y-117259381D01*
X172499493Y-117264528D01*
X172521639Y-117267680D01*
X172544574Y-117268750D01*
X173202504Y-117268750D01*
X173215605Y-117268510D01*
X173228345Y-117267794D01*
X173240720Y-117266607D01*
X173264360Y-117262840D01*
X173286498Y-117257251D01*
X173307105Y-117249879D01*
X173326152Y-117240765D01*
X173343611Y-117229950D01*
X173359452Y-117217475D01*
X173373647Y-117203380D01*
X173386168Y-117187706D01*
X173396986Y-117170495D01*
X173406073Y-117151785D01*
X173413399Y-117131619D01*
X173418936Y-117110037D01*
X173422656Y-117087079D01*
X173424529Y-117062786D01*
X173424765Y-117050152D01*
X173424765Y-116825143D01*
X173424514Y-116812799D01*
X173422531Y-116788940D01*
X173418615Y-116766240D01*
X173412817Y-116744760D01*
X173405187Y-116724562D01*
X173395779Y-116705709D01*
X173384642Y-116688261D01*
X173371830Y-116672280D01*
X173357392Y-116657828D01*
X173341381Y-116644967D01*
X173323847Y-116633759D01*
X173304843Y-116624265D01*
X173284420Y-116616547D01*
X173262628Y-116610666D01*
X173239521Y-116606685D01*
X173215148Y-116604664D01*
X173202504Y-116604409D01*
X172544574Y-116604409D01*
X172544574Y-116395276D01*
X173412552Y-116395276D01*
X173412552Y-116174542D01*
X172544574Y-116174542D01*
X172521639Y-116175655D01*
X172499493Y-116178930D01*
X172478231Y-116184264D01*
X172457949Y-116191557D01*
X172438743Y-116200710D01*
X172420706Y-116211620D01*
X172403936Y-116224187D01*
X172388526Y-116238312D01*
X172374573Y-116253892D01*
X172362170Y-116270828D01*
X172351415Y-116289019D01*
X172342401Y-116308365D01*
X172335225Y-116328764D01*
X172329981Y-116350116D01*
X172326765Y-116372320D01*
X172325672Y-116395276D01*
X172325672Y-116825143D01*
X172325672Y-117050152D01*
X172208435Y-117050152D01*
X171989838Y-117050152D01*
X171989838Y-116174542D01*
X171550506Y-116174542D01*
X171146935Y-116174542D01*
X171146935Y-115770971D01*
X173828336Y-115770971D01*
X173828336Y-117672321D01*
G37*
G36*
X100969121Y-116988921D02*
G01*
X100442533Y-116988921D01*
X100442533Y-116467640D01*
X100969121Y-116467640D01*
X100969121Y-116988921D01*
G37*
G36*
X99695391Y-116450850D02*
G01*
X99706319Y-116451511D01*
X99717174Y-116452603D01*
X99727947Y-116454116D01*
X99738624Y-116456044D01*
X99749195Y-116458377D01*
X99759649Y-116461107D01*
X99769973Y-116464226D01*
X99780155Y-116467725D01*
X99790186Y-116471597D01*
X99800052Y-116475833D01*
X99809743Y-116480424D01*
X99819247Y-116485363D01*
X99828552Y-116490640D01*
X99837647Y-116496249D01*
X99846520Y-116502179D01*
X99855160Y-116508423D01*
X99863555Y-116514974D01*
X99871693Y-116521821D01*
X99879564Y-116528957D01*
X99887155Y-116536375D01*
X99894456Y-116544064D01*
X99901454Y-116552018D01*
X99908138Y-116560227D01*
X99914496Y-116568684D01*
X99920517Y-116577380D01*
X99926190Y-116586306D01*
X99931502Y-116595455D01*
X99936443Y-116604818D01*
X99941000Y-116614387D01*
X99945162Y-116624154D01*
X99948919Y-116634109D01*
X99419644Y-116634109D01*
X99423393Y-116624047D01*
X99427534Y-116614187D01*
X99432056Y-116604538D01*
X99436951Y-116595106D01*
X99442208Y-116585901D01*
X99447817Y-116576928D01*
X99453768Y-116568197D01*
X99460051Y-116559714D01*
X99466656Y-116551488D01*
X99473573Y-116543526D01*
X99480792Y-116535835D01*
X99488303Y-116528423D01*
X99496096Y-116521299D01*
X99504161Y-116514469D01*
X99512488Y-116507941D01*
X99521066Y-116501723D01*
X99529887Y-116495823D01*
X99538939Y-116490248D01*
X99548213Y-116485006D01*
X99557699Y-116480104D01*
X99567386Y-116475550D01*
X99577266Y-116471353D01*
X99587327Y-116467518D01*
X99597560Y-116464055D01*
X99607955Y-116460971D01*
X99618501Y-116458273D01*
X99629189Y-116455969D01*
X99640009Y-116454066D01*
X99650950Y-116452574D01*
X99662003Y-116451498D01*
X99673157Y-116450847D01*
X99684404Y-116450628D01*
X99695391Y-116450850D01*
G37*
G36*
X101512607Y-117825582D02*
G01*
X97477868Y-117825582D01*
X97477868Y-116646747D01*
X97845011Y-116646747D01*
X97845218Y-116657295D01*
X97845837Y-116667524D01*
X97846859Y-116677431D01*
X97850085Y-116696280D01*
X97854840Y-116713833D01*
X97861066Y-116730083D01*
X97868705Y-116745021D01*
X97877702Y-116758641D01*
X97887998Y-116770934D01*
X97899536Y-116781893D01*
X97912259Y-116791509D01*
X97926110Y-116799774D01*
X97941031Y-116806682D01*
X97956965Y-116812224D01*
X97973856Y-116816392D01*
X97991645Y-116819178D01*
X98010276Y-116820575D01*
X98019889Y-116820750D01*
X98486148Y-116820750D01*
X98486148Y-116988921D01*
X97857467Y-116988921D01*
X97857467Y-117162925D01*
X98486148Y-117162925D01*
X98496651Y-117162745D01*
X98506861Y-117162209D01*
X98516777Y-117161318D01*
X98535715Y-117158476D01*
X98553442Y-117154235D01*
X98569936Y-117148608D01*
X98585175Y-117141610D01*
X98599139Y-117133255D01*
X98611804Y-117123557D01*
X98623149Y-117112530D01*
X98633152Y-117100189D01*
X98641791Y-117086548D01*
X98649045Y-117071622D01*
X98654892Y-117055423D01*
X98659309Y-117037968D01*
X98662276Y-117019269D01*
X98663208Y-117009458D01*
X98663769Y-116999341D01*
X98663957Y-116988921D01*
X98663957Y-116820750D01*
X98663753Y-116810950D01*
X98662141Y-116792030D01*
X98658962Y-116774055D01*
X98654262Y-116757071D01*
X98648087Y-116741121D01*
X98640484Y-116726253D01*
X98631500Y-116712510D01*
X98621181Y-116699938D01*
X98609574Y-116688582D01*
X98596725Y-116678488D01*
X98582681Y-116669701D01*
X98567487Y-116662265D01*
X98551192Y-116656227D01*
X98533840Y-116651630D01*
X98515480Y-116648522D01*
X98496156Y-116646946D01*
X98486148Y-116646747D01*
X98019889Y-116646747D01*
X98019889Y-116467640D01*
X98620482Y-116467640D01*
X98620482Y-116291935D01*
X98019889Y-116291935D01*
X98010039Y-116292122D01*
X97991024Y-116293613D01*
X97972959Y-116296570D01*
X97955889Y-116300970D01*
X97939860Y-116306787D01*
X97924916Y-116313997D01*
X97911104Y-116322576D01*
X97898469Y-116332499D01*
X97887057Y-116343742D01*
X97876912Y-116356279D01*
X97868080Y-116370087D01*
X97860607Y-116385141D01*
X97854538Y-116401415D01*
X97849919Y-116418887D01*
X97846795Y-116437530D01*
X97845807Y-116447284D01*
X97845211Y-116457321D01*
X97845011Y-116467640D01*
X97845011Y-116646747D01*
X97477868Y-116646747D01*
X97477868Y-116043081D01*
X98797558Y-116043081D01*
X98797558Y-116988921D01*
X98798400Y-117007415D01*
X98800885Y-117025214D01*
X98804948Y-117042249D01*
X98810526Y-117058452D01*
X98817555Y-117073753D01*
X98825971Y-117088084D01*
X98835711Y-117101376D01*
X98846712Y-117113561D01*
X98858908Y-117124569D01*
X98872238Y-117134333D01*
X98886636Y-117142783D01*
X98902040Y-117149851D01*
X98918386Y-117155467D01*
X98935609Y-117159564D01*
X98953647Y-117162073D01*
X98972436Y-117162925D01*
X99149023Y-117162925D01*
X99149023Y-116988921D01*
X98972436Y-116988921D01*
X98972436Y-116722083D01*
X99229379Y-116722083D01*
X99229981Y-116745672D01*
X99231766Y-116768940D01*
X99234703Y-116791858D01*
X99238763Y-116814398D01*
X99243914Y-116836533D01*
X99250127Y-116858235D01*
X99257371Y-116879475D01*
X99265615Y-116900226D01*
X99274829Y-116920459D01*
X99284982Y-116940146D01*
X99296045Y-116959260D01*
X99307986Y-116977771D01*
X99320775Y-116995654D01*
X99334382Y-117012878D01*
X99348776Y-117029417D01*
X99363926Y-117045241D01*
X99379803Y-117060324D01*
X99396376Y-117074637D01*
X99413615Y-117088152D01*
X99431488Y-117100841D01*
X99449965Y-117112676D01*
X99469017Y-117123629D01*
X99488612Y-117133672D01*
X99508720Y-117142776D01*
X99529311Y-117150915D01*
X99550355Y-117158059D01*
X99571819Y-117164182D01*
X99593675Y-117169254D01*
X99615892Y-117173247D01*
X99638440Y-117176134D01*
X99661287Y-117177887D01*
X99684404Y-117178478D01*
X99701415Y-117178154D01*
X99718321Y-117177187D01*
X99735108Y-117175590D01*
X99751759Y-117173372D01*
X99768261Y-117170543D01*
X99784599Y-117167114D01*
X99800758Y-117163095D01*
X99816722Y-117158497D01*
X99832478Y-117153330D01*
X99848009Y-117147605D01*
X99863302Y-117141331D01*
X99878342Y-117134520D01*
X99893113Y-117127182D01*
X99907601Y-117119327D01*
X99921791Y-117110966D01*
X99935668Y-117102108D01*
X99949218Y-117092765D01*
X99962425Y-117082947D01*
X99975274Y-117072664D01*
X99987751Y-117061927D01*
X99999841Y-117050746D01*
X100011529Y-117039131D01*
X100022801Y-117027094D01*
X100033640Y-117014643D01*
X100044033Y-117001791D01*
X100053965Y-116988546D01*
X100063421Y-116974920D01*
X100072385Y-116960923D01*
X100080844Y-116946566D01*
X100088782Y-116931858D01*
X100096184Y-116916810D01*
X100103036Y-116901433D01*
X99901291Y-116901433D01*
X99890623Y-116913684D01*
X99879590Y-116925188D01*
X99868187Y-116935940D01*
X99856412Y-116945933D01*
X99844258Y-116955161D01*
X99831722Y-116963619D01*
X99818800Y-116971300D01*
X99805487Y-116978198D01*
X99791779Y-116984307D01*
X99777672Y-116989621D01*
X99763161Y-116994134D01*
X99748243Y-116997841D01*
X99732912Y-117000734D01*
X99717165Y-117002808D01*
X99700997Y-117004057D01*
X99684404Y-117004474D01*
X99673157Y-117004241D01*
X99662003Y-117003545D01*
X99650950Y-117002396D01*
X99640009Y-117000802D01*
X99629189Y-116998770D01*
X99618501Y-116996309D01*
X99607955Y-116993427D01*
X99597560Y-116990132D01*
X99587327Y-116986433D01*
X99577266Y-116982336D01*
X99567386Y-116977852D01*
X99557699Y-116972986D01*
X99548213Y-116967749D01*
X99538939Y-116962148D01*
X99529887Y-116956191D01*
X99521066Y-116949886D01*
X99512488Y-116943241D01*
X99504161Y-116936265D01*
X99496096Y-116928966D01*
X99488303Y-116921351D01*
X99480792Y-116913429D01*
X99473573Y-116905209D01*
X99466656Y-116896698D01*
X99460051Y-116887904D01*
X99453768Y-116878835D01*
X99447817Y-116869501D01*
X99442208Y-116859908D01*
X99436951Y-116850065D01*
X99432056Y-116839980D01*
X99427534Y-116829662D01*
X99423393Y-116819118D01*
X99419644Y-116808356D01*
X100129658Y-116808356D01*
X100132042Y-116797472D01*
X100134070Y-116786674D01*
X100135755Y-116775932D01*
X100137108Y-116765220D01*
X100138140Y-116754507D01*
X100138863Y-116743765D01*
X100139289Y-116732967D01*
X100139428Y-116722083D01*
X100138830Y-116699509D01*
X100137055Y-116677189D01*
X100134133Y-116655155D01*
X100130094Y-116633437D01*
X100124968Y-116612065D01*
X100118785Y-116591069D01*
X100111573Y-116570480D01*
X100103364Y-116550328D01*
X100094187Y-116530642D01*
X100084071Y-116511454D01*
X100073047Y-116492794D01*
X100061143Y-116474691D01*
X100048391Y-116457176D01*
X100034820Y-116440280D01*
X100020459Y-116424033D01*
X100005339Y-116408464D01*
X99989488Y-116393604D01*
X99972938Y-116379484D01*
X99955717Y-116366133D01*
X99937856Y-116353583D01*
X99919384Y-116341862D01*
X99900331Y-116331002D01*
X99880727Y-116321033D01*
X99860602Y-116311984D01*
X99839985Y-116303887D01*
X99818906Y-116296771D01*
X99801864Y-116291935D01*
X100267655Y-116291935D01*
X100267655Y-116467640D01*
X100267655Y-117458439D01*
X100442533Y-117458439D01*
X100442533Y-117162925D01*
X100969121Y-117162925D01*
X100986557Y-117162058D01*
X101003626Y-117159513D01*
X101020222Y-117155370D01*
X101036242Y-117149710D01*
X101051580Y-117142615D01*
X101066133Y-117134166D01*
X101079796Y-117124444D01*
X101092464Y-117113530D01*
X101104032Y-117101506D01*
X101114398Y-117088452D01*
X101123455Y-117074449D01*
X101131100Y-117059580D01*
X101137228Y-117043924D01*
X101141734Y-117027563D01*
X101144514Y-117010579D01*
X101145464Y-116993052D01*
X101145464Y-116467640D01*
X101144651Y-116448686D01*
X101142245Y-116430506D01*
X101138295Y-116413162D01*
X101132851Y-116396715D01*
X101125964Y-116381229D01*
X101117682Y-116366764D01*
X101108056Y-116353383D01*
X101097135Y-116341147D01*
X101084969Y-116330119D01*
X101071607Y-116320360D01*
X101057100Y-116311933D01*
X101041497Y-116304899D01*
X101024848Y-116299320D01*
X101007202Y-116295258D01*
X100988610Y-116292776D01*
X100969121Y-116291935D01*
X100267655Y-116291935D01*
X99801864Y-116291935D01*
X99797395Y-116290667D01*
X99775482Y-116285605D01*
X99753197Y-116281615D01*
X99730569Y-116278728D01*
X99707628Y-116276973D01*
X99684404Y-116276382D01*
X99661287Y-116276973D01*
X99638440Y-116278728D01*
X99615892Y-116281615D01*
X99593675Y-116285605D01*
X99571819Y-116290667D01*
X99550355Y-116296771D01*
X99529311Y-116303887D01*
X99508720Y-116311984D01*
X99488612Y-116321033D01*
X99469017Y-116331002D01*
X99449965Y-116341862D01*
X99431488Y-116353583D01*
X99413615Y-116366133D01*
X99396376Y-116379484D01*
X99379803Y-116393604D01*
X99363926Y-116408464D01*
X99348776Y-116424033D01*
X99334382Y-116440280D01*
X99320775Y-116457176D01*
X99307986Y-116474691D01*
X99296045Y-116492794D01*
X99284982Y-116511454D01*
X99274829Y-116530642D01*
X99265615Y-116550328D01*
X99257371Y-116570480D01*
X99250127Y-116591069D01*
X99243914Y-116612065D01*
X99238763Y-116633437D01*
X99238637Y-116634109D01*
X99234703Y-116655155D01*
X99231766Y-116677189D01*
X99229981Y-116699509D01*
X99229379Y-116722083D01*
X98972436Y-116722083D01*
X98972436Y-116453544D01*
X99149023Y-116453544D01*
X99149023Y-116291935D01*
X98972436Y-116291935D01*
X98972436Y-116043081D01*
X98797558Y-116043081D01*
X97477868Y-116043081D01*
X97477868Y-115675938D01*
X101512607Y-115675938D01*
X101512607Y-117825582D01*
G37*
G36*
X137525169Y-106672321D02*
G01*
X135480631Y-106672321D01*
X135480631Y-105174542D01*
X135884202Y-105174542D01*
X135884202Y-105838882D01*
X136762866Y-105838882D01*
X136762866Y-106268750D01*
X136983295Y-106268750D01*
X136983295Y-105838882D01*
X137121598Y-105838882D01*
X137121598Y-105620285D01*
X136983295Y-105620285D01*
X136983295Y-105174542D01*
X136762866Y-105174542D01*
X136762866Y-105620285D01*
X136104937Y-105620285D01*
X136104937Y-105174542D01*
X135884202Y-105174542D01*
X135480631Y-105174542D01*
X135480631Y-104770971D01*
X137525169Y-104770971D01*
X137525169Y-106672321D01*
G37*
G36*
X154116536Y-94449347D02*
G01*
X154127463Y-94450011D01*
X154138319Y-94451108D01*
X154149091Y-94452629D01*
X154159769Y-94454567D01*
X154170340Y-94456911D01*
X154180793Y-94459655D01*
X154191117Y-94462790D01*
X154201300Y-94466307D01*
X154211330Y-94470198D01*
X154221197Y-94474455D01*
X154230888Y-94479070D01*
X154240391Y-94484033D01*
X154249696Y-94489337D01*
X154258791Y-94494973D01*
X154267664Y-94500934D01*
X154276304Y-94507210D01*
X154284699Y-94513793D01*
X154292838Y-94520674D01*
X154300709Y-94527847D01*
X154308300Y-94535301D01*
X154315600Y-94543029D01*
X154322598Y-94551023D01*
X154329282Y-94559273D01*
X154335640Y-94567773D01*
X154341662Y-94576512D01*
X154347334Y-94585484D01*
X154352646Y-94594679D01*
X154357587Y-94604089D01*
X154362144Y-94613706D01*
X154366307Y-94623521D01*
X154370063Y-94633527D01*
X153840789Y-94633527D01*
X153844537Y-94623414D01*
X153848678Y-94613505D01*
X153853201Y-94603807D01*
X153858096Y-94594328D01*
X153863353Y-94585076D01*
X153868962Y-94576059D01*
X153874913Y-94567283D01*
X153881196Y-94558758D01*
X153887801Y-94550491D01*
X153894718Y-94542488D01*
X153901937Y-94534759D01*
X153909448Y-94527310D01*
X153917241Y-94520150D01*
X153925305Y-94513285D01*
X153933632Y-94506725D01*
X153942211Y-94500476D01*
X153951031Y-94494546D01*
X153960083Y-94488943D01*
X153969357Y-94483674D01*
X153978843Y-94478748D01*
X153988531Y-94474171D01*
X153998410Y-94469952D01*
X154008471Y-94466099D01*
X154018704Y-94462618D01*
X154029099Y-94459518D01*
X154039645Y-94456807D01*
X154050333Y-94454491D01*
X154061153Y-94452579D01*
X154072094Y-94451079D01*
X154083147Y-94449998D01*
X154094302Y-94449344D01*
X154105548Y-94449124D01*
X154116536Y-94449347D01*
G37*
G36*
X156907285Y-95548488D02*
G01*
X152098333Y-95548488D01*
X152098333Y-94289633D01*
X152466190Y-94289633D01*
X152466190Y-95165000D01*
X152643999Y-95165000D01*
X152643999Y-94667477D01*
X152883357Y-95165000D01*
X153104641Y-95165000D01*
X153343999Y-94667477D01*
X153343999Y-95165000D01*
X153520342Y-95165000D01*
X153520342Y-94721943D01*
X153650524Y-94721943D01*
X153651125Y-94745650D01*
X153652910Y-94769035D01*
X153655848Y-94792068D01*
X153659907Y-94814722D01*
X153665059Y-94836968D01*
X153671272Y-94858779D01*
X153678515Y-94880126D01*
X153686759Y-94900981D01*
X153695973Y-94921315D01*
X153706127Y-94941101D01*
X153717189Y-94960311D01*
X153729130Y-94978916D01*
X153741919Y-94996888D01*
X153755526Y-95014199D01*
X153769920Y-95030821D01*
X153785071Y-95046725D01*
X153800948Y-95061884D01*
X153817521Y-95076268D01*
X153834759Y-95089851D01*
X153852632Y-95102604D01*
X153871110Y-95114498D01*
X153890161Y-95125506D01*
X153909757Y-95135600D01*
X153929865Y-95144750D01*
X153950456Y-95152930D01*
X153971499Y-95160110D01*
X153992964Y-95166263D01*
X154014820Y-95171360D01*
X154037037Y-95175374D01*
X154059584Y-95178276D01*
X154082431Y-95180038D01*
X154105548Y-95180631D01*
X154122559Y-95180305D01*
X154139466Y-95179334D01*
X154156252Y-95177729D01*
X154172904Y-95175499D01*
X154189406Y-95172656D01*
X154205744Y-95169210D01*
X154221902Y-95165171D01*
X154237867Y-95160550D01*
X154253622Y-95155357D01*
X154269154Y-95149603D01*
X154284447Y-95143298D01*
X154299486Y-95136453D01*
X154314258Y-95129078D01*
X154328746Y-95121183D01*
X154342936Y-95112780D01*
X154356813Y-95103878D01*
X154370362Y-95094488D01*
X154383569Y-95084620D01*
X154396419Y-95074286D01*
X154408896Y-95063495D01*
X154420986Y-95052257D01*
X154432674Y-95040584D01*
X154443945Y-95028486D01*
X154454785Y-95015973D01*
X154465178Y-95003056D01*
X154475110Y-94989745D01*
X154484565Y-94976050D01*
X154493530Y-94961983D01*
X154501988Y-94947553D01*
X154509926Y-94932772D01*
X154517328Y-94917648D01*
X154524180Y-94902194D01*
X154322436Y-94902194D01*
X154311767Y-94914506D01*
X154300734Y-94926068D01*
X154289332Y-94936874D01*
X154277556Y-94946917D01*
X154265402Y-94956192D01*
X154252866Y-94964692D01*
X154239944Y-94972412D01*
X154226631Y-94979344D01*
X154212923Y-94985484D01*
X154198816Y-94990825D01*
X154184306Y-94995361D01*
X154169387Y-94999086D01*
X154154056Y-95001994D01*
X154138309Y-95004078D01*
X154122141Y-95005333D01*
X154105548Y-95005753D01*
X154094302Y-95005518D01*
X154083147Y-95004820D01*
X154072094Y-95003665D01*
X154061153Y-95002062D01*
X154050333Y-95000020D01*
X154039645Y-94997547D01*
X154029099Y-94994650D01*
X154018704Y-94991339D01*
X154008471Y-94987621D01*
X153998410Y-94983504D01*
X153988531Y-94978997D01*
X153978843Y-94974107D01*
X153969357Y-94968843D01*
X153960083Y-94963214D01*
X153951031Y-94957227D01*
X153942211Y-94950890D01*
X153933632Y-94944212D01*
X153925305Y-94937201D01*
X153917241Y-94929865D01*
X153909448Y-94922212D01*
X153901937Y-94914251D01*
X153894718Y-94905989D01*
X153887801Y-94897435D01*
X153881196Y-94888597D01*
X153874913Y-94879483D01*
X153868962Y-94870101D01*
X153863353Y-94860460D01*
X153858096Y-94850568D01*
X153853201Y-94840432D01*
X153848678Y-94830062D01*
X153844537Y-94819465D01*
X153840789Y-94808649D01*
X154550803Y-94808649D01*
X154553186Y-94797711D01*
X154555214Y-94786858D01*
X154556899Y-94776063D01*
X154558252Y-94765296D01*
X154559284Y-94754529D01*
X154560008Y-94743734D01*
X154560433Y-94732881D01*
X154560572Y-94721943D01*
X154559974Y-94699255D01*
X154558199Y-94676823D01*
X154555278Y-94654679D01*
X154551239Y-94632852D01*
X154546113Y-94611372D01*
X154539929Y-94590271D01*
X154532718Y-94569578D01*
X154524508Y-94549324D01*
X154515331Y-94529540D01*
X154505215Y-94510256D01*
X154494191Y-94491501D01*
X154482288Y-94473308D01*
X154469536Y-94455705D01*
X154455964Y-94438724D01*
X154441604Y-94422395D01*
X154426483Y-94406748D01*
X154410633Y-94391813D01*
X154394082Y-94377622D01*
X154376862Y-94364204D01*
X154359001Y-94351591D01*
X154340529Y-94339811D01*
X154321476Y-94328897D01*
X154301872Y-94318877D01*
X154281746Y-94309783D01*
X154261129Y-94301645D01*
X154240051Y-94294494D01*
X154223007Y-94289633D01*
X154688800Y-94289633D01*
X154688800Y-95165000D01*
X154863678Y-95165000D01*
X154863678Y-94466221D01*
X155345325Y-94466221D01*
X155345325Y-95165000D01*
X155521912Y-95165000D01*
X155521912Y-94466221D01*
X155521740Y-94455356D01*
X155521222Y-94444837D01*
X155520360Y-94434663D01*
X155519153Y-94424833D01*
X155515704Y-94406209D01*
X155510876Y-94388964D01*
X155504667Y-94373098D01*
X155497080Y-94358613D01*
X155488112Y-94345507D01*
X155477765Y-94333780D01*
X155466039Y-94323433D01*
X155452933Y-94314466D01*
X155438447Y-94306878D01*
X155422582Y-94300670D01*
X155405337Y-94295841D01*
X155386712Y-94292392D01*
X155376883Y-94291185D01*
X155366708Y-94290323D01*
X155356189Y-94289806D01*
X155345325Y-94289633D01*
X155663085Y-94289633D01*
X155663085Y-94990122D01*
X155663911Y-95008709D01*
X155666349Y-95026597D01*
X155670341Y-95043718D01*
X155675827Y-95060002D01*
X155682749Y-95075380D01*
X155691047Y-95089783D01*
X155700663Y-95103142D01*
X155711536Y-95115388D01*
X155723609Y-95126452D01*
X155736823Y-95136264D01*
X155751117Y-95144757D01*
X155766434Y-95151860D01*
X155782713Y-95157505D01*
X155799897Y-95161623D01*
X155817926Y-95164144D01*
X155836741Y-95165000D01*
X156364550Y-95165000D01*
X156383580Y-95164173D01*
X156401797Y-95161733D01*
X156419144Y-95157735D01*
X156435564Y-95152238D01*
X156450999Y-95145298D01*
X156465392Y-95136973D01*
X156478686Y-95127319D01*
X156490824Y-95116395D01*
X156501748Y-95104257D01*
X156511401Y-95090963D01*
X156519726Y-95076570D01*
X156526666Y-95061135D01*
X156532164Y-95044716D01*
X156536161Y-95027369D01*
X156538602Y-95009152D01*
X156539428Y-94990122D01*
X156539428Y-94289633D01*
X156364550Y-94289633D01*
X156364550Y-94990122D01*
X155836741Y-94990122D01*
X155836741Y-94289633D01*
X155663085Y-94289633D01*
X155345325Y-94289633D01*
X154688800Y-94289633D01*
X154223007Y-94289633D01*
X154218540Y-94288359D01*
X154196627Y-94283271D01*
X154174341Y-94279261D01*
X154151713Y-94276360D01*
X154128772Y-94274596D01*
X154105548Y-94274002D01*
X154082431Y-94274596D01*
X154059584Y-94276360D01*
X154037037Y-94279261D01*
X154014820Y-94283271D01*
X153992964Y-94288359D01*
X153971499Y-94294494D01*
X153950456Y-94301645D01*
X153929865Y-94309783D01*
X153909757Y-94318877D01*
X153890161Y-94328897D01*
X153871110Y-94339811D01*
X153852632Y-94351591D01*
X153834759Y-94364204D01*
X153817521Y-94377622D01*
X153800948Y-94391813D01*
X153785071Y-94406748D01*
X153769920Y-94422395D01*
X153755526Y-94438724D01*
X153741919Y-94455705D01*
X153729130Y-94473308D01*
X153717189Y-94491501D01*
X153706127Y-94510256D01*
X153695973Y-94529540D01*
X153686759Y-94549324D01*
X153678515Y-94569578D01*
X153671272Y-94590271D01*
X153665059Y-94611372D01*
X153659907Y-94632852D01*
X153659781Y-94633527D01*
X153655848Y-94654679D01*
X153652910Y-94676823D01*
X153651125Y-94699255D01*
X153650524Y-94721943D01*
X153520342Y-94721943D01*
X153520342Y-94289633D01*
X153342533Y-94289633D01*
X152996685Y-94990854D01*
X152652303Y-94289633D01*
X152466190Y-94289633D01*
X152098333Y-94289633D01*
X152098333Y-93906145D01*
X156907285Y-93906145D01*
X156907285Y-95548488D01*
G37*
G36*
X128420145Y-106672321D02*
G01*
X126533144Y-106672321D01*
X126533144Y-106268750D01*
X126936715Y-106268750D01*
X127797671Y-106268750D01*
X127811246Y-106268539D01*
X127824380Y-106267908D01*
X127837073Y-106266855D01*
X127849327Y-106265380D01*
X127872517Y-106261160D01*
X127893956Y-106255245D01*
X127913649Y-106247628D01*
X127931601Y-106238304D01*
X127947819Y-106227270D01*
X127962306Y-106214520D01*
X127975069Y-106200049D01*
X127986112Y-106183852D01*
X127995442Y-106165924D01*
X128003064Y-106146261D01*
X128008982Y-106124857D01*
X128013203Y-106101707D01*
X128014679Y-106089476D01*
X128015732Y-106076807D01*
X128016363Y-106063700D01*
X128016574Y-106050152D01*
X128016574Y-105892616D01*
X128016162Y-105876592D01*
X128014925Y-105861683D01*
X128012861Y-105847832D01*
X128009967Y-105834980D01*
X128006241Y-105823069D01*
X127999088Y-105806839D01*
X127990050Y-105792400D01*
X127979121Y-105779554D01*
X127966293Y-105768106D01*
X127951558Y-105757860D01*
X127940671Y-105751599D01*
X127928931Y-105745727D01*
X127916336Y-105740186D01*
X127909717Y-105737521D01*
X127922381Y-105732763D01*
X127934159Y-105727589D01*
X127945062Y-105721913D01*
X127959794Y-105712270D01*
X127972609Y-105701012D01*
X127983539Y-105687848D01*
X127992614Y-105672487D01*
X127997650Y-105660882D01*
X128001886Y-105648085D01*
X128005330Y-105634009D01*
X128007992Y-105618568D01*
X128009883Y-105601676D01*
X128011010Y-105583246D01*
X128011383Y-105563193D01*
X128011383Y-105395276D01*
X128011188Y-105382475D01*
X128010600Y-105370006D01*
X128008236Y-105346083D01*
X128004271Y-105323549D01*
X127998685Y-105302440D01*
X127991456Y-105282796D01*
X127982564Y-105264657D01*
X127971990Y-105248060D01*
X127959711Y-105233045D01*
X127945708Y-105219651D01*
X127929959Y-105207917D01*
X127912445Y-105197881D01*
X127893145Y-105189583D01*
X127872038Y-105183060D01*
X127849104Y-105178354D01*
X127836945Y-105176693D01*
X127824322Y-105175501D01*
X127811231Y-105174782D01*
X127797671Y-105174542D01*
X126938547Y-105174542D01*
X126938547Y-105395276D01*
X127797671Y-105395276D01*
X127797671Y-105620285D01*
X126943737Y-105620285D01*
X126943737Y-105838882D01*
X127797671Y-105838882D01*
X127797671Y-106050152D01*
X126936715Y-106050152D01*
X126936715Y-106268750D01*
X126533144Y-106268750D01*
X126533144Y-104770971D01*
X128420145Y-104770971D01*
X128420145Y-106672321D01*
G37*
G36*
X164828641Y-117672321D02*
G01*
X162140218Y-117672321D01*
X162140218Y-116174542D01*
X162543789Y-116174542D01*
X162543789Y-116395276D01*
X162764218Y-116395276D01*
X162764218Y-117050152D01*
X162543789Y-117050152D01*
X162543789Y-117268750D01*
X163201718Y-117268750D01*
X163201718Y-117050152D01*
X162983121Y-117050152D01*
X162983121Y-116174542D01*
X163327809Y-116174542D01*
X163327809Y-116838882D01*
X164206472Y-116838882D01*
X164206472Y-117050152D01*
X163331167Y-117050152D01*
X163331167Y-117268750D01*
X164206472Y-117268750D01*
X164219106Y-117268510D01*
X164231417Y-117267794D01*
X164255047Y-117264954D01*
X164277322Y-117260271D01*
X164298202Y-117253785D01*
X164317645Y-117245537D01*
X164335610Y-117235567D01*
X164352058Y-117223917D01*
X164366947Y-117210627D01*
X164380237Y-117195738D01*
X164391888Y-117179290D01*
X164401857Y-117161324D01*
X164410105Y-117141882D01*
X164416591Y-117121002D01*
X164421274Y-117098727D01*
X164424114Y-117075097D01*
X164424830Y-117062786D01*
X164425070Y-117050152D01*
X164425070Y-116838882D01*
X164424074Y-116815095D01*
X164421124Y-116792323D01*
X164416277Y-116770640D01*
X164409590Y-116750115D01*
X164401119Y-116730821D01*
X164390922Y-116712830D01*
X164379054Y-116696212D01*
X164365574Y-116681040D01*
X164350537Y-116667385D01*
X164334000Y-116655318D01*
X164316021Y-116644912D01*
X164296656Y-116636237D01*
X164275962Y-116629365D01*
X164253995Y-116624368D01*
X164230813Y-116621318D01*
X164206472Y-116620285D01*
X163548238Y-116620285D01*
X163548238Y-116395276D01*
X164414689Y-116395276D01*
X164414689Y-116174542D01*
X163327809Y-116174542D01*
X162983121Y-116174542D01*
X162543789Y-116174542D01*
X162140218Y-116174542D01*
X162140218Y-115770971D01*
X164828641Y-115770971D01*
X164828641Y-117672321D01*
G37*
G36*
X119451285Y-106672321D02*
G01*
X117546882Y-106672321D01*
X117546882Y-106268750D01*
X117950453Y-106268750D01*
X119047714Y-106268750D01*
X119047714Y-106050152D01*
X118170882Y-106050152D01*
X118170882Y-105838882D01*
X118829117Y-105838882D01*
X118852904Y-105837770D01*
X118875676Y-105834493D01*
X118897359Y-105829142D01*
X118917884Y-105821804D01*
X118937178Y-105812571D01*
X118955169Y-105801530D01*
X118971787Y-105788772D01*
X118986959Y-105774387D01*
X119000614Y-105758463D01*
X119012681Y-105741090D01*
X119023087Y-105722357D01*
X119031762Y-105702354D01*
X119038634Y-105681171D01*
X119043631Y-105658896D01*
X119046681Y-105635620D01*
X119047714Y-105611431D01*
X119047714Y-105395276D01*
X119047469Y-105382636D01*
X119046738Y-105370307D01*
X119043844Y-105346609D01*
X119039079Y-105324229D01*
X119032492Y-105303213D01*
X119024133Y-105283608D01*
X119014049Y-105265462D01*
X119002290Y-105248821D01*
X118988905Y-105233732D01*
X118973942Y-105220243D01*
X118957450Y-105208400D01*
X118939477Y-105198250D01*
X118920073Y-105189840D01*
X118899287Y-105183217D01*
X118877166Y-105178429D01*
X118853760Y-105175521D01*
X118829117Y-105174542D01*
X117964497Y-105174542D01*
X117964497Y-105395276D01*
X118829117Y-105395276D01*
X118829117Y-105620285D01*
X118170882Y-105620285D01*
X118147074Y-105621338D01*
X118124245Y-105624443D01*
X118102471Y-105629522D01*
X118081829Y-105636494D01*
X118062397Y-105645281D01*
X118044251Y-105655801D01*
X118027467Y-105667977D01*
X118012124Y-105681727D01*
X117998298Y-105696973D01*
X117986066Y-105713635D01*
X117975505Y-105731633D01*
X117966692Y-105750888D01*
X117959703Y-105771320D01*
X117954615Y-105792849D01*
X117951507Y-105815397D01*
X117950453Y-105838882D01*
X117950453Y-106268750D01*
X117546882Y-106268750D01*
X117546882Y-104770971D01*
X119451285Y-104770971D01*
X119451285Y-106672321D01*
G37*
G36*
X155861614Y-117672321D02*
G01*
X153153041Y-117672321D01*
X153153041Y-116174542D01*
X153556612Y-116174542D01*
X153556612Y-116395276D01*
X153777041Y-116395276D01*
X153777041Y-117050152D01*
X153556612Y-117050152D01*
X153556612Y-117268750D01*
X154214541Y-117268750D01*
X154214541Y-117050152D01*
X153995944Y-117050152D01*
X153995944Y-116174542D01*
X154220647Y-116174542D01*
X154220647Y-116838882D01*
X155099311Y-116838882D01*
X155099311Y-117268750D01*
X155319740Y-117268750D01*
X155319740Y-116838882D01*
X155458043Y-116838882D01*
X155458043Y-116620285D01*
X155319740Y-116620285D01*
X155319740Y-116174542D01*
X155099311Y-116174542D01*
X155099311Y-116620285D01*
X154441382Y-116620285D01*
X154441382Y-116174542D01*
X154220647Y-116174542D01*
X153995944Y-116174542D01*
X153556612Y-116174542D01*
X153153041Y-116174542D01*
X153153041Y-115770971D01*
X155861614Y-115770971D01*
X155861614Y-117672321D01*
G37*
G36*
X146456781Y-106672321D02*
G01*
X144552378Y-106672321D01*
X144552378Y-105174542D01*
X144955949Y-105174542D01*
X144955949Y-105838882D01*
X145834613Y-105838882D01*
X145834613Y-106050152D01*
X144959307Y-106050152D01*
X144959307Y-106268750D01*
X145834613Y-106268750D01*
X145847247Y-106268510D01*
X145859557Y-106267794D01*
X145883188Y-106264954D01*
X145905463Y-106260271D01*
X145926342Y-106253785D01*
X145945785Y-106245537D01*
X145963751Y-106235567D01*
X145980199Y-106223917D01*
X145995088Y-106210627D01*
X146008378Y-106195738D01*
X146020028Y-106179290D01*
X146029997Y-106161324D01*
X146038245Y-106141882D01*
X146044731Y-106121002D01*
X146049415Y-106098727D01*
X146052254Y-106075097D01*
X146052970Y-106062786D01*
X146053210Y-106050152D01*
X146053210Y-105838882D01*
X146052214Y-105815095D01*
X146049264Y-105792323D01*
X146044418Y-105770640D01*
X146037730Y-105750115D01*
X146029260Y-105730821D01*
X146019062Y-105712830D01*
X146007195Y-105696212D01*
X145993714Y-105681040D01*
X145978677Y-105667385D01*
X145962141Y-105655318D01*
X145944162Y-105644912D01*
X145924797Y-105636237D01*
X145904102Y-105629365D01*
X145882136Y-105624368D01*
X145858954Y-105621318D01*
X145834613Y-105620285D01*
X145176378Y-105620285D01*
X145176378Y-105395276D01*
X146042830Y-105395276D01*
X146042830Y-105174542D01*
X144955949Y-105174542D01*
X144552378Y-105174542D01*
X144552378Y-104770971D01*
X146456781Y-104770971D01*
X146456781Y-106672321D01*
G37*
G36*
X165224598Y-94987720D02*
G01*
X164698011Y-94987720D01*
X164698011Y-94469059D01*
X165224598Y-94469059D01*
X165224598Y-94987720D01*
G37*
G36*
X162986395Y-94452501D02*
G01*
X163000420Y-94453595D01*
X163014248Y-94455393D01*
X163027860Y-94457879D01*
X163041240Y-94461031D01*
X163054368Y-94464831D01*
X163067229Y-94469260D01*
X163079803Y-94474299D01*
X163092073Y-94479928D01*
X163104021Y-94486128D01*
X163115629Y-94492881D01*
X163126880Y-94500166D01*
X163137755Y-94507965D01*
X163148237Y-94516259D01*
X163158309Y-94525028D01*
X163167951Y-94534254D01*
X163177148Y-94543917D01*
X163185880Y-94553997D01*
X163194129Y-94564476D01*
X163201879Y-94575335D01*
X163209111Y-94586554D01*
X163215808Y-94598115D01*
X163221952Y-94609997D01*
X163227524Y-94622182D01*
X163232507Y-94634651D01*
X163236884Y-94647385D01*
X163240636Y-94660364D01*
X163243746Y-94673569D01*
X163246196Y-94686981D01*
X163247968Y-94700582D01*
X163249044Y-94714350D01*
X163249406Y-94728269D01*
X163249040Y-94742056D01*
X163247954Y-94755703D01*
X163246167Y-94769191D01*
X163243696Y-94782499D01*
X163240561Y-94795610D01*
X163236779Y-94808502D01*
X163232370Y-94821156D01*
X163227352Y-94833554D01*
X163221743Y-94845675D01*
X163215562Y-94857499D01*
X163208827Y-94869008D01*
X163201557Y-94880182D01*
X163193770Y-94891001D01*
X163185485Y-94901446D01*
X163176720Y-94911497D01*
X163167493Y-94921135D01*
X163157824Y-94930339D01*
X163147730Y-94939092D01*
X163137230Y-94947373D01*
X163126343Y-94955162D01*
X163115086Y-94962440D01*
X163103479Y-94969188D01*
X163091540Y-94975386D01*
X163079287Y-94981014D01*
X163066740Y-94986054D01*
X163053915Y-94990484D01*
X163040832Y-94994287D01*
X163027509Y-94997442D01*
X163013966Y-94999930D01*
X163000219Y-95001731D01*
X162986288Y-95002826D01*
X162972191Y-95003196D01*
X162957957Y-95002830D01*
X162943888Y-95001747D01*
X162930005Y-94999965D01*
X162916325Y-94997502D01*
X162902868Y-94994377D01*
X162889652Y-94990609D01*
X162876696Y-94986216D01*
X162864018Y-94981218D01*
X162851637Y-94975633D01*
X162839573Y-94969480D01*
X162827843Y-94962778D01*
X162816467Y-94955544D01*
X162805464Y-94947799D01*
X162794851Y-94939561D01*
X162784648Y-94930848D01*
X162774873Y-94921679D01*
X162765546Y-94912073D01*
X162756684Y-94902048D01*
X162748308Y-94891624D01*
X162740434Y-94880820D01*
X162733083Y-94869653D01*
X162726273Y-94858142D01*
X162720023Y-94846307D01*
X162714350Y-94834166D01*
X162709276Y-94821737D01*
X162704816Y-94809040D01*
X162700992Y-94796094D01*
X162697821Y-94782916D01*
X162695322Y-94769526D01*
X162693513Y-94755942D01*
X162692415Y-94742183D01*
X162692044Y-94728269D01*
X162692415Y-94714244D01*
X162693513Y-94700382D01*
X162695322Y-94686702D01*
X162697821Y-94673222D01*
X162700992Y-94659961D01*
X162704816Y-94646936D01*
X162709276Y-94634167D01*
X162714350Y-94621672D01*
X162720023Y-94609470D01*
X162726273Y-94597579D01*
X162733083Y-94586017D01*
X162740434Y-94574804D01*
X162748308Y-94563957D01*
X162756684Y-94553495D01*
X162765546Y-94543437D01*
X162774873Y-94533801D01*
X162784648Y-94524605D01*
X162794851Y-94515869D01*
X162805464Y-94507610D01*
X162816467Y-94499847D01*
X162827843Y-94492600D01*
X162839573Y-94485885D01*
X162851637Y-94479722D01*
X162864018Y-94474129D01*
X162876696Y-94469125D01*
X162889652Y-94464727D01*
X162902868Y-94460956D01*
X162916325Y-94457829D01*
X162930005Y-94455365D01*
X162943888Y-94453581D01*
X162957957Y-94452498D01*
X162972191Y-94452132D01*
X162986395Y-94452501D01*
G37*
G36*
X165767371Y-95821308D02*
G01*
X161217730Y-95821308D01*
X161217730Y-94647265D01*
X161584159Y-94647265D01*
X161584366Y-94657761D01*
X161584985Y-94667938D01*
X161586007Y-94677796D01*
X161589233Y-94696550D01*
X161593988Y-94714015D01*
X161600214Y-94730183D01*
X161607853Y-94745047D01*
X161616850Y-94758598D01*
X161627146Y-94770829D01*
X161638684Y-94781732D01*
X161651407Y-94791300D01*
X161665258Y-94799524D01*
X161680179Y-94806397D01*
X161696113Y-94811911D01*
X161713004Y-94816058D01*
X161730793Y-94818830D01*
X161749424Y-94820220D01*
X161759037Y-94820395D01*
X162225296Y-94820395D01*
X162225296Y-94987720D01*
X161596615Y-94987720D01*
X161596615Y-95160850D01*
X162225296Y-95160850D01*
X162235799Y-95160671D01*
X162246009Y-95160138D01*
X162255925Y-95159251D01*
X162274863Y-95156423D01*
X162292590Y-95152203D01*
X162309084Y-95146605D01*
X162324323Y-95139642D01*
X162338287Y-95131329D01*
X162350952Y-95121679D01*
X162362297Y-95110708D01*
X162372300Y-95098430D01*
X162380939Y-95084857D01*
X162388193Y-95070005D01*
X162394040Y-95053889D01*
X162398457Y-95036521D01*
X162401424Y-95017916D01*
X162402356Y-95008154D01*
X162402917Y-94998088D01*
X162403105Y-94987720D01*
X162403105Y-94820395D01*
X162402901Y-94810644D01*
X162401289Y-94791819D01*
X162398110Y-94773934D01*
X162393410Y-94757035D01*
X162387235Y-94741166D01*
X162380607Y-94728269D01*
X162517166Y-94728269D01*
X162517760Y-94751190D01*
X162519523Y-94773825D01*
X162522426Y-94796147D01*
X162526440Y-94818124D01*
X162531536Y-94839730D01*
X162537684Y-94860934D01*
X162544857Y-94881707D01*
X162553024Y-94902021D01*
X162562158Y-94921847D01*
X162572228Y-94941155D01*
X162583207Y-94959916D01*
X162595065Y-94978103D01*
X162607772Y-94995685D01*
X162621301Y-95012633D01*
X162635622Y-95028919D01*
X162650706Y-95044513D01*
X162666524Y-95059387D01*
X162683048Y-95073512D01*
X162700247Y-95086858D01*
X162718094Y-95099397D01*
X162736559Y-95111099D01*
X162755614Y-95121936D01*
X162775228Y-95131878D01*
X162795374Y-95140897D01*
X162816022Y-95148964D01*
X162837144Y-95156049D01*
X162858710Y-95162123D01*
X162880691Y-95167159D01*
X162903059Y-95171125D01*
X162925784Y-95173995D01*
X162948838Y-95175737D01*
X162972191Y-95176325D01*
X162995174Y-95175733D01*
X163017897Y-95173979D01*
X163040327Y-95171091D01*
X163062435Y-95167099D01*
X163084190Y-95162034D01*
X163105560Y-95155924D01*
X163126516Y-95148801D01*
X163147027Y-95140693D01*
X163167061Y-95131631D01*
X163186588Y-95121644D01*
X163205578Y-95110762D01*
X163223999Y-95099014D01*
X163241821Y-95086432D01*
X163259013Y-95073043D01*
X163275545Y-95058879D01*
X163291386Y-95043969D01*
X163306504Y-95028343D01*
X163320870Y-95012030D01*
X163334452Y-94995061D01*
X163347220Y-94977465D01*
X163359144Y-94959272D01*
X163370191Y-94940512D01*
X163380333Y-94921214D01*
X163389537Y-94901409D01*
X163397773Y-94881126D01*
X163405011Y-94860395D01*
X163411220Y-94839246D01*
X163416369Y-94817708D01*
X163420427Y-94795811D01*
X163423364Y-94773586D01*
X163425148Y-94751062D01*
X163425750Y-94728269D01*
X163425148Y-94705471D01*
X163423364Y-94682935D01*
X163420427Y-94660690D01*
X163416369Y-94638767D01*
X163411220Y-94617196D01*
X163405011Y-94596008D01*
X163397773Y-94575233D01*
X163389537Y-94554901D01*
X163380333Y-94535043D01*
X163370191Y-94515689D01*
X163359144Y-94496869D01*
X163347220Y-94478613D01*
X163334452Y-94460952D01*
X163320870Y-94443917D01*
X163306504Y-94427537D01*
X163291386Y-94411842D01*
X163275545Y-94396865D01*
X163259013Y-94382633D01*
X163241821Y-94369179D01*
X163223999Y-94356531D01*
X163205578Y-94344721D01*
X163186588Y-94333779D01*
X163167061Y-94323735D01*
X163147027Y-94314620D01*
X163126516Y-94306463D01*
X163105560Y-94299296D01*
X163087975Y-94294237D01*
X163554466Y-94294237D01*
X163554466Y-95160850D01*
X163729344Y-95160850D01*
X163729344Y-94469059D01*
X164210991Y-94469059D01*
X164210991Y-95160850D01*
X164387578Y-95160850D01*
X164387578Y-94991831D01*
X164521667Y-94991831D01*
X164522588Y-95009509D01*
X164525288Y-95026585D01*
X164529674Y-95042986D01*
X164535654Y-95058636D01*
X164543136Y-95073462D01*
X164552026Y-95087388D01*
X164562231Y-95100342D01*
X164573661Y-95112248D01*
X164586220Y-95123031D01*
X164599818Y-95132618D01*
X164614361Y-95140935D01*
X164629756Y-95147906D01*
X164645912Y-95153457D01*
X164662734Y-95157514D01*
X164680132Y-95160003D01*
X164698011Y-95160850D01*
X165224598Y-95160850D01*
X165224598Y-95280299D01*
X164926378Y-95280299D01*
X164926378Y-95454879D01*
X165224598Y-95454879D01*
X165235440Y-95454709D01*
X165245939Y-95454199D01*
X165256094Y-95453348D01*
X165265905Y-95452158D01*
X165284497Y-95448755D01*
X165301714Y-95443990D01*
X165317556Y-95437862D01*
X165332022Y-95430371D01*
X165345112Y-95421515D01*
X165356825Y-95411294D01*
X165367162Y-95399708D01*
X165376122Y-95386754D01*
X165383704Y-95372434D01*
X165389909Y-95356746D01*
X165394735Y-95339689D01*
X165398183Y-95321262D01*
X165399390Y-95311535D01*
X165400252Y-95301466D01*
X165400769Y-95291054D01*
X165400942Y-95280299D01*
X165400942Y-94294237D01*
X164698011Y-94294237D01*
X164688157Y-94294447D01*
X164669110Y-94296108D01*
X164650985Y-94299372D01*
X164633832Y-94304175D01*
X164617699Y-94310458D01*
X164602638Y-94318157D01*
X164588698Y-94327212D01*
X164575928Y-94337561D01*
X164564378Y-94349142D01*
X164554098Y-94361894D01*
X164545138Y-94375755D01*
X164537547Y-94390663D01*
X164531375Y-94406557D01*
X164526672Y-94423375D01*
X164523488Y-94441055D01*
X164521872Y-94459537D01*
X164521667Y-94469059D01*
X164521667Y-94991831D01*
X164387578Y-94991831D01*
X164387578Y-94469059D01*
X164387406Y-94458303D01*
X164386888Y-94447889D01*
X164386026Y-94437816D01*
X164384819Y-94428085D01*
X164381370Y-94409646D01*
X164376541Y-94392574D01*
X164370333Y-94376867D01*
X164362745Y-94362527D01*
X164353778Y-94349551D01*
X164343431Y-94337942D01*
X164331705Y-94327699D01*
X164318599Y-94318821D01*
X164304113Y-94311309D01*
X164288248Y-94305163D01*
X164271003Y-94300383D01*
X164252378Y-94296968D01*
X164242549Y-94295773D01*
X164232374Y-94294920D01*
X164221855Y-94294408D01*
X164210991Y-94294237D01*
X163554466Y-94294237D01*
X163087975Y-94294237D01*
X163084190Y-94293148D01*
X163062435Y-94288050D01*
X163040327Y-94284032D01*
X163017897Y-94281124D01*
X162995174Y-94279357D01*
X162972191Y-94278762D01*
X162948838Y-94279354D01*
X162925784Y-94281111D01*
X162903059Y-94284003D01*
X162880691Y-94288000D01*
X162858710Y-94293073D01*
X162837144Y-94299192D01*
X162816022Y-94306328D01*
X162795374Y-94314450D01*
X162775228Y-94323529D01*
X162755614Y-94333536D01*
X162736559Y-94344440D01*
X162718094Y-94356212D01*
X162700247Y-94368823D01*
X162683048Y-94382243D01*
X162666524Y-94396441D01*
X162650706Y-94411389D01*
X162635622Y-94427057D01*
X162621301Y-94443415D01*
X162607772Y-94460433D01*
X162595065Y-94478082D01*
X162583207Y-94496332D01*
X162572228Y-94515153D01*
X162562158Y-94534516D01*
X162553024Y-94554391D01*
X162544857Y-94574749D01*
X162537684Y-94595559D01*
X162531536Y-94616793D01*
X162526440Y-94638420D01*
X162522426Y-94660411D01*
X162519523Y-94682735D01*
X162517760Y-94705365D01*
X162517166Y-94728269D01*
X162380607Y-94728269D01*
X162379632Y-94726372D01*
X162370648Y-94712698D01*
X162360329Y-94700190D01*
X162348722Y-94688891D01*
X162335873Y-94678848D01*
X162321829Y-94670104D01*
X162306635Y-94662706D01*
X162290340Y-94656698D01*
X162272988Y-94652125D01*
X162254628Y-94649032D01*
X162235304Y-94647464D01*
X162225296Y-94647265D01*
X161759037Y-94647265D01*
X161759037Y-94469059D01*
X162359630Y-94469059D01*
X162359630Y-94294237D01*
X161759037Y-94294237D01*
X161749187Y-94294423D01*
X161730172Y-94295906D01*
X161712107Y-94298849D01*
X161695037Y-94303226D01*
X161679008Y-94309014D01*
X161664064Y-94316188D01*
X161650252Y-94324724D01*
X161637617Y-94334597D01*
X161626205Y-94345783D01*
X161616060Y-94358258D01*
X161607228Y-94371996D01*
X161599755Y-94386974D01*
X161593686Y-94403167D01*
X161589067Y-94420551D01*
X161585943Y-94439101D01*
X161584955Y-94448805D01*
X161584359Y-94458792D01*
X161584159Y-94469059D01*
X161584159Y-94647265D01*
X161217730Y-94647265D01*
X161217730Y-93912333D01*
X165767371Y-93912333D01*
X165767371Y-95821308D01*
G37*
G36*
X154830644Y-106050152D02*
G01*
X154172715Y-106050152D01*
X154172715Y-105825143D01*
X154830644Y-105825143D01*
X154830644Y-106050152D01*
G37*
G36*
X155456476Y-106672321D02*
G01*
X153550241Y-106672321D01*
X153550241Y-106050152D01*
X153953812Y-106050152D01*
X153954906Y-106073386D01*
X153958122Y-106095747D01*
X153963366Y-106117148D01*
X153970542Y-106137502D01*
X153979556Y-106156725D01*
X153990311Y-106174729D01*
X154002713Y-106191427D01*
X154016667Y-106206735D01*
X154032076Y-106220565D01*
X154048847Y-106232830D01*
X154066883Y-106243446D01*
X154086090Y-106252325D01*
X154106372Y-106259381D01*
X154127633Y-106264528D01*
X154149779Y-106267680D01*
X154172715Y-106268750D01*
X154830644Y-106268750D01*
X154843745Y-106268510D01*
X154856485Y-106267794D01*
X154868860Y-106266607D01*
X154892501Y-106262840D01*
X154914639Y-106257251D01*
X154935246Y-106249879D01*
X154954293Y-106240765D01*
X154971751Y-106229950D01*
X154987592Y-106217475D01*
X155001788Y-106203380D01*
X155014309Y-106187706D01*
X155025127Y-106170495D01*
X155034213Y-106151785D01*
X155041539Y-106131619D01*
X155047076Y-106110037D01*
X155050796Y-106087079D01*
X155052670Y-106062786D01*
X155052905Y-106050152D01*
X155052905Y-105825143D01*
X155052655Y-105812799D01*
X155050672Y-105788940D01*
X155046756Y-105766240D01*
X155040957Y-105744760D01*
X155033328Y-105724562D01*
X155023919Y-105705709D01*
X155012783Y-105688261D01*
X154999970Y-105672280D01*
X154985532Y-105657828D01*
X154969521Y-105644967D01*
X154951988Y-105633759D01*
X154932984Y-105624265D01*
X154912560Y-105616547D01*
X154890769Y-105610666D01*
X154867661Y-105606685D01*
X154843289Y-105604664D01*
X154830644Y-105604409D01*
X154172715Y-105604409D01*
X154172715Y-105395276D01*
X155040693Y-105395276D01*
X155040693Y-105174542D01*
X154172715Y-105174542D01*
X154149779Y-105175655D01*
X154127633Y-105178930D01*
X154106372Y-105184264D01*
X154086090Y-105191557D01*
X154066883Y-105200710D01*
X154048847Y-105211620D01*
X154032076Y-105224187D01*
X154016667Y-105238312D01*
X154002713Y-105253892D01*
X153990311Y-105270828D01*
X153979556Y-105289019D01*
X153970542Y-105308365D01*
X153963366Y-105328764D01*
X153958122Y-105350116D01*
X153954906Y-105372320D01*
X153953812Y-105395276D01*
X153953812Y-105825143D01*
X153953812Y-106050152D01*
X153550241Y-106050152D01*
X153550241Y-104770971D01*
X155456476Y-104770971D01*
X155456476Y-106672321D01*
G37*
G36*
X172988557Y-94452354D02*
G01*
X172999025Y-94453011D01*
X173009425Y-94454097D01*
X173019745Y-94455603D01*
X173029974Y-94457521D01*
X173040101Y-94459842D01*
X173050116Y-94462559D01*
X173060006Y-94465662D01*
X173069761Y-94469144D01*
X173079370Y-94472996D01*
X173088822Y-94477211D01*
X173098106Y-94481779D01*
X173107211Y-94486693D01*
X173116125Y-94491944D01*
X173124838Y-94497524D01*
X173133338Y-94503424D01*
X173141615Y-94509637D01*
X173149658Y-94516155D01*
X173157454Y-94522968D01*
X173164995Y-94530068D01*
X173172267Y-94537448D01*
X173179261Y-94545099D01*
X173185965Y-94553013D01*
X173192368Y-94561181D01*
X173198459Y-94569595D01*
X173204228Y-94578247D01*
X173209662Y-94587129D01*
X173214751Y-94596232D01*
X173219484Y-94605548D01*
X173223850Y-94615069D01*
X173227838Y-94624786D01*
X173231436Y-94634692D01*
X172724391Y-94634692D01*
X172727983Y-94624680D01*
X172731949Y-94614870D01*
X172736282Y-94605269D01*
X172740971Y-94595885D01*
X172746008Y-94586725D01*
X172751381Y-94577798D01*
X172757082Y-94569111D01*
X172763101Y-94560671D01*
X172769429Y-94552486D01*
X172776055Y-94544563D01*
X172782971Y-94536911D01*
X172790167Y-94529537D01*
X172797632Y-94522448D01*
X172805358Y-94515653D01*
X172813335Y-94509158D01*
X172821554Y-94502971D01*
X172830004Y-94497100D01*
X172838676Y-94491553D01*
X172847560Y-94486337D01*
X172856648Y-94481460D01*
X172865928Y-94476930D01*
X172875393Y-94472753D01*
X172885032Y-94468938D01*
X172894835Y-94465492D01*
X172904793Y-94462423D01*
X172914896Y-94459739D01*
X172925135Y-94457446D01*
X172935500Y-94455554D01*
X172945982Y-94454068D01*
X172956571Y-94452998D01*
X172967257Y-94452350D01*
X172978031Y-94452132D01*
X172988557Y-94452354D01*
G37*
G36*
X171390445Y-94987720D02*
G01*
X170886208Y-94987720D01*
X170886208Y-94820395D01*
X171390445Y-94820395D01*
X171390445Y-94987720D01*
G37*
G36*
X170454740Y-94647265D02*
G01*
X169962437Y-94647265D01*
X169962437Y-94469059D01*
X170454740Y-94469059D01*
X170454740Y-94647265D01*
G37*
G36*
X175578311Y-95542754D02*
G01*
X169428475Y-95542754D01*
X169428475Y-94294237D01*
X169794904Y-94294237D01*
X169794904Y-94469059D01*
X169794904Y-95160850D01*
X169962437Y-95160850D01*
X169962437Y-94820395D01*
X170454740Y-94820395D01*
X170465021Y-94820228D01*
X170474979Y-94819728D01*
X170484614Y-94818894D01*
X170493926Y-94817726D01*
X170511581Y-94814384D01*
X170527941Y-94809699D01*
X170543004Y-94803666D01*
X170556768Y-94796282D01*
X170569230Y-94787543D01*
X170580390Y-94777445D01*
X170590245Y-94765984D01*
X170598792Y-94753156D01*
X170606030Y-94738957D01*
X170611956Y-94723383D01*
X170616569Y-94706431D01*
X170619867Y-94688097D01*
X170621022Y-94678410D01*
X170621847Y-94668376D01*
X170622342Y-94657995D01*
X170622507Y-94647265D01*
X170622507Y-94469059D01*
X170621641Y-94451316D01*
X170619099Y-94434055D01*
X170614965Y-94417368D01*
X170609324Y-94401347D01*
X170602259Y-94386082D01*
X170593856Y-94371665D01*
X170584198Y-94358187D01*
X170573371Y-94345740D01*
X170561457Y-94334415D01*
X170548542Y-94324304D01*
X170534709Y-94315498D01*
X170520044Y-94308087D01*
X170504630Y-94302165D01*
X170488552Y-94297821D01*
X170471894Y-94295148D01*
X170454740Y-94294237D01*
X170718441Y-94294237D01*
X170718441Y-94469059D01*
X171390445Y-94469059D01*
X171390445Y-94647265D01*
X170886208Y-94647265D01*
X170868168Y-94648099D01*
X170850851Y-94650559D01*
X170834320Y-94654581D01*
X170818634Y-94660104D01*
X170803854Y-94667062D01*
X170790042Y-94675395D01*
X170777257Y-94685037D01*
X170765560Y-94695928D01*
X170755012Y-94708003D01*
X170745673Y-94721199D01*
X170737605Y-94735453D01*
X170730868Y-94750703D01*
X170725522Y-94766885D01*
X170721629Y-94783936D01*
X170719248Y-94801794D01*
X170718441Y-94820395D01*
X170718441Y-94987720D01*
X170719248Y-95006122D01*
X170721629Y-95023831D01*
X170725522Y-95040781D01*
X170730868Y-95056902D01*
X170737605Y-95072126D01*
X170745673Y-95086385D01*
X170755012Y-95099610D01*
X170765560Y-95111734D01*
X170777257Y-95122687D01*
X170790042Y-95132402D01*
X170803854Y-95140809D01*
X170818634Y-95147841D01*
X170834320Y-95153430D01*
X170850851Y-95157506D01*
X170868168Y-95160002D01*
X170886208Y-95160850D01*
X171559382Y-95160850D01*
X171559382Y-94469059D01*
X171558575Y-94450399D01*
X171556192Y-94432458D01*
X171552293Y-94415303D01*
X171546937Y-94399001D01*
X171540182Y-94383618D01*
X171532088Y-94369221D01*
X171522713Y-94355878D01*
X171512117Y-94343655D01*
X171500358Y-94332619D01*
X171487496Y-94322838D01*
X171473588Y-94314377D01*
X171458695Y-94307305D01*
X171442876Y-94301688D01*
X171426188Y-94297593D01*
X171408691Y-94295087D01*
X171390445Y-94294237D01*
X170718441Y-94294237D01*
X170454740Y-94294237D01*
X169794904Y-94294237D01*
X169428475Y-94294237D01*
X169428475Y-94046633D01*
X171696029Y-94046633D01*
X171696029Y-94987720D01*
X171696836Y-95006122D01*
X171699216Y-95023831D01*
X171703108Y-95040781D01*
X171708452Y-95056902D01*
X171715186Y-95072126D01*
X171723249Y-95086385D01*
X171732580Y-95099610D01*
X171743118Y-95111734D01*
X171754803Y-95122687D01*
X171767572Y-95132402D01*
X171781366Y-95140809D01*
X171796123Y-95147841D01*
X171811782Y-95153430D01*
X171828282Y-95157506D01*
X171845563Y-95160002D01*
X171863562Y-95160850D01*
X172032733Y-95160850D01*
X172032733Y-94987720D01*
X171863562Y-94987720D01*
X171863562Y-94455034D01*
X172032733Y-94455034D01*
X172032733Y-94294237D01*
X171863562Y-94294237D01*
X171863562Y-94046633D01*
X172128433Y-94046633D01*
X172128433Y-94987720D01*
X172129240Y-95006122D01*
X172131620Y-95023831D01*
X172135512Y-95040781D01*
X172140856Y-95056902D01*
X172147589Y-95072126D01*
X172155652Y-95086385D01*
X172164984Y-95099610D01*
X172175522Y-95111734D01*
X172187206Y-95122687D01*
X172199976Y-95132402D01*
X172213770Y-95140809D01*
X172228527Y-95147841D01*
X172244186Y-95153430D01*
X172260686Y-95157506D01*
X172277966Y-95160002D01*
X172295966Y-95160850D01*
X172465136Y-95160850D01*
X172465136Y-94987720D01*
X172295966Y-94987720D01*
X172295966Y-94722224D01*
X172542117Y-94722224D01*
X172542694Y-94745694D01*
X172544404Y-94768844D01*
X172547218Y-94791647D01*
X172551107Y-94814075D01*
X172556042Y-94836099D01*
X172561994Y-94857691D01*
X172568933Y-94878825D01*
X172576831Y-94899471D01*
X172585658Y-94919602D01*
X172595385Y-94939190D01*
X172605983Y-94958208D01*
X172617423Y-94976627D01*
X172629675Y-94994419D01*
X172642710Y-95011557D01*
X172656499Y-95028012D01*
X172671014Y-95043758D01*
X172686224Y-95058765D01*
X172702101Y-95073006D01*
X172718615Y-95086453D01*
X172735737Y-95099078D01*
X172753439Y-95110854D01*
X172771690Y-95121751D01*
X172790463Y-95131744D01*
X172809726Y-95140803D01*
X172829452Y-95148900D01*
X172849612Y-95156009D01*
X172870175Y-95162100D01*
X172891113Y-95167147D01*
X172912397Y-95171120D01*
X172933997Y-95173993D01*
X172955885Y-95175737D01*
X172978031Y-95176325D01*
X172994328Y-95176002D01*
X173010524Y-95175041D01*
X173026605Y-95173451D01*
X173042558Y-95171244D01*
X173058367Y-95168429D01*
X173074018Y-95165018D01*
X173089498Y-95161019D01*
X173104792Y-95156444D01*
X173119886Y-95151303D01*
X173134765Y-95145607D01*
X173149416Y-95139365D01*
X173163824Y-95132588D01*
X173177975Y-95125287D01*
X173191854Y-95117471D01*
X173205448Y-95109152D01*
X173218743Y-95100339D01*
X173231723Y-95091043D01*
X173244375Y-95081274D01*
X173256685Y-95071043D01*
X173268638Y-95060360D01*
X173280220Y-95049235D01*
X173291417Y-95037679D01*
X173302215Y-95025701D01*
X173312600Y-95013313D01*
X173322556Y-95000525D01*
X173332071Y-94987347D01*
X173341129Y-94973790D01*
X173349717Y-94959863D01*
X173357821Y-94945578D01*
X173365425Y-94930944D01*
X173372516Y-94915972D01*
X173379080Y-94900672D01*
X173185809Y-94900672D01*
X173175589Y-94912861D01*
X173165019Y-94924308D01*
X173154096Y-94935005D01*
X173142814Y-94944948D01*
X173131171Y-94954130D01*
X173119162Y-94962545D01*
X173106782Y-94970188D01*
X173094029Y-94977051D01*
X173080897Y-94983129D01*
X173067382Y-94988417D01*
X173053481Y-94992908D01*
X173039189Y-94996595D01*
X173024502Y-94999474D01*
X173009416Y-95001537D01*
X172993927Y-95002780D01*
X172978031Y-95003196D01*
X172967257Y-95002963D01*
X172956571Y-95002271D01*
X172945982Y-95001128D01*
X172935500Y-94999542D01*
X172925135Y-94997520D01*
X172914896Y-94995072D01*
X172904793Y-94992204D01*
X172894835Y-94988926D01*
X172885032Y-94985245D01*
X172875393Y-94981169D01*
X172865928Y-94976707D01*
X172856648Y-94971866D01*
X172847560Y-94966655D01*
X172838676Y-94961082D01*
X172830004Y-94955155D01*
X172821554Y-94948881D01*
X172813335Y-94942270D01*
X172805358Y-94935329D01*
X172797632Y-94928066D01*
X172790167Y-94920490D01*
X172782971Y-94912608D01*
X172776055Y-94904429D01*
X172769429Y-94895960D01*
X172763101Y-94887211D01*
X172757082Y-94878188D01*
X172751381Y-94868900D01*
X172746008Y-94859356D01*
X172740971Y-94849562D01*
X172736282Y-94839528D01*
X172731949Y-94829261D01*
X172727983Y-94818770D01*
X172724391Y-94808063D01*
X173404585Y-94808063D01*
X173406868Y-94797234D01*
X173408811Y-94786490D01*
X173410425Y-94775802D01*
X173411721Y-94765143D01*
X173412710Y-94754484D01*
X173413403Y-94743797D01*
X173413811Y-94733053D01*
X173413944Y-94722224D01*
X173413371Y-94699762D01*
X173411671Y-94677555D01*
X173408872Y-94655632D01*
X173405003Y-94634023D01*
X173400092Y-94612758D01*
X173394168Y-94591868D01*
X173387259Y-94571382D01*
X173379395Y-94551331D01*
X173370603Y-94531745D01*
X173360912Y-94512653D01*
X173350351Y-94494086D01*
X173338948Y-94476074D01*
X173326731Y-94458648D01*
X173313730Y-94441837D01*
X173299972Y-94425671D01*
X173285487Y-94410180D01*
X173270302Y-94395395D01*
X173254447Y-94381346D01*
X173237949Y-94368062D01*
X173220838Y-94355575D01*
X173203142Y-94343913D01*
X173184890Y-94333108D01*
X173166109Y-94323188D01*
X173146829Y-94314185D01*
X173127078Y-94306129D01*
X173106884Y-94299049D01*
X173090559Y-94294237D01*
X173536786Y-94294237D01*
X173536786Y-95160850D01*
X173704319Y-95160850D01*
X173704319Y-94469059D01*
X174137659Y-94469059D01*
X174137659Y-94642671D01*
X174306596Y-94642671D01*
X174306596Y-94469059D01*
X174306430Y-94458303D01*
X174305935Y-94447889D01*
X174305109Y-94437816D01*
X174303953Y-94428085D01*
X174300650Y-94409646D01*
X174296026Y-94392574D01*
X174290082Y-94376867D01*
X174282818Y-94362527D01*
X174274235Y-94349551D01*
X174264332Y-94337942D01*
X174253111Y-94327699D01*
X174240570Y-94318821D01*
X174226712Y-94311309D01*
X174211536Y-94305163D01*
X174195042Y-94300383D01*
X174177231Y-94296968D01*
X174167832Y-94295773D01*
X174158103Y-94294920D01*
X174148045Y-94294408D01*
X174137659Y-94294237D01*
X174413761Y-94294237D01*
X174413761Y-95160850D01*
X174581294Y-95160850D01*
X174581294Y-94469059D01*
X175042711Y-94469059D01*
X175042711Y-95160850D01*
X175211882Y-95160850D01*
X175211882Y-94469059D01*
X175211717Y-94458303D01*
X175211221Y-94447889D01*
X175210395Y-94437816D01*
X175209239Y-94428085D01*
X175205935Y-94409646D01*
X175201309Y-94392574D01*
X175195362Y-94376867D01*
X175188093Y-94362527D01*
X175179502Y-94349551D01*
X175169590Y-94337942D01*
X175158356Y-94327699D01*
X175145800Y-94318821D01*
X175131923Y-94311309D01*
X175116724Y-94305163D01*
X175100203Y-94300383D01*
X175082361Y-94296968D01*
X175072944Y-94295773D01*
X175063197Y-94294920D01*
X175053119Y-94294408D01*
X175042711Y-94294237D01*
X174413761Y-94294237D01*
X174137659Y-94294237D01*
X173536786Y-94294237D01*
X173090559Y-94294237D01*
X173086277Y-94292975D01*
X173065284Y-94287939D01*
X173043935Y-94283969D01*
X173022257Y-94281096D01*
X173000280Y-94279350D01*
X172978031Y-94278762D01*
X172955885Y-94279350D01*
X172933997Y-94281096D01*
X172912397Y-94283969D01*
X172891113Y-94287939D01*
X172870175Y-94292975D01*
X172849612Y-94299049D01*
X172829452Y-94306129D01*
X172809726Y-94314185D01*
X172790463Y-94323188D01*
X172771690Y-94333108D01*
X172753439Y-94343913D01*
X172735737Y-94355575D01*
X172718615Y-94368062D01*
X172702101Y-94381346D01*
X172686224Y-94395395D01*
X172671014Y-94410180D01*
X172656499Y-94425671D01*
X172642710Y-94441837D01*
X172629675Y-94458648D01*
X172617423Y-94476074D01*
X172605983Y-94494086D01*
X172595385Y-94512653D01*
X172585658Y-94531745D01*
X172576831Y-94551331D01*
X172568933Y-94571382D01*
X172561994Y-94591868D01*
X172556042Y-94612758D01*
X172551107Y-94634023D01*
X172550987Y-94634692D01*
X172547218Y-94655632D01*
X172544404Y-94677555D01*
X172542694Y-94699762D01*
X172542117Y-94722224D01*
X172295966Y-94722224D01*
X172295966Y-94455034D01*
X172465136Y-94455034D01*
X172465136Y-94294237D01*
X172295966Y-94294237D01*
X172295966Y-94046633D01*
X172128433Y-94046633D01*
X171863562Y-94046633D01*
X171696029Y-94046633D01*
X169428475Y-94046633D01*
X169428475Y-93680204D01*
X175578311Y-93680204D01*
X175578311Y-95542754D01*
G37*
G04 #@! TO.C,kibuzzard-6544E169*
G36*
X145781741Y-129175689D02*
G01*
X144583813Y-129175689D01*
X144583813Y-128763574D01*
X145781741Y-128763574D01*
X145781741Y-129175689D01*
G37*
G36*
X150514078Y-129175689D02*
G01*
X149284718Y-129175689D01*
X149284718Y-128763574D01*
X150514078Y-128763574D01*
X150514078Y-129175689D01*
G37*
G36*
X150514078Y-129996426D02*
G01*
X149284718Y-129996426D01*
X149284718Y-129584311D01*
X150514078Y-129584311D01*
X150514078Y-129996426D01*
G37*
G36*
X152427968Y-131132653D02*
G01*
X150514078Y-131132653D01*
X148530338Y-131132653D01*
X144583813Y-131132653D01*
X144175191Y-131132653D01*
X143447587Y-131132653D01*
X142395995Y-131132653D01*
X142614276Y-130405049D01*
X144175191Y-130405049D01*
X144583813Y-130405049D01*
X144583813Y-129996426D01*
X146480241Y-129996426D01*
X146525643Y-130223439D01*
X146661851Y-130359646D01*
X146888863Y-130405049D01*
X148530338Y-130405049D01*
X148876096Y-130405049D01*
X150514078Y-130405049D01*
X152627041Y-130405049D01*
X153856401Y-130405049D01*
X153856401Y-129996426D01*
X153447778Y-129996426D01*
X153447778Y-128354951D01*
X152627041Y-128354951D01*
X152627041Y-128763574D01*
X153039156Y-128763574D01*
X153039156Y-129996426D01*
X152627041Y-129996426D01*
X152627041Y-130405049D01*
X150514078Y-130405049D01*
X150732942Y-130358870D01*
X150867985Y-130220334D01*
X150919208Y-129989441D01*
X150924447Y-129846249D01*
X150926193Y-129689086D01*
X150896593Y-129584311D01*
X151198608Y-129584311D01*
X152427968Y-129584311D01*
X152427968Y-129175689D01*
X151198608Y-129175689D01*
X151198608Y-129584311D01*
X150896593Y-129584311D01*
X150871187Y-129494379D01*
X150706166Y-129406194D01*
X150871187Y-129335471D01*
X150926193Y-129123301D01*
X150926193Y-128763574D01*
X150897380Y-128601172D01*
X150810941Y-128470204D01*
X150679099Y-128383764D01*
X150514078Y-128354951D01*
X148876096Y-128354951D01*
X148876096Y-130405049D01*
X148530338Y-130405049D01*
X148530338Y-129175689D01*
X147300978Y-129175689D01*
X147300978Y-129584311D01*
X148118223Y-129584311D01*
X148118223Y-129996426D01*
X146888863Y-129996426D01*
X146888863Y-128763574D01*
X148460488Y-128763574D01*
X148460488Y-128354951D01*
X146888863Y-128354951D01*
X146730828Y-128384637D01*
X146598986Y-128473696D01*
X146509927Y-128605538D01*
X146480241Y-128763574D01*
X146480241Y-129996426D01*
X144583813Y-129996426D01*
X144583813Y-129584311D01*
X145781741Y-129584311D01*
X146008753Y-129538909D01*
X146144961Y-129402701D01*
X146190363Y-129175689D01*
X146190363Y-128763574D01*
X146160677Y-128605538D01*
X146071618Y-128473696D01*
X145939776Y-128384637D01*
X145781741Y-128354951D01*
X144175191Y-128354951D01*
X144175191Y-130405049D01*
X142614276Y-130405049D01*
X143447587Y-127627347D01*
X144175191Y-127627347D01*
X153856401Y-127627347D01*
X154584005Y-127627347D01*
X154584005Y-131132653D01*
X153856401Y-131132653D01*
X152427968Y-131132653D01*
G37*
G04 #@! TO.C,kibuzzard-66CCD5B1*
G36*
X122818543Y-73835759D02*
G01*
X122913992Y-73901244D01*
X122978881Y-73997288D01*
X123000511Y-74110794D01*
X122978881Y-74223109D01*
X122913992Y-74318756D01*
X122818543Y-74384241D01*
X122705236Y-74406069D01*
X122591729Y-74384241D01*
X122495686Y-74318756D01*
X122430201Y-74223109D01*
X122408373Y-74110794D01*
X122430201Y-73997288D01*
X122495686Y-73901244D01*
X122591729Y-73835759D01*
X122705236Y-73813931D01*
X122818543Y-73835759D01*
G37*
G36*
X123500573Y-74922535D02*
G01*
X122705236Y-74922535D01*
X122222636Y-74922535D01*
X121891906Y-74922535D01*
X121404385Y-74922535D01*
X121647907Y-74110794D01*
X122222636Y-74110794D01*
X122231466Y-74206441D01*
X122257957Y-74294944D01*
X122302110Y-74376303D01*
X122363923Y-74450519D01*
X122438238Y-74512332D01*
X122519895Y-74556484D01*
X122608894Y-74582976D01*
X122705236Y-74591806D01*
X122800882Y-74582976D01*
X122824418Y-74575931D01*
X123314836Y-74575931D01*
X123500573Y-74575931D01*
X124240348Y-74575931D01*
X124426086Y-74575931D01*
X124426086Y-74202869D01*
X124984886Y-74202869D01*
X124984886Y-74017131D01*
X124426086Y-74017131D01*
X124426086Y-73829806D01*
X124984886Y-73829806D01*
X124984886Y-73644069D01*
X124240348Y-73644069D01*
X124240348Y-74575931D01*
X123500573Y-74575931D01*
X123500573Y-74202869D01*
X124059373Y-74202869D01*
X124059373Y-74017131D01*
X123500573Y-74017131D01*
X123500573Y-73829806D01*
X124059373Y-73829806D01*
X124059373Y-73644069D01*
X123314836Y-73644069D01*
X123314836Y-74575931D01*
X122824418Y-74575931D01*
X122889386Y-74556484D01*
X122970745Y-74512332D01*
X123044961Y-74450519D01*
X123106774Y-74376303D01*
X123150926Y-74294944D01*
X123177418Y-74206441D01*
X123186248Y-74110794D01*
X123177418Y-74014452D01*
X123150926Y-73925453D01*
X123106774Y-73843796D01*
X123044961Y-73769481D01*
X122970745Y-73707668D01*
X122889386Y-73663516D01*
X122800882Y-73637024D01*
X122705236Y-73628194D01*
X122608894Y-73637024D01*
X122519895Y-73663516D01*
X122438238Y-73707668D01*
X122363923Y-73769481D01*
X122302110Y-73843796D01*
X122257957Y-73925453D01*
X122231466Y-74014452D01*
X122222636Y-74110794D01*
X121647907Y-74110794D01*
X121891906Y-73297465D01*
X122222636Y-73297465D01*
X124984886Y-73297465D01*
X125315615Y-73297465D01*
X125315615Y-74922535D01*
X124984886Y-74922535D01*
X124426086Y-74922535D01*
X123500573Y-74922535D01*
G37*
G04 #@! TO.C,kibuzzard-66CCD5A9*
G36*
X119514722Y-73835759D02*
G01*
X119610171Y-73901244D01*
X119675060Y-73997288D01*
X119696689Y-74110794D01*
X119675060Y-74223109D01*
X119610171Y-74318756D01*
X119514722Y-74384241D01*
X119401414Y-74406069D01*
X119287908Y-74384241D01*
X119191864Y-74318756D01*
X119126380Y-74223109D01*
X119104552Y-74110794D01*
X119126380Y-73997288D01*
X119191864Y-73901244D01*
X119287908Y-73835759D01*
X119401414Y-73813931D01*
X119514722Y-73835759D01*
G37*
G36*
X119401414Y-74922535D02*
G01*
X118918814Y-74922535D01*
X118588085Y-74922535D01*
X118588085Y-74110794D01*
X118918814Y-74110794D01*
X118927645Y-74206441D01*
X118954136Y-74294944D01*
X118998289Y-74376303D01*
X119060102Y-74450519D01*
X119134417Y-74512332D01*
X119216074Y-74556484D01*
X119305073Y-74582976D01*
X119401414Y-74591806D01*
X119497061Y-74582976D01*
X119520597Y-74575931D01*
X120009427Y-74575931D01*
X120195164Y-74575931D01*
X120195164Y-73829806D01*
X120706339Y-73829806D01*
X120706339Y-74575931D01*
X120893664Y-74575931D01*
X120893664Y-73829806D01*
X120872850Y-73726619D01*
X120810409Y-73664706D01*
X120706339Y-73644069D01*
X120009427Y-73644069D01*
X120009427Y-74575931D01*
X119520597Y-74575931D01*
X119585564Y-74556484D01*
X119666924Y-74512332D01*
X119741139Y-74450519D01*
X119802953Y-74376303D01*
X119847105Y-74294944D01*
X119873596Y-74206441D01*
X119882427Y-74110794D01*
X119873596Y-74014452D01*
X119847105Y-73925453D01*
X119802953Y-73843796D01*
X119741139Y-73769481D01*
X119666924Y-73707668D01*
X119585564Y-73663516D01*
X119497061Y-73637024D01*
X119401414Y-73628194D01*
X119305073Y-73637024D01*
X119216074Y-73663516D01*
X119134417Y-73707668D01*
X119060102Y-73769481D01*
X118998289Y-73843796D01*
X118954136Y-73925453D01*
X118927645Y-74014452D01*
X118918814Y-74110794D01*
X118588085Y-74110794D01*
X118588085Y-73297465D01*
X118918814Y-73297465D01*
X120893664Y-73297465D01*
X121224394Y-73297465D01*
X121711915Y-73297465D01*
X121224394Y-74922535D01*
X120893664Y-74922535D01*
X119401414Y-74922535D01*
G37*
G04 #@! TO.C,kibuzzard-65AB62BC*
G36*
X132001855Y-129982417D02*
G01*
X130800435Y-129982417D01*
X130800435Y-129579668D01*
X132001855Y-129579668D01*
X132001855Y-129982417D01*
G37*
G36*
X112302151Y-128773744D02*
G01*
X112478780Y-128864618D01*
X112620425Y-129004130D01*
X112710873Y-129180332D01*
X111502627Y-129180332D01*
X111593074Y-129004130D01*
X111734719Y-128864618D01*
X111911348Y-128773744D01*
X112106750Y-128743452D01*
X112302151Y-128773744D01*
G37*
G36*
X114588945Y-128773744D02*
G01*
X114765574Y-128864618D01*
X114907219Y-129004130D01*
X114997667Y-129180332D01*
X113789420Y-129180332D01*
X113879868Y-129004130D01*
X114021513Y-128864618D01*
X114198142Y-128773744D01*
X114393543Y-128743452D01*
X114588945Y-128773744D01*
G37*
G36*
X125493879Y-128773744D02*
G01*
X125670508Y-128864618D01*
X125812153Y-129004130D01*
X125902601Y-129180332D01*
X124694355Y-129180332D01*
X124784802Y-129004130D01*
X124926447Y-128864618D01*
X125103076Y-128773744D01*
X125298478Y-128743452D01*
X125493879Y-128773744D01*
G37*
G36*
X136173547Y-128773744D02*
G01*
X136350177Y-128864618D01*
X136491821Y-129004130D01*
X136582269Y-129180332D01*
X135374023Y-129180332D01*
X135464471Y-129004130D01*
X135606115Y-128864618D01*
X135782745Y-128773744D01*
X135978146Y-128743452D01*
X136173547Y-128773744D01*
G37*
G36*
X120299530Y-128790383D02*
G01*
X120504744Y-128931174D01*
X120644255Y-129137668D01*
X120690759Y-129381707D01*
X120644255Y-129623185D01*
X120504744Y-129828826D01*
X120299530Y-129969617D01*
X120055918Y-130016548D01*
X119811879Y-129969617D01*
X119605385Y-129828826D01*
X119464594Y-129623185D01*
X119417663Y-129381707D01*
X119464594Y-129137668D01*
X119605385Y-128931174D01*
X119811879Y-128790383D01*
X120055918Y-128743452D01*
X120299530Y-128790383D01*
G37*
G36*
X137681295Y-131126951D02*
G01*
X135978146Y-131126951D01*
X134722116Y-131126951D01*
X132404604Y-131126951D01*
X130018830Y-131126951D01*
X125298478Y-131126951D01*
X123595328Y-131126951D01*
X121779546Y-131126951D01*
X120055918Y-131126951D01*
X118711147Y-131126951D01*
X114393543Y-131126951D01*
X112106750Y-131126951D01*
X110062288Y-131126951D01*
X107659448Y-131126951D01*
X106948380Y-131126951D01*
X106948380Y-128378248D01*
X107659448Y-128378248D01*
X108461532Y-130381752D01*
X108860868Y-130381752D01*
X109263617Y-129180332D01*
X109662952Y-130381752D01*
X110062288Y-130381752D01*
X110462647Y-129381707D01*
X111069160Y-129381707D01*
X111088252Y-129587347D01*
X111145528Y-129777629D01*
X111240989Y-129952552D01*
X111374634Y-130112115D01*
X111534945Y-130245014D01*
X111710401Y-130339941D01*
X111901002Y-130396898D01*
X112106750Y-130415883D01*
X112310210Y-130396542D01*
X112501914Y-130338519D01*
X112681861Y-130241814D01*
X112840192Y-130113253D01*
X112967047Y-129959662D01*
X113062425Y-129781042D01*
X112601653Y-129781042D01*
X112461715Y-129911879D01*
X112296747Y-129990381D01*
X112106750Y-130016548D01*
X111911348Y-129986256D01*
X111734719Y-129895382D01*
X111593074Y-129755870D01*
X111502627Y-129579668D01*
X113123861Y-129579668D01*
X113144340Y-129381707D01*
X113355953Y-129381707D01*
X113375046Y-129587347D01*
X113432322Y-129777629D01*
X113527783Y-129952552D01*
X113661428Y-130112115D01*
X113821738Y-130245014D01*
X113997194Y-130339941D01*
X114187796Y-130396898D01*
X114393543Y-130415883D01*
X114597004Y-130396542D01*
X114645869Y-130381752D01*
X116707642Y-130381752D01*
X117110391Y-130381752D01*
X117110391Y-129077938D01*
X118461988Y-130381752D01*
X118711147Y-130381752D01*
X118711147Y-129381707D01*
X119018328Y-129381707D01*
X119037313Y-129587347D01*
X119094270Y-129777629D01*
X119189197Y-129952552D01*
X119322096Y-130112115D01*
X119481873Y-130245014D01*
X119657435Y-130339941D01*
X119848784Y-130396898D01*
X120055918Y-130415883D01*
X120261559Y-130396898D01*
X120312159Y-130381752D01*
X121376797Y-130381752D01*
X121779546Y-130381752D01*
X121779546Y-129180332D01*
X122131098Y-129180332D01*
X122158829Y-129341176D01*
X122242024Y-129468741D01*
X122369590Y-129551936D01*
X122530433Y-129579668D01*
X123595328Y-129579668D01*
X123595328Y-129982417D01*
X122165229Y-129982417D01*
X122165229Y-130381752D01*
X123595328Y-130381752D01*
X123758732Y-130354021D01*
X123887151Y-130270826D01*
X123970346Y-130143260D01*
X123998077Y-129982417D01*
X123998077Y-129579668D01*
X123969492Y-129423091D01*
X123941857Y-129381707D01*
X124260888Y-129381707D01*
X124279980Y-129587347D01*
X124337256Y-129777629D01*
X124432717Y-129952552D01*
X124566362Y-130112115D01*
X124726673Y-130245014D01*
X124902129Y-130339941D01*
X125092730Y-130396898D01*
X125298478Y-130415883D01*
X125501938Y-130396542D01*
X125550803Y-130381752D01*
X127612577Y-130381752D01*
X128015325Y-130381752D01*
X128015325Y-129241768D01*
X128564838Y-130381752D01*
X129066568Y-130381752D01*
X129616081Y-129241768D01*
X129616081Y-130381752D01*
X130018830Y-130381752D01*
X130018830Y-129982417D01*
X130401100Y-129982417D01*
X130429258Y-130141127D01*
X130513733Y-130269119D01*
X130641725Y-130353594D01*
X130800435Y-130381752D01*
X132404604Y-130381752D01*
X132718612Y-130381752D01*
X133117947Y-130381752D01*
X133117947Y-129719606D01*
X134053143Y-130381752D01*
X134722116Y-130381752D01*
X133268125Y-129381707D01*
X134940556Y-129381707D01*
X134959648Y-129587347D01*
X135016925Y-129777629D01*
X135112385Y-129952552D01*
X135246031Y-130112115D01*
X135406341Y-130245014D01*
X135581797Y-130339941D01*
X135772398Y-130396898D01*
X135978146Y-130415883D01*
X136181606Y-130396542D01*
X136230471Y-130381752D01*
X137281960Y-130381752D01*
X137681295Y-130381752D01*
X137681295Y-128777583D01*
X138712059Y-128777583D01*
X138712059Y-129180332D01*
X139114808Y-129180332D01*
X139425402Y-129180332D01*
X139453134Y-129341176D01*
X139536329Y-129468741D01*
X139663894Y-129551936D01*
X139824738Y-129579668D01*
X140889633Y-129579668D01*
X140889633Y-129982417D01*
X139459533Y-129982417D01*
X139459533Y-130381752D01*
X140889633Y-130381752D01*
X141053036Y-130354021D01*
X141181455Y-130270826D01*
X141264650Y-130143260D01*
X141292382Y-129982417D01*
X141292382Y-129579668D01*
X141263797Y-129423091D01*
X141178042Y-129294672D01*
X141048770Y-129208917D01*
X140889633Y-129180332D01*
X139824738Y-129180332D01*
X139824738Y-128777583D01*
X141155857Y-128777583D01*
X141155857Y-128378248D01*
X139824738Y-128378248D01*
X139670294Y-128407259D01*
X139541448Y-128494294D01*
X139454414Y-128623140D01*
X139425402Y-128777583D01*
X139425402Y-129180332D01*
X139114808Y-129180332D01*
X139114808Y-128777583D01*
X139070058Y-128555730D01*
X138935808Y-128422618D01*
X138712059Y-128378248D01*
X137281960Y-128378248D01*
X137281960Y-130381752D01*
X136230471Y-130381752D01*
X136373310Y-130338519D01*
X136553257Y-130241814D01*
X136711589Y-130113253D01*
X136838443Y-129959662D01*
X136933821Y-129781042D01*
X136473049Y-129781042D01*
X136333111Y-129911879D01*
X136168143Y-129990381D01*
X135978146Y-130016548D01*
X135782745Y-129986256D01*
X135606115Y-129895382D01*
X135464471Y-129755870D01*
X135374023Y-129579668D01*
X136995257Y-129579668D01*
X137015736Y-129381707D01*
X136996750Y-129174573D01*
X136939794Y-128983224D01*
X136844866Y-128807662D01*
X136711968Y-128647885D01*
X136552191Y-128514986D01*
X136376628Y-128420059D01*
X136185280Y-128363102D01*
X135978146Y-128344117D01*
X135772398Y-128363102D01*
X135581797Y-128420059D01*
X135406341Y-128514986D01*
X135246031Y-128647885D01*
X135112385Y-128807662D01*
X135016925Y-128983224D01*
X134959648Y-129174573D01*
X134940556Y-129381707D01*
X133268125Y-129381707D01*
X134722116Y-128378248D01*
X134053143Y-128378248D01*
X133117947Y-129040394D01*
X133117947Y-128378248D01*
X132718612Y-128378248D01*
X132718612Y-130381752D01*
X132404604Y-130381752D01*
X132404604Y-128777583D01*
X132376019Y-128618873D01*
X132290264Y-128490881D01*
X132160992Y-128406406D01*
X132001855Y-128378248D01*
X130401100Y-128378248D01*
X130401100Y-128777583D01*
X132001855Y-128777583D01*
X132001855Y-129180332D01*
X130800435Y-129180332D01*
X130641725Y-129208490D01*
X130513733Y-129292965D01*
X130429258Y-129420958D01*
X130401100Y-129579668D01*
X130401100Y-129982417D01*
X130018830Y-129982417D01*
X130018830Y-128378248D01*
X129616081Y-128378248D01*
X128813997Y-129982417D01*
X128015325Y-128378248D01*
X127612577Y-128378248D01*
X127612577Y-130381752D01*
X125550803Y-130381752D01*
X125693642Y-130338519D01*
X125873589Y-130241814D01*
X126031920Y-130113253D01*
X126158775Y-129959662D01*
X126254153Y-129781042D01*
X125793381Y-129781042D01*
X125653443Y-129911879D01*
X125488475Y-129990381D01*
X125298478Y-130016548D01*
X125103076Y-129986256D01*
X124926447Y-129895382D01*
X124784802Y-129755870D01*
X124694355Y-129579668D01*
X126315589Y-129579668D01*
X126336068Y-129381707D01*
X126317082Y-129174573D01*
X126260126Y-128983224D01*
X126165198Y-128807662D01*
X126032300Y-128647885D01*
X125872523Y-128514986D01*
X125696960Y-128420059D01*
X125505612Y-128363102D01*
X125298478Y-128344117D01*
X125092730Y-128363102D01*
X124902129Y-128420059D01*
X124726673Y-128514986D01*
X124566362Y-128647885D01*
X124432717Y-128807662D01*
X124337256Y-128983224D01*
X124279980Y-129174573D01*
X124260888Y-129381707D01*
X123941857Y-129381707D01*
X123883737Y-129294672D01*
X123754465Y-129208917D01*
X123595328Y-129180332D01*
X122530433Y-129180332D01*
X122530433Y-128777583D01*
X123861552Y-128777583D01*
X123861552Y-128378248D01*
X122530433Y-128378248D01*
X122375989Y-128407259D01*
X122247144Y-128494294D01*
X122160109Y-128623140D01*
X122131098Y-128777583D01*
X122131098Y-129180332D01*
X121779546Y-129180332D01*
X121779546Y-128378248D01*
X121376797Y-128378248D01*
X121376797Y-130381752D01*
X120312159Y-130381752D01*
X120451840Y-130339941D01*
X120626763Y-130245014D01*
X120786327Y-130112115D01*
X120919225Y-129952552D01*
X121014153Y-129777629D01*
X121071109Y-129587347D01*
X121090095Y-129381707D01*
X121071109Y-129174573D01*
X121014153Y-128983224D01*
X120919225Y-128807662D01*
X120786327Y-128647885D01*
X120626763Y-128514986D01*
X120451840Y-128420059D01*
X120261559Y-128363102D01*
X120055918Y-128344117D01*
X119848784Y-128363102D01*
X119657435Y-128420059D01*
X119481873Y-128514986D01*
X119322096Y-128647885D01*
X119189197Y-128807662D01*
X119094270Y-128983224D01*
X119037313Y-129174573D01*
X119018328Y-129381707D01*
X118711147Y-129381707D01*
X118711147Y-128378248D01*
X118311811Y-128378248D01*
X118311811Y-129682062D01*
X116960213Y-128378248D01*
X116707642Y-128378248D01*
X116707642Y-130381752D01*
X114645869Y-130381752D01*
X114788707Y-130338519D01*
X114968655Y-130241814D01*
X115126986Y-130113253D01*
X115253841Y-129959662D01*
X115349218Y-129781042D01*
X114888447Y-129781042D01*
X114748508Y-129911879D01*
X114583541Y-129990381D01*
X114393543Y-130016548D01*
X114198142Y-129986256D01*
X114021513Y-129895382D01*
X113879868Y-129755870D01*
X113789420Y-129579668D01*
X115410655Y-129579668D01*
X115431133Y-129381707D01*
X115412148Y-129174573D01*
X115355191Y-128983224D01*
X115260264Y-128807662D01*
X115127365Y-128647885D01*
X114967588Y-128514986D01*
X114792026Y-128420059D01*
X114600677Y-128363102D01*
X114393543Y-128344117D01*
X114187796Y-128363102D01*
X113997194Y-128420059D01*
X113821738Y-128514986D01*
X113661428Y-128647885D01*
X113527783Y-128807662D01*
X113432322Y-128983224D01*
X113375046Y-129174573D01*
X113355953Y-129381707D01*
X113144340Y-129381707D01*
X113125354Y-129174573D01*
X113068398Y-128983224D01*
X112973470Y-128807662D01*
X112840572Y-128647885D01*
X112680795Y-128514986D01*
X112505232Y-128420059D01*
X112313884Y-128363102D01*
X112106750Y-128344117D01*
X111901002Y-128363102D01*
X111710401Y-128420059D01*
X111534945Y-128514986D01*
X111374634Y-128647885D01*
X111240989Y-128807662D01*
X111145528Y-128983224D01*
X111088252Y-129174573D01*
X111069160Y-129381707D01*
X110462647Y-129381707D01*
X110864372Y-128378248D01*
X110413840Y-128378248D01*
X109864327Y-129832239D01*
X109413794Y-128378248D01*
X109113439Y-128378248D01*
X108659493Y-129832239D01*
X108109980Y-128378248D01*
X107659448Y-128378248D01*
X106948380Y-128378248D01*
X106948380Y-127633049D01*
X107659448Y-127633049D01*
X141292382Y-127633049D01*
X142003449Y-127633049D01*
X143051620Y-127633049D01*
X142003449Y-131126951D01*
X141292382Y-131126951D01*
X140889633Y-131126951D01*
X137681295Y-131126951D01*
G37*
G04 #@! TD*
D12*
G04 #@! TO.C,REF\u002A\u002A*
X171500000Y-130250000D03*
G04 #@! TD*
G04 #@! TO.C,REF\u002A\u002A*
X179000000Y-130250000D03*
G04 #@! TD*
D13*
G04 #@! TO.C,REF\u002A\u002A*
X97000000Y-75000000D03*
X97000000Y-75000000D03*
G04 #@! TD*
G04 #@! TO.C,REF\u002A\u002A*
X185000000Y-129500000D03*
G04 #@! TD*
G04 #@! TO.C,REF\u002A\u002A*
X97000000Y-129500000D03*
G04 #@! TD*
D14*
G04 #@! TO.C,REF\u002A\u002A*
X160500000Y-75350000D03*
X160500000Y-76250000D03*
X161000000Y-75750000D03*
X161000000Y-76750000D03*
X161500000Y-75350000D03*
X161500000Y-76250000D03*
G04 #@! TD*
D13*
G04 #@! TO.C,REF\u002A\u002A*
X185000000Y-75000000D03*
X185000000Y-75000000D03*
G04 #@! TD*
M02*
