G04 #@! TF.GenerationSoftware,KiCad,Pcbnew,7.0.1*
G04 #@! TF.CreationDate,2024-12-13T09:25:40+01:00*
G04 #@! TF.ProjectId,front_panel,66726f6e-745f-4706-916e-656c2e6b6963,rev?*
G04 #@! TF.SameCoordinates,Original*
G04 #@! TF.FileFunction,Soldermask,Bot*
G04 #@! TF.FilePolarity,Negative*
%FSLAX46Y46*%
G04 Gerber Fmt 4.6, Leading zero omitted, Abs format (unit mm)*
G04 Created by KiCad (PCBNEW 7.0.1) date 2024-12-13 09:25:40*
%MOMM*%
%LPD*%
G01*
G04 APERTURE LIST*
%ADD10C,0.150000*%
%ADD11C,1.100000*%
%ADD12C,2.500000*%
%ADD13C,0.300000*%
%ADD14R,2.000000X3.800000*%
G04 APERTURE END LIST*
D10*
X169500000Y-93750000D02*
X175500000Y-93750000D01*
X175500000Y-95750000D01*
X169500000Y-95750000D01*
X169500000Y-93750000D01*
G36*
X169500000Y-93750000D02*
G01*
X175500000Y-93750000D01*
X175500000Y-95750000D01*
X169500000Y-95750000D01*
X169500000Y-93750000D01*
G37*
X124500000Y-104750000D02*
X130500000Y-104750000D01*
X130500000Y-106750000D01*
X124500000Y-106750000D01*
X124500000Y-104750000D01*
G36*
X124500000Y-104750000D02*
G01*
X130500000Y-104750000D01*
X130500000Y-106750000D01*
X124500000Y-106750000D01*
X124500000Y-104750000D01*
G37*
X169500000Y-104750000D02*
X175500000Y-104750000D01*
X175500000Y-106750000D01*
X169500000Y-106750000D01*
X169500000Y-104750000D01*
G36*
X169500000Y-104750000D02*
G01*
X175500000Y-104750000D01*
X175500000Y-106750000D01*
X169500000Y-106750000D01*
X169500000Y-104750000D01*
G37*
X179500000Y-93750000D02*
X185500000Y-93750000D01*
X185500000Y-95750000D01*
X179500000Y-95750000D01*
X179500000Y-93750000D01*
G36*
X179500000Y-93750000D02*
G01*
X185500000Y-93750000D01*
X185500000Y-95750000D01*
X179500000Y-95750000D01*
X179500000Y-93750000D01*
G37*
X151500000Y-115750000D02*
X157500000Y-115750000D01*
X157500000Y-117750000D01*
X151500000Y-117750000D01*
X151500000Y-115750000D01*
G36*
X151500000Y-115750000D02*
G01*
X157500000Y-115750000D01*
X157500000Y-117750000D01*
X151500000Y-117750000D01*
X151500000Y-115750000D01*
G37*
X179500000Y-104750000D02*
X185500000Y-104750000D01*
X185500000Y-106750000D01*
X179500000Y-106750000D01*
X179500000Y-104750000D01*
G36*
X179500000Y-104750000D02*
G01*
X185500000Y-104750000D01*
X185500000Y-106750000D01*
X179500000Y-106750000D01*
X179500000Y-104750000D01*
G37*
X151500000Y-104750000D02*
X157500000Y-104750000D01*
X157500000Y-106750000D01*
X151500000Y-106750000D01*
X151500000Y-104750000D01*
G36*
X151500000Y-104750000D02*
G01*
X157500000Y-104750000D01*
X157500000Y-106750000D01*
X151500000Y-106750000D01*
X151500000Y-104750000D01*
G37*
X142500000Y-104750000D02*
X148500000Y-104750000D01*
X148500000Y-106750000D01*
X142500000Y-106750000D01*
X142500000Y-104750000D01*
G36*
X142500000Y-104750000D02*
G01*
X148500000Y-104750000D01*
X148500000Y-106750000D01*
X142500000Y-106750000D01*
X142500000Y-104750000D01*
G37*
X160500000Y-115750000D02*
X166500000Y-115750000D01*
X166500000Y-117750000D01*
X160500000Y-117750000D01*
X160500000Y-115750000D01*
G36*
X160500000Y-115750000D02*
G01*
X166500000Y-115750000D01*
X166500000Y-117750000D01*
X160500000Y-117750000D01*
X160500000Y-115750000D01*
G37*
X179500000Y-115750000D02*
X185500000Y-115750000D01*
X185500000Y-117750000D01*
X179500000Y-117750000D01*
X179500000Y-115750000D01*
G36*
X179500000Y-115750000D02*
G01*
X185500000Y-115750000D01*
X185500000Y-117750000D01*
X179500000Y-117750000D01*
X179500000Y-115750000D01*
G37*
X151500000Y-93750000D02*
X157500000Y-93750000D01*
X157500000Y-95750000D01*
X151500000Y-95750000D01*
X151500000Y-93750000D01*
G36*
X151500000Y-93750000D02*
G01*
X157500000Y-93750000D01*
X157500000Y-95750000D01*
X151500000Y-95750000D01*
X151500000Y-93750000D01*
G37*
X96500000Y-115750000D02*
X102500000Y-115750000D01*
X102500000Y-117750000D01*
X96500000Y-117750000D01*
X96500000Y-115750000D01*
G36*
X96500000Y-115750000D02*
G01*
X102500000Y-115750000D01*
X102500000Y-117750000D01*
X96500000Y-117750000D01*
X96500000Y-115750000D01*
G37*
X106500000Y-115750000D02*
X112500000Y-115750000D01*
X112500000Y-117750000D01*
X106500000Y-117750000D01*
X106500000Y-115750000D01*
G36*
X106500000Y-115750000D02*
G01*
X112500000Y-115750000D01*
X112500000Y-117750000D01*
X106500000Y-117750000D01*
X106500000Y-115750000D01*
G37*
X115000000Y-73950000D02*
X117500000Y-73950000D01*
X117500000Y-75330000D01*
X115000000Y-75330000D01*
X115000000Y-73950000D01*
G36*
X115000000Y-73950000D02*
G01*
X117500000Y-73950000D01*
X117500000Y-75330000D01*
X115000000Y-75330000D01*
X115000000Y-73950000D01*
G37*
X142500000Y-115750000D02*
X148500000Y-115750000D01*
X148500000Y-117750000D01*
X142500000Y-117750000D01*
X142500000Y-115750000D01*
G36*
X142500000Y-115750000D02*
G01*
X148500000Y-115750000D01*
X148500000Y-117750000D01*
X142500000Y-117750000D01*
X142500000Y-115750000D01*
G37*
X124500000Y-115750000D02*
X130500000Y-115750000D01*
X130500000Y-117750000D01*
X124500000Y-117750000D01*
X124500000Y-115750000D01*
G36*
X124500000Y-115750000D02*
G01*
X130500000Y-115750000D01*
X130500000Y-117750000D01*
X124500000Y-117750000D01*
X124500000Y-115750000D01*
G37*
X133500000Y-104750000D02*
X139500000Y-104750000D01*
X139500000Y-106750000D01*
X133500000Y-106750000D01*
X133500000Y-104750000D01*
G36*
X133500000Y-104750000D02*
G01*
X139500000Y-104750000D01*
X139500000Y-106750000D01*
X133500000Y-106750000D01*
X133500000Y-104750000D01*
G37*
X115500000Y-115750000D02*
X121500000Y-115750000D01*
X121500000Y-117750000D01*
X115500000Y-117750000D01*
X115500000Y-115750000D01*
G36*
X115500000Y-115750000D02*
G01*
X121500000Y-115750000D01*
X121500000Y-117750000D01*
X115500000Y-117750000D01*
X115500000Y-115750000D01*
G37*
X169500000Y-115750000D02*
X175500000Y-115750000D01*
X175500000Y-117750000D01*
X169500000Y-117750000D01*
X169500000Y-115750000D01*
G36*
X169500000Y-115750000D02*
G01*
X175500000Y-115750000D01*
X175500000Y-117750000D01*
X169500000Y-117750000D01*
X169500000Y-115750000D01*
G37*
X133500000Y-115750000D02*
X139500000Y-115750000D01*
X139500000Y-117750000D01*
X133500000Y-117750000D01*
X133500000Y-115750000D01*
G36*
X133500000Y-115750000D02*
G01*
X139500000Y-115750000D01*
X139500000Y-117750000D01*
X133500000Y-117750000D01*
X133500000Y-115750000D01*
G37*
X160500000Y-93750000D02*
X166500000Y-93750000D01*
X166500000Y-95750000D01*
X160500000Y-95750000D01*
X160500000Y-93750000D01*
G36*
X160500000Y-93750000D02*
G01*
X166500000Y-93750000D01*
X166500000Y-95750000D01*
X160500000Y-95750000D01*
X160500000Y-93750000D01*
G37*
X96500000Y-104750000D02*
X102500000Y-104750000D01*
X102500000Y-106750000D01*
X96500000Y-106750000D01*
X96500000Y-104750000D01*
G36*
X96500000Y-104750000D02*
G01*
X102500000Y-104750000D01*
X102500000Y-106750000D01*
X96500000Y-106750000D01*
X96500000Y-104750000D01*
G37*
X160500000Y-104750000D02*
X166500000Y-104750000D01*
X166500000Y-106750000D01*
X160500000Y-106750000D01*
X160500000Y-104750000D01*
G36*
X160500000Y-104750000D02*
G01*
X166500000Y-104750000D01*
X166500000Y-106750000D01*
X160500000Y-106750000D01*
X160500000Y-104750000D01*
G37*
X115500000Y-104750000D02*
X121500000Y-104750000D01*
X121500000Y-106750000D01*
X115500000Y-106750000D01*
X115500000Y-104750000D01*
G36*
X115500000Y-104750000D02*
G01*
X121500000Y-104750000D01*
X121500000Y-106750000D01*
X115500000Y-106750000D01*
X115500000Y-104750000D01*
G37*
X106500000Y-104750000D02*
X112500000Y-104750000D01*
X112500000Y-106750000D01*
X106500000Y-106750000D01*
X106500000Y-104750000D01*
G36*
X106500000Y-104750000D02*
G01*
X112500000Y-104750000D01*
X112500000Y-106750000D01*
X106500000Y-106750000D01*
X106500000Y-104750000D01*
G37*
D11*
G04 #@! TO.C,REF\u002A\u002A*
X171500000Y-130250000D03*
G04 #@! TD*
G04 #@! TO.C,REF\u002A\u002A*
X179000000Y-130250000D03*
G04 #@! TD*
D12*
G04 #@! TO.C,REF\u002A\u002A*
X97000000Y-75000000D03*
X97000000Y-75000000D03*
G04 #@! TD*
G04 #@! TO.C,REF\u002A\u002A*
X185000000Y-129500000D03*
G04 #@! TD*
G04 #@! TO.C,REF\u002A\u002A*
X97000000Y-129500000D03*
G04 #@! TD*
D13*
G04 #@! TO.C,REF\u002A\u002A*
X160500000Y-75350000D03*
X160500000Y-76250000D03*
X161000000Y-75750000D03*
X161000000Y-76750000D03*
X161500000Y-75350000D03*
X161500000Y-76250000D03*
G04 #@! TD*
D12*
G04 #@! TO.C,REF\u002A\u002A*
X185000000Y-75000000D03*
X185000000Y-75000000D03*
G04 #@! TD*
D14*
G04 #@! TO.C,TP4*
X122020000Y-94250000D03*
G04 #@! TD*
G04 #@! TO.C,TP3*
X131040000Y-94250000D03*
G04 #@! TD*
G04 #@! TO.C,TP1*
X125030000Y-94250000D03*
G04 #@! TD*
G04 #@! TO.C,TP2*
X128040000Y-94250000D03*
G04 #@! TD*
M02*
