G04 #@! TF.GenerationSoftware,KiCad,Pcbnew,7.0.1*
G04 #@! TF.CreationDate,2024-12-13T09:25:40+01:00*
G04 #@! TF.ProjectId,front_panel,66726f6e-745f-4706-916e-656c2e6b6963,rev?*
G04 #@! TF.SameCoordinates,Original*
G04 #@! TF.FileFunction,Legend,Bot*
G04 #@! TF.FilePolarity,Positive*
%FSLAX46Y46*%
G04 Gerber Fmt 4.6, Leading zero omitted, Abs format (unit mm)*
G04 Created by KiCad (PCBNEW 7.0.1) date 2024-12-13 09:25:40*
%MOMM*%
%LPD*%
G01*
G04 APERTURE LIST*
%ADD10C,0.150000*%
G04 APERTURE END LIST*
D10*
X153076667Y-89692619D02*
X152838572Y-90692619D01*
X152838572Y-90692619D02*
X152648096Y-89978333D01*
X152648096Y-89978333D02*
X152457620Y-90692619D01*
X152457620Y-90692619D02*
X152219525Y-89692619D01*
X151838572Y-90692619D02*
X151838572Y-89692619D01*
X151838572Y-89692619D02*
X151267144Y-90692619D01*
X151267144Y-90692619D02*
X151267144Y-89692619D01*
X150790953Y-90692619D02*
X150790953Y-89692619D01*
X150790953Y-89692619D02*
X150457620Y-90406904D01*
X150457620Y-90406904D02*
X150124287Y-89692619D01*
X150124287Y-89692619D02*
X150124287Y-90692619D01*
X149648096Y-90311666D02*
X148886192Y-90311666D01*
X148410001Y-90692619D02*
X148410001Y-89692619D01*
X148410001Y-89692619D02*
X148029049Y-89692619D01*
X148029049Y-89692619D02*
X147933811Y-89740238D01*
X147933811Y-89740238D02*
X147886192Y-89787857D01*
X147886192Y-89787857D02*
X147838573Y-89883095D01*
X147838573Y-89883095D02*
X147838573Y-90025952D01*
X147838573Y-90025952D02*
X147886192Y-90121190D01*
X147886192Y-90121190D02*
X147933811Y-90168809D01*
X147933811Y-90168809D02*
X148029049Y-90216428D01*
X148029049Y-90216428D02*
X148410001Y-90216428D01*
X146886192Y-89740238D02*
X146981430Y-89692619D01*
X146981430Y-89692619D02*
X147124287Y-89692619D01*
X147124287Y-89692619D02*
X147267144Y-89740238D01*
X147267144Y-89740238D02*
X147362382Y-89835476D01*
X147362382Y-89835476D02*
X147410001Y-89930714D01*
X147410001Y-89930714D02*
X147457620Y-90121190D01*
X147457620Y-90121190D02*
X147457620Y-90264047D01*
X147457620Y-90264047D02*
X147410001Y-90454523D01*
X147410001Y-90454523D02*
X147362382Y-90549761D01*
X147362382Y-90549761D02*
X147267144Y-90645000D01*
X147267144Y-90645000D02*
X147124287Y-90692619D01*
X147124287Y-90692619D02*
X147029049Y-90692619D01*
X147029049Y-90692619D02*
X146886192Y-90645000D01*
X146886192Y-90645000D02*
X146838573Y-90597380D01*
X146838573Y-90597380D02*
X146838573Y-90264047D01*
X146838573Y-90264047D02*
X147029049Y-90264047D01*
X146076668Y-90168809D02*
X145933811Y-90216428D01*
X145933811Y-90216428D02*
X145886192Y-90264047D01*
X145886192Y-90264047D02*
X145838573Y-90359285D01*
X145838573Y-90359285D02*
X145838573Y-90502142D01*
X145838573Y-90502142D02*
X145886192Y-90597380D01*
X145886192Y-90597380D02*
X145933811Y-90645000D01*
X145933811Y-90645000D02*
X146029049Y-90692619D01*
X146029049Y-90692619D02*
X146410001Y-90692619D01*
X146410001Y-90692619D02*
X146410001Y-89692619D01*
X146410001Y-89692619D02*
X146076668Y-89692619D01*
X146076668Y-89692619D02*
X145981430Y-89740238D01*
X145981430Y-89740238D02*
X145933811Y-89787857D01*
X145933811Y-89787857D02*
X145886192Y-89883095D01*
X145886192Y-89883095D02*
X145886192Y-89978333D01*
X145886192Y-89978333D02*
X145933811Y-90073571D01*
X145933811Y-90073571D02*
X145981430Y-90121190D01*
X145981430Y-90121190D02*
X146076668Y-90168809D01*
X146076668Y-90168809D02*
X146410001Y-90168809D01*
X144886192Y-90692619D02*
X145457620Y-90692619D01*
X145171906Y-90692619D02*
X145171906Y-89692619D01*
X145171906Y-89692619D02*
X145267144Y-89835476D01*
X145267144Y-89835476D02*
X145362382Y-89930714D01*
X145362382Y-89930714D02*
X145457620Y-89978333D01*
X143838572Y-90025952D02*
X143457620Y-90025952D01*
X143695715Y-90692619D02*
X143695715Y-89835476D01*
X143695715Y-89835476D02*
X143648096Y-89740238D01*
X143648096Y-89740238D02*
X143552858Y-89692619D01*
X143552858Y-89692619D02*
X143457620Y-89692619D01*
X143124286Y-90692619D02*
X143124286Y-90025952D01*
X143124286Y-90216428D02*
X143076667Y-90121190D01*
X143076667Y-90121190D02*
X143029048Y-90073571D01*
X143029048Y-90073571D02*
X142933810Y-90025952D01*
X142933810Y-90025952D02*
X142838572Y-90025952D01*
X142362381Y-90692619D02*
X142457619Y-90645000D01*
X142457619Y-90645000D02*
X142505238Y-90597380D01*
X142505238Y-90597380D02*
X142552857Y-90502142D01*
X142552857Y-90502142D02*
X142552857Y-90216428D01*
X142552857Y-90216428D02*
X142505238Y-90121190D01*
X142505238Y-90121190D02*
X142457619Y-90073571D01*
X142457619Y-90073571D02*
X142362381Y-90025952D01*
X142362381Y-90025952D02*
X142219524Y-90025952D01*
X142219524Y-90025952D02*
X142124286Y-90073571D01*
X142124286Y-90073571D02*
X142076667Y-90121190D01*
X142076667Y-90121190D02*
X142029048Y-90216428D01*
X142029048Y-90216428D02*
X142029048Y-90502142D01*
X142029048Y-90502142D02*
X142076667Y-90597380D01*
X142076667Y-90597380D02*
X142124286Y-90645000D01*
X142124286Y-90645000D02*
X142219524Y-90692619D01*
X142219524Y-90692619D02*
X142362381Y-90692619D01*
X141600476Y-90025952D02*
X141600476Y-90692619D01*
X141600476Y-90121190D02*
X141552857Y-90073571D01*
X141552857Y-90073571D02*
X141457619Y-90025952D01*
X141457619Y-90025952D02*
X141314762Y-90025952D01*
X141314762Y-90025952D02*
X141219524Y-90073571D01*
X141219524Y-90073571D02*
X141171905Y-90168809D01*
X141171905Y-90168809D02*
X141171905Y-90692619D01*
X140838571Y-90025952D02*
X140457619Y-90025952D01*
X140695714Y-89692619D02*
X140695714Y-90549761D01*
X140695714Y-90549761D02*
X140648095Y-90645000D01*
X140648095Y-90645000D02*
X140552857Y-90692619D01*
X140552857Y-90692619D02*
X140457619Y-90692619D01*
X139362380Y-90025952D02*
X139362380Y-91025952D01*
X139362380Y-90073571D02*
X139267142Y-90025952D01*
X139267142Y-90025952D02*
X139076666Y-90025952D01*
X139076666Y-90025952D02*
X138981428Y-90073571D01*
X138981428Y-90073571D02*
X138933809Y-90121190D01*
X138933809Y-90121190D02*
X138886190Y-90216428D01*
X138886190Y-90216428D02*
X138886190Y-90502142D01*
X138886190Y-90502142D02*
X138933809Y-90597380D01*
X138933809Y-90597380D02*
X138981428Y-90645000D01*
X138981428Y-90645000D02*
X139076666Y-90692619D01*
X139076666Y-90692619D02*
X139267142Y-90692619D01*
X139267142Y-90692619D02*
X139362380Y-90645000D01*
X138029047Y-90692619D02*
X138029047Y-90168809D01*
X138029047Y-90168809D02*
X138076666Y-90073571D01*
X138076666Y-90073571D02*
X138171904Y-90025952D01*
X138171904Y-90025952D02*
X138362380Y-90025952D01*
X138362380Y-90025952D02*
X138457618Y-90073571D01*
X138029047Y-90645000D02*
X138124285Y-90692619D01*
X138124285Y-90692619D02*
X138362380Y-90692619D01*
X138362380Y-90692619D02*
X138457618Y-90645000D01*
X138457618Y-90645000D02*
X138505237Y-90549761D01*
X138505237Y-90549761D02*
X138505237Y-90454523D01*
X138505237Y-90454523D02*
X138457618Y-90359285D01*
X138457618Y-90359285D02*
X138362380Y-90311666D01*
X138362380Y-90311666D02*
X138124285Y-90311666D01*
X138124285Y-90311666D02*
X138029047Y-90264047D01*
X137552856Y-90025952D02*
X137552856Y-90692619D01*
X137552856Y-90121190D02*
X137505237Y-90073571D01*
X137505237Y-90073571D02*
X137409999Y-90025952D01*
X137409999Y-90025952D02*
X137267142Y-90025952D01*
X137267142Y-90025952D02*
X137171904Y-90073571D01*
X137171904Y-90073571D02*
X137124285Y-90168809D01*
X137124285Y-90168809D02*
X137124285Y-90692619D01*
X136267142Y-90645000D02*
X136362380Y-90692619D01*
X136362380Y-90692619D02*
X136552856Y-90692619D01*
X136552856Y-90692619D02*
X136648094Y-90645000D01*
X136648094Y-90645000D02*
X136695713Y-90549761D01*
X136695713Y-90549761D02*
X136695713Y-90168809D01*
X136695713Y-90168809D02*
X136648094Y-90073571D01*
X136648094Y-90073571D02*
X136552856Y-90025952D01*
X136552856Y-90025952D02*
X136362380Y-90025952D01*
X136362380Y-90025952D02*
X136267142Y-90073571D01*
X136267142Y-90073571D02*
X136219523Y-90168809D01*
X136219523Y-90168809D02*
X136219523Y-90264047D01*
X136219523Y-90264047D02*
X136695713Y-90359285D01*
X135648094Y-90692619D02*
X135743332Y-90645000D01*
X135743332Y-90645000D02*
X135790951Y-90549761D01*
X135790951Y-90549761D02*
X135790951Y-89692619D01*
X134600474Y-90025952D02*
X134362379Y-90692619D01*
X134362379Y-90692619D02*
X134124284Y-90025952D01*
X133838569Y-89692619D02*
X133219522Y-89692619D01*
X133219522Y-89692619D02*
X133552855Y-90073571D01*
X133552855Y-90073571D02*
X133409998Y-90073571D01*
X133409998Y-90073571D02*
X133314760Y-90121190D01*
X133314760Y-90121190D02*
X133267141Y-90168809D01*
X133267141Y-90168809D02*
X133219522Y-90264047D01*
X133219522Y-90264047D02*
X133219522Y-90502142D01*
X133219522Y-90502142D02*
X133267141Y-90597380D01*
X133267141Y-90597380D02*
X133314760Y-90645000D01*
X133314760Y-90645000D02*
X133409998Y-90692619D01*
X133409998Y-90692619D02*
X133695712Y-90692619D01*
X133695712Y-90692619D02*
X133790950Y-90645000D01*
X133790950Y-90645000D02*
X133838569Y-90597380D01*
X132790950Y-90597380D02*
X132743331Y-90645000D01*
X132743331Y-90645000D02*
X132790950Y-90692619D01*
X132790950Y-90692619D02*
X132838569Y-90645000D01*
X132838569Y-90645000D02*
X132790950Y-90597380D01*
X132790950Y-90597380D02*
X132790950Y-90692619D01*
X132362379Y-89787857D02*
X132314760Y-89740238D01*
X132314760Y-89740238D02*
X132219522Y-89692619D01*
X132219522Y-89692619D02*
X131981427Y-89692619D01*
X131981427Y-89692619D02*
X131886189Y-89740238D01*
X131886189Y-89740238D02*
X131838570Y-89787857D01*
X131838570Y-89787857D02*
X131790951Y-89883095D01*
X131790951Y-89883095D02*
X131790951Y-89978333D01*
X131790951Y-89978333D02*
X131838570Y-90121190D01*
X131838570Y-90121190D02*
X132409998Y-90692619D01*
X132409998Y-90692619D02*
X131790951Y-90692619D01*
X150076666Y-91645952D02*
X149886190Y-92312619D01*
X149886190Y-92312619D02*
X149695714Y-91836428D01*
X149695714Y-91836428D02*
X149505238Y-92312619D01*
X149505238Y-92312619D02*
X149314762Y-91645952D01*
X148552857Y-92265000D02*
X148648095Y-92312619D01*
X148648095Y-92312619D02*
X148838571Y-92312619D01*
X148838571Y-92312619D02*
X148933809Y-92265000D01*
X148933809Y-92265000D02*
X148981428Y-92169761D01*
X148981428Y-92169761D02*
X148981428Y-91788809D01*
X148981428Y-91788809D02*
X148933809Y-91693571D01*
X148933809Y-91693571D02*
X148838571Y-91645952D01*
X148838571Y-91645952D02*
X148648095Y-91645952D01*
X148648095Y-91645952D02*
X148552857Y-91693571D01*
X148552857Y-91693571D02*
X148505238Y-91788809D01*
X148505238Y-91788809D02*
X148505238Y-91884047D01*
X148505238Y-91884047D02*
X148981428Y-91979285D01*
X147695714Y-92265000D02*
X147790952Y-92312619D01*
X147790952Y-92312619D02*
X147981428Y-92312619D01*
X147981428Y-92312619D02*
X148076666Y-92265000D01*
X148076666Y-92265000D02*
X148124285Y-92169761D01*
X148124285Y-92169761D02*
X148124285Y-91788809D01*
X148124285Y-91788809D02*
X148076666Y-91693571D01*
X148076666Y-91693571D02*
X147981428Y-91645952D01*
X147981428Y-91645952D02*
X147790952Y-91645952D01*
X147790952Y-91645952D02*
X147695714Y-91693571D01*
X147695714Y-91693571D02*
X147648095Y-91788809D01*
X147648095Y-91788809D02*
X147648095Y-91884047D01*
X147648095Y-91884047D02*
X148124285Y-91979285D01*
X147219523Y-91645952D02*
X147219523Y-92312619D01*
X147219523Y-91741190D02*
X147171904Y-91693571D01*
X147171904Y-91693571D02*
X147076666Y-91645952D01*
X147076666Y-91645952D02*
X146933809Y-91645952D01*
X146933809Y-91645952D02*
X146838571Y-91693571D01*
X146838571Y-91693571D02*
X146790952Y-91788809D01*
X146790952Y-91788809D02*
X146790952Y-92312619D01*
X146171904Y-92312619D02*
X146267142Y-92265000D01*
X146267142Y-92265000D02*
X146314761Y-92217380D01*
X146314761Y-92217380D02*
X146362380Y-92122142D01*
X146362380Y-92122142D02*
X146362380Y-91836428D01*
X146362380Y-91836428D02*
X146314761Y-91741190D01*
X146314761Y-91741190D02*
X146267142Y-91693571D01*
X146267142Y-91693571D02*
X146171904Y-91645952D01*
X146171904Y-91645952D02*
X146029047Y-91645952D01*
X146029047Y-91645952D02*
X145933809Y-91693571D01*
X145933809Y-91693571D02*
X145886190Y-91741190D01*
X145886190Y-91741190D02*
X145838571Y-91836428D01*
X145838571Y-91836428D02*
X145838571Y-92122142D01*
X145838571Y-92122142D02*
X145886190Y-92217380D01*
X145886190Y-92217380D02*
X145933809Y-92265000D01*
X145933809Y-92265000D02*
X146029047Y-92312619D01*
X146029047Y-92312619D02*
X146171904Y-92312619D01*
X145409999Y-92312619D02*
X145409999Y-91645952D01*
X145409999Y-91312619D02*
X145457618Y-91360238D01*
X145457618Y-91360238D02*
X145409999Y-91407857D01*
X145409999Y-91407857D02*
X145362380Y-91360238D01*
X145362380Y-91360238D02*
X145409999Y-91312619D01*
X145409999Y-91312619D02*
X145409999Y-91407857D01*
X144981428Y-92265000D02*
X144886190Y-92312619D01*
X144886190Y-92312619D02*
X144695714Y-92312619D01*
X144695714Y-92312619D02*
X144600476Y-92265000D01*
X144600476Y-92265000D02*
X144552857Y-92169761D01*
X144552857Y-92169761D02*
X144552857Y-92122142D01*
X144552857Y-92122142D02*
X144600476Y-92026904D01*
X144600476Y-92026904D02*
X144695714Y-91979285D01*
X144695714Y-91979285D02*
X144838571Y-91979285D01*
X144838571Y-91979285D02*
X144933809Y-91931666D01*
X144933809Y-91931666D02*
X144981428Y-91836428D01*
X144981428Y-91836428D02*
X144981428Y-91788809D01*
X144981428Y-91788809D02*
X144933809Y-91693571D01*
X144933809Y-91693571D02*
X144838571Y-91645952D01*
X144838571Y-91645952D02*
X144695714Y-91645952D01*
X144695714Y-91645952D02*
X144600476Y-91693571D01*
X143743333Y-92265000D02*
X143838571Y-92312619D01*
X143838571Y-92312619D02*
X144029047Y-92312619D01*
X144029047Y-92312619D02*
X144124285Y-92265000D01*
X144124285Y-92265000D02*
X144171904Y-92169761D01*
X144171904Y-92169761D02*
X144171904Y-91788809D01*
X144171904Y-91788809D02*
X144124285Y-91693571D01*
X144124285Y-91693571D02*
X144029047Y-91645952D01*
X144029047Y-91645952D02*
X143838571Y-91645952D01*
X143838571Y-91645952D02*
X143743333Y-91693571D01*
X143743333Y-91693571D02*
X143695714Y-91788809D01*
X143695714Y-91788809D02*
X143695714Y-91884047D01*
X143695714Y-91884047D02*
X144171904Y-91979285D01*
X143267142Y-92312619D02*
X143267142Y-91645952D01*
X143267142Y-91741190D02*
X143219523Y-91693571D01*
X143219523Y-91693571D02*
X143124285Y-91645952D01*
X143124285Y-91645952D02*
X142981428Y-91645952D01*
X142981428Y-91645952D02*
X142886190Y-91693571D01*
X142886190Y-91693571D02*
X142838571Y-91788809D01*
X142838571Y-91788809D02*
X142838571Y-92312619D01*
X142838571Y-91788809D02*
X142790952Y-91693571D01*
X142790952Y-91693571D02*
X142695714Y-91645952D01*
X142695714Y-91645952D02*
X142552857Y-91645952D01*
X142552857Y-91645952D02*
X142457618Y-91693571D01*
X142457618Y-91693571D02*
X142409999Y-91788809D01*
X142409999Y-91788809D02*
X142409999Y-92312619D01*
X141505238Y-92312619D02*
X141505238Y-91788809D01*
X141505238Y-91788809D02*
X141552857Y-91693571D01*
X141552857Y-91693571D02*
X141648095Y-91645952D01*
X141648095Y-91645952D02*
X141838571Y-91645952D01*
X141838571Y-91645952D02*
X141933809Y-91693571D01*
X141505238Y-92265000D02*
X141600476Y-92312619D01*
X141600476Y-92312619D02*
X141838571Y-92312619D01*
X141838571Y-92312619D02*
X141933809Y-92265000D01*
X141933809Y-92265000D02*
X141981428Y-92169761D01*
X141981428Y-92169761D02*
X141981428Y-92074523D01*
X141981428Y-92074523D02*
X141933809Y-91979285D01*
X141933809Y-91979285D02*
X141838571Y-91931666D01*
X141838571Y-91931666D02*
X141600476Y-91931666D01*
X141600476Y-91931666D02*
X141505238Y-91884047D01*
X141029047Y-92312619D02*
X141029047Y-91312619D01*
X140933809Y-91931666D02*
X140648095Y-92312619D01*
X140648095Y-91645952D02*
X141029047Y-92026904D01*
X139838571Y-92265000D02*
X139933809Y-92312619D01*
X139933809Y-92312619D02*
X140124285Y-92312619D01*
X140124285Y-92312619D02*
X140219523Y-92265000D01*
X140219523Y-92265000D02*
X140267142Y-92169761D01*
X140267142Y-92169761D02*
X140267142Y-91788809D01*
X140267142Y-91788809D02*
X140219523Y-91693571D01*
X140219523Y-91693571D02*
X140124285Y-91645952D01*
X140124285Y-91645952D02*
X139933809Y-91645952D01*
X139933809Y-91645952D02*
X139838571Y-91693571D01*
X139838571Y-91693571D02*
X139790952Y-91788809D01*
X139790952Y-91788809D02*
X139790952Y-91884047D01*
X139790952Y-91884047D02*
X140267142Y-91979285D01*
X139362380Y-92312619D02*
X139362380Y-91645952D01*
X139362380Y-91836428D02*
X139314761Y-91741190D01*
X139314761Y-91741190D02*
X139267142Y-91693571D01*
X139267142Y-91693571D02*
X139171904Y-91645952D01*
X139171904Y-91645952D02*
X139076666Y-91645952D01*
X138790951Y-92265000D02*
X138695713Y-92312619D01*
X138695713Y-92312619D02*
X138505237Y-92312619D01*
X138505237Y-92312619D02*
X138409999Y-92265000D01*
X138409999Y-92265000D02*
X138362380Y-92169761D01*
X138362380Y-92169761D02*
X138362380Y-92122142D01*
X138362380Y-92122142D02*
X138409999Y-92026904D01*
X138409999Y-92026904D02*
X138505237Y-91979285D01*
X138505237Y-91979285D02*
X138648094Y-91979285D01*
X138648094Y-91979285D02*
X138743332Y-91931666D01*
X138743332Y-91931666D02*
X138790951Y-91836428D01*
X138790951Y-91836428D02*
X138790951Y-91788809D01*
X138790951Y-91788809D02*
X138743332Y-91693571D01*
X138743332Y-91693571D02*
X138648094Y-91645952D01*
X138648094Y-91645952D02*
X138505237Y-91645952D01*
X138505237Y-91645952D02*
X138409999Y-91693571D01*
X137933808Y-92217380D02*
X137886189Y-92265000D01*
X137886189Y-92265000D02*
X137933808Y-92312619D01*
X137933808Y-92312619D02*
X137981427Y-92265000D01*
X137981427Y-92265000D02*
X137933808Y-92217380D01*
X137933808Y-92217380D02*
X137933808Y-92312619D01*
X137029047Y-92265000D02*
X137124285Y-92312619D01*
X137124285Y-92312619D02*
X137314761Y-92312619D01*
X137314761Y-92312619D02*
X137409999Y-92265000D01*
X137409999Y-92265000D02*
X137457618Y-92217380D01*
X137457618Y-92217380D02*
X137505237Y-92122142D01*
X137505237Y-92122142D02*
X137505237Y-91836428D01*
X137505237Y-91836428D02*
X137457618Y-91741190D01*
X137457618Y-91741190D02*
X137409999Y-91693571D01*
X137409999Y-91693571D02*
X137314761Y-91645952D01*
X137314761Y-91645952D02*
X137124285Y-91645952D01*
X137124285Y-91645952D02*
X137029047Y-91693571D01*
X136457618Y-92312619D02*
X136552856Y-92265000D01*
X136552856Y-92265000D02*
X136600475Y-92217380D01*
X136600475Y-92217380D02*
X136648094Y-92122142D01*
X136648094Y-92122142D02*
X136648094Y-91836428D01*
X136648094Y-91836428D02*
X136600475Y-91741190D01*
X136600475Y-91741190D02*
X136552856Y-91693571D01*
X136552856Y-91693571D02*
X136457618Y-91645952D01*
X136457618Y-91645952D02*
X136314761Y-91645952D01*
X136314761Y-91645952D02*
X136219523Y-91693571D01*
X136219523Y-91693571D02*
X136171904Y-91741190D01*
X136171904Y-91741190D02*
X136124285Y-91836428D01*
X136124285Y-91836428D02*
X136124285Y-92122142D01*
X136124285Y-92122142D02*
X136171904Y-92217380D01*
X136171904Y-92217380D02*
X136219523Y-92265000D01*
X136219523Y-92265000D02*
X136314761Y-92312619D01*
X136314761Y-92312619D02*
X136457618Y-92312619D01*
X135695713Y-92312619D02*
X135695713Y-91645952D01*
X135695713Y-91741190D02*
X135648094Y-91693571D01*
X135648094Y-91693571D02*
X135552856Y-91645952D01*
X135552856Y-91645952D02*
X135409999Y-91645952D01*
X135409999Y-91645952D02*
X135314761Y-91693571D01*
X135314761Y-91693571D02*
X135267142Y-91788809D01*
X135267142Y-91788809D02*
X135267142Y-92312619D01*
X135267142Y-91788809D02*
X135219523Y-91693571D01*
X135219523Y-91693571D02*
X135124285Y-91645952D01*
X135124285Y-91645952D02*
X134981428Y-91645952D01*
X134981428Y-91645952D02*
X134886189Y-91693571D01*
X134886189Y-91693571D02*
X134838570Y-91788809D01*
X134838570Y-91788809D02*
X134838570Y-92312619D01*
G04 #@! TO.C,TP4*
X120820000Y-96350000D02*
X123220000Y-96350000D01*
X123220000Y-96350000D02*
X123220000Y-92150000D01*
X120820000Y-92150000D02*
X120820000Y-96350000D01*
X123220000Y-92150000D02*
X120820000Y-92150000D01*
G04 #@! TO.C,TP3*
X129840000Y-96350000D02*
X132240000Y-96350000D01*
X132240000Y-96350000D02*
X132240000Y-92150000D01*
X129840000Y-92150000D02*
X129840000Y-96350000D01*
X132240000Y-92150000D02*
X129840000Y-92150000D01*
G04 #@! TO.C,TP1*
X123830000Y-96350000D02*
X126230000Y-96350000D01*
X126230000Y-96350000D02*
X126230000Y-92150000D01*
X123830000Y-92150000D02*
X123830000Y-96350000D01*
X126230000Y-92150000D02*
X123830000Y-92150000D01*
G04 #@! TO.C,TP2*
X126840000Y-96350000D02*
X129240000Y-96350000D01*
X129240000Y-96350000D02*
X129240000Y-92150000D01*
X126840000Y-92150000D02*
X126840000Y-96350000D01*
X129240000Y-92150000D02*
X126840000Y-92150000D01*
G04 #@! TD*
M02*
