G04 #@! TF.GenerationSoftware,KiCad,Pcbnew,7.0.1*
G04 #@! TF.CreationDate,2024-12-13T09:25:40+01:00*
G04 #@! TF.ProjectId,front_panel,66726f6e-745f-4706-916e-656c2e6b6963,rev?*
G04 #@! TF.SameCoordinates,Original*
G04 #@! TF.FileFunction,Profile,NP*
%FSLAX46Y46*%
G04 Gerber Fmt 4.6, Leading zero omitted, Abs format (unit mm)*
G04 Created by KiCad (PCBNEW 7.0.1) date 2024-12-13 09:25:40*
%MOMM*%
%LPD*%
G01*
G04 APERTURE LIST*
G04 #@! TA.AperFunction,Profile*
%ADD10C,0.100000*%
G04 #@! TD*
G04 APERTURE END LIST*
D10*
X152092191Y-74930009D02*
X129870009Y-74930009D01*
X114096194Y-78130000D02*
X109500000Y-82726194D01*
X104903806Y-78130000D01*
X109500000Y-73533806D01*
X114096194Y-78130000D01*
X96000000Y-71000000D02*
X186000000Y-71000000D01*
X179250000Y-96750000D02*
X185750000Y-96750000D01*
X185750000Y-103250000D01*
X179250000Y-103250000D01*
X179250000Y-96750000D01*
X179250000Y-107750000D02*
X185750000Y-107750000D01*
X185750000Y-114250000D01*
X179250000Y-114250000D01*
X179250000Y-107750000D01*
X129870009Y-74930009D02*
G75*
G03*
X129320009Y-75480009I-9J-549991D01*
G01*
X152642191Y-75480009D02*
G75*
G03*
X152092191Y-74930009I-549991J9D01*
G01*
X115250000Y-118750000D02*
X121750000Y-118750000D01*
X121750000Y-125250000D01*
X115250000Y-125250000D01*
X115250000Y-118750000D01*
X112750000Y-114250000D02*
X106250000Y-114250000D01*
X106250000Y-107750000D01*
X112750000Y-107750000D01*
X112750000Y-114250000D01*
X142250000Y-107750000D02*
X148750000Y-107750000D01*
X148750000Y-114250000D01*
X142250000Y-114250000D01*
X142250000Y-107750000D01*
X151250000Y-118750000D02*
X157750000Y-118750000D01*
X157750000Y-125250000D01*
X151250000Y-125250000D01*
X151250000Y-118750000D01*
X133250000Y-118750000D02*
X139750000Y-118750000D01*
X139750000Y-125250000D01*
X133250000Y-125250000D01*
X133250000Y-118750000D01*
X186000000Y-133500000D02*
G75*
G03*
X189000000Y-130500000I0J3000000D01*
G01*
X115250000Y-107750000D02*
X121750000Y-107750000D01*
X121750000Y-114250000D01*
X115250000Y-114250000D01*
X115250000Y-107750000D01*
X93000000Y-130500000D02*
G75*
G03*
X96000000Y-133500000I3000000J0D01*
G01*
X186000000Y-133500000D02*
X96000000Y-133500000D01*
X129317800Y-87620000D02*
G75*
G03*
X129867809Y-88170000I550000J0D01*
G01*
X169250000Y-118750000D02*
X175750000Y-118750000D01*
X175750000Y-125250000D01*
X169250000Y-125250000D01*
X169250000Y-118750000D01*
X120446194Y-84490000D02*
X115850000Y-89086194D01*
X111253806Y-84490000D01*
X115850000Y-79893806D01*
X120446194Y-84490000D01*
X124250000Y-107750000D02*
X130750000Y-107750000D01*
X130750000Y-114250000D01*
X124250000Y-114250000D01*
X124250000Y-107750000D01*
X133250000Y-107750000D02*
X139750000Y-107750000D01*
X139750000Y-114250000D01*
X133250000Y-114250000D01*
X133250000Y-107750000D01*
X93000000Y-130500000D02*
X93000000Y-74000000D01*
X114096194Y-90840000D02*
X109500000Y-95436194D01*
X104903806Y-90840000D01*
X109500000Y-86243806D01*
X114096194Y-90840000D01*
X120100000Y-75200000D02*
X124100000Y-75200000D01*
X124100000Y-77500000D01*
X120100000Y-77500000D01*
X120100000Y-75200000D01*
X169250000Y-107750000D02*
X175750000Y-107750000D01*
X175750000Y-114250000D01*
X169250000Y-114250000D01*
X169250000Y-107750000D01*
X129317809Y-87620000D02*
X129320009Y-75480009D01*
X189000000Y-74000000D02*
G75*
G03*
X186000000Y-71000000I-3000000J0D01*
G01*
X151250000Y-107750000D02*
X157750000Y-107750000D01*
X157750000Y-114250000D01*
X151250000Y-114250000D01*
X151250000Y-107750000D01*
X189000000Y-74000000D02*
X189000000Y-130500000D01*
X160250000Y-118750000D02*
X166750000Y-118750000D01*
X166750000Y-125250000D01*
X160250000Y-125250000D01*
X160250000Y-118750000D01*
X96250000Y-107750000D02*
X102750000Y-107750000D01*
X102750000Y-114250000D01*
X96250000Y-114250000D01*
X96250000Y-107750000D01*
X180196194Y-81300000D02*
X175600000Y-85896194D01*
X171003806Y-81300000D01*
X175600000Y-76703806D01*
X180196194Y-81300000D01*
X152642191Y-75480009D02*
X152639991Y-87620000D01*
X142250000Y-118750000D02*
X148750000Y-118750000D01*
X148750000Y-125250000D01*
X142250000Y-125250000D01*
X142250000Y-118750000D01*
X96000000Y-71000000D02*
G75*
G03*
X93000000Y-74000000I0J-3000000D01*
G01*
X107746194Y-84490000D02*
X103150000Y-89086194D01*
X98553806Y-84490000D01*
X103150000Y-79893806D01*
X107746194Y-84490000D01*
X152089991Y-88169991D02*
G75*
G03*
X152639991Y-87620000I9J549991D01*
G01*
X151250000Y-96750000D02*
X157750000Y-96750000D01*
X157750000Y-103250000D01*
X151250000Y-103250000D01*
X151250000Y-96750000D01*
X160250000Y-96750000D02*
X166750000Y-96750000D01*
X166750000Y-103250000D01*
X160250000Y-103250000D01*
X160250000Y-96750000D01*
X160250000Y-107750000D02*
X166750000Y-107750000D01*
X166750000Y-114250000D01*
X160250000Y-114250000D01*
X160250000Y-107750000D01*
X96250000Y-118750000D02*
X102750000Y-118750000D01*
X102750000Y-125250000D01*
X96250000Y-125250000D01*
X96250000Y-118750000D01*
X124250000Y-118750000D02*
X130750000Y-118750000D01*
X130750000Y-125250000D01*
X124250000Y-125250000D01*
X124250000Y-118750000D01*
X179250000Y-118750000D02*
X185750000Y-118750000D01*
X185750000Y-125250000D01*
X179250000Y-125250000D01*
X179250000Y-118750000D01*
X173836194Y-87710000D02*
X169240000Y-92306194D01*
X164643806Y-87710000D01*
X169240000Y-83113806D01*
X173836194Y-87710000D01*
X106250000Y-118750000D02*
X112750000Y-118750000D01*
X112750000Y-125250000D01*
X106250000Y-125250000D01*
X106250000Y-118750000D01*
X169250000Y-96750000D02*
X175750000Y-96750000D01*
X175750000Y-103250000D01*
X169250000Y-103250000D01*
X169250000Y-96750000D01*
X129867809Y-88170000D02*
X152089991Y-88170000D01*
M02*
