G04 #@! TF.GenerationSoftware,KiCad,Pcbnew,7.0.1*
G04 #@! TF.CreationDate,2024-12-13T09:25:40+01:00*
G04 #@! TF.ProjectId,front_panel,66726f6e-745f-4706-916e-656c2e6b6963,rev?*
G04 #@! TF.SameCoordinates,Original*
G04 #@! TF.FileFunction,Copper,L1,Top*
G04 #@! TF.FilePolarity,Positive*
%FSLAX46Y46*%
G04 Gerber Fmt 4.6, Leading zero omitted, Abs format (unit mm)*
G04 Created by KiCad (PCBNEW 7.0.1) date 2024-12-13 09:25:40*
%MOMM*%
%LPD*%
G01*
G04 APERTURE LIST*
%ADD10C,0.150000*%
G04 #@! TA.AperFunction,NonConductor*
%ADD11C,0.150000*%
G04 #@! TD*
G04 #@! TA.AperFunction,ViaPad*
%ADD12C,0.800000*%
G04 #@! TD*
G04 APERTURE END LIST*
D10*
D11*
G36*
X172853026Y-105175692D02*
G01*
X172874762Y-105179067D01*
X172895740Y-105184552D01*
X172915852Y-105192030D01*
X172934988Y-105201386D01*
X172953036Y-105212505D01*
X172969888Y-105225272D01*
X172985433Y-105239571D01*
X172999561Y-105255287D01*
X173012163Y-105272304D01*
X173023127Y-105290508D01*
X173032345Y-105309781D01*
X173039706Y-105330011D01*
X173045100Y-105351080D01*
X173048417Y-105372873D01*
X173049547Y-105395276D01*
X173049547Y-105559529D01*
X173049135Y-105573730D01*
X173047898Y-105587479D01*
X173045834Y-105600778D01*
X173042940Y-105613625D01*
X173039214Y-105626022D01*
X173034654Y-105637968D01*
X173029258Y-105649464D01*
X173023024Y-105660508D01*
X173015948Y-105671102D01*
X173008030Y-105681245D01*
X172999266Y-105690937D01*
X172989655Y-105700179D01*
X172979194Y-105708969D01*
X172967881Y-105717309D01*
X172955714Y-105725198D01*
X172942691Y-105732636D01*
X172955714Y-105740336D01*
X172967881Y-105748319D01*
X172979194Y-105756585D01*
X172989655Y-105765132D01*
X172999266Y-105773958D01*
X173008030Y-105783062D01*
X173015948Y-105792440D01*
X173026246Y-105807021D01*
X173034654Y-105822212D01*
X173041181Y-105838006D01*
X173045834Y-105854399D01*
X173048620Y-105871382D01*
X173049547Y-105888952D01*
X173049547Y-106050152D01*
X173049331Y-106063700D01*
X173048685Y-106076807D01*
X173047608Y-106089476D01*
X173046101Y-106101707D01*
X173041799Y-106124857D01*
X173035780Y-106146261D01*
X173028047Y-106165924D01*
X173018603Y-106183852D01*
X173007450Y-106200049D01*
X172994592Y-106214520D01*
X172980031Y-106227270D01*
X172963770Y-106238304D01*
X172945811Y-106247628D01*
X172926156Y-106255245D01*
X172904810Y-106261160D01*
X172881774Y-106265380D01*
X172869623Y-106266855D01*
X172857051Y-106267908D01*
X172844058Y-106268539D01*
X172830644Y-106268750D01*
X172172715Y-106268750D01*
X172159130Y-106268539D01*
X172145968Y-106267908D01*
X172133230Y-106266855D01*
X172120915Y-106265380D01*
X172097559Y-106261160D01*
X172075905Y-106255245D01*
X172055958Y-106247628D01*
X172037722Y-106238304D01*
X172021201Y-106227270D01*
X172006401Y-106214520D01*
X171993325Y-106200049D01*
X171981978Y-106183852D01*
X171972364Y-106165924D01*
X171964488Y-106146261D01*
X171958355Y-106124857D01*
X171953969Y-106101707D01*
X171952432Y-106089476D01*
X171951333Y-106076807D01*
X171950674Y-106063700D01*
X171950454Y-106050152D01*
X171950454Y-105888952D01*
X171951417Y-105871382D01*
X171954296Y-105854399D01*
X171959073Y-105838006D01*
X171962952Y-105828807D01*
X172172715Y-105828807D01*
X172172715Y-106050152D01*
X172830644Y-106050152D01*
X172830644Y-105828807D01*
X172172715Y-105828807D01*
X171962952Y-105828807D01*
X171965733Y-105822212D01*
X171974258Y-105807021D01*
X171984632Y-105792440D01*
X171992567Y-105783062D01*
X172001312Y-105773958D01*
X172010861Y-105765132D01*
X172021210Y-105756585D01*
X172032353Y-105748319D01*
X172044287Y-105740336D01*
X172057005Y-105732636D01*
X172044287Y-105725198D01*
X172032353Y-105717309D01*
X172021210Y-105708969D01*
X172010861Y-105700179D01*
X172001312Y-105690937D01*
X171992567Y-105681245D01*
X171984632Y-105671102D01*
X171977512Y-105660508D01*
X171971210Y-105649464D01*
X171965733Y-105637968D01*
X171961085Y-105626022D01*
X171957271Y-105613625D01*
X171954296Y-105600778D01*
X171952165Y-105587479D01*
X171950883Y-105573730D01*
X171950454Y-105559529D01*
X171950454Y-105395276D01*
X172172715Y-105395276D01*
X172172715Y-105623948D01*
X172830644Y-105623948D01*
X172830644Y-105395276D01*
X172172715Y-105395276D01*
X171950454Y-105395276D01*
X171951622Y-105372622D01*
X171955045Y-105350641D01*
X171960605Y-105329444D01*
X171968181Y-105309137D01*
X171977653Y-105289831D01*
X171988901Y-105271633D01*
X172001806Y-105254653D01*
X172016247Y-105238999D01*
X172032105Y-105224779D01*
X172049260Y-105212103D01*
X172067592Y-105201079D01*
X172086982Y-105191815D01*
X172107309Y-105184421D01*
X172128453Y-105179005D01*
X172150295Y-105175675D01*
X172172715Y-105174542D01*
X172830644Y-105174542D01*
X172853026Y-105175692D01*
G37*
D10*
D11*
G36*
X128016574Y-105892616D02*
G01*
X128016162Y-105876592D01*
X128014925Y-105861683D01*
X128012861Y-105847832D01*
X128009967Y-105834980D01*
X128006241Y-105823069D01*
X127999088Y-105806839D01*
X127990050Y-105792400D01*
X127979121Y-105779554D01*
X127966293Y-105768106D01*
X127951558Y-105757860D01*
X127940671Y-105751599D01*
X127928931Y-105745727D01*
X127916336Y-105740186D01*
X127909717Y-105737521D01*
X127922381Y-105732763D01*
X127934159Y-105727589D01*
X127945062Y-105721913D01*
X127959794Y-105712270D01*
X127972609Y-105701012D01*
X127983539Y-105687848D01*
X127992614Y-105672487D01*
X127997650Y-105660882D01*
X128001886Y-105648085D01*
X128005330Y-105634009D01*
X128007992Y-105618568D01*
X128009883Y-105601676D01*
X128011010Y-105583246D01*
X128011383Y-105563193D01*
X128011383Y-105395276D01*
X128011188Y-105382475D01*
X128010600Y-105370006D01*
X128008236Y-105346083D01*
X128004271Y-105323549D01*
X127998685Y-105302440D01*
X127991456Y-105282796D01*
X127982564Y-105264657D01*
X127971990Y-105248060D01*
X127959711Y-105233045D01*
X127945708Y-105219651D01*
X127929959Y-105207917D01*
X127912445Y-105197881D01*
X127893145Y-105189583D01*
X127872038Y-105183060D01*
X127849104Y-105178354D01*
X127836945Y-105176693D01*
X127824322Y-105175501D01*
X127811231Y-105174782D01*
X127797671Y-105174542D01*
X126938547Y-105174542D01*
X126938547Y-105395276D01*
X127797671Y-105395276D01*
X127797671Y-105620285D01*
X126943737Y-105620285D01*
X126943737Y-105838882D01*
X127797671Y-105838882D01*
X127797671Y-106050152D01*
X126936715Y-106050152D01*
X126936715Y-106268750D01*
X127797671Y-106268750D01*
X127811246Y-106268539D01*
X127824380Y-106267908D01*
X127837073Y-106266855D01*
X127849327Y-106265380D01*
X127872517Y-106261160D01*
X127893956Y-106255245D01*
X127913649Y-106247628D01*
X127931601Y-106238304D01*
X127947819Y-106227270D01*
X127962306Y-106214520D01*
X127975069Y-106200049D01*
X127986112Y-106183852D01*
X127995442Y-106165924D01*
X128003064Y-106146261D01*
X128008982Y-106124857D01*
X128013203Y-106101707D01*
X128014679Y-106089476D01*
X128015732Y-106076807D01*
X128016363Y-106063700D01*
X128016574Y-106050152D01*
X128016574Y-105892616D01*
G37*
D10*
D11*
G36*
X109834918Y-106050152D02*
G01*
X109616321Y-106050152D01*
X109616321Y-105174542D01*
X109176989Y-105174542D01*
X109176989Y-105395276D01*
X109397418Y-105395276D01*
X109397418Y-106050152D01*
X109176989Y-106050152D01*
X109176989Y-106268750D01*
X109834918Y-106268750D01*
X109834918Y-106050152D01*
G37*
D10*
D11*
G36*
X118206603Y-117050152D02*
G01*
X117988006Y-117050152D01*
X117988006Y-116174542D01*
X117548674Y-116174542D01*
X117548674Y-116395276D01*
X117769103Y-116395276D01*
X117769103Y-117050152D01*
X117548674Y-117050152D01*
X117548674Y-117268750D01*
X118206603Y-117268750D01*
X118206603Y-117050152D01*
G37*
G36*
X119223054Y-116175692D02*
G01*
X119244789Y-116179067D01*
X119265768Y-116184552D01*
X119285880Y-116192030D01*
X119305015Y-116201386D01*
X119323064Y-116212505D01*
X119339916Y-116225272D01*
X119355461Y-116239571D01*
X119369589Y-116255287D01*
X119382190Y-116272304D01*
X119393155Y-116290508D01*
X119402372Y-116309781D01*
X119409733Y-116330011D01*
X119415127Y-116351080D01*
X119418444Y-116372873D01*
X119419574Y-116395276D01*
X119419574Y-117050152D01*
X119419359Y-117063700D01*
X119418712Y-117076807D01*
X119417636Y-117089476D01*
X119416129Y-117101707D01*
X119411826Y-117124857D01*
X119405807Y-117146261D01*
X119398074Y-117165924D01*
X119388630Y-117183852D01*
X119377478Y-117200049D01*
X119364620Y-117214520D01*
X119350059Y-117227270D01*
X119333797Y-117238304D01*
X119315838Y-117247628D01*
X119296184Y-117255245D01*
X119274838Y-117261160D01*
X119251802Y-117265380D01*
X119239651Y-117266855D01*
X119227079Y-117267908D01*
X119214086Y-117268539D01*
X119200672Y-117268750D01*
X118542742Y-117268750D01*
X118529329Y-117268539D01*
X118516335Y-117267908D01*
X118503763Y-117266855D01*
X118491612Y-117265380D01*
X118468577Y-117261160D01*
X118447230Y-117255245D01*
X118427576Y-117247628D01*
X118409617Y-117238304D01*
X118393356Y-117227270D01*
X118378794Y-117214520D01*
X118365936Y-117200049D01*
X118354784Y-117183852D01*
X118345340Y-117165924D01*
X118337607Y-117146261D01*
X118331588Y-117124857D01*
X118327285Y-117101707D01*
X118325778Y-117089476D01*
X118324702Y-117076807D01*
X118324055Y-117063700D01*
X118323840Y-117050152D01*
X118323840Y-116395276D01*
X118542742Y-116395276D01*
X118542742Y-117050152D01*
X119200672Y-117050152D01*
X119200672Y-116395276D01*
X118542742Y-116395276D01*
X118323840Y-116395276D01*
X118325010Y-116372320D01*
X118328437Y-116350116D01*
X118333995Y-116328764D01*
X118341557Y-116308365D01*
X118350997Y-116289019D01*
X118362190Y-116270828D01*
X118375009Y-116253892D01*
X118389327Y-116238312D01*
X118405020Y-116224187D01*
X118421960Y-116211620D01*
X118440022Y-116200710D01*
X118459080Y-116191557D01*
X118479007Y-116184264D01*
X118499677Y-116178930D01*
X118520964Y-116175655D01*
X118542742Y-116174542D01*
X119200672Y-116174542D01*
X119223054Y-116175692D01*
G37*
D10*
D11*
G36*
X98031368Y-105289633D02*
G01*
X97152094Y-105289633D01*
X97152094Y-105466221D01*
X97504780Y-105466221D01*
X97504780Y-106165000D01*
X97678437Y-106165000D01*
X97678437Y-105466221D01*
X98031368Y-105466221D01*
X98031368Y-105289633D01*
G37*
G36*
X98938486Y-105466221D02*
G01*
X98938313Y-105455356D01*
X98937796Y-105444837D01*
X98936934Y-105434663D01*
X98935727Y-105424833D01*
X98932279Y-105406209D01*
X98927453Y-105388964D01*
X98921248Y-105373098D01*
X98913666Y-105358613D01*
X98904706Y-105345507D01*
X98894369Y-105333780D01*
X98882656Y-105323433D01*
X98869566Y-105314466D01*
X98855100Y-105306878D01*
X98839258Y-105300670D01*
X98822041Y-105295841D01*
X98803449Y-105292392D01*
X98793638Y-105291185D01*
X98783483Y-105290323D01*
X98772984Y-105289806D01*
X98762142Y-105289633D01*
X98134927Y-105289633D01*
X98134927Y-106165000D01*
X98309805Y-106165000D01*
X98309805Y-105466221D01*
X98762142Y-105466221D01*
X98762142Y-105641587D01*
X98938486Y-105641587D01*
X98938486Y-105466221D01*
G37*
G36*
X99754008Y-105290492D02*
G01*
X99772272Y-105293023D01*
X99789691Y-105297160D01*
X99806204Y-105302834D01*
X99821750Y-105309977D01*
X99836267Y-105318523D01*
X99849694Y-105328403D01*
X99861968Y-105339550D01*
X99873029Y-105351897D01*
X99882814Y-105365375D01*
X99891263Y-105379917D01*
X99898314Y-105395455D01*
X99903905Y-105411922D01*
X99907975Y-105429251D01*
X99910462Y-105447373D01*
X99911305Y-105466221D01*
X99911305Y-106165000D01*
X99208618Y-106165000D01*
X99189787Y-106164144D01*
X99171711Y-106161623D01*
X99154455Y-106157505D01*
X99138082Y-106151860D01*
X99122654Y-106144757D01*
X99108236Y-106136264D01*
X99094890Y-106126452D01*
X99082681Y-106115388D01*
X99071670Y-106103142D01*
X99061922Y-106089783D01*
X99053500Y-106075380D01*
X99046468Y-106060002D01*
X99040888Y-106043718D01*
X99036823Y-106026597D01*
X99034339Y-106008709D01*
X99033496Y-105990122D01*
X99033496Y-105821106D01*
X99208618Y-105821106D01*
X99208618Y-105990122D01*
X99734962Y-105990122D01*
X99734962Y-105821106D01*
X99208618Y-105821106D01*
X99033496Y-105821106D01*
X99034339Y-105802317D01*
X99036823Y-105784279D01*
X99040888Y-105767056D01*
X99046468Y-105750710D01*
X99053500Y-105735306D01*
X99061922Y-105720908D01*
X99071670Y-105707578D01*
X99082681Y-105695382D01*
X99094890Y-105684381D01*
X99108236Y-105674641D01*
X99122654Y-105666224D01*
X99138082Y-105659195D01*
X99154455Y-105653618D01*
X99171711Y-105649555D01*
X99189787Y-105647070D01*
X99208618Y-105646228D01*
X99734962Y-105646228D01*
X99734962Y-105466221D01*
X99033496Y-105466221D01*
X99033496Y-105289633D01*
X99734962Y-105289633D01*
X99754008Y-105290492D01*
G37*
G36*
X100706315Y-105901217D02*
G01*
X100695647Y-105913862D01*
X100684614Y-105925694D01*
X100673212Y-105936713D01*
X100661436Y-105946917D01*
X100649282Y-105956308D01*
X100636746Y-105964883D01*
X100623824Y-105972644D01*
X100610511Y-105979589D01*
X100596803Y-105985718D01*
X100582696Y-105991031D01*
X100568185Y-105995528D01*
X100553267Y-105999208D01*
X100537936Y-106002071D01*
X100522189Y-106004116D01*
X100506021Y-106005344D01*
X100489428Y-106005753D01*
X100475198Y-106005380D01*
X100461142Y-106004274D01*
X100447278Y-106002454D01*
X100433625Y-105999941D01*
X100420201Y-105996754D01*
X100407024Y-105992913D01*
X100394112Y-105988438D01*
X100381484Y-105983348D01*
X100369157Y-105977663D01*
X100357150Y-105971402D01*
X100345481Y-105964586D01*
X100334168Y-105957234D01*
X100323230Y-105949366D01*
X100312684Y-105941002D01*
X100302549Y-105932161D01*
X100292843Y-105922863D01*
X100283584Y-105913128D01*
X100274791Y-105902976D01*
X100266481Y-105892425D01*
X100258673Y-105881497D01*
X100251385Y-105870210D01*
X100244636Y-105858585D01*
X100238442Y-105846641D01*
X100232824Y-105834398D01*
X100227798Y-105821875D01*
X100223384Y-105809093D01*
X100219598Y-105796070D01*
X100216460Y-105782828D01*
X100213988Y-105769385D01*
X100212199Y-105755761D01*
X100211113Y-105741975D01*
X100210747Y-105728049D01*
X100211109Y-105713990D01*
X100212183Y-105700082D01*
X100213953Y-105686345D01*
X100216400Y-105672797D01*
X100219508Y-105659459D01*
X100223258Y-105646349D01*
X100227634Y-105633486D01*
X100232618Y-105620891D01*
X100238193Y-105608583D01*
X100244341Y-105596580D01*
X100251044Y-105584903D01*
X100258287Y-105573571D01*
X100266050Y-105562602D01*
X100274317Y-105552017D01*
X100283071Y-105541835D01*
X100292293Y-105532075D01*
X100301967Y-105522756D01*
X100312075Y-105513898D01*
X100322600Y-105505521D01*
X100333524Y-105497643D01*
X100344830Y-105490284D01*
X100356501Y-105483463D01*
X100368518Y-105477200D01*
X100380866Y-105471514D01*
X100393525Y-105466424D01*
X100406480Y-105461951D01*
X100419712Y-105458112D01*
X100433205Y-105454928D01*
X100446940Y-105452418D01*
X100460900Y-105450601D01*
X100475069Y-105449496D01*
X100489428Y-105449124D01*
X100506021Y-105449533D01*
X100522189Y-105450760D01*
X100537936Y-105452806D01*
X100553267Y-105455669D01*
X100568185Y-105459349D01*
X100582696Y-105463846D01*
X100596803Y-105469159D01*
X100610511Y-105475288D01*
X100623824Y-105482233D01*
X100636746Y-105489994D01*
X100649282Y-105498569D01*
X100661436Y-105507960D01*
X100673212Y-105518164D01*
X100684614Y-105529182D01*
X100695647Y-105541014D01*
X100706315Y-105553660D01*
X100866050Y-105474281D01*
X100857878Y-105462747D01*
X100849394Y-105451504D01*
X100840607Y-105440557D01*
X100831525Y-105429912D01*
X100822155Y-105419572D01*
X100812505Y-105409543D01*
X100802584Y-105399829D01*
X100792400Y-105390437D01*
X100781959Y-105381370D01*
X100771270Y-105372633D01*
X100760342Y-105364232D01*
X100749181Y-105356171D01*
X100737797Y-105348456D01*
X100726196Y-105341090D01*
X100714387Y-105334080D01*
X100702377Y-105327430D01*
X100690175Y-105321144D01*
X100677788Y-105315229D01*
X100665225Y-105309688D01*
X100652493Y-105304527D01*
X100639600Y-105299751D01*
X100626554Y-105295364D01*
X100613363Y-105291371D01*
X100600035Y-105287778D01*
X100586578Y-105284590D01*
X100573000Y-105281810D01*
X100559309Y-105279445D01*
X100545512Y-105277498D01*
X100531617Y-105275976D01*
X100517633Y-105274882D01*
X100503567Y-105274223D01*
X100489428Y-105274002D01*
X100466075Y-105274600D01*
X100443021Y-105276374D01*
X100420296Y-105279296D01*
X100397928Y-105283333D01*
X100375947Y-105288458D01*
X100354381Y-105294639D01*
X100333259Y-105301846D01*
X100312611Y-105310050D01*
X100292465Y-105319221D01*
X100272851Y-105329329D01*
X100253796Y-105340343D01*
X100235331Y-105352235D01*
X100217484Y-105364973D01*
X100200285Y-105378528D01*
X100183761Y-105392870D01*
X100167943Y-105407969D01*
X100152859Y-105423795D01*
X100138538Y-105440318D01*
X100125009Y-105457508D01*
X100112302Y-105475335D01*
X100100444Y-105493769D01*
X100089465Y-105512781D01*
X100079395Y-105532340D01*
X100070261Y-105552416D01*
X100062094Y-105572979D01*
X100054921Y-105593999D01*
X100048773Y-105615447D01*
X100043677Y-105637293D01*
X100039663Y-105659506D01*
X100036760Y-105682056D01*
X100034997Y-105704914D01*
X100034403Y-105728049D01*
X100034997Y-105751202D01*
X100036760Y-105774066D01*
X100039663Y-105796613D01*
X100043677Y-105818812D01*
X100048773Y-105840636D01*
X100054921Y-105862054D01*
X100062094Y-105883037D01*
X100070261Y-105903557D01*
X100079395Y-105923582D01*
X100089465Y-105943086D01*
X100100444Y-105962037D01*
X100112302Y-105980407D01*
X100125009Y-105998166D01*
X100138538Y-106015286D01*
X100152859Y-106031736D01*
X100167943Y-106047488D01*
X100183761Y-106062512D01*
X100200285Y-106076780D01*
X100217484Y-106090261D01*
X100235331Y-106102926D01*
X100253796Y-106114747D01*
X100272851Y-106125693D01*
X100292465Y-106135736D01*
X100312611Y-106144846D01*
X100333259Y-106152994D01*
X100354381Y-106160150D01*
X100375947Y-106166286D01*
X100397928Y-106171372D01*
X100420296Y-106175379D01*
X100443021Y-106178277D01*
X100466075Y-106180038D01*
X100489428Y-106180631D01*
X100503567Y-106180411D01*
X100517633Y-106179753D01*
X100531617Y-106178662D01*
X100545512Y-106177142D01*
X100559309Y-106175198D01*
X100573000Y-106172835D01*
X100586578Y-106170058D01*
X100600035Y-106166869D01*
X100613363Y-106163276D01*
X100626554Y-106159281D01*
X100639600Y-106154889D01*
X100652493Y-106150105D01*
X100665225Y-106144934D01*
X100677788Y-106139380D01*
X100690175Y-106133448D01*
X100702377Y-106127142D01*
X100714387Y-106120466D01*
X100726196Y-106113426D01*
X100737797Y-106106026D01*
X100749181Y-106098271D01*
X100760342Y-106090164D01*
X100771270Y-106081711D01*
X100781959Y-106072916D01*
X100792400Y-106063784D01*
X100802584Y-106054319D01*
X100812505Y-106044526D01*
X100822155Y-106034409D01*
X100831525Y-106023973D01*
X100840607Y-106013223D01*
X100849394Y-106002163D01*
X100857878Y-105990797D01*
X100866050Y-105979131D01*
X100706315Y-105901217D01*
G37*
G36*
X101340126Y-105714860D02*
G01*
X101848395Y-105289633D01*
X101582415Y-105289633D01*
X101156699Y-105650868D01*
X101156699Y-105289633D01*
X100981821Y-105289633D01*
X100981821Y-106165000D01*
X101156699Y-106165000D01*
X101156699Y-105783248D01*
X101593650Y-106165000D01*
X101862317Y-106165000D01*
X101340126Y-105714860D01*
G37*
D10*
D11*
G36*
X137121598Y-105620285D02*
G01*
X136983295Y-105620285D01*
X136983295Y-105174542D01*
X136762866Y-105174542D01*
X136762866Y-105620285D01*
X136104937Y-105620285D01*
X136104937Y-105174542D01*
X135884202Y-105174542D01*
X135884202Y-105838882D01*
X136762866Y-105838882D01*
X136762866Y-106268750D01*
X136983295Y-106268750D01*
X136983295Y-105838882D01*
X137121598Y-105838882D01*
X137121598Y-105620285D01*
G37*
D10*
D11*
G36*
X170471894Y-94295148D02*
G01*
X170488552Y-94297821D01*
X170504630Y-94302165D01*
X170520044Y-94308087D01*
X170534709Y-94315498D01*
X170548542Y-94324304D01*
X170561457Y-94334415D01*
X170573371Y-94345740D01*
X170584198Y-94358187D01*
X170593856Y-94371665D01*
X170602259Y-94386082D01*
X170609324Y-94401347D01*
X170614965Y-94417368D01*
X170619099Y-94434055D01*
X170621641Y-94451316D01*
X170622507Y-94469059D01*
X170622507Y-94647265D01*
X170622342Y-94657995D01*
X170621847Y-94668376D01*
X170621022Y-94678410D01*
X170619867Y-94688097D01*
X170616569Y-94706431D01*
X170611956Y-94723383D01*
X170606030Y-94738957D01*
X170598792Y-94753156D01*
X170590245Y-94765984D01*
X170580390Y-94777445D01*
X170569230Y-94787543D01*
X170556768Y-94796282D01*
X170543004Y-94803666D01*
X170527941Y-94809699D01*
X170511581Y-94814384D01*
X170493926Y-94817726D01*
X170484614Y-94818894D01*
X170474979Y-94819728D01*
X170465021Y-94820228D01*
X170454740Y-94820395D01*
X169962437Y-94820395D01*
X169962437Y-95160850D01*
X169794904Y-95160850D01*
X169794904Y-94469059D01*
X169962437Y-94469059D01*
X169962437Y-94647265D01*
X170454740Y-94647265D01*
X170454740Y-94469059D01*
X169962437Y-94469059D01*
X169794904Y-94469059D01*
X169794904Y-94294237D01*
X170454740Y-94294237D01*
X170471894Y-94295148D01*
G37*
G36*
X171408691Y-94295087D02*
G01*
X171426188Y-94297593D01*
X171442876Y-94301688D01*
X171458695Y-94307305D01*
X171473588Y-94314377D01*
X171487496Y-94322838D01*
X171500358Y-94332619D01*
X171512117Y-94343655D01*
X171522713Y-94355878D01*
X171532088Y-94369221D01*
X171540182Y-94383618D01*
X171546937Y-94399001D01*
X171552293Y-94415303D01*
X171556192Y-94432458D01*
X171558575Y-94450399D01*
X171559382Y-94469059D01*
X171559382Y-95160850D01*
X170886208Y-95160850D01*
X170868168Y-95160002D01*
X170850851Y-95157506D01*
X170834320Y-95153430D01*
X170818634Y-95147841D01*
X170803854Y-95140809D01*
X170790042Y-95132402D01*
X170777257Y-95122687D01*
X170765560Y-95111734D01*
X170755012Y-95099610D01*
X170745673Y-95086385D01*
X170737605Y-95072126D01*
X170730868Y-95056902D01*
X170725522Y-95040781D01*
X170721629Y-95023831D01*
X170719248Y-95006122D01*
X170718441Y-94987720D01*
X170718441Y-94820395D01*
X170886208Y-94820395D01*
X170886208Y-94987720D01*
X171390445Y-94987720D01*
X171390445Y-94820395D01*
X170886208Y-94820395D01*
X170718441Y-94820395D01*
X170719248Y-94801794D01*
X170721629Y-94783936D01*
X170725522Y-94766885D01*
X170730868Y-94750703D01*
X170737605Y-94735453D01*
X170745673Y-94721199D01*
X170755012Y-94708003D01*
X170765560Y-94695928D01*
X170777257Y-94685037D01*
X170790042Y-94675395D01*
X170803854Y-94667062D01*
X170818634Y-94660104D01*
X170834320Y-94654581D01*
X170850851Y-94650559D01*
X170868168Y-94648099D01*
X170886208Y-94647265D01*
X171390445Y-94647265D01*
X171390445Y-94469059D01*
X170718441Y-94469059D01*
X170718441Y-94294237D01*
X171390445Y-94294237D01*
X171408691Y-94295087D01*
G37*
G36*
X172032733Y-94987720D02*
G01*
X171863562Y-94987720D01*
X171863562Y-94455034D01*
X172032733Y-94455034D01*
X172032733Y-94294237D01*
X171863562Y-94294237D01*
X171863562Y-94046633D01*
X171696029Y-94046633D01*
X171696029Y-94987720D01*
X171696836Y-95006122D01*
X171699216Y-95023831D01*
X171703108Y-95040781D01*
X171708452Y-95056902D01*
X171715186Y-95072126D01*
X171723249Y-95086385D01*
X171732580Y-95099610D01*
X171743118Y-95111734D01*
X171754803Y-95122687D01*
X171767572Y-95132402D01*
X171781366Y-95140809D01*
X171796123Y-95147841D01*
X171811782Y-95153430D01*
X171828282Y-95157506D01*
X171845563Y-95160002D01*
X171863562Y-95160850D01*
X172032733Y-95160850D01*
X172032733Y-94987720D01*
G37*
G36*
X172465136Y-94987720D02*
G01*
X172295966Y-94987720D01*
X172295966Y-94455034D01*
X172465136Y-94455034D01*
X172465136Y-94294237D01*
X172295966Y-94294237D01*
X172295966Y-94046633D01*
X172128433Y-94046633D01*
X172128433Y-94987720D01*
X172129240Y-95006122D01*
X172131620Y-95023831D01*
X172135512Y-95040781D01*
X172140856Y-95056902D01*
X172147589Y-95072126D01*
X172155652Y-95086385D01*
X172164984Y-95099610D01*
X172175522Y-95111734D01*
X172187206Y-95122687D01*
X172199976Y-95132402D01*
X172213770Y-95140809D01*
X172228527Y-95147841D01*
X172244186Y-95153430D01*
X172260686Y-95157506D01*
X172277966Y-95160002D01*
X172295966Y-95160850D01*
X172465136Y-95160850D01*
X172465136Y-94987720D01*
G37*
G36*
X173000280Y-94279350D02*
G01*
X173022257Y-94281096D01*
X173043935Y-94283969D01*
X173065284Y-94287939D01*
X173086277Y-94292975D01*
X173106884Y-94299049D01*
X173127078Y-94306129D01*
X173146829Y-94314185D01*
X173166109Y-94323188D01*
X173184890Y-94333108D01*
X173203142Y-94343913D01*
X173220838Y-94355575D01*
X173237949Y-94368062D01*
X173254447Y-94381346D01*
X173270302Y-94395395D01*
X173285487Y-94410180D01*
X173299972Y-94425671D01*
X173313730Y-94441837D01*
X173326731Y-94458648D01*
X173338948Y-94476074D01*
X173350351Y-94494086D01*
X173360912Y-94512653D01*
X173370603Y-94531745D01*
X173379395Y-94551331D01*
X173387259Y-94571382D01*
X173394168Y-94591868D01*
X173400092Y-94612758D01*
X173405003Y-94634023D01*
X173408872Y-94655632D01*
X173411671Y-94677555D01*
X173413371Y-94699762D01*
X173413944Y-94722224D01*
X173413811Y-94733053D01*
X173413403Y-94743797D01*
X173412710Y-94754484D01*
X173411721Y-94765143D01*
X173410425Y-94775802D01*
X173408811Y-94786490D01*
X173406868Y-94797234D01*
X173404585Y-94808063D01*
X172724391Y-94808063D01*
X172727983Y-94818770D01*
X172731949Y-94829261D01*
X172736282Y-94839528D01*
X172740971Y-94849562D01*
X172746008Y-94859356D01*
X172751381Y-94868900D01*
X172757082Y-94878188D01*
X172763101Y-94887211D01*
X172769429Y-94895960D01*
X172776055Y-94904429D01*
X172782971Y-94912608D01*
X172790167Y-94920490D01*
X172797632Y-94928066D01*
X172805358Y-94935329D01*
X172813335Y-94942270D01*
X172821554Y-94948881D01*
X172830004Y-94955155D01*
X172838676Y-94961082D01*
X172847560Y-94966655D01*
X172856648Y-94971866D01*
X172865928Y-94976707D01*
X172875393Y-94981169D01*
X172885032Y-94985245D01*
X172894835Y-94988926D01*
X172904793Y-94992204D01*
X172914896Y-94995072D01*
X172925135Y-94997520D01*
X172935500Y-94999542D01*
X172945982Y-95001128D01*
X172956571Y-95002271D01*
X172967257Y-95002963D01*
X172978031Y-95003196D01*
X172993927Y-95002780D01*
X173009416Y-95001537D01*
X173024502Y-94999474D01*
X173039189Y-94996595D01*
X173053481Y-94992908D01*
X173067382Y-94988417D01*
X173080897Y-94983129D01*
X173094029Y-94977051D01*
X173106782Y-94970188D01*
X173119162Y-94962545D01*
X173131171Y-94954130D01*
X173142814Y-94944948D01*
X173154096Y-94935005D01*
X173165019Y-94924308D01*
X173175589Y-94912861D01*
X173185809Y-94900672D01*
X173379080Y-94900672D01*
X173372516Y-94915972D01*
X173365425Y-94930944D01*
X173357821Y-94945578D01*
X173349717Y-94959863D01*
X173341129Y-94973790D01*
X173332071Y-94987347D01*
X173322556Y-95000525D01*
X173312600Y-95013313D01*
X173302215Y-95025701D01*
X173291417Y-95037679D01*
X173280220Y-95049235D01*
X173268638Y-95060360D01*
X173256685Y-95071043D01*
X173244375Y-95081274D01*
X173231723Y-95091043D01*
X173218743Y-95100339D01*
X173205448Y-95109152D01*
X173191854Y-95117471D01*
X173177975Y-95125287D01*
X173163824Y-95132588D01*
X173149416Y-95139365D01*
X173134765Y-95145607D01*
X173119886Y-95151303D01*
X173104792Y-95156444D01*
X173089498Y-95161019D01*
X173074018Y-95165018D01*
X173058367Y-95168429D01*
X173042558Y-95171244D01*
X173026605Y-95173451D01*
X173010524Y-95175041D01*
X172994328Y-95176002D01*
X172978031Y-95176325D01*
X172955885Y-95175737D01*
X172933997Y-95173993D01*
X172912397Y-95171120D01*
X172891113Y-95167147D01*
X172870175Y-95162100D01*
X172849612Y-95156009D01*
X172829452Y-95148900D01*
X172809726Y-95140803D01*
X172790463Y-95131744D01*
X172771690Y-95121751D01*
X172753439Y-95110854D01*
X172735737Y-95099078D01*
X172718615Y-95086453D01*
X172702101Y-95073006D01*
X172686224Y-95058765D01*
X172671014Y-95043758D01*
X172656499Y-95028012D01*
X172642710Y-95011557D01*
X172629675Y-94994419D01*
X172617423Y-94976627D01*
X172605983Y-94958208D01*
X172595385Y-94939190D01*
X172585658Y-94919602D01*
X172576831Y-94899471D01*
X172568933Y-94878825D01*
X172561994Y-94857691D01*
X172556042Y-94836099D01*
X172551107Y-94814075D01*
X172547218Y-94791647D01*
X172544404Y-94768844D01*
X172542694Y-94745694D01*
X172542117Y-94722224D01*
X172542694Y-94699762D01*
X172544404Y-94677555D01*
X172547218Y-94655632D01*
X172550987Y-94634692D01*
X172724391Y-94634692D01*
X173231436Y-94634692D01*
X173227838Y-94624786D01*
X173223850Y-94615069D01*
X173219484Y-94605548D01*
X173214751Y-94596232D01*
X173209662Y-94587129D01*
X173204228Y-94578247D01*
X173198459Y-94569595D01*
X173192368Y-94561181D01*
X173185965Y-94553013D01*
X173179261Y-94545099D01*
X173172267Y-94537448D01*
X173164995Y-94530068D01*
X173157454Y-94522968D01*
X173149658Y-94516155D01*
X173141615Y-94509637D01*
X173133338Y-94503424D01*
X173124838Y-94497524D01*
X173116125Y-94491944D01*
X173107211Y-94486693D01*
X173098106Y-94481779D01*
X173088822Y-94477211D01*
X173079370Y-94472996D01*
X173069761Y-94469144D01*
X173060006Y-94465662D01*
X173050116Y-94462559D01*
X173040101Y-94459842D01*
X173029974Y-94457521D01*
X173019745Y-94455603D01*
X173009425Y-94454097D01*
X172999025Y-94453011D01*
X172988557Y-94452354D01*
X172978031Y-94452132D01*
X172967257Y-94452350D01*
X172956571Y-94452998D01*
X172945982Y-94454068D01*
X172935500Y-94455554D01*
X172925135Y-94457446D01*
X172914896Y-94459739D01*
X172904793Y-94462423D01*
X172894835Y-94465492D01*
X172885032Y-94468938D01*
X172875393Y-94472753D01*
X172865928Y-94476930D01*
X172856648Y-94481460D01*
X172847560Y-94486337D01*
X172838676Y-94491553D01*
X172830004Y-94497100D01*
X172821554Y-94502971D01*
X172813335Y-94509158D01*
X172805358Y-94515653D01*
X172797632Y-94522448D01*
X172790167Y-94529537D01*
X172782971Y-94536911D01*
X172776055Y-94544563D01*
X172769429Y-94552486D01*
X172763101Y-94560671D01*
X172757082Y-94569111D01*
X172751381Y-94577798D01*
X172746008Y-94586725D01*
X172740971Y-94595885D01*
X172736282Y-94605269D01*
X172731949Y-94614870D01*
X172727983Y-94624680D01*
X172724391Y-94634692D01*
X172550987Y-94634692D01*
X172551107Y-94634023D01*
X172556042Y-94612758D01*
X172561994Y-94591868D01*
X172568933Y-94571382D01*
X172576831Y-94551331D01*
X172585658Y-94531745D01*
X172595385Y-94512653D01*
X172605983Y-94494086D01*
X172617423Y-94476074D01*
X172629675Y-94458648D01*
X172642710Y-94441837D01*
X172656499Y-94425671D01*
X172671014Y-94410180D01*
X172686224Y-94395395D01*
X172702101Y-94381346D01*
X172718615Y-94368062D01*
X172735737Y-94355575D01*
X172753439Y-94343913D01*
X172771690Y-94333108D01*
X172790463Y-94323188D01*
X172809726Y-94314185D01*
X172829452Y-94306129D01*
X172849612Y-94299049D01*
X172870175Y-94292975D01*
X172891113Y-94287939D01*
X172912397Y-94283969D01*
X172933997Y-94281096D01*
X172955885Y-94279350D01*
X172978031Y-94278762D01*
X173000280Y-94279350D01*
G37*
G36*
X174306596Y-94469059D02*
G01*
X174306430Y-94458303D01*
X174305935Y-94447889D01*
X174305109Y-94437816D01*
X174303953Y-94428085D01*
X174300650Y-94409646D01*
X174296026Y-94392574D01*
X174290082Y-94376867D01*
X174282818Y-94362527D01*
X174274235Y-94349551D01*
X174264332Y-94337942D01*
X174253111Y-94327699D01*
X174240570Y-94318821D01*
X174226712Y-94311309D01*
X174211536Y-94305163D01*
X174195042Y-94300383D01*
X174177231Y-94296968D01*
X174167832Y-94295773D01*
X174158103Y-94294920D01*
X174148045Y-94294408D01*
X174137659Y-94294237D01*
X173536786Y-94294237D01*
X173536786Y-95160850D01*
X173704319Y-95160850D01*
X173704319Y-94469059D01*
X174137659Y-94469059D01*
X174137659Y-94642671D01*
X174306596Y-94642671D01*
X174306596Y-94469059D01*
G37*
G36*
X175211882Y-94469059D02*
G01*
X175211717Y-94458303D01*
X175211221Y-94447889D01*
X175210395Y-94437816D01*
X175209239Y-94428085D01*
X175205935Y-94409646D01*
X175201309Y-94392574D01*
X175195362Y-94376867D01*
X175188093Y-94362527D01*
X175179502Y-94349551D01*
X175169590Y-94337942D01*
X175158356Y-94327699D01*
X175145800Y-94318821D01*
X175131923Y-94311309D01*
X175116724Y-94305163D01*
X175100203Y-94300383D01*
X175082361Y-94296968D01*
X175072944Y-94295773D01*
X175063197Y-94294920D01*
X175053119Y-94294408D01*
X175042711Y-94294237D01*
X174413761Y-94294237D01*
X174413761Y-95160850D01*
X174581294Y-95160850D01*
X174581294Y-94469059D01*
X175042711Y-94469059D01*
X175042711Y-95160850D01*
X175211882Y-95160850D01*
X175211882Y-94469059D01*
G37*
D10*
D11*
G36*
X109838862Y-116174807D02*
G01*
X109851840Y-116175598D01*
X109864387Y-116176905D01*
X109876505Y-116178717D01*
X109899450Y-116183819D01*
X109920679Y-116190828D01*
X109940195Y-116199664D01*
X109957999Y-116210251D01*
X109974095Y-116222511D01*
X109988485Y-116236366D01*
X110001173Y-116251737D01*
X110012160Y-116268548D01*
X110021449Y-116286720D01*
X110029043Y-116306175D01*
X110034945Y-116326836D01*
X110039157Y-116348625D01*
X110041683Y-116371465D01*
X110042524Y-116395276D01*
X110042524Y-117050152D01*
X110041589Y-117073084D01*
X110038807Y-117095221D01*
X110034213Y-117116467D01*
X110027841Y-117136730D01*
X110019727Y-117155913D01*
X110009906Y-117173924D01*
X109998412Y-117190667D01*
X109985280Y-117206048D01*
X109970545Y-117219973D01*
X109954243Y-117232347D01*
X109936407Y-117243077D01*
X109917073Y-117252068D01*
X109896276Y-117259224D01*
X109874050Y-117264453D01*
X109850431Y-117267660D01*
X109838110Y-117268475D01*
X109825453Y-117268750D01*
X108947095Y-117268750D01*
X108947095Y-117050152D01*
X109825453Y-117050152D01*
X109825453Y-116844683D01*
X109164166Y-116844683D01*
X109151375Y-116844442D01*
X109138936Y-116843723D01*
X109115131Y-116840871D01*
X109092776Y-116836164D01*
X109071902Y-116829642D01*
X109052536Y-116821343D01*
X109034706Y-116811308D01*
X109018440Y-116799573D01*
X109003767Y-116786179D01*
X108990715Y-116771164D01*
X108979311Y-116754568D01*
X108969585Y-116736428D01*
X108961564Y-116716785D01*
X108955276Y-116695676D01*
X108950750Y-116673141D01*
X108948013Y-116649219D01*
X108947325Y-116636750D01*
X108947095Y-116623948D01*
X108947095Y-116395276D01*
X109164166Y-116395276D01*
X109164166Y-116623948D01*
X109825453Y-116623948D01*
X109825453Y-116395276D01*
X109164166Y-116395276D01*
X108947095Y-116395276D01*
X108947305Y-116382475D01*
X108947936Y-116370006D01*
X108950462Y-116346083D01*
X108954674Y-116323549D01*
X108960576Y-116302440D01*
X108968170Y-116282796D01*
X108977460Y-116264657D01*
X108988447Y-116248060D01*
X109001134Y-116233045D01*
X109015524Y-116219651D01*
X109031620Y-116207917D01*
X109049424Y-116197881D01*
X109068940Y-116189583D01*
X109090169Y-116183060D01*
X109113115Y-116178354D01*
X109125232Y-116176693D01*
X109137779Y-116175501D01*
X109150757Y-116174782D01*
X109164166Y-116174542D01*
X109825453Y-116174542D01*
X109838862Y-116174807D01*
G37*
D10*
D11*
G36*
X127463058Y-117050152D02*
G01*
X127244461Y-117050152D01*
X127244461Y-116174542D01*
X126805129Y-116174542D01*
X126805129Y-116395276D01*
X127025558Y-116395276D01*
X127025558Y-117050152D01*
X126805129Y-117050152D01*
X126805129Y-117268750D01*
X127463058Y-117268750D01*
X127463058Y-117050152D01*
G37*
G36*
X128206778Y-117050152D02*
G01*
X127988180Y-117050152D01*
X127988180Y-116174542D01*
X127548849Y-116174542D01*
X127548849Y-116395276D01*
X127769278Y-116395276D01*
X127769278Y-117050152D01*
X127548849Y-117050152D01*
X127548849Y-117268750D01*
X128206778Y-117268750D01*
X128206778Y-117050152D01*
G37*
D10*
D11*
G36*
X162403105Y-94820395D02*
G01*
X162402901Y-94810644D01*
X162401289Y-94791819D01*
X162398110Y-94773934D01*
X162393410Y-94757035D01*
X162387235Y-94741166D01*
X162379632Y-94726372D01*
X162370648Y-94712698D01*
X162360329Y-94700190D01*
X162348722Y-94688891D01*
X162335873Y-94678848D01*
X162321829Y-94670104D01*
X162306635Y-94662706D01*
X162290340Y-94656698D01*
X162272988Y-94652125D01*
X162254628Y-94649032D01*
X162235304Y-94647464D01*
X162225296Y-94647265D01*
X161759037Y-94647265D01*
X161759037Y-94469059D01*
X162359630Y-94469059D01*
X162359630Y-94294237D01*
X161759037Y-94294237D01*
X161749187Y-94294423D01*
X161730172Y-94295906D01*
X161712107Y-94298849D01*
X161695037Y-94303226D01*
X161679008Y-94309014D01*
X161664064Y-94316188D01*
X161650252Y-94324724D01*
X161637617Y-94334597D01*
X161626205Y-94345783D01*
X161616060Y-94358258D01*
X161607228Y-94371996D01*
X161599755Y-94386974D01*
X161593686Y-94403167D01*
X161589067Y-94420551D01*
X161585943Y-94439101D01*
X161584955Y-94448805D01*
X161584359Y-94458792D01*
X161584159Y-94469059D01*
X161584159Y-94647265D01*
X161584366Y-94657761D01*
X161584985Y-94667938D01*
X161586007Y-94677796D01*
X161589233Y-94696550D01*
X161593988Y-94714015D01*
X161600214Y-94730183D01*
X161607853Y-94745047D01*
X161616850Y-94758598D01*
X161627146Y-94770829D01*
X161638684Y-94781732D01*
X161651407Y-94791300D01*
X161665258Y-94799524D01*
X161680179Y-94806397D01*
X161696113Y-94811911D01*
X161713004Y-94816058D01*
X161730793Y-94818830D01*
X161749424Y-94820220D01*
X161759037Y-94820395D01*
X162225296Y-94820395D01*
X162225296Y-94987720D01*
X161596615Y-94987720D01*
X161596615Y-95160850D01*
X162225296Y-95160850D01*
X162235799Y-95160671D01*
X162246009Y-95160138D01*
X162255925Y-95159251D01*
X162274863Y-95156423D01*
X162292590Y-95152203D01*
X162309084Y-95146605D01*
X162324323Y-95139642D01*
X162338287Y-95131329D01*
X162350952Y-95121679D01*
X162362297Y-95110708D01*
X162372300Y-95098430D01*
X162380939Y-95084857D01*
X162388193Y-95070005D01*
X162394040Y-95053889D01*
X162398457Y-95036521D01*
X162401424Y-95017916D01*
X162402356Y-95008154D01*
X162402917Y-94998088D01*
X162403105Y-94987720D01*
X162403105Y-94820395D01*
G37*
G36*
X162995174Y-94279357D02*
G01*
X163017897Y-94281124D01*
X163040327Y-94284032D01*
X163062435Y-94288050D01*
X163084190Y-94293148D01*
X163105560Y-94299296D01*
X163126516Y-94306463D01*
X163147027Y-94314620D01*
X163167061Y-94323735D01*
X163186588Y-94333779D01*
X163205578Y-94344721D01*
X163223999Y-94356531D01*
X163241821Y-94369179D01*
X163259013Y-94382633D01*
X163275545Y-94396865D01*
X163291386Y-94411842D01*
X163306504Y-94427537D01*
X163320870Y-94443917D01*
X163334452Y-94460952D01*
X163347220Y-94478613D01*
X163359144Y-94496869D01*
X163370191Y-94515689D01*
X163380333Y-94535043D01*
X163389537Y-94554901D01*
X163397773Y-94575233D01*
X163405011Y-94596008D01*
X163411220Y-94617196D01*
X163416369Y-94638767D01*
X163420427Y-94660690D01*
X163423364Y-94682935D01*
X163425148Y-94705471D01*
X163425750Y-94728269D01*
X163425148Y-94751062D01*
X163423364Y-94773586D01*
X163420427Y-94795811D01*
X163416369Y-94817708D01*
X163411220Y-94839246D01*
X163405011Y-94860395D01*
X163397773Y-94881126D01*
X163389537Y-94901409D01*
X163380333Y-94921214D01*
X163370191Y-94940512D01*
X163359144Y-94959272D01*
X163347220Y-94977465D01*
X163334452Y-94995061D01*
X163320870Y-95012030D01*
X163306504Y-95028343D01*
X163291386Y-95043969D01*
X163275545Y-95058879D01*
X163259013Y-95073043D01*
X163241821Y-95086432D01*
X163223999Y-95099014D01*
X163205578Y-95110762D01*
X163186588Y-95121644D01*
X163167061Y-95131631D01*
X163147027Y-95140693D01*
X163126516Y-95148801D01*
X163105560Y-95155924D01*
X163084190Y-95162034D01*
X163062435Y-95167099D01*
X163040327Y-95171091D01*
X163017897Y-95173979D01*
X162995174Y-95175733D01*
X162972191Y-95176325D01*
X162948838Y-95175737D01*
X162925784Y-95173995D01*
X162903059Y-95171125D01*
X162880691Y-95167159D01*
X162858710Y-95162123D01*
X162837144Y-95156049D01*
X162816022Y-95148964D01*
X162795374Y-95140897D01*
X162775228Y-95131878D01*
X162755614Y-95121936D01*
X162736559Y-95111099D01*
X162718094Y-95099397D01*
X162700247Y-95086858D01*
X162683048Y-95073512D01*
X162666524Y-95059387D01*
X162650706Y-95044513D01*
X162635622Y-95028919D01*
X162621301Y-95012633D01*
X162607772Y-94995685D01*
X162595065Y-94978103D01*
X162583207Y-94959916D01*
X162572228Y-94941155D01*
X162562158Y-94921847D01*
X162553024Y-94902021D01*
X162544857Y-94881707D01*
X162537684Y-94860934D01*
X162531536Y-94839730D01*
X162526440Y-94818124D01*
X162522426Y-94796147D01*
X162519523Y-94773825D01*
X162517760Y-94751190D01*
X162517166Y-94728269D01*
X162692044Y-94728269D01*
X162692415Y-94742183D01*
X162693513Y-94755942D01*
X162695322Y-94769526D01*
X162697821Y-94782916D01*
X162700992Y-94796094D01*
X162704816Y-94809040D01*
X162709276Y-94821737D01*
X162714350Y-94834166D01*
X162720023Y-94846307D01*
X162726273Y-94858142D01*
X162733083Y-94869653D01*
X162740434Y-94880820D01*
X162748308Y-94891624D01*
X162756684Y-94902048D01*
X162765546Y-94912073D01*
X162774873Y-94921679D01*
X162784648Y-94930848D01*
X162794851Y-94939561D01*
X162805464Y-94947799D01*
X162816467Y-94955544D01*
X162827843Y-94962778D01*
X162839573Y-94969480D01*
X162851637Y-94975633D01*
X162864018Y-94981218D01*
X162876696Y-94986216D01*
X162889652Y-94990609D01*
X162902868Y-94994377D01*
X162916325Y-94997502D01*
X162930005Y-94999965D01*
X162943888Y-95001747D01*
X162957957Y-95002830D01*
X162972191Y-95003196D01*
X162986288Y-95002826D01*
X163000219Y-95001731D01*
X163013966Y-94999930D01*
X163027509Y-94997442D01*
X163040832Y-94994287D01*
X163053915Y-94990484D01*
X163066740Y-94986054D01*
X163079287Y-94981014D01*
X163091540Y-94975386D01*
X163103479Y-94969188D01*
X163115086Y-94962440D01*
X163126343Y-94955162D01*
X163137230Y-94947373D01*
X163147730Y-94939092D01*
X163157824Y-94930339D01*
X163167493Y-94921135D01*
X163176720Y-94911497D01*
X163185485Y-94901446D01*
X163193770Y-94891001D01*
X163201557Y-94880182D01*
X163208827Y-94869008D01*
X163215562Y-94857499D01*
X163221743Y-94845675D01*
X163227352Y-94833554D01*
X163232370Y-94821156D01*
X163236779Y-94808502D01*
X163240561Y-94795610D01*
X163243696Y-94782499D01*
X163246167Y-94769191D01*
X163247954Y-94755703D01*
X163249040Y-94742056D01*
X163249406Y-94728269D01*
X163249044Y-94714350D01*
X163247968Y-94700582D01*
X163246196Y-94686981D01*
X163243746Y-94673569D01*
X163240636Y-94660364D01*
X163236884Y-94647385D01*
X163232507Y-94634651D01*
X163227524Y-94622182D01*
X163221952Y-94609997D01*
X163215808Y-94598115D01*
X163209111Y-94586554D01*
X163201879Y-94575335D01*
X163194129Y-94564476D01*
X163185880Y-94553997D01*
X163177148Y-94543917D01*
X163167951Y-94534254D01*
X163158309Y-94525028D01*
X163148237Y-94516259D01*
X163137755Y-94507965D01*
X163126880Y-94500166D01*
X163115629Y-94492881D01*
X163104021Y-94486128D01*
X163092073Y-94479928D01*
X163079803Y-94474299D01*
X163067229Y-94469260D01*
X163054368Y-94464831D01*
X163041240Y-94461031D01*
X163027860Y-94457879D01*
X163014248Y-94455393D01*
X163000420Y-94453595D01*
X162986395Y-94452501D01*
X162972191Y-94452132D01*
X162957957Y-94452498D01*
X162943888Y-94453581D01*
X162930005Y-94455365D01*
X162916325Y-94457829D01*
X162902868Y-94460956D01*
X162889652Y-94464727D01*
X162876696Y-94469125D01*
X162864018Y-94474129D01*
X162851637Y-94479722D01*
X162839573Y-94485885D01*
X162827843Y-94492600D01*
X162816467Y-94499847D01*
X162805464Y-94507610D01*
X162794851Y-94515869D01*
X162784648Y-94524605D01*
X162774873Y-94533801D01*
X162765546Y-94543437D01*
X162756684Y-94553495D01*
X162748308Y-94563957D01*
X162740434Y-94574804D01*
X162733083Y-94586017D01*
X162726273Y-94597579D01*
X162720023Y-94609470D01*
X162714350Y-94621672D01*
X162709276Y-94634167D01*
X162704816Y-94646936D01*
X162700992Y-94659961D01*
X162697821Y-94673222D01*
X162695322Y-94686702D01*
X162693513Y-94700382D01*
X162692415Y-94714244D01*
X162692044Y-94728269D01*
X162517166Y-94728269D01*
X162517760Y-94705365D01*
X162519523Y-94682735D01*
X162522426Y-94660411D01*
X162526440Y-94638420D01*
X162531536Y-94616793D01*
X162537684Y-94595559D01*
X162544857Y-94574749D01*
X162553024Y-94554391D01*
X162562158Y-94534516D01*
X162572228Y-94515153D01*
X162583207Y-94496332D01*
X162595065Y-94478082D01*
X162607772Y-94460433D01*
X162621301Y-94443415D01*
X162635622Y-94427057D01*
X162650706Y-94411389D01*
X162666524Y-94396441D01*
X162683048Y-94382243D01*
X162700247Y-94368823D01*
X162718094Y-94356212D01*
X162736559Y-94344440D01*
X162755614Y-94333536D01*
X162775228Y-94323529D01*
X162795374Y-94314450D01*
X162816022Y-94306328D01*
X162837144Y-94299192D01*
X162858710Y-94293073D01*
X162880691Y-94288000D01*
X162903059Y-94284003D01*
X162925784Y-94281111D01*
X162948838Y-94279354D01*
X162972191Y-94278762D01*
X162995174Y-94279357D01*
G37*
G36*
X164387578Y-94469059D02*
G01*
X164387406Y-94458303D01*
X164386888Y-94447889D01*
X164386026Y-94437816D01*
X164384819Y-94428085D01*
X164381370Y-94409646D01*
X164376541Y-94392574D01*
X164370333Y-94376867D01*
X164362745Y-94362527D01*
X164353778Y-94349551D01*
X164343431Y-94337942D01*
X164331705Y-94327699D01*
X164318599Y-94318821D01*
X164304113Y-94311309D01*
X164288248Y-94305163D01*
X164271003Y-94300383D01*
X164252378Y-94296968D01*
X164242549Y-94295773D01*
X164232374Y-94294920D01*
X164221855Y-94294408D01*
X164210991Y-94294237D01*
X163554466Y-94294237D01*
X163554466Y-95160850D01*
X163729344Y-95160850D01*
X163729344Y-94469059D01*
X164210991Y-94469059D01*
X164210991Y-95160850D01*
X164387578Y-95160850D01*
X164387578Y-94469059D01*
G37*
G36*
X165400942Y-95280299D02*
G01*
X165400769Y-95291054D01*
X165400252Y-95301466D01*
X165399390Y-95311535D01*
X165398183Y-95321262D01*
X165394735Y-95339689D01*
X165389909Y-95356746D01*
X165383704Y-95372434D01*
X165376122Y-95386754D01*
X165367162Y-95399708D01*
X165356825Y-95411294D01*
X165345112Y-95421515D01*
X165332022Y-95430371D01*
X165317556Y-95437862D01*
X165301714Y-95443990D01*
X165284497Y-95448755D01*
X165265905Y-95452158D01*
X165256094Y-95453348D01*
X165245939Y-95454199D01*
X165235440Y-95454709D01*
X165224598Y-95454879D01*
X164926378Y-95454879D01*
X164926378Y-95280299D01*
X165224598Y-95280299D01*
X165224598Y-95160850D01*
X164698011Y-95160850D01*
X164680132Y-95160003D01*
X164662734Y-95157514D01*
X164645912Y-95153457D01*
X164629756Y-95147906D01*
X164614361Y-95140935D01*
X164599818Y-95132618D01*
X164586220Y-95123031D01*
X164573661Y-95112248D01*
X164562231Y-95100342D01*
X164552026Y-95087388D01*
X164543136Y-95073462D01*
X164535654Y-95058636D01*
X164529674Y-95042986D01*
X164525288Y-95026585D01*
X164522588Y-95009509D01*
X164521667Y-94991831D01*
X164521667Y-94469059D01*
X164698011Y-94469059D01*
X164698011Y-94987720D01*
X165224598Y-94987720D01*
X165224598Y-94469059D01*
X164698011Y-94469059D01*
X164521667Y-94469059D01*
X164521872Y-94459537D01*
X164523488Y-94441055D01*
X164526672Y-94423375D01*
X164531375Y-94406557D01*
X164537547Y-94390663D01*
X164545138Y-94375755D01*
X164554098Y-94361894D01*
X164564378Y-94349142D01*
X164575928Y-94337561D01*
X164588698Y-94327212D01*
X164602638Y-94318157D01*
X164617699Y-94310458D01*
X164633832Y-94304175D01*
X164650985Y-94299372D01*
X164669110Y-94296108D01*
X164688157Y-94294447D01*
X164698011Y-94294237D01*
X165400942Y-94294237D01*
X165400942Y-95280299D01*
G37*
D10*
D11*
G36*
X119047714Y-106050152D02*
G01*
X118170882Y-106050152D01*
X118170882Y-105838882D01*
X118829117Y-105838882D01*
X118852904Y-105837770D01*
X118875676Y-105834493D01*
X118897359Y-105829142D01*
X118917884Y-105821804D01*
X118937178Y-105812571D01*
X118955169Y-105801530D01*
X118971787Y-105788772D01*
X118986959Y-105774387D01*
X119000614Y-105758463D01*
X119012681Y-105741090D01*
X119023087Y-105722357D01*
X119031762Y-105702354D01*
X119038634Y-105681171D01*
X119043631Y-105658896D01*
X119046681Y-105635620D01*
X119047714Y-105611431D01*
X119047714Y-105395276D01*
X119047469Y-105382636D01*
X119046738Y-105370307D01*
X119043844Y-105346609D01*
X119039079Y-105324229D01*
X119032492Y-105303213D01*
X119024133Y-105283608D01*
X119014049Y-105265462D01*
X119002290Y-105248821D01*
X118988905Y-105233732D01*
X118973942Y-105220243D01*
X118957450Y-105208400D01*
X118939477Y-105198250D01*
X118920073Y-105189840D01*
X118899287Y-105183217D01*
X118877166Y-105178429D01*
X118853760Y-105175521D01*
X118829117Y-105174542D01*
X117964497Y-105174542D01*
X117964497Y-105395276D01*
X118829117Y-105395276D01*
X118829117Y-105620285D01*
X118170882Y-105620285D01*
X118147074Y-105621338D01*
X118124245Y-105624443D01*
X118102471Y-105629522D01*
X118081829Y-105636494D01*
X118062397Y-105645281D01*
X118044251Y-105655801D01*
X118027467Y-105667977D01*
X118012124Y-105681727D01*
X117998298Y-105696973D01*
X117986066Y-105713635D01*
X117975505Y-105731633D01*
X117966692Y-105750888D01*
X117959703Y-105771320D01*
X117954615Y-105792849D01*
X117951507Y-105815397D01*
X117950453Y-105838882D01*
X117950453Y-106268750D01*
X119047714Y-106268750D01*
X119047714Y-106050152D01*
G37*
D10*
D11*
G36*
X180830112Y-94990122D02*
G01*
X180156734Y-94990122D01*
X180156734Y-94466221D01*
X180830112Y-94466221D01*
X180830112Y-94289633D01*
X180156734Y-94289633D01*
X180146003Y-94289858D01*
X180135609Y-94290524D01*
X180125551Y-94291623D01*
X180115830Y-94293144D01*
X180097402Y-94297411D01*
X180080325Y-94303246D01*
X180064601Y-94310568D01*
X180050234Y-94319296D01*
X180037225Y-94329350D01*
X180025576Y-94340649D01*
X180015290Y-94353114D01*
X180006368Y-94366663D01*
X179998813Y-94381215D01*
X179992626Y-94396692D01*
X179987811Y-94413011D01*
X179984369Y-94430092D01*
X179982302Y-94447856D01*
X179981612Y-94466221D01*
X179981612Y-94990122D01*
X179981785Y-95000960D01*
X179982302Y-95011446D01*
X179983163Y-95021581D01*
X179984369Y-95031366D01*
X179987811Y-95049885D01*
X179992626Y-95067009D01*
X179998813Y-95082739D01*
X180006368Y-95097081D01*
X180015290Y-95110039D01*
X180025576Y-95121616D01*
X180037225Y-95131816D01*
X180050234Y-95140643D01*
X180064601Y-95148102D01*
X180080325Y-95154196D01*
X180097402Y-95158928D01*
X180115830Y-95162304D01*
X180125551Y-95163484D01*
X180135609Y-95164326D01*
X180146003Y-95164831D01*
X180156734Y-95165000D01*
X180830112Y-95165000D01*
X180830112Y-94990122D01*
G37*
G36*
X181648646Y-94290554D02*
G01*
X181666034Y-94293254D01*
X181682817Y-94297641D01*
X181698907Y-94303624D01*
X181714215Y-94311109D01*
X181728654Y-94320004D01*
X181742135Y-94330218D01*
X181754571Y-94341657D01*
X181765874Y-94354230D01*
X181775955Y-94367843D01*
X181784726Y-94382406D01*
X181792101Y-94397825D01*
X181797989Y-94414008D01*
X181802304Y-94430864D01*
X181804958Y-94448299D01*
X181805862Y-94466221D01*
X181805862Y-94646228D01*
X181805690Y-94657066D01*
X181805173Y-94667552D01*
X181804311Y-94677687D01*
X181803106Y-94687472D01*
X181799664Y-94705991D01*
X181794848Y-94723115D01*
X181788662Y-94738845D01*
X181781107Y-94753187D01*
X181772185Y-94766145D01*
X181761898Y-94777722D01*
X181750250Y-94787922D01*
X181737240Y-94796750D01*
X181722873Y-94804208D01*
X181707150Y-94810302D01*
X181690073Y-94815034D01*
X181671644Y-94818410D01*
X181661923Y-94819590D01*
X181651866Y-94820432D01*
X181641471Y-94820937D01*
X181630740Y-94821106D01*
X181116853Y-94821106D01*
X181116853Y-95165000D01*
X180941975Y-95165000D01*
X180941975Y-94466221D01*
X181116853Y-94466221D01*
X181116853Y-94646228D01*
X181630740Y-94646228D01*
X181630740Y-94466221D01*
X181116853Y-94466221D01*
X180941975Y-94466221D01*
X180941975Y-94289633D01*
X181630740Y-94289633D01*
X181648646Y-94290554D01*
G37*
G36*
X182536148Y-94289633D02*
G01*
X182293859Y-94681399D01*
X182057188Y-94289633D01*
X181854222Y-94289633D01*
X182202757Y-94859940D01*
X182202757Y-95165000D01*
X182379344Y-95165000D01*
X182379344Y-94859940D01*
X182733497Y-94289633D01*
X182536148Y-94289633D01*
G37*
G36*
X183035869Y-94195844D02*
G01*
X182547383Y-95274420D01*
X182709561Y-95274420D01*
X183198291Y-94195844D01*
X183035869Y-94195844D01*
G37*
G36*
X183973517Y-94646228D02*
G01*
X183449861Y-94646228D01*
X183449861Y-94466221D01*
X183977670Y-94466221D01*
X183977670Y-94289633D01*
X183274983Y-94289633D01*
X183274983Y-95165000D01*
X183449861Y-95165000D01*
X183449861Y-94821106D01*
X183973517Y-94821106D01*
X183973517Y-94646228D01*
G37*
G36*
X184663015Y-94702404D02*
G01*
X185057956Y-94289633D01*
X184822750Y-94289633D01*
X184545534Y-94592250D01*
X184265388Y-94289633D01*
X184023343Y-94289633D01*
X184420970Y-94703625D01*
X184013573Y-95165000D01*
X184247314Y-95165000D01*
X184534299Y-94825013D01*
X184825437Y-95165000D01*
X185067725Y-95165000D01*
X184663015Y-94702404D01*
G37*
D10*
D11*
G36*
X181974390Y-116988921D02*
G01*
X181446581Y-116988921D01*
X181446581Y-116820750D01*
X181970238Y-116820750D01*
X181970238Y-116646747D01*
X181446581Y-116646747D01*
X181446581Y-116467640D01*
X181973168Y-116467640D01*
X181973168Y-116291935D01*
X181271703Y-116291935D01*
X181271703Y-117162925D01*
X181974390Y-117162925D01*
X181974390Y-116988921D01*
G37*
G36*
X182948919Y-117162925D02*
G01*
X182261619Y-117162925D01*
X182242788Y-117162102D01*
X182224712Y-117159674D01*
X182207456Y-117155697D01*
X182191083Y-117150227D01*
X182175655Y-117143321D01*
X182161237Y-117135038D01*
X182147891Y-117125433D01*
X182135682Y-117114563D01*
X182124671Y-117102486D01*
X182114923Y-117089259D01*
X182106501Y-117074937D01*
X182099469Y-117059580D01*
X182093889Y-117043242D01*
X182089824Y-117025982D01*
X182087340Y-117007856D01*
X182086497Y-116988921D01*
X182086497Y-116467640D01*
X182261619Y-116467640D01*
X182261619Y-116988921D01*
X182774041Y-116988921D01*
X182774041Y-116467640D01*
X182261619Y-116467640D01*
X182086497Y-116467640D01*
X182086497Y-116463508D01*
X182087433Y-116445722D01*
X182090175Y-116428506D01*
X182094621Y-116411938D01*
X182100671Y-116396100D01*
X182108223Y-116381071D01*
X182117177Y-116366930D01*
X182127432Y-116353757D01*
X182138887Y-116341633D01*
X182151441Y-116330636D01*
X182164994Y-116320847D01*
X182179443Y-116312345D01*
X182194689Y-116305210D01*
X182210631Y-116299522D01*
X182227167Y-116295360D01*
X182244197Y-116292805D01*
X182261619Y-116291935D01*
X182774041Y-116291935D01*
X182774041Y-116043081D01*
X182948919Y-116043081D01*
X182948919Y-117162925D01*
G37*
G36*
X183277425Y-116291935D02*
G01*
X183102547Y-116291935D01*
X183102547Y-117162925D01*
X183277425Y-117162925D01*
X183277425Y-116291935D01*
G37*
G36*
X183776658Y-116988921D02*
G01*
X183600070Y-116988921D01*
X183600070Y-116453544D01*
X183776658Y-116453544D01*
X183776658Y-116291935D01*
X183600070Y-116291935D01*
X183600070Y-116043081D01*
X183425192Y-116043081D01*
X183425192Y-116988921D01*
X183426035Y-117007415D01*
X183428519Y-117025214D01*
X183432582Y-117042249D01*
X183438160Y-117058452D01*
X183445189Y-117073753D01*
X183453605Y-117088084D01*
X183463346Y-117101376D01*
X183474346Y-117113561D01*
X183486543Y-117124569D01*
X183499872Y-117134333D01*
X183514271Y-117142783D01*
X183529675Y-117149851D01*
X183546020Y-117155467D01*
X183563244Y-117159564D01*
X183581282Y-117162073D01*
X183600070Y-117162925D01*
X183776658Y-117162925D01*
X183776658Y-116988921D01*
G37*
D10*
D11*
G36*
X146053210Y-105838882D02*
G01*
X146052214Y-105815095D01*
X146049264Y-105792323D01*
X146044418Y-105770640D01*
X146037730Y-105750115D01*
X146029260Y-105730821D01*
X146019062Y-105712830D01*
X146007195Y-105696212D01*
X145993714Y-105681040D01*
X145978677Y-105667385D01*
X145962141Y-105655318D01*
X145944162Y-105644912D01*
X145924797Y-105636237D01*
X145904102Y-105629365D01*
X145882136Y-105624368D01*
X145858954Y-105621318D01*
X145834613Y-105620285D01*
X145176378Y-105620285D01*
X145176378Y-105395276D01*
X146042830Y-105395276D01*
X146042830Y-105174542D01*
X144955949Y-105174542D01*
X144955949Y-105838882D01*
X145834613Y-105838882D01*
X145834613Y-106050152D01*
X144959307Y-106050152D01*
X144959307Y-106268750D01*
X145834613Y-106268750D01*
X145847247Y-106268510D01*
X145859557Y-106267794D01*
X145883188Y-106264954D01*
X145905463Y-106260271D01*
X145926342Y-106253785D01*
X145945785Y-106245537D01*
X145963751Y-106235567D01*
X145980199Y-106223917D01*
X145995088Y-106210627D01*
X146008378Y-106195738D01*
X146020028Y-106179290D01*
X146029997Y-106161324D01*
X146038245Y-106141882D01*
X146044731Y-106121002D01*
X146049415Y-106098727D01*
X146052254Y-106075097D01*
X146052970Y-106062786D01*
X146053210Y-106050152D01*
X146053210Y-105838882D01*
G37*
D10*
D11*
G36*
X98663957Y-116820750D02*
G01*
X98663753Y-116810950D01*
X98662141Y-116792030D01*
X98658962Y-116774055D01*
X98654262Y-116757071D01*
X98648087Y-116741121D01*
X98640484Y-116726253D01*
X98631500Y-116712510D01*
X98621181Y-116699938D01*
X98609574Y-116688582D01*
X98596725Y-116678488D01*
X98582681Y-116669701D01*
X98567487Y-116662265D01*
X98551192Y-116656227D01*
X98533840Y-116651630D01*
X98515480Y-116648522D01*
X98496156Y-116646946D01*
X98486148Y-116646747D01*
X98019889Y-116646747D01*
X98019889Y-116467640D01*
X98620482Y-116467640D01*
X98620482Y-116291935D01*
X98019889Y-116291935D01*
X98010039Y-116292122D01*
X97991024Y-116293613D01*
X97972959Y-116296570D01*
X97955889Y-116300970D01*
X97939860Y-116306787D01*
X97924916Y-116313997D01*
X97911104Y-116322576D01*
X97898469Y-116332499D01*
X97887057Y-116343742D01*
X97876912Y-116356279D01*
X97868080Y-116370087D01*
X97860607Y-116385141D01*
X97854538Y-116401415D01*
X97849919Y-116418887D01*
X97846795Y-116437530D01*
X97845807Y-116447284D01*
X97845211Y-116457321D01*
X97845011Y-116467640D01*
X97845011Y-116646747D01*
X97845218Y-116657295D01*
X97845837Y-116667524D01*
X97846859Y-116677431D01*
X97850085Y-116696280D01*
X97854840Y-116713833D01*
X97861066Y-116730083D01*
X97868705Y-116745021D01*
X97877702Y-116758641D01*
X97887998Y-116770934D01*
X97899536Y-116781893D01*
X97912259Y-116791509D01*
X97926110Y-116799774D01*
X97941031Y-116806682D01*
X97956965Y-116812224D01*
X97973856Y-116816392D01*
X97991645Y-116819178D01*
X98010276Y-116820575D01*
X98019889Y-116820750D01*
X98486148Y-116820750D01*
X98486148Y-116988921D01*
X97857467Y-116988921D01*
X97857467Y-117162925D01*
X98486148Y-117162925D01*
X98496651Y-117162745D01*
X98506861Y-117162209D01*
X98516777Y-117161318D01*
X98535715Y-117158476D01*
X98553442Y-117154235D01*
X98569936Y-117148608D01*
X98585175Y-117141610D01*
X98599139Y-117133255D01*
X98611804Y-117123557D01*
X98623149Y-117112530D01*
X98633152Y-117100189D01*
X98641791Y-117086548D01*
X98649045Y-117071622D01*
X98654892Y-117055423D01*
X98659309Y-117037968D01*
X98662276Y-117019269D01*
X98663208Y-117009458D01*
X98663769Y-116999341D01*
X98663957Y-116988921D01*
X98663957Y-116820750D01*
G37*
G36*
X99149023Y-116988921D02*
G01*
X98972436Y-116988921D01*
X98972436Y-116453544D01*
X99149023Y-116453544D01*
X99149023Y-116291935D01*
X98972436Y-116291935D01*
X98972436Y-116043081D01*
X98797558Y-116043081D01*
X98797558Y-116988921D01*
X98798400Y-117007415D01*
X98800885Y-117025214D01*
X98804948Y-117042249D01*
X98810526Y-117058452D01*
X98817555Y-117073753D01*
X98825971Y-117088084D01*
X98835711Y-117101376D01*
X98846712Y-117113561D01*
X98858908Y-117124569D01*
X98872238Y-117134333D01*
X98886636Y-117142783D01*
X98902040Y-117149851D01*
X98918386Y-117155467D01*
X98935609Y-117159564D01*
X98953647Y-117162073D01*
X98972436Y-117162925D01*
X99149023Y-117162925D01*
X99149023Y-116988921D01*
G37*
G36*
X99707628Y-116276973D02*
G01*
X99730569Y-116278728D01*
X99753197Y-116281615D01*
X99775482Y-116285605D01*
X99797395Y-116290667D01*
X99818906Y-116296771D01*
X99839985Y-116303887D01*
X99860602Y-116311984D01*
X99880727Y-116321033D01*
X99900331Y-116331002D01*
X99919384Y-116341862D01*
X99937856Y-116353583D01*
X99955717Y-116366133D01*
X99972938Y-116379484D01*
X99989488Y-116393604D01*
X100005339Y-116408464D01*
X100020459Y-116424033D01*
X100034820Y-116440280D01*
X100048391Y-116457176D01*
X100061143Y-116474691D01*
X100073047Y-116492794D01*
X100084071Y-116511454D01*
X100094187Y-116530642D01*
X100103364Y-116550328D01*
X100111573Y-116570480D01*
X100118785Y-116591069D01*
X100124968Y-116612065D01*
X100130094Y-116633437D01*
X100134133Y-116655155D01*
X100137055Y-116677189D01*
X100138830Y-116699509D01*
X100139428Y-116722083D01*
X100139289Y-116732967D01*
X100138863Y-116743765D01*
X100138140Y-116754507D01*
X100137108Y-116765220D01*
X100135755Y-116775932D01*
X100134070Y-116786674D01*
X100132042Y-116797472D01*
X100129658Y-116808356D01*
X99419644Y-116808356D01*
X99423393Y-116819118D01*
X99427534Y-116829662D01*
X99432056Y-116839980D01*
X99436951Y-116850065D01*
X99442208Y-116859908D01*
X99447817Y-116869501D01*
X99453768Y-116878835D01*
X99460051Y-116887904D01*
X99466656Y-116896698D01*
X99473573Y-116905209D01*
X99480792Y-116913429D01*
X99488303Y-116921351D01*
X99496096Y-116928966D01*
X99504161Y-116936265D01*
X99512488Y-116943241D01*
X99521066Y-116949886D01*
X99529887Y-116956191D01*
X99538939Y-116962148D01*
X99548213Y-116967749D01*
X99557699Y-116972986D01*
X99567386Y-116977852D01*
X99577266Y-116982336D01*
X99587327Y-116986433D01*
X99597560Y-116990132D01*
X99607955Y-116993427D01*
X99618501Y-116996309D01*
X99629189Y-116998770D01*
X99640009Y-117000802D01*
X99650950Y-117002396D01*
X99662003Y-117003545D01*
X99673157Y-117004241D01*
X99684404Y-117004474D01*
X99700997Y-117004057D01*
X99717165Y-117002808D01*
X99732912Y-117000734D01*
X99748243Y-116997841D01*
X99763161Y-116994134D01*
X99777672Y-116989621D01*
X99791779Y-116984307D01*
X99805487Y-116978198D01*
X99818800Y-116971300D01*
X99831722Y-116963619D01*
X99844258Y-116955161D01*
X99856412Y-116945933D01*
X99868187Y-116935940D01*
X99879590Y-116925188D01*
X99890623Y-116913684D01*
X99901291Y-116901433D01*
X100103036Y-116901433D01*
X100096184Y-116916810D01*
X100088782Y-116931858D01*
X100080844Y-116946566D01*
X100072385Y-116960923D01*
X100063421Y-116974920D01*
X100053965Y-116988546D01*
X100044033Y-117001791D01*
X100033640Y-117014643D01*
X100022801Y-117027094D01*
X100011529Y-117039131D01*
X99999841Y-117050746D01*
X99987751Y-117061927D01*
X99975274Y-117072664D01*
X99962425Y-117082947D01*
X99949218Y-117092765D01*
X99935668Y-117102108D01*
X99921791Y-117110966D01*
X99907601Y-117119327D01*
X99893113Y-117127182D01*
X99878342Y-117134520D01*
X99863302Y-117141331D01*
X99848009Y-117147605D01*
X99832478Y-117153330D01*
X99816722Y-117158497D01*
X99800758Y-117163095D01*
X99784599Y-117167114D01*
X99768261Y-117170543D01*
X99751759Y-117173372D01*
X99735108Y-117175590D01*
X99718321Y-117177187D01*
X99701415Y-117178154D01*
X99684404Y-117178478D01*
X99661287Y-117177887D01*
X99638440Y-117176134D01*
X99615892Y-117173247D01*
X99593675Y-117169254D01*
X99571819Y-117164182D01*
X99550355Y-117158059D01*
X99529311Y-117150915D01*
X99508720Y-117142776D01*
X99488612Y-117133672D01*
X99469017Y-117123629D01*
X99449965Y-117112676D01*
X99431488Y-117100841D01*
X99413615Y-117088152D01*
X99396376Y-117074637D01*
X99379803Y-117060324D01*
X99363926Y-117045241D01*
X99348776Y-117029417D01*
X99334382Y-117012878D01*
X99320775Y-116995654D01*
X99307986Y-116977771D01*
X99296045Y-116959260D01*
X99284982Y-116940146D01*
X99274829Y-116920459D01*
X99265615Y-116900226D01*
X99257371Y-116879475D01*
X99250127Y-116858235D01*
X99243914Y-116836533D01*
X99238763Y-116814398D01*
X99234703Y-116791858D01*
X99231766Y-116768940D01*
X99229981Y-116745672D01*
X99229379Y-116722083D01*
X99229981Y-116699509D01*
X99231766Y-116677189D01*
X99234703Y-116655155D01*
X99238637Y-116634109D01*
X99419644Y-116634109D01*
X99948919Y-116634109D01*
X99945162Y-116624154D01*
X99941000Y-116614387D01*
X99936443Y-116604818D01*
X99931502Y-116595455D01*
X99926190Y-116586306D01*
X99920517Y-116577380D01*
X99914496Y-116568684D01*
X99908138Y-116560227D01*
X99901454Y-116552018D01*
X99894456Y-116544064D01*
X99887155Y-116536375D01*
X99879564Y-116528957D01*
X99871693Y-116521821D01*
X99863555Y-116514974D01*
X99855160Y-116508423D01*
X99846520Y-116502179D01*
X99837647Y-116496249D01*
X99828552Y-116490640D01*
X99819247Y-116485363D01*
X99809743Y-116480424D01*
X99800052Y-116475833D01*
X99790186Y-116471597D01*
X99780155Y-116467725D01*
X99769973Y-116464226D01*
X99759649Y-116461107D01*
X99749195Y-116458377D01*
X99738624Y-116456044D01*
X99727947Y-116454116D01*
X99717174Y-116452603D01*
X99706319Y-116451511D01*
X99695391Y-116450850D01*
X99684404Y-116450628D01*
X99673157Y-116450847D01*
X99662003Y-116451498D01*
X99650950Y-116452574D01*
X99640009Y-116454066D01*
X99629189Y-116455969D01*
X99618501Y-116458273D01*
X99607955Y-116460971D01*
X99597560Y-116464055D01*
X99587327Y-116467518D01*
X99577266Y-116471353D01*
X99567386Y-116475550D01*
X99557699Y-116480104D01*
X99548213Y-116485006D01*
X99538939Y-116490248D01*
X99529887Y-116495823D01*
X99521066Y-116501723D01*
X99512488Y-116507941D01*
X99504161Y-116514469D01*
X99496096Y-116521299D01*
X99488303Y-116528423D01*
X99480792Y-116535835D01*
X99473573Y-116543526D01*
X99466656Y-116551488D01*
X99460051Y-116559714D01*
X99453768Y-116568197D01*
X99447817Y-116576928D01*
X99442208Y-116585901D01*
X99436951Y-116595106D01*
X99432056Y-116604538D01*
X99427534Y-116614187D01*
X99423393Y-116624047D01*
X99419644Y-116634109D01*
X99238637Y-116634109D01*
X99238763Y-116633437D01*
X99243914Y-116612065D01*
X99250127Y-116591069D01*
X99257371Y-116570480D01*
X99265615Y-116550328D01*
X99274829Y-116530642D01*
X99284982Y-116511454D01*
X99296045Y-116492794D01*
X99307986Y-116474691D01*
X99320775Y-116457176D01*
X99334382Y-116440280D01*
X99348776Y-116424033D01*
X99363926Y-116408464D01*
X99379803Y-116393604D01*
X99396376Y-116379484D01*
X99413615Y-116366133D01*
X99431488Y-116353583D01*
X99449965Y-116341862D01*
X99469017Y-116331002D01*
X99488612Y-116321033D01*
X99508720Y-116311984D01*
X99529311Y-116303887D01*
X99550355Y-116296771D01*
X99571819Y-116290667D01*
X99593675Y-116285605D01*
X99615892Y-116281615D01*
X99638440Y-116278728D01*
X99661287Y-116276973D01*
X99684404Y-116276382D01*
X99707628Y-116276973D01*
G37*
G36*
X100988610Y-116292776D02*
G01*
X101007202Y-116295258D01*
X101024848Y-116299320D01*
X101041497Y-116304899D01*
X101057100Y-116311933D01*
X101071607Y-116320360D01*
X101084969Y-116330119D01*
X101097135Y-116341147D01*
X101108056Y-116353383D01*
X101117682Y-116366764D01*
X101125964Y-116381229D01*
X101132851Y-116396715D01*
X101138295Y-116413162D01*
X101142245Y-116430506D01*
X101144651Y-116448686D01*
X101145464Y-116467640D01*
X101145464Y-116993052D01*
X101144514Y-117010579D01*
X101141734Y-117027563D01*
X101137228Y-117043924D01*
X101131100Y-117059580D01*
X101123455Y-117074449D01*
X101114398Y-117088452D01*
X101104032Y-117101506D01*
X101092464Y-117113530D01*
X101079796Y-117124444D01*
X101066133Y-117134166D01*
X101051580Y-117142615D01*
X101036242Y-117149710D01*
X101020222Y-117155370D01*
X101003626Y-117159513D01*
X100986557Y-117162058D01*
X100969121Y-117162925D01*
X100442533Y-117162925D01*
X100442533Y-117458439D01*
X100267655Y-117458439D01*
X100267655Y-116467640D01*
X100442533Y-116467640D01*
X100442533Y-116988921D01*
X100969121Y-116988921D01*
X100969121Y-116467640D01*
X100442533Y-116467640D01*
X100267655Y-116467640D01*
X100267655Y-116291935D01*
X100969121Y-116291935D01*
X100988610Y-116292776D01*
G37*
D10*
D11*
G36*
X154214541Y-117050152D02*
G01*
X153995944Y-117050152D01*
X153995944Y-116174542D01*
X153556612Y-116174542D01*
X153556612Y-116395276D01*
X153777041Y-116395276D01*
X153777041Y-117050152D01*
X153556612Y-117050152D01*
X153556612Y-117268750D01*
X154214541Y-117268750D01*
X154214541Y-117050152D01*
G37*
G36*
X155458043Y-116620285D02*
G01*
X155319740Y-116620285D01*
X155319740Y-116174542D01*
X155099311Y-116174542D01*
X155099311Y-116620285D01*
X154441382Y-116620285D01*
X154441382Y-116174542D01*
X154220647Y-116174542D01*
X154220647Y-116838882D01*
X155099311Y-116838882D01*
X155099311Y-117268750D01*
X155319740Y-117268750D01*
X155319740Y-116838882D01*
X155458043Y-116838882D01*
X155458043Y-116620285D01*
G37*
D10*
D11*
G36*
X153520342Y-94289633D02*
G01*
X153342533Y-94289633D01*
X152996685Y-94990854D01*
X152652303Y-94289633D01*
X152466190Y-94289633D01*
X152466190Y-95165000D01*
X152643999Y-95165000D01*
X152643999Y-94667477D01*
X152883357Y-95165000D01*
X153104641Y-95165000D01*
X153343999Y-94667477D01*
X153343999Y-95165000D01*
X153520342Y-95165000D01*
X153520342Y-94289633D01*
G37*
G36*
X154128772Y-94274596D02*
G01*
X154151713Y-94276360D01*
X154174341Y-94279261D01*
X154196627Y-94283271D01*
X154218540Y-94288359D01*
X154240051Y-94294494D01*
X154261129Y-94301645D01*
X154281746Y-94309783D01*
X154301872Y-94318877D01*
X154321476Y-94328897D01*
X154340529Y-94339811D01*
X154359001Y-94351591D01*
X154376862Y-94364204D01*
X154394082Y-94377622D01*
X154410633Y-94391813D01*
X154426483Y-94406748D01*
X154441604Y-94422395D01*
X154455964Y-94438724D01*
X154469536Y-94455705D01*
X154482288Y-94473308D01*
X154494191Y-94491501D01*
X154505215Y-94510256D01*
X154515331Y-94529540D01*
X154524508Y-94549324D01*
X154532718Y-94569578D01*
X154539929Y-94590271D01*
X154546113Y-94611372D01*
X154551239Y-94632852D01*
X154555278Y-94654679D01*
X154558199Y-94676823D01*
X154559974Y-94699255D01*
X154560572Y-94721943D01*
X154560433Y-94732881D01*
X154560008Y-94743734D01*
X154559284Y-94754529D01*
X154558252Y-94765296D01*
X154556899Y-94776063D01*
X154555214Y-94786858D01*
X154553186Y-94797711D01*
X154550803Y-94808649D01*
X153840789Y-94808649D01*
X153844537Y-94819465D01*
X153848678Y-94830062D01*
X153853201Y-94840432D01*
X153858096Y-94850568D01*
X153863353Y-94860460D01*
X153868962Y-94870101D01*
X153874913Y-94879483D01*
X153881196Y-94888597D01*
X153887801Y-94897435D01*
X153894718Y-94905989D01*
X153901937Y-94914251D01*
X153909448Y-94922212D01*
X153917241Y-94929865D01*
X153925305Y-94937201D01*
X153933632Y-94944212D01*
X153942211Y-94950890D01*
X153951031Y-94957227D01*
X153960083Y-94963214D01*
X153969357Y-94968843D01*
X153978843Y-94974107D01*
X153988531Y-94978997D01*
X153998410Y-94983504D01*
X154008471Y-94987621D01*
X154018704Y-94991339D01*
X154029099Y-94994650D01*
X154039645Y-94997547D01*
X154050333Y-95000020D01*
X154061153Y-95002062D01*
X154072094Y-95003665D01*
X154083147Y-95004820D01*
X154094302Y-95005518D01*
X154105548Y-95005753D01*
X154122141Y-95005333D01*
X154138309Y-95004078D01*
X154154056Y-95001994D01*
X154169387Y-94999086D01*
X154184306Y-94995361D01*
X154198816Y-94990825D01*
X154212923Y-94985484D01*
X154226631Y-94979344D01*
X154239944Y-94972412D01*
X154252866Y-94964692D01*
X154265402Y-94956192D01*
X154277556Y-94946917D01*
X154289332Y-94936874D01*
X154300734Y-94926068D01*
X154311767Y-94914506D01*
X154322436Y-94902194D01*
X154524180Y-94902194D01*
X154517328Y-94917648D01*
X154509926Y-94932772D01*
X154501988Y-94947553D01*
X154493530Y-94961983D01*
X154484565Y-94976050D01*
X154475110Y-94989745D01*
X154465178Y-95003056D01*
X154454785Y-95015973D01*
X154443945Y-95028486D01*
X154432674Y-95040584D01*
X154420986Y-95052257D01*
X154408896Y-95063495D01*
X154396419Y-95074286D01*
X154383569Y-95084620D01*
X154370362Y-95094488D01*
X154356813Y-95103878D01*
X154342936Y-95112780D01*
X154328746Y-95121183D01*
X154314258Y-95129078D01*
X154299486Y-95136453D01*
X154284447Y-95143298D01*
X154269154Y-95149603D01*
X154253622Y-95155357D01*
X154237867Y-95160550D01*
X154221902Y-95165171D01*
X154205744Y-95169210D01*
X154189406Y-95172656D01*
X154172904Y-95175499D01*
X154156252Y-95177729D01*
X154139466Y-95179334D01*
X154122559Y-95180305D01*
X154105548Y-95180631D01*
X154082431Y-95180038D01*
X154059584Y-95178276D01*
X154037037Y-95175374D01*
X154014820Y-95171360D01*
X153992964Y-95166263D01*
X153971499Y-95160110D01*
X153950456Y-95152930D01*
X153929865Y-95144750D01*
X153909757Y-95135600D01*
X153890161Y-95125506D01*
X153871110Y-95114498D01*
X153852632Y-95102604D01*
X153834759Y-95089851D01*
X153817521Y-95076268D01*
X153800948Y-95061884D01*
X153785071Y-95046725D01*
X153769920Y-95030821D01*
X153755526Y-95014199D01*
X153741919Y-94996888D01*
X153729130Y-94978916D01*
X153717189Y-94960311D01*
X153706127Y-94941101D01*
X153695973Y-94921315D01*
X153686759Y-94900981D01*
X153678515Y-94880126D01*
X153671272Y-94858779D01*
X153665059Y-94836968D01*
X153659907Y-94814722D01*
X153655848Y-94792068D01*
X153652910Y-94769035D01*
X153651125Y-94745650D01*
X153650524Y-94721943D01*
X153651125Y-94699255D01*
X153652910Y-94676823D01*
X153655848Y-94654679D01*
X153659781Y-94633527D01*
X153840789Y-94633527D01*
X154370063Y-94633527D01*
X154366307Y-94623521D01*
X154362144Y-94613706D01*
X154357587Y-94604089D01*
X154352646Y-94594679D01*
X154347334Y-94585484D01*
X154341662Y-94576512D01*
X154335640Y-94567773D01*
X154329282Y-94559273D01*
X154322598Y-94551023D01*
X154315600Y-94543029D01*
X154308300Y-94535301D01*
X154300709Y-94527847D01*
X154292838Y-94520674D01*
X154284699Y-94513793D01*
X154276304Y-94507210D01*
X154267664Y-94500934D01*
X154258791Y-94494973D01*
X154249696Y-94489337D01*
X154240391Y-94484033D01*
X154230888Y-94479070D01*
X154221197Y-94474455D01*
X154211330Y-94470198D01*
X154201300Y-94466307D01*
X154191117Y-94462790D01*
X154180793Y-94459655D01*
X154170340Y-94456911D01*
X154159769Y-94454567D01*
X154149091Y-94452629D01*
X154138319Y-94451108D01*
X154127463Y-94450011D01*
X154116536Y-94449347D01*
X154105548Y-94449124D01*
X154094302Y-94449344D01*
X154083147Y-94449998D01*
X154072094Y-94451079D01*
X154061153Y-94452579D01*
X154050333Y-94454491D01*
X154039645Y-94456807D01*
X154029099Y-94459518D01*
X154018704Y-94462618D01*
X154008471Y-94466099D01*
X153998410Y-94469952D01*
X153988531Y-94474171D01*
X153978843Y-94478748D01*
X153969357Y-94483674D01*
X153960083Y-94488943D01*
X153951031Y-94494546D01*
X153942211Y-94500476D01*
X153933632Y-94506725D01*
X153925305Y-94513285D01*
X153917241Y-94520150D01*
X153909448Y-94527310D01*
X153901937Y-94534759D01*
X153894718Y-94542488D01*
X153887801Y-94550491D01*
X153881196Y-94558758D01*
X153874913Y-94567283D01*
X153868962Y-94576059D01*
X153863353Y-94585076D01*
X153858096Y-94594328D01*
X153853201Y-94603807D01*
X153848678Y-94613505D01*
X153844537Y-94623414D01*
X153840789Y-94633527D01*
X153659781Y-94633527D01*
X153659907Y-94632852D01*
X153665059Y-94611372D01*
X153671272Y-94590271D01*
X153678515Y-94569578D01*
X153686759Y-94549324D01*
X153695973Y-94529540D01*
X153706127Y-94510256D01*
X153717189Y-94491501D01*
X153729130Y-94473308D01*
X153741919Y-94455705D01*
X153755526Y-94438724D01*
X153769920Y-94422395D01*
X153785071Y-94406748D01*
X153800948Y-94391813D01*
X153817521Y-94377622D01*
X153834759Y-94364204D01*
X153852632Y-94351591D01*
X153871110Y-94339811D01*
X153890161Y-94328897D01*
X153909757Y-94318877D01*
X153929865Y-94309783D01*
X153950456Y-94301645D01*
X153971499Y-94294494D01*
X153992964Y-94288359D01*
X154014820Y-94283271D01*
X154037037Y-94279261D01*
X154059584Y-94276360D01*
X154082431Y-94274596D01*
X154105548Y-94274002D01*
X154128772Y-94274596D01*
G37*
G36*
X155521912Y-94466221D02*
G01*
X155521740Y-94455356D01*
X155521222Y-94444837D01*
X155520360Y-94434663D01*
X155519153Y-94424833D01*
X155515704Y-94406209D01*
X155510876Y-94388964D01*
X155504667Y-94373098D01*
X155497080Y-94358613D01*
X155488112Y-94345507D01*
X155477765Y-94333780D01*
X155466039Y-94323433D01*
X155452933Y-94314466D01*
X155438447Y-94306878D01*
X155422582Y-94300670D01*
X155405337Y-94295841D01*
X155386712Y-94292392D01*
X155376883Y-94291185D01*
X155366708Y-94290323D01*
X155356189Y-94289806D01*
X155345325Y-94289633D01*
X154688800Y-94289633D01*
X154688800Y-95165000D01*
X154863678Y-95165000D01*
X154863678Y-94466221D01*
X155345325Y-94466221D01*
X155345325Y-95165000D01*
X155521912Y-95165000D01*
X155521912Y-94466221D01*
G37*
G36*
X156539428Y-94289633D02*
G01*
X156364550Y-94289633D01*
X156364550Y-94990122D01*
X155836741Y-94990122D01*
X155836741Y-94289633D01*
X155663085Y-94289633D01*
X155663085Y-94990122D01*
X155663911Y-95008709D01*
X155666349Y-95026597D01*
X155670341Y-95043718D01*
X155675827Y-95060002D01*
X155682749Y-95075380D01*
X155691047Y-95089783D01*
X155700663Y-95103142D01*
X155711536Y-95115388D01*
X155723609Y-95126452D01*
X155736823Y-95136264D01*
X155751117Y-95144757D01*
X155766434Y-95151860D01*
X155782713Y-95157505D01*
X155799897Y-95161623D01*
X155817926Y-95164144D01*
X155836741Y-95165000D01*
X156364550Y-95165000D01*
X156383580Y-95164173D01*
X156401797Y-95161733D01*
X156419144Y-95157735D01*
X156435564Y-95152238D01*
X156450999Y-95145298D01*
X156465392Y-95136973D01*
X156478686Y-95127319D01*
X156490824Y-95116395D01*
X156501748Y-95104257D01*
X156511401Y-95090963D01*
X156519726Y-95076570D01*
X156526666Y-95061135D01*
X156532164Y-95044716D01*
X156536161Y-95027369D01*
X156538602Y-95009152D01*
X156539428Y-94990122D01*
X156539428Y-94289633D01*
G37*
D10*
D11*
G36*
X164048631Y-105174542D02*
G01*
X162949538Y-105174542D01*
X162949538Y-105395276D01*
X163750960Y-105395276D01*
X162966940Y-106268750D01*
X163252094Y-106268750D01*
X164048631Y-105379400D01*
X164048631Y-105174542D01*
G37*
D10*
D11*
G36*
X172208435Y-117050152D02*
G01*
X171989838Y-117050152D01*
X171989838Y-116174542D01*
X171550506Y-116174542D01*
X171550506Y-116395276D01*
X171770935Y-116395276D01*
X171770935Y-117050152D01*
X171550506Y-117050152D01*
X171550506Y-117268750D01*
X172208435Y-117268750D01*
X172208435Y-117050152D01*
G37*
G36*
X173412552Y-116395276D02*
G01*
X172544574Y-116395276D01*
X172544574Y-116604409D01*
X173202504Y-116604409D01*
X173215148Y-116604664D01*
X173239521Y-116606685D01*
X173262628Y-116610666D01*
X173284420Y-116616547D01*
X173304843Y-116624265D01*
X173323847Y-116633759D01*
X173341381Y-116644967D01*
X173357392Y-116657828D01*
X173371830Y-116672280D01*
X173384642Y-116688261D01*
X173395779Y-116705709D01*
X173405187Y-116724562D01*
X173412817Y-116744760D01*
X173418615Y-116766240D01*
X173422531Y-116788940D01*
X173424514Y-116812799D01*
X173424765Y-116825143D01*
X173424765Y-117050152D01*
X173424529Y-117062786D01*
X173422656Y-117087079D01*
X173418936Y-117110037D01*
X173413399Y-117131619D01*
X173406073Y-117151785D01*
X173396986Y-117170495D01*
X173386168Y-117187706D01*
X173373647Y-117203380D01*
X173359452Y-117217475D01*
X173343611Y-117229950D01*
X173326152Y-117240765D01*
X173307105Y-117249879D01*
X173286498Y-117257251D01*
X173264360Y-117262840D01*
X173240720Y-117266607D01*
X173228345Y-117267794D01*
X173215605Y-117268510D01*
X173202504Y-117268750D01*
X172544574Y-117268750D01*
X172521639Y-117267680D01*
X172499493Y-117264528D01*
X172478231Y-117259381D01*
X172457949Y-117252325D01*
X172438743Y-117243446D01*
X172420706Y-117232830D01*
X172403936Y-117220565D01*
X172388526Y-117206735D01*
X172374573Y-117191427D01*
X172362170Y-117174729D01*
X172351415Y-117156725D01*
X172342401Y-117137502D01*
X172335225Y-117117148D01*
X172329981Y-117095747D01*
X172326765Y-117073386D01*
X172325672Y-117050152D01*
X172325672Y-116825143D01*
X172544574Y-116825143D01*
X172544574Y-117050152D01*
X173202504Y-117050152D01*
X173202504Y-116825143D01*
X172544574Y-116825143D01*
X172325672Y-116825143D01*
X172325672Y-116395276D01*
X172326765Y-116372320D01*
X172329981Y-116350116D01*
X172335225Y-116328764D01*
X172342401Y-116308365D01*
X172351415Y-116289019D01*
X172362170Y-116270828D01*
X172374573Y-116253892D01*
X172388526Y-116238312D01*
X172403936Y-116224187D01*
X172420706Y-116211620D01*
X172438743Y-116200710D01*
X172457949Y-116191557D01*
X172478231Y-116184264D01*
X172499493Y-116178930D01*
X172521639Y-116175655D01*
X172544574Y-116174542D01*
X173412552Y-116174542D01*
X173412552Y-116395276D01*
G37*
D10*
D11*
G36*
X181682351Y-105295148D02*
G01*
X181699739Y-105297821D01*
X181716522Y-105302165D01*
X181732611Y-105308087D01*
X181747920Y-105315498D01*
X181762359Y-105324304D01*
X181775840Y-105334415D01*
X181788276Y-105345740D01*
X181799579Y-105358187D01*
X181809660Y-105371665D01*
X181818431Y-105386082D01*
X181825805Y-105401347D01*
X181831694Y-105417368D01*
X181836009Y-105434055D01*
X181838663Y-105451316D01*
X181839567Y-105469059D01*
X181839567Y-105647265D01*
X181839395Y-105657995D01*
X181838878Y-105668376D01*
X181838016Y-105678410D01*
X181836811Y-105688097D01*
X181833368Y-105706431D01*
X181828553Y-105723383D01*
X181822367Y-105738957D01*
X181814812Y-105753156D01*
X181805890Y-105765984D01*
X181795603Y-105777445D01*
X181783954Y-105787543D01*
X181770945Y-105796282D01*
X181756578Y-105803666D01*
X181740855Y-105809699D01*
X181723778Y-105814384D01*
X181705349Y-105817726D01*
X181695628Y-105818894D01*
X181685571Y-105819728D01*
X181675176Y-105820228D01*
X181664445Y-105820395D01*
X181150558Y-105820395D01*
X181150558Y-106160850D01*
X180975680Y-106160850D01*
X180975680Y-105469059D01*
X181150558Y-105469059D01*
X181150558Y-105647265D01*
X181664445Y-105647265D01*
X181664445Y-105469059D01*
X181150558Y-105469059D01*
X180975680Y-105469059D01*
X180975680Y-105294237D01*
X181664445Y-105294237D01*
X181682351Y-105295148D01*
G37*
G36*
X182134368Y-105046633D02*
G01*
X181956559Y-105046633D01*
X181956559Y-106160850D01*
X182134368Y-106160850D01*
X182134368Y-105046633D01*
G37*
G36*
X182991412Y-105295087D02*
G01*
X183009675Y-105297593D01*
X183027095Y-105301688D01*
X183043608Y-105307305D01*
X183059154Y-105314377D01*
X183073671Y-105322838D01*
X183087097Y-105332619D01*
X183099372Y-105343655D01*
X183110432Y-105355878D01*
X183120218Y-105369221D01*
X183128667Y-105383618D01*
X183135718Y-105399001D01*
X183141309Y-105415303D01*
X183145379Y-105432458D01*
X183147866Y-105450399D01*
X183148709Y-105469059D01*
X183148709Y-106160850D01*
X182446022Y-106160850D01*
X182427190Y-106160002D01*
X182409115Y-106157506D01*
X182391859Y-106153430D01*
X182375485Y-106147841D01*
X182360058Y-106140809D01*
X182345640Y-106132402D01*
X182332294Y-106122687D01*
X182320084Y-106111734D01*
X182309074Y-106099610D01*
X182299326Y-106086385D01*
X182290904Y-106072126D01*
X182283871Y-106056902D01*
X182278291Y-106040781D01*
X182274227Y-106023831D01*
X182271742Y-106006122D01*
X182270900Y-105987720D01*
X182270900Y-105820395D01*
X182446022Y-105820395D01*
X182446022Y-105987720D01*
X182972365Y-105987720D01*
X182972365Y-105820395D01*
X182446022Y-105820395D01*
X182270900Y-105820395D01*
X182271742Y-105801794D01*
X182274227Y-105783936D01*
X182278291Y-105766885D01*
X182283871Y-105750703D01*
X182290904Y-105735453D01*
X182299326Y-105721199D01*
X182309074Y-105708003D01*
X182320084Y-105695928D01*
X182332294Y-105685037D01*
X182345640Y-105675395D01*
X182360058Y-105667062D01*
X182375485Y-105660104D01*
X182391859Y-105654581D01*
X182409115Y-105650559D01*
X182427190Y-105648099D01*
X182446022Y-105647265D01*
X182972365Y-105647265D01*
X182972365Y-105469059D01*
X182270900Y-105469059D01*
X182270900Y-105294237D01*
X182972365Y-105294237D01*
X182991412Y-105295087D01*
G37*
G36*
X183207083Y-105294237D02*
G01*
X183544382Y-106152386D01*
X183419818Y-106454879D01*
X183615701Y-106454879D01*
X184086357Y-105294237D01*
X183894382Y-105294237D01*
X183641102Y-105917840D01*
X183411270Y-105294237D01*
X183207083Y-105294237D01*
G37*
D10*
D11*
G36*
X145242018Y-117050152D02*
G01*
X145023421Y-117050152D01*
X145023421Y-116174542D01*
X144584089Y-116174542D01*
X144584089Y-116395276D01*
X144804518Y-116395276D01*
X144804518Y-117050152D01*
X144584089Y-117050152D01*
X144584089Y-117268750D01*
X145242018Y-117268750D01*
X145242018Y-117050152D01*
G37*
G36*
X146388433Y-116892616D02*
G01*
X146388021Y-116876592D01*
X146386784Y-116861683D01*
X146384720Y-116847832D01*
X146381826Y-116834980D01*
X146378100Y-116823069D01*
X146370947Y-116806839D01*
X146361910Y-116792400D01*
X146350981Y-116779554D01*
X146338152Y-116768106D01*
X146323417Y-116757860D01*
X146312530Y-116751599D01*
X146300791Y-116745727D01*
X146288196Y-116740186D01*
X146281577Y-116737521D01*
X146294240Y-116732763D01*
X146306018Y-116727589D01*
X146316921Y-116721913D01*
X146331654Y-116712270D01*
X146344469Y-116701012D01*
X146355398Y-116687848D01*
X146364474Y-116672487D01*
X146369510Y-116660882D01*
X146373745Y-116648085D01*
X146377189Y-116634009D01*
X146379852Y-116618568D01*
X146381742Y-116601676D01*
X146382869Y-116583246D01*
X146383243Y-116563193D01*
X146383243Y-116395276D01*
X146383048Y-116382475D01*
X146382460Y-116370006D01*
X146380096Y-116346083D01*
X146376131Y-116323549D01*
X146370544Y-116302440D01*
X146363315Y-116282796D01*
X146354424Y-116264657D01*
X146343849Y-116248060D01*
X146331570Y-116233045D01*
X146317567Y-116219651D01*
X146301819Y-116207917D01*
X146284305Y-116197881D01*
X146265005Y-116189583D01*
X146243898Y-116183060D01*
X146220963Y-116178354D01*
X146208805Y-116176693D01*
X146196181Y-116175501D01*
X146183091Y-116174782D01*
X146169530Y-116174542D01*
X145310406Y-116174542D01*
X145310406Y-116395276D01*
X146169530Y-116395276D01*
X146169530Y-116620285D01*
X145315596Y-116620285D01*
X145315596Y-116838882D01*
X146169530Y-116838882D01*
X146169530Y-117050152D01*
X145308574Y-117050152D01*
X145308574Y-117268750D01*
X146169530Y-117268750D01*
X146183106Y-117268539D01*
X146196239Y-117267908D01*
X146208933Y-117266855D01*
X146221186Y-117265380D01*
X146244377Y-117261160D01*
X146265816Y-117255245D01*
X146285509Y-117247628D01*
X146303461Y-117238304D01*
X146319678Y-117227270D01*
X146334165Y-117214520D01*
X146346928Y-117200049D01*
X146357972Y-117183852D01*
X146367302Y-117165924D01*
X146374923Y-117146261D01*
X146380842Y-117124857D01*
X146385063Y-117101707D01*
X146386538Y-117089476D01*
X146387591Y-117076807D01*
X146388223Y-117063700D01*
X146388433Y-117050152D01*
X146388433Y-116892616D01*
G37*
D10*
D11*
G36*
X163201718Y-117050152D02*
G01*
X162983121Y-117050152D01*
X162983121Y-116174542D01*
X162543789Y-116174542D01*
X162543789Y-116395276D01*
X162764218Y-116395276D01*
X162764218Y-117050152D01*
X162543789Y-117050152D01*
X162543789Y-117268750D01*
X163201718Y-117268750D01*
X163201718Y-117050152D01*
G37*
G36*
X164425070Y-116838882D02*
G01*
X164424074Y-116815095D01*
X164421124Y-116792323D01*
X164416277Y-116770640D01*
X164409590Y-116750115D01*
X164401119Y-116730821D01*
X164390922Y-116712830D01*
X164379054Y-116696212D01*
X164365574Y-116681040D01*
X164350537Y-116667385D01*
X164334000Y-116655318D01*
X164316021Y-116644912D01*
X164296656Y-116636237D01*
X164275962Y-116629365D01*
X164253995Y-116624368D01*
X164230813Y-116621318D01*
X164206472Y-116620285D01*
X163548238Y-116620285D01*
X163548238Y-116395276D01*
X164414689Y-116395276D01*
X164414689Y-116174542D01*
X163327809Y-116174542D01*
X163327809Y-116838882D01*
X164206472Y-116838882D01*
X164206472Y-117050152D01*
X163331167Y-117050152D01*
X163331167Y-117268750D01*
X164206472Y-117268750D01*
X164219106Y-117268510D01*
X164231417Y-117267794D01*
X164255047Y-117264954D01*
X164277322Y-117260271D01*
X164298202Y-117253785D01*
X164317645Y-117245537D01*
X164335610Y-117235567D01*
X164352058Y-117223917D01*
X164366947Y-117210627D01*
X164380237Y-117195738D01*
X164391888Y-117179290D01*
X164401857Y-117161324D01*
X164410105Y-117141882D01*
X164416591Y-117121002D01*
X164421274Y-117098727D01*
X164424114Y-117075097D01*
X164424830Y-117062786D01*
X164425070Y-117050152D01*
X164425070Y-116838882D01*
G37*
D10*
D11*
G36*
X155040693Y-105395276D02*
G01*
X154172715Y-105395276D01*
X154172715Y-105604409D01*
X154830644Y-105604409D01*
X154843289Y-105604664D01*
X154867661Y-105606685D01*
X154890769Y-105610666D01*
X154912560Y-105616547D01*
X154932984Y-105624265D01*
X154951988Y-105633759D01*
X154969521Y-105644967D01*
X154985532Y-105657828D01*
X154999970Y-105672280D01*
X155012783Y-105688261D01*
X155023919Y-105705709D01*
X155033328Y-105724562D01*
X155040957Y-105744760D01*
X155046756Y-105766240D01*
X155050672Y-105788940D01*
X155052655Y-105812799D01*
X155052905Y-105825143D01*
X155052905Y-106050152D01*
X155052670Y-106062786D01*
X155050796Y-106087079D01*
X155047076Y-106110037D01*
X155041539Y-106131619D01*
X155034213Y-106151785D01*
X155025127Y-106170495D01*
X155014309Y-106187706D01*
X155001788Y-106203380D01*
X154987592Y-106217475D01*
X154971751Y-106229950D01*
X154954293Y-106240765D01*
X154935246Y-106249879D01*
X154914639Y-106257251D01*
X154892501Y-106262840D01*
X154868860Y-106266607D01*
X154856485Y-106267794D01*
X154843745Y-106268510D01*
X154830644Y-106268750D01*
X154172715Y-106268750D01*
X154149779Y-106267680D01*
X154127633Y-106264528D01*
X154106372Y-106259381D01*
X154086090Y-106252325D01*
X154066883Y-106243446D01*
X154048847Y-106232830D01*
X154032076Y-106220565D01*
X154016667Y-106206735D01*
X154002713Y-106191427D01*
X153990311Y-106174729D01*
X153979556Y-106156725D01*
X153970542Y-106137502D01*
X153963366Y-106117148D01*
X153958122Y-106095747D01*
X153954906Y-106073386D01*
X153953812Y-106050152D01*
X153953812Y-105825143D01*
X154172715Y-105825143D01*
X154172715Y-106050152D01*
X154830644Y-106050152D01*
X154830644Y-105825143D01*
X154172715Y-105825143D01*
X153953812Y-105825143D01*
X153953812Y-105395276D01*
X153954906Y-105372320D01*
X153958122Y-105350116D01*
X153963366Y-105328764D01*
X153970542Y-105308365D01*
X153979556Y-105289019D01*
X153990311Y-105270828D01*
X154002713Y-105253892D01*
X154016667Y-105238312D01*
X154032076Y-105224187D01*
X154048847Y-105211620D01*
X154066883Y-105200710D01*
X154086090Y-105191557D01*
X154106372Y-105184264D01*
X154127633Y-105178930D01*
X154149779Y-105175655D01*
X154172715Y-105174542D01*
X155040693Y-105174542D01*
X155040693Y-105395276D01*
G37*
D10*
D11*
G36*
X136210267Y-117050152D02*
G01*
X135991670Y-117050152D01*
X135991670Y-116174542D01*
X135552338Y-116174542D01*
X135552338Y-116395276D01*
X135772767Y-116395276D01*
X135772767Y-117050152D01*
X135552338Y-117050152D01*
X135552338Y-117268750D01*
X136210267Y-117268750D01*
X136210267Y-117050152D01*
G37*
G36*
X137419575Y-117050152D02*
G01*
X136542743Y-117050152D01*
X136542743Y-116838882D01*
X137200977Y-116838882D01*
X137224765Y-116837770D01*
X137247536Y-116834493D01*
X137269220Y-116829142D01*
X137289744Y-116821804D01*
X137309038Y-116812571D01*
X137327029Y-116801530D01*
X137343647Y-116788772D01*
X137358819Y-116774387D01*
X137372474Y-116758463D01*
X137384541Y-116741090D01*
X137394948Y-116722357D01*
X137403623Y-116702354D01*
X137410494Y-116681171D01*
X137415491Y-116658896D01*
X137418542Y-116635620D01*
X137419575Y-116611431D01*
X137419575Y-116395276D01*
X137419330Y-116382636D01*
X137418599Y-116370307D01*
X137415704Y-116346609D01*
X137410939Y-116324229D01*
X137404352Y-116303213D01*
X137395993Y-116283608D01*
X137385910Y-116265462D01*
X137374151Y-116248821D01*
X137360766Y-116233732D01*
X137345802Y-116220243D01*
X137329310Y-116208400D01*
X137311338Y-116198250D01*
X137291934Y-116189840D01*
X137271147Y-116183217D01*
X137249026Y-116178429D01*
X137225620Y-116175521D01*
X137200977Y-116174542D01*
X136336358Y-116174542D01*
X136336358Y-116395276D01*
X137200977Y-116395276D01*
X137200977Y-116620285D01*
X136542743Y-116620285D01*
X136518935Y-116621338D01*
X136496105Y-116624443D01*
X136474331Y-116629522D01*
X136453690Y-116636494D01*
X136434257Y-116645281D01*
X136416111Y-116655801D01*
X136399328Y-116667977D01*
X136383985Y-116681727D01*
X136370159Y-116696973D01*
X136357927Y-116713635D01*
X136347366Y-116731633D01*
X136338552Y-116750888D01*
X136331563Y-116771320D01*
X136326476Y-116792849D01*
X136323367Y-116815397D01*
X136322314Y-116838882D01*
X136322314Y-117268750D01*
X137419575Y-117268750D01*
X137419575Y-117050152D01*
G37*
G04 #@! TA.AperFunction,EtchedComponent*
G04 #@! TO.C,kibuzzard-66CCD5B1*
G36*
X122818543Y-73835759D02*
G01*
X122913992Y-73901244D01*
X122978881Y-73997288D01*
X123000511Y-74110794D01*
X122978881Y-74223109D01*
X122913992Y-74318756D01*
X122818543Y-74384241D01*
X122705236Y-74406069D01*
X122591729Y-74384241D01*
X122495686Y-74318756D01*
X122430201Y-74223109D01*
X122408373Y-74110794D01*
X122430201Y-73997288D01*
X122495686Y-73901244D01*
X122591729Y-73835759D01*
X122705236Y-73813931D01*
X122818543Y-73835759D01*
G37*
G04 #@! TD.AperFunction*
G04 #@! TA.AperFunction,EtchedComponent*
G36*
X123500573Y-74922535D02*
G01*
X122705236Y-74922535D01*
X122222636Y-74922535D01*
X121891906Y-74922535D01*
X121404385Y-74922535D01*
X121647907Y-74110794D01*
X122222636Y-74110794D01*
X122231466Y-74206441D01*
X122257957Y-74294944D01*
X122302110Y-74376303D01*
X122363923Y-74450519D01*
X122438238Y-74512332D01*
X122519895Y-74556484D01*
X122608894Y-74582976D01*
X122705236Y-74591806D01*
X122800882Y-74582976D01*
X122824418Y-74575931D01*
X123314836Y-74575931D01*
X123500573Y-74575931D01*
X124240348Y-74575931D01*
X124426086Y-74575931D01*
X124426086Y-74202869D01*
X124984886Y-74202869D01*
X124984886Y-74017131D01*
X124426086Y-74017131D01*
X124426086Y-73829806D01*
X124984886Y-73829806D01*
X124984886Y-73644069D01*
X124240348Y-73644069D01*
X124240348Y-74575931D01*
X123500573Y-74575931D01*
X123500573Y-74202869D01*
X124059373Y-74202869D01*
X124059373Y-74017131D01*
X123500573Y-74017131D01*
X123500573Y-73829806D01*
X124059373Y-73829806D01*
X124059373Y-73644069D01*
X123314836Y-73644069D01*
X123314836Y-74575931D01*
X122824418Y-74575931D01*
X122889386Y-74556484D01*
X122970745Y-74512332D01*
X123044961Y-74450519D01*
X123106774Y-74376303D01*
X123150926Y-74294944D01*
X123177418Y-74206441D01*
X123186248Y-74110794D01*
X123177418Y-74014452D01*
X123150926Y-73925453D01*
X123106774Y-73843796D01*
X123044961Y-73769481D01*
X122970745Y-73707668D01*
X122889386Y-73663516D01*
X122800882Y-73637024D01*
X122705236Y-73628194D01*
X122608894Y-73637024D01*
X122519895Y-73663516D01*
X122438238Y-73707668D01*
X122363923Y-73769481D01*
X122302110Y-73843796D01*
X122257957Y-73925453D01*
X122231466Y-74014452D01*
X122222636Y-74110794D01*
X121647907Y-74110794D01*
X121891906Y-73297465D01*
X122222636Y-73297465D01*
X124984886Y-73297465D01*
X125315615Y-73297465D01*
X125315615Y-74922535D01*
X124984886Y-74922535D01*
X124426086Y-74922535D01*
X123500573Y-74922535D01*
G37*
G04 #@! TD.AperFunction*
G04 #@! TA.AperFunction,EtchedComponent*
G04 #@! TO.C,kibuzzard-66CCD5A9*
G36*
X119514722Y-73835759D02*
G01*
X119610171Y-73901244D01*
X119675060Y-73997288D01*
X119696689Y-74110794D01*
X119675060Y-74223109D01*
X119610171Y-74318756D01*
X119514722Y-74384241D01*
X119401414Y-74406069D01*
X119287908Y-74384241D01*
X119191864Y-74318756D01*
X119126380Y-74223109D01*
X119104552Y-74110794D01*
X119126380Y-73997288D01*
X119191864Y-73901244D01*
X119287908Y-73835759D01*
X119401414Y-73813931D01*
X119514722Y-73835759D01*
G37*
G04 #@! TD.AperFunction*
G04 #@! TA.AperFunction,EtchedComponent*
G36*
X119401414Y-74922535D02*
G01*
X118918814Y-74922535D01*
X118588085Y-74922535D01*
X118588085Y-74110794D01*
X118918814Y-74110794D01*
X118927645Y-74206441D01*
X118954136Y-74294944D01*
X118998289Y-74376303D01*
X119060102Y-74450519D01*
X119134417Y-74512332D01*
X119216074Y-74556484D01*
X119305073Y-74582976D01*
X119401414Y-74591806D01*
X119497061Y-74582976D01*
X119520597Y-74575931D01*
X120009427Y-74575931D01*
X120195164Y-74575931D01*
X120195164Y-73829806D01*
X120706339Y-73829806D01*
X120706339Y-74575931D01*
X120893664Y-74575931D01*
X120893664Y-73829806D01*
X120872850Y-73726619D01*
X120810409Y-73664706D01*
X120706339Y-73644069D01*
X120009427Y-73644069D01*
X120009427Y-74575931D01*
X119520597Y-74575931D01*
X119585564Y-74556484D01*
X119666924Y-74512332D01*
X119741139Y-74450519D01*
X119802953Y-74376303D01*
X119847105Y-74294944D01*
X119873596Y-74206441D01*
X119882427Y-74110794D01*
X119873596Y-74014452D01*
X119847105Y-73925453D01*
X119802953Y-73843796D01*
X119741139Y-73769481D01*
X119666924Y-73707668D01*
X119585564Y-73663516D01*
X119497061Y-73637024D01*
X119401414Y-73628194D01*
X119305073Y-73637024D01*
X119216074Y-73663516D01*
X119134417Y-73707668D01*
X119060102Y-73769481D01*
X118998289Y-73843796D01*
X118954136Y-73925453D01*
X118927645Y-74014452D01*
X118918814Y-74110794D01*
X118588085Y-74110794D01*
X118588085Y-73297465D01*
X118918814Y-73297465D01*
X120893664Y-73297465D01*
X121224394Y-73297465D01*
X121711915Y-73297465D01*
X121224394Y-74922535D01*
X120893664Y-74922535D01*
X119401414Y-74922535D01*
G37*
G04 #@! TD.AperFunction*
G04 #@! TD*
D12*
G04 #@! TO.N,SLIDER_TOUCH_1*
X121751423Y-100340000D03*
G04 #@! TO.N,SLIDER_TOUCH_2*
X133730000Y-100330000D03*
G04 #@! TO.N,SLIDER_TOUCH_3*
X145750000Y-100330000D03*
G04 #@! TO.N,GND*
X97000000Y-73100000D03*
X185000000Y-131400000D03*
X97000000Y-131400000D03*
X185000000Y-73100000D03*
G04 #@! TD*
G04 #@! TA.AperFunction,Conductor*
G04 #@! TO.N,GND*
G36*
X186000305Y-71000516D02*
G01*
X186133341Y-71007488D01*
X186133381Y-71007506D01*
X186133381Y-71007490D01*
X186133483Y-71007495D01*
X186319583Y-71017947D01*
X186320698Y-71018066D01*
X186475505Y-71042585D01*
X186475622Y-71042650D01*
X186475628Y-71042605D01*
X186475639Y-71042606D01*
X186640509Y-71070619D01*
X186641548Y-71070847D01*
X186796700Y-71112420D01*
X186796741Y-71112431D01*
X186953831Y-71157688D01*
X186954740Y-71157994D01*
X187106005Y-71216059D01*
X187106285Y-71216170D01*
X187255864Y-71278127D01*
X187256631Y-71278481D01*
X187381580Y-71342146D01*
X187401759Y-71352428D01*
X187402101Y-71352610D01*
X187543048Y-71430508D01*
X187543722Y-71430912D01*
X187680703Y-71519869D01*
X187681033Y-71520093D01*
X187800257Y-71604687D01*
X187812072Y-71613071D01*
X187812654Y-71613513D01*
X187939690Y-71716384D01*
X187940116Y-71716746D01*
X188059765Y-71823671D01*
X188060234Y-71824114D01*
X188175884Y-71939764D01*
X188176327Y-71940233D01*
X188283252Y-72059882D01*
X188283614Y-72060308D01*
X188386485Y-72187344D01*
X188386927Y-72187926D01*
X188479885Y-72318936D01*
X188480151Y-72319328D01*
X188569078Y-72456264D01*
X188569498Y-72456964D01*
X188647388Y-72597897D01*
X188647570Y-72598239D01*
X188721505Y-72743341D01*
X188721883Y-72744161D01*
X188783828Y-72893713D01*
X188783939Y-72893993D01*
X188841999Y-73045244D01*
X188842314Y-73046181D01*
X188887560Y-73203234D01*
X188887617Y-73203442D01*
X188929150Y-73358445D01*
X188929380Y-73359495D01*
X188957394Y-73524369D01*
X188957414Y-73524496D01*
X188981929Y-73679280D01*
X188982053Y-73680434D01*
X188992509Y-73866617D01*
X188992511Y-73866660D01*
X188999484Y-73999695D01*
X188999500Y-74000297D01*
X188999500Y-130499703D01*
X188999484Y-130500305D01*
X188992511Y-130633339D01*
X188992509Y-130633382D01*
X188982053Y-130819564D01*
X188981929Y-130820718D01*
X188957414Y-130975503D01*
X188957394Y-130975630D01*
X188929380Y-131140503D01*
X188929150Y-131141553D01*
X188887617Y-131296556D01*
X188887560Y-131296764D01*
X188842314Y-131453817D01*
X188841999Y-131454754D01*
X188783939Y-131606005D01*
X188783828Y-131606285D01*
X188721883Y-131755837D01*
X188721505Y-131756657D01*
X188647570Y-131901759D01*
X188647388Y-131902101D01*
X188569498Y-132043034D01*
X188569078Y-132043734D01*
X188480151Y-132180670D01*
X188479885Y-132181062D01*
X188386927Y-132312072D01*
X188386485Y-132312654D01*
X188283614Y-132439690D01*
X188283252Y-132440116D01*
X188176327Y-132559765D01*
X188175884Y-132560234D01*
X188060234Y-132675884D01*
X188059765Y-132676327D01*
X187940116Y-132783252D01*
X187939690Y-132783614D01*
X187812654Y-132886485D01*
X187812072Y-132886927D01*
X187681062Y-132979885D01*
X187680670Y-132980151D01*
X187543734Y-133069078D01*
X187543034Y-133069498D01*
X187402101Y-133147388D01*
X187401759Y-133147570D01*
X187256657Y-133221505D01*
X187255837Y-133221883D01*
X187106285Y-133283828D01*
X187106005Y-133283939D01*
X186954754Y-133341999D01*
X186953817Y-133342314D01*
X186796764Y-133387560D01*
X186796556Y-133387617D01*
X186641553Y-133429150D01*
X186640503Y-133429380D01*
X186475630Y-133457394D01*
X186475503Y-133457414D01*
X186320718Y-133481929D01*
X186319564Y-133482053D01*
X186133382Y-133492509D01*
X186133339Y-133492511D01*
X186000305Y-133499484D01*
X185999703Y-133499500D01*
X96000297Y-133499500D01*
X95999695Y-133499484D01*
X95866659Y-133492511D01*
X95866617Y-133492491D01*
X95866617Y-133492509D01*
X95680434Y-133482053D01*
X95679280Y-133481929D01*
X95524495Y-133457414D01*
X95524377Y-133457345D01*
X95524369Y-133457394D01*
X95359495Y-133429380D01*
X95358445Y-133429150D01*
X95203442Y-133387617D01*
X95203234Y-133387560D01*
X95046181Y-133342314D01*
X95045244Y-133341999D01*
X94893993Y-133283939D01*
X94893713Y-133283828D01*
X94744161Y-133221883D01*
X94743341Y-133221505D01*
X94598239Y-133147570D01*
X94597897Y-133147388D01*
X94456964Y-133069498D01*
X94456264Y-133069078D01*
X94319328Y-132980151D01*
X94318936Y-132979885D01*
X94187926Y-132886927D01*
X94187344Y-132886485D01*
X94060308Y-132783614D01*
X94059882Y-132783252D01*
X93940233Y-132676327D01*
X93939764Y-132675884D01*
X93824114Y-132560234D01*
X93823671Y-132559765D01*
X93716746Y-132440116D01*
X93716384Y-132439690D01*
X93613513Y-132312654D01*
X93613071Y-132312072D01*
X93604687Y-132300257D01*
X93520093Y-132181033D01*
X93519869Y-132180703D01*
X93430912Y-132043722D01*
X93430508Y-132043048D01*
X93352610Y-131902101D01*
X93352428Y-131901759D01*
X93333223Y-131864068D01*
X93278481Y-131756631D01*
X93278127Y-131755864D01*
X93216170Y-131606285D01*
X93216059Y-131606005D01*
X93157994Y-131454740D01*
X93157688Y-131453831D01*
X93112431Y-131296741D01*
X93112381Y-131296556D01*
X93070848Y-131141553D01*
X93070618Y-131140503D01*
X93042605Y-130975630D01*
X93042585Y-130975503D01*
X93034438Y-130924063D01*
X93018066Y-130820698D01*
X93017947Y-130819583D01*
X93007490Y-130633382D01*
X93000516Y-130500305D01*
X93000500Y-130499703D01*
X93000500Y-129624336D01*
X95499500Y-129624336D01*
X95540428Y-129869613D01*
X95609477Y-130070744D01*
X95621172Y-130104810D01*
X95739526Y-130323509D01*
X95892262Y-130519744D01*
X96054413Y-130669014D01*
X96075217Y-130688166D01*
X96283394Y-130824174D01*
X96511116Y-130924062D01*
X96511117Y-130924062D01*
X96511119Y-130924063D01*
X96752179Y-130985108D01*
X96937933Y-131000500D01*
X97062064Y-131000500D01*
X97062067Y-131000500D01*
X97247821Y-130985108D01*
X97488881Y-130924063D01*
X97716607Y-130824173D01*
X97924785Y-130688164D01*
X98107738Y-130519744D01*
X98260474Y-130323509D01*
X98300255Y-130250000D01*
X170694435Y-130250000D01*
X170714632Y-130429255D01*
X170746295Y-130519744D01*
X170774212Y-130599524D01*
X170870181Y-130752259D01*
X170997740Y-130879818D01*
X171130015Y-130962931D01*
X171150478Y-130975789D01*
X171320745Y-131035368D01*
X171455046Y-131050500D01*
X171544951Y-131050500D01*
X171544954Y-131050500D01*
X171679255Y-131035368D01*
X171849522Y-130975789D01*
X172002262Y-130879816D01*
X172129816Y-130752262D01*
X172225789Y-130599522D01*
X172285368Y-130429255D01*
X172305565Y-130250000D01*
X178194435Y-130250000D01*
X178214632Y-130429255D01*
X178246295Y-130519744D01*
X178274212Y-130599524D01*
X178370181Y-130752259D01*
X178497740Y-130879818D01*
X178630015Y-130962931D01*
X178650478Y-130975789D01*
X178820745Y-131035368D01*
X178955046Y-131050500D01*
X179044951Y-131050500D01*
X179044954Y-131050500D01*
X179179255Y-131035368D01*
X179349522Y-130975789D01*
X179502262Y-130879816D01*
X179629816Y-130752262D01*
X179725789Y-130599522D01*
X179785368Y-130429255D01*
X179805565Y-130250000D01*
X179785368Y-130070745D01*
X179725789Y-129900478D01*
X179706395Y-129869613D01*
X179629818Y-129747740D01*
X179506414Y-129624336D01*
X183499500Y-129624336D01*
X183540428Y-129869613D01*
X183609477Y-130070744D01*
X183621172Y-130104810D01*
X183739526Y-130323509D01*
X183892262Y-130519744D01*
X184054413Y-130669014D01*
X184075217Y-130688166D01*
X184283394Y-130824174D01*
X184511116Y-130924062D01*
X184511117Y-130924062D01*
X184511119Y-130924063D01*
X184752179Y-130985108D01*
X184937933Y-131000500D01*
X185062064Y-131000500D01*
X185062067Y-131000500D01*
X185247821Y-130985108D01*
X185488881Y-130924063D01*
X185716607Y-130824173D01*
X185924785Y-130688164D01*
X186107738Y-130519744D01*
X186260474Y-130323509D01*
X186378828Y-130104810D01*
X186459571Y-129869614D01*
X186500500Y-129624335D01*
X186500500Y-129375665D01*
X186459571Y-129130386D01*
X186378828Y-128895190D01*
X186260474Y-128676491D01*
X186107738Y-128480256D01*
X185924785Y-128311836D01*
X185924782Y-128311833D01*
X185716605Y-128175825D01*
X185488883Y-128075937D01*
X185247823Y-128014892D01*
X185173519Y-128008735D01*
X185062067Y-127999500D01*
X184937933Y-127999500D01*
X184845056Y-128007195D01*
X184752176Y-128014892D01*
X184511116Y-128075937D01*
X184283394Y-128175825D01*
X184075217Y-128311833D01*
X183892259Y-128480259D01*
X183739526Y-128676490D01*
X183621172Y-128895189D01*
X183540428Y-129130386D01*
X183499500Y-129375664D01*
X183499500Y-129624336D01*
X179506414Y-129624336D01*
X179502259Y-129620181D01*
X179349524Y-129524212D01*
X179349523Y-129524211D01*
X179349522Y-129524211D01*
X179179255Y-129464632D01*
X179044954Y-129449500D01*
X178955046Y-129449500D01*
X178854320Y-129460849D01*
X178820744Y-129464632D01*
X178650475Y-129524212D01*
X178497740Y-129620181D01*
X178370181Y-129747740D01*
X178274212Y-129900475D01*
X178274210Y-129900478D01*
X178274211Y-129900478D01*
X178214632Y-130070745D01*
X178194435Y-130250000D01*
X172305565Y-130250000D01*
X172285368Y-130070745D01*
X172225789Y-129900478D01*
X172206395Y-129869613D01*
X172129818Y-129747740D01*
X172002259Y-129620181D01*
X171849524Y-129524212D01*
X171849523Y-129524211D01*
X171849522Y-129524211D01*
X171679255Y-129464632D01*
X171544954Y-129449500D01*
X171455046Y-129449500D01*
X171354320Y-129460849D01*
X171320744Y-129464632D01*
X171150475Y-129524212D01*
X170997740Y-129620181D01*
X170870181Y-129747740D01*
X170774212Y-129900475D01*
X170774210Y-129900478D01*
X170774211Y-129900478D01*
X170714632Y-130070745D01*
X170694435Y-130250000D01*
X98300255Y-130250000D01*
X98378828Y-130104810D01*
X98459571Y-129869614D01*
X98500500Y-129624335D01*
X98500500Y-129375665D01*
X98459571Y-129130386D01*
X98378828Y-128895190D01*
X98260474Y-128676491D01*
X98107738Y-128480256D01*
X97924785Y-128311836D01*
X97924782Y-128311833D01*
X97716605Y-128175825D01*
X97488883Y-128075937D01*
X97247823Y-128014892D01*
X97173519Y-128008735D01*
X97062067Y-127999500D01*
X96937933Y-127999500D01*
X96845056Y-128007195D01*
X96752176Y-128014892D01*
X96511116Y-128075937D01*
X96283394Y-128175825D01*
X96075217Y-128311833D01*
X95892259Y-128480259D01*
X95739526Y-128676490D01*
X95621172Y-128895189D01*
X95540428Y-129130386D01*
X95499500Y-129375664D01*
X95499500Y-129624336D01*
X93000500Y-129624336D01*
X93000500Y-125250000D01*
X96249459Y-125250000D01*
X96249492Y-125250080D01*
X96249496Y-125250101D01*
X96249500Y-125250100D01*
X96249616Y-125250382D01*
X96249617Y-125250383D01*
X96250000Y-125250541D01*
X96250002Y-125250539D01*
X96252188Y-125250539D01*
X96252385Y-125250500D01*
X102747615Y-125250500D01*
X102747811Y-125250539D01*
X102749997Y-125250539D01*
X102750000Y-125250541D01*
X102750383Y-125250383D01*
X102750499Y-125250102D01*
X102750500Y-125250100D01*
X102750506Y-125250102D01*
X102750508Y-125250078D01*
X102750541Y-125250000D01*
X106249459Y-125250000D01*
X106249492Y-125250080D01*
X106249496Y-125250101D01*
X106249500Y-125250100D01*
X106249616Y-125250382D01*
X106249617Y-125250383D01*
X106250000Y-125250541D01*
X106250002Y-125250539D01*
X106252188Y-125250539D01*
X106252385Y-125250500D01*
X112747615Y-125250500D01*
X112747811Y-125250539D01*
X112749997Y-125250539D01*
X112750000Y-125250541D01*
X112750383Y-125250383D01*
X112750499Y-125250102D01*
X112750500Y-125250100D01*
X112750506Y-125250102D01*
X112750508Y-125250078D01*
X112750541Y-125250000D01*
X115249459Y-125250000D01*
X115249492Y-125250080D01*
X115249496Y-125250101D01*
X115249500Y-125250100D01*
X115249616Y-125250382D01*
X115249617Y-125250383D01*
X115250000Y-125250541D01*
X115250002Y-125250539D01*
X115252188Y-125250539D01*
X115252385Y-125250500D01*
X121747615Y-125250500D01*
X121747811Y-125250539D01*
X121749997Y-125250539D01*
X121750000Y-125250541D01*
X121750383Y-125250383D01*
X121750499Y-125250102D01*
X121750500Y-125250100D01*
X121750506Y-125250102D01*
X121750508Y-125250078D01*
X121750541Y-125250000D01*
X124249459Y-125250000D01*
X124249492Y-125250080D01*
X124249496Y-125250101D01*
X124249500Y-125250100D01*
X124249616Y-125250382D01*
X124249617Y-125250383D01*
X124250000Y-125250541D01*
X124250002Y-125250539D01*
X124252188Y-125250539D01*
X124252385Y-125250500D01*
X130747615Y-125250500D01*
X130747811Y-125250539D01*
X130749997Y-125250539D01*
X130750000Y-125250541D01*
X130750383Y-125250383D01*
X130750499Y-125250102D01*
X130750500Y-125250100D01*
X130750506Y-125250102D01*
X130750508Y-125250078D01*
X130750541Y-125250000D01*
X133249459Y-125250000D01*
X133249492Y-125250080D01*
X133249496Y-125250101D01*
X133249500Y-125250100D01*
X133249616Y-125250382D01*
X133249617Y-125250383D01*
X133250000Y-125250541D01*
X133250002Y-125250539D01*
X133252188Y-125250539D01*
X133252385Y-125250500D01*
X139747615Y-125250500D01*
X139747811Y-125250539D01*
X139749997Y-125250539D01*
X139750000Y-125250541D01*
X139750383Y-125250383D01*
X139750499Y-125250102D01*
X139750500Y-125250100D01*
X139750506Y-125250102D01*
X139750508Y-125250078D01*
X139750541Y-125250000D01*
X142249459Y-125250000D01*
X142249492Y-125250080D01*
X142249496Y-125250101D01*
X142249500Y-125250100D01*
X142249616Y-125250382D01*
X142249617Y-125250383D01*
X142250000Y-125250541D01*
X142250002Y-125250539D01*
X142252188Y-125250539D01*
X142252385Y-125250500D01*
X148747615Y-125250500D01*
X148747811Y-125250539D01*
X148749997Y-125250539D01*
X148750000Y-125250541D01*
X148750383Y-125250383D01*
X148750499Y-125250102D01*
X148750500Y-125250100D01*
X148750506Y-125250102D01*
X148750508Y-125250078D01*
X148750541Y-125250000D01*
X151249459Y-125250000D01*
X151249492Y-125250080D01*
X151249496Y-125250101D01*
X151249500Y-125250100D01*
X151249616Y-125250382D01*
X151249617Y-125250383D01*
X151250000Y-125250541D01*
X151250002Y-125250539D01*
X151252188Y-125250539D01*
X151252385Y-125250500D01*
X157747615Y-125250500D01*
X157747811Y-125250539D01*
X157749997Y-125250539D01*
X157750000Y-125250541D01*
X157750383Y-125250383D01*
X157750499Y-125250102D01*
X157750500Y-125250100D01*
X157750506Y-125250102D01*
X157750508Y-125250078D01*
X157750541Y-125250000D01*
X160249459Y-125250000D01*
X160249492Y-125250080D01*
X160249496Y-125250101D01*
X160249500Y-125250100D01*
X160249616Y-125250382D01*
X160249617Y-125250383D01*
X160250000Y-125250541D01*
X160250002Y-125250539D01*
X160252188Y-125250539D01*
X160252385Y-125250500D01*
X166747615Y-125250500D01*
X166747811Y-125250539D01*
X166749997Y-125250539D01*
X166750000Y-125250541D01*
X166750383Y-125250383D01*
X166750499Y-125250102D01*
X166750500Y-125250100D01*
X166750506Y-125250102D01*
X166750508Y-125250078D01*
X166750541Y-125250000D01*
X169249459Y-125250000D01*
X169249492Y-125250080D01*
X169249496Y-125250101D01*
X169249500Y-125250100D01*
X169249616Y-125250382D01*
X169249617Y-125250383D01*
X169250000Y-125250541D01*
X169250002Y-125250539D01*
X169252188Y-125250539D01*
X169252385Y-125250500D01*
X175747615Y-125250500D01*
X175747811Y-125250539D01*
X175749997Y-125250539D01*
X175750000Y-125250541D01*
X175750383Y-125250383D01*
X175750499Y-125250102D01*
X175750500Y-125250100D01*
X175750506Y-125250102D01*
X175750508Y-125250078D01*
X175750541Y-125250000D01*
X179249459Y-125250000D01*
X179249492Y-125250080D01*
X179249496Y-125250101D01*
X179249500Y-125250100D01*
X179249616Y-125250382D01*
X179249617Y-125250383D01*
X179250000Y-125250541D01*
X179250002Y-125250539D01*
X179252188Y-125250539D01*
X179252385Y-125250500D01*
X185747615Y-125250500D01*
X185747811Y-125250539D01*
X185749997Y-125250539D01*
X185750000Y-125250541D01*
X185750383Y-125250383D01*
X185750499Y-125250102D01*
X185750500Y-125250100D01*
X185750506Y-125250102D01*
X185750508Y-125250078D01*
X185750541Y-125250000D01*
X185750540Y-125249998D01*
X185750541Y-125249997D01*
X185750541Y-125247820D01*
X185750500Y-125247614D01*
X185750500Y-118752385D01*
X185750539Y-118752188D01*
X185750539Y-118750002D01*
X185750541Y-118750000D01*
X185750383Y-118749617D01*
X185750382Y-118749616D01*
X185750383Y-118749616D01*
X185750100Y-118749500D01*
X185750081Y-118749492D01*
X185750001Y-118749459D01*
X185747820Y-118749459D01*
X185747614Y-118749500D01*
X179252386Y-118749500D01*
X179252180Y-118749459D01*
X179249999Y-118749459D01*
X179249919Y-118749492D01*
X179249900Y-118749500D01*
X179249617Y-118749616D01*
X179249459Y-118750000D01*
X179249460Y-118752188D01*
X179249500Y-118752385D01*
X179249500Y-125247614D01*
X179249459Y-125247820D01*
X179249459Y-125249998D01*
X179249459Y-125249999D01*
X179249459Y-125250000D01*
X175750541Y-125250000D01*
X175750540Y-125249998D01*
X175750541Y-125249997D01*
X175750541Y-125247820D01*
X175750500Y-125247614D01*
X175750500Y-118752385D01*
X175750539Y-118752188D01*
X175750539Y-118750002D01*
X175750541Y-118750000D01*
X175750383Y-118749617D01*
X175750382Y-118749616D01*
X175750383Y-118749616D01*
X175750100Y-118749500D01*
X175750081Y-118749492D01*
X175750001Y-118749459D01*
X175747820Y-118749459D01*
X175747614Y-118749500D01*
X169252386Y-118749500D01*
X169252180Y-118749459D01*
X169249999Y-118749459D01*
X169249919Y-118749492D01*
X169249900Y-118749500D01*
X169249617Y-118749616D01*
X169249459Y-118750000D01*
X169249460Y-118752188D01*
X169249500Y-118752385D01*
X169249500Y-125247614D01*
X169249459Y-125247820D01*
X169249459Y-125249998D01*
X169249459Y-125249999D01*
X169249459Y-125250000D01*
X166750541Y-125250000D01*
X166750540Y-125249998D01*
X166750541Y-125249997D01*
X166750541Y-125247820D01*
X166750500Y-125247614D01*
X166750500Y-118752385D01*
X166750539Y-118752188D01*
X166750539Y-118750002D01*
X166750541Y-118750000D01*
X166750383Y-118749617D01*
X166750382Y-118749616D01*
X166750383Y-118749616D01*
X166750100Y-118749500D01*
X166750081Y-118749492D01*
X166750001Y-118749459D01*
X166747820Y-118749459D01*
X166747614Y-118749500D01*
X160252386Y-118749500D01*
X160252180Y-118749459D01*
X160249999Y-118749459D01*
X160249919Y-118749492D01*
X160249900Y-118749500D01*
X160249617Y-118749616D01*
X160249459Y-118750000D01*
X160249460Y-118752188D01*
X160249500Y-118752385D01*
X160249500Y-125247614D01*
X160249459Y-125247820D01*
X160249459Y-125249998D01*
X160249459Y-125249999D01*
X160249459Y-125250000D01*
X157750541Y-125250000D01*
X157750540Y-125249998D01*
X157750541Y-125249997D01*
X157750541Y-125247820D01*
X157750500Y-125247614D01*
X157750500Y-118752385D01*
X157750539Y-118752188D01*
X157750539Y-118750002D01*
X157750541Y-118750000D01*
X157750383Y-118749617D01*
X157750382Y-118749616D01*
X157750383Y-118749616D01*
X157750100Y-118749500D01*
X157750081Y-118749492D01*
X157750001Y-118749459D01*
X157747820Y-118749459D01*
X157747614Y-118749500D01*
X151252386Y-118749500D01*
X151252180Y-118749459D01*
X151249999Y-118749459D01*
X151249919Y-118749492D01*
X151249900Y-118749500D01*
X151249617Y-118749616D01*
X151249459Y-118750000D01*
X151249460Y-118752188D01*
X151249500Y-118752385D01*
X151249500Y-125247614D01*
X151249459Y-125247820D01*
X151249459Y-125249998D01*
X151249459Y-125249999D01*
X151249459Y-125250000D01*
X148750541Y-125250000D01*
X148750540Y-125249998D01*
X148750541Y-125249997D01*
X148750541Y-125247820D01*
X148750500Y-125247614D01*
X148750500Y-118752385D01*
X148750539Y-118752188D01*
X148750539Y-118750002D01*
X148750541Y-118750000D01*
X148750383Y-118749617D01*
X148750382Y-118749616D01*
X148750383Y-118749616D01*
X148750100Y-118749500D01*
X148750081Y-118749492D01*
X148750001Y-118749459D01*
X148747820Y-118749459D01*
X148747614Y-118749500D01*
X142252386Y-118749500D01*
X142252180Y-118749459D01*
X142249999Y-118749459D01*
X142249919Y-118749492D01*
X142249900Y-118749500D01*
X142249617Y-118749616D01*
X142249459Y-118750000D01*
X142249460Y-118752188D01*
X142249500Y-118752385D01*
X142249500Y-125247614D01*
X142249459Y-125247820D01*
X142249459Y-125249998D01*
X142249459Y-125249999D01*
X142249459Y-125250000D01*
X139750541Y-125250000D01*
X139750540Y-125249998D01*
X139750541Y-125249997D01*
X139750541Y-125247820D01*
X139750500Y-125247614D01*
X139750500Y-118752385D01*
X139750539Y-118752188D01*
X139750539Y-118750002D01*
X139750541Y-118750000D01*
X139750383Y-118749617D01*
X139750382Y-118749616D01*
X139750383Y-118749616D01*
X139750100Y-118749500D01*
X139750081Y-118749492D01*
X139750001Y-118749459D01*
X139747820Y-118749459D01*
X139747614Y-118749500D01*
X133252386Y-118749500D01*
X133252180Y-118749459D01*
X133249999Y-118749459D01*
X133249919Y-118749492D01*
X133249900Y-118749500D01*
X133249617Y-118749616D01*
X133249459Y-118750000D01*
X133249460Y-118752188D01*
X133249500Y-118752385D01*
X133249500Y-125247614D01*
X133249459Y-125247820D01*
X133249459Y-125249998D01*
X133249459Y-125249999D01*
X133249459Y-125250000D01*
X130750541Y-125250000D01*
X130750540Y-125249998D01*
X130750541Y-125249997D01*
X130750541Y-125247820D01*
X130750500Y-125247614D01*
X130750500Y-118752385D01*
X130750539Y-118752188D01*
X130750539Y-118750002D01*
X130750541Y-118750000D01*
X130750383Y-118749617D01*
X130750382Y-118749616D01*
X130750383Y-118749616D01*
X130750100Y-118749500D01*
X130750081Y-118749492D01*
X130750001Y-118749459D01*
X130747820Y-118749459D01*
X130747614Y-118749500D01*
X124252386Y-118749500D01*
X124252180Y-118749459D01*
X124249999Y-118749459D01*
X124249919Y-118749492D01*
X124249900Y-118749500D01*
X124249617Y-118749616D01*
X124249459Y-118750000D01*
X124249460Y-118752188D01*
X124249500Y-118752385D01*
X124249500Y-125247614D01*
X124249459Y-125247820D01*
X124249459Y-125249998D01*
X124249459Y-125249999D01*
X124249459Y-125250000D01*
X121750541Y-125250000D01*
X121750540Y-125249998D01*
X121750541Y-125249997D01*
X121750541Y-125247820D01*
X121750500Y-125247614D01*
X121750500Y-118752385D01*
X121750539Y-118752188D01*
X121750539Y-118750002D01*
X121750541Y-118750000D01*
X121750383Y-118749617D01*
X121750382Y-118749616D01*
X121750383Y-118749616D01*
X121750100Y-118749500D01*
X121750081Y-118749492D01*
X121750001Y-118749459D01*
X121747820Y-118749459D01*
X121747614Y-118749500D01*
X115252386Y-118749500D01*
X115252180Y-118749459D01*
X115249999Y-118749459D01*
X115249919Y-118749492D01*
X115249900Y-118749500D01*
X115249617Y-118749616D01*
X115249459Y-118750000D01*
X115249460Y-118752188D01*
X115249500Y-118752385D01*
X115249500Y-125247614D01*
X115249459Y-125247820D01*
X115249459Y-125249998D01*
X115249459Y-125249999D01*
X115249459Y-125250000D01*
X112750541Y-125250000D01*
X112750540Y-125249998D01*
X112750541Y-125249997D01*
X112750541Y-125247820D01*
X112750500Y-125247614D01*
X112750500Y-118752385D01*
X112750539Y-118752188D01*
X112750539Y-118750002D01*
X112750541Y-118750000D01*
X112750383Y-118749617D01*
X112750382Y-118749616D01*
X112750383Y-118749616D01*
X112750100Y-118749500D01*
X112750081Y-118749492D01*
X112750001Y-118749459D01*
X112747820Y-118749459D01*
X112747614Y-118749500D01*
X106252386Y-118749500D01*
X106252180Y-118749459D01*
X106249999Y-118749459D01*
X106249919Y-118749492D01*
X106249900Y-118749500D01*
X106249617Y-118749616D01*
X106249459Y-118750000D01*
X106249460Y-118752188D01*
X106249500Y-118752385D01*
X106249500Y-125247614D01*
X106249459Y-125247820D01*
X106249459Y-125249998D01*
X106249459Y-125249999D01*
X106249459Y-125250000D01*
X102750541Y-125250000D01*
X102750540Y-125249998D01*
X102750541Y-125249997D01*
X102750541Y-125247820D01*
X102750500Y-125247614D01*
X102750500Y-118752385D01*
X102750539Y-118752188D01*
X102750539Y-118750002D01*
X102750541Y-118750000D01*
X102750383Y-118749617D01*
X102750382Y-118749616D01*
X102750383Y-118749616D01*
X102750100Y-118749500D01*
X102750081Y-118749492D01*
X102750001Y-118749459D01*
X102747820Y-118749459D01*
X102747614Y-118749500D01*
X96252386Y-118749500D01*
X96252180Y-118749459D01*
X96249999Y-118749459D01*
X96249919Y-118749492D01*
X96249900Y-118749500D01*
X96249617Y-118749616D01*
X96249459Y-118750000D01*
X96249460Y-118752188D01*
X96249500Y-118752385D01*
X96249500Y-125247614D01*
X96249459Y-125247820D01*
X96249459Y-125249998D01*
X96249459Y-125249999D01*
X96249459Y-125250000D01*
X93000500Y-125250000D01*
X93000500Y-115750000D01*
X96500000Y-115750000D01*
X96500000Y-117750000D01*
X102499999Y-117750000D01*
X102500000Y-117750000D01*
X102500000Y-115750000D01*
X106500000Y-115750000D01*
X106500000Y-117750000D01*
X112499999Y-117750000D01*
X112500000Y-117750000D01*
X112500000Y-115750000D01*
X115500000Y-115750000D01*
X115500000Y-117750000D01*
X121499999Y-117750000D01*
X121500000Y-117750000D01*
X121500000Y-115750000D01*
X124500000Y-115750000D01*
X124500000Y-117750000D01*
X130499999Y-117750000D01*
X130500000Y-117750000D01*
X130500000Y-115750000D01*
X133500000Y-115750000D01*
X133500000Y-117750000D01*
X139499999Y-117750000D01*
X139500000Y-117750000D01*
X139500000Y-115750000D01*
X142500000Y-115750000D01*
X142500000Y-117750000D01*
X148499999Y-117750000D01*
X148500000Y-117750000D01*
X148500000Y-115750000D01*
X151500000Y-115750000D01*
X151500000Y-117750000D01*
X157499999Y-117750000D01*
X157500000Y-117750000D01*
X157500000Y-115750000D01*
X160500000Y-115750000D01*
X160500000Y-117750000D01*
X166499999Y-117750000D01*
X166500000Y-117750000D01*
X166500000Y-115750000D01*
X169500000Y-115750000D01*
X169500000Y-117750000D01*
X175499999Y-117750000D01*
X175500000Y-117750000D01*
X175500000Y-115750000D01*
X179500000Y-115750000D01*
X179500000Y-117750000D01*
X185499999Y-117750000D01*
X185500000Y-117750000D01*
X185500000Y-115750000D01*
X179500000Y-115750000D01*
X175500000Y-115750000D01*
X169500000Y-115750000D01*
X166500000Y-115750000D01*
X160500000Y-115750000D01*
X157500000Y-115750000D01*
X151500000Y-115750000D01*
X148500000Y-115750000D01*
X142500000Y-115750000D01*
X139500000Y-115750000D01*
X133500000Y-115750000D01*
X130500000Y-115750000D01*
X124500000Y-115750000D01*
X121500000Y-115750000D01*
X115500000Y-115750000D01*
X112500000Y-115750000D01*
X106500000Y-115750000D01*
X102500000Y-115750000D01*
X96500000Y-115750000D01*
X93000500Y-115750000D01*
X93000500Y-114250000D01*
X96249459Y-114250000D01*
X96249492Y-114250080D01*
X96249496Y-114250101D01*
X96249500Y-114250100D01*
X96249616Y-114250382D01*
X96249617Y-114250383D01*
X96250000Y-114250541D01*
X96250002Y-114250539D01*
X96252188Y-114250539D01*
X96252385Y-114250500D01*
X102747615Y-114250500D01*
X102747811Y-114250539D01*
X102749997Y-114250539D01*
X102750000Y-114250541D01*
X102750383Y-114250383D01*
X102750499Y-114250102D01*
X102750500Y-114250100D01*
X102750506Y-114250102D01*
X102750508Y-114250078D01*
X102750541Y-114250000D01*
X106249459Y-114250000D01*
X106249492Y-114250080D01*
X106249496Y-114250101D01*
X106249500Y-114250100D01*
X106249616Y-114250382D01*
X106249617Y-114250383D01*
X106250000Y-114250541D01*
X106250002Y-114250539D01*
X106252188Y-114250539D01*
X106252385Y-114250500D01*
X112747615Y-114250500D01*
X112747811Y-114250539D01*
X112749997Y-114250539D01*
X112750000Y-114250541D01*
X112750383Y-114250383D01*
X112750499Y-114250102D01*
X112750500Y-114250100D01*
X112750506Y-114250102D01*
X112750508Y-114250078D01*
X112750541Y-114250000D01*
X115249459Y-114250000D01*
X115249492Y-114250080D01*
X115249496Y-114250101D01*
X115249500Y-114250100D01*
X115249616Y-114250382D01*
X115249617Y-114250383D01*
X115250000Y-114250541D01*
X115250002Y-114250539D01*
X115252188Y-114250539D01*
X115252385Y-114250500D01*
X121747615Y-114250500D01*
X121747811Y-114250539D01*
X121749997Y-114250539D01*
X121750000Y-114250541D01*
X121750383Y-114250383D01*
X121750499Y-114250102D01*
X121750500Y-114250100D01*
X121750506Y-114250102D01*
X121750508Y-114250078D01*
X121750541Y-114250000D01*
X124249459Y-114250000D01*
X124249492Y-114250080D01*
X124249496Y-114250101D01*
X124249500Y-114250100D01*
X124249616Y-114250382D01*
X124249617Y-114250383D01*
X124250000Y-114250541D01*
X124250002Y-114250539D01*
X124252188Y-114250539D01*
X124252385Y-114250500D01*
X130747615Y-114250500D01*
X130747811Y-114250539D01*
X130749997Y-114250539D01*
X130750000Y-114250541D01*
X130750383Y-114250383D01*
X130750499Y-114250102D01*
X130750500Y-114250100D01*
X130750506Y-114250102D01*
X130750508Y-114250078D01*
X130750541Y-114250000D01*
X133249459Y-114250000D01*
X133249492Y-114250080D01*
X133249496Y-114250101D01*
X133249500Y-114250100D01*
X133249616Y-114250382D01*
X133249617Y-114250383D01*
X133250000Y-114250541D01*
X133250002Y-114250539D01*
X133252188Y-114250539D01*
X133252385Y-114250500D01*
X139747615Y-114250500D01*
X139747811Y-114250539D01*
X139749997Y-114250539D01*
X139750000Y-114250541D01*
X139750383Y-114250383D01*
X139750499Y-114250102D01*
X139750500Y-114250100D01*
X139750506Y-114250102D01*
X139750508Y-114250078D01*
X139750541Y-114250000D01*
X142249459Y-114250000D01*
X142249492Y-114250080D01*
X142249496Y-114250101D01*
X142249500Y-114250100D01*
X142249616Y-114250382D01*
X142249617Y-114250383D01*
X142250000Y-114250541D01*
X142250002Y-114250539D01*
X142252188Y-114250539D01*
X142252385Y-114250500D01*
X148747615Y-114250500D01*
X148747811Y-114250539D01*
X148749997Y-114250539D01*
X148750000Y-114250541D01*
X148750383Y-114250383D01*
X148750499Y-114250102D01*
X148750500Y-114250100D01*
X148750506Y-114250102D01*
X148750508Y-114250078D01*
X148750541Y-114250000D01*
X151249459Y-114250000D01*
X151249492Y-114250080D01*
X151249496Y-114250101D01*
X151249500Y-114250100D01*
X151249616Y-114250382D01*
X151249617Y-114250383D01*
X151250000Y-114250541D01*
X151250002Y-114250539D01*
X151252188Y-114250539D01*
X151252385Y-114250500D01*
X157747615Y-114250500D01*
X157747811Y-114250539D01*
X157749997Y-114250539D01*
X157750000Y-114250541D01*
X157750383Y-114250383D01*
X157750499Y-114250102D01*
X157750500Y-114250100D01*
X157750506Y-114250102D01*
X157750508Y-114250078D01*
X157750541Y-114250000D01*
X160249459Y-114250000D01*
X160249492Y-114250080D01*
X160249496Y-114250101D01*
X160249500Y-114250100D01*
X160249616Y-114250382D01*
X160249617Y-114250383D01*
X160250000Y-114250541D01*
X160250002Y-114250539D01*
X160252188Y-114250539D01*
X160252385Y-114250500D01*
X166747615Y-114250500D01*
X166747811Y-114250539D01*
X166749997Y-114250539D01*
X166750000Y-114250541D01*
X166750383Y-114250383D01*
X166750499Y-114250102D01*
X166750500Y-114250100D01*
X166750506Y-114250102D01*
X166750508Y-114250078D01*
X166750541Y-114250000D01*
X169249459Y-114250000D01*
X169249492Y-114250080D01*
X169249496Y-114250101D01*
X169249500Y-114250100D01*
X169249616Y-114250382D01*
X169249617Y-114250383D01*
X169250000Y-114250541D01*
X169250002Y-114250539D01*
X169252188Y-114250539D01*
X169252385Y-114250500D01*
X175747615Y-114250500D01*
X175747811Y-114250539D01*
X175749997Y-114250539D01*
X175750000Y-114250541D01*
X175750383Y-114250383D01*
X175750499Y-114250102D01*
X175750500Y-114250100D01*
X175750506Y-114250102D01*
X175750508Y-114250078D01*
X175750541Y-114250000D01*
X179249459Y-114250000D01*
X179249492Y-114250080D01*
X179249496Y-114250101D01*
X179249500Y-114250100D01*
X179249616Y-114250382D01*
X179249617Y-114250383D01*
X179250000Y-114250541D01*
X179250002Y-114250539D01*
X179252188Y-114250539D01*
X179252385Y-114250500D01*
X185747615Y-114250500D01*
X185747811Y-114250539D01*
X185749997Y-114250539D01*
X185750000Y-114250541D01*
X185750383Y-114250383D01*
X185750499Y-114250102D01*
X185750500Y-114250100D01*
X185750506Y-114250102D01*
X185750508Y-114250078D01*
X185750541Y-114250000D01*
X185750540Y-114249998D01*
X185750541Y-114249997D01*
X185750541Y-114247820D01*
X185750500Y-114247614D01*
X185750500Y-107752385D01*
X185750539Y-107752188D01*
X185750539Y-107750002D01*
X185750541Y-107750000D01*
X185750383Y-107749617D01*
X185750382Y-107749616D01*
X185750383Y-107749616D01*
X185750100Y-107749500D01*
X185750081Y-107749492D01*
X185750001Y-107749459D01*
X185747820Y-107749459D01*
X185747614Y-107749500D01*
X179252386Y-107749500D01*
X179252180Y-107749459D01*
X179249999Y-107749459D01*
X179249919Y-107749492D01*
X179249900Y-107749500D01*
X179249617Y-107749616D01*
X179249459Y-107750000D01*
X179249460Y-107752188D01*
X179249500Y-107752385D01*
X179249500Y-114247614D01*
X179249459Y-114247820D01*
X179249459Y-114249998D01*
X179249459Y-114249999D01*
X179249459Y-114250000D01*
X175750541Y-114250000D01*
X175750540Y-114249998D01*
X175750541Y-114249997D01*
X175750541Y-114247820D01*
X175750500Y-114247614D01*
X175750500Y-107752385D01*
X175750539Y-107752188D01*
X175750539Y-107750002D01*
X175750541Y-107750000D01*
X175750383Y-107749617D01*
X175750382Y-107749616D01*
X175750383Y-107749616D01*
X175750100Y-107749500D01*
X175750081Y-107749492D01*
X175750001Y-107749459D01*
X175747820Y-107749459D01*
X175747614Y-107749500D01*
X169252386Y-107749500D01*
X169252180Y-107749459D01*
X169249999Y-107749459D01*
X169249919Y-107749492D01*
X169249900Y-107749500D01*
X169249617Y-107749616D01*
X169249459Y-107750000D01*
X169249460Y-107752188D01*
X169249500Y-107752385D01*
X169249500Y-114247614D01*
X169249459Y-114247820D01*
X169249459Y-114249998D01*
X169249459Y-114249999D01*
X169249459Y-114250000D01*
X166750541Y-114250000D01*
X166750540Y-114249998D01*
X166750541Y-114249997D01*
X166750541Y-114247820D01*
X166750500Y-114247614D01*
X166750500Y-107752385D01*
X166750539Y-107752188D01*
X166750539Y-107750002D01*
X166750541Y-107750000D01*
X166750383Y-107749617D01*
X166750382Y-107749616D01*
X166750383Y-107749616D01*
X166750100Y-107749500D01*
X166750081Y-107749492D01*
X166750001Y-107749459D01*
X166747820Y-107749459D01*
X166747614Y-107749500D01*
X160252386Y-107749500D01*
X160252180Y-107749459D01*
X160249999Y-107749459D01*
X160249919Y-107749492D01*
X160249900Y-107749500D01*
X160249617Y-107749616D01*
X160249459Y-107750000D01*
X160249460Y-107752188D01*
X160249500Y-107752385D01*
X160249500Y-114247614D01*
X160249459Y-114247820D01*
X160249459Y-114249998D01*
X160249459Y-114249999D01*
X160249459Y-114250000D01*
X157750541Y-114250000D01*
X157750540Y-114249998D01*
X157750541Y-114249997D01*
X157750541Y-114247820D01*
X157750500Y-114247614D01*
X157750500Y-107752385D01*
X157750539Y-107752188D01*
X157750539Y-107750002D01*
X157750541Y-107750000D01*
X157750383Y-107749617D01*
X157750382Y-107749616D01*
X157750383Y-107749616D01*
X157750100Y-107749500D01*
X157750081Y-107749492D01*
X157750001Y-107749459D01*
X157747820Y-107749459D01*
X157747614Y-107749500D01*
X151252386Y-107749500D01*
X151252180Y-107749459D01*
X151249999Y-107749459D01*
X151249919Y-107749492D01*
X151249900Y-107749500D01*
X151249617Y-107749616D01*
X151249459Y-107750000D01*
X151249460Y-107752188D01*
X151249500Y-107752385D01*
X151249500Y-114247614D01*
X151249459Y-114247820D01*
X151249459Y-114249998D01*
X151249459Y-114249999D01*
X151249459Y-114250000D01*
X148750541Y-114250000D01*
X148750540Y-114249998D01*
X148750541Y-114249997D01*
X148750541Y-114247820D01*
X148750500Y-114247614D01*
X148750500Y-107752385D01*
X148750539Y-107752188D01*
X148750539Y-107750002D01*
X148750541Y-107750000D01*
X148750383Y-107749617D01*
X148750382Y-107749616D01*
X148750383Y-107749616D01*
X148750100Y-107749500D01*
X148750081Y-107749492D01*
X148750001Y-107749459D01*
X148747820Y-107749459D01*
X148747614Y-107749500D01*
X142252386Y-107749500D01*
X142252180Y-107749459D01*
X142249999Y-107749459D01*
X142249919Y-107749492D01*
X142249900Y-107749500D01*
X142249617Y-107749616D01*
X142249459Y-107750000D01*
X142249460Y-107752188D01*
X142249500Y-107752385D01*
X142249500Y-114247614D01*
X142249459Y-114247820D01*
X142249459Y-114249998D01*
X142249459Y-114249999D01*
X142249459Y-114250000D01*
X139750541Y-114250000D01*
X139750540Y-114249998D01*
X139750541Y-114249997D01*
X139750541Y-114247820D01*
X139750500Y-114247614D01*
X139750500Y-107752385D01*
X139750539Y-107752188D01*
X139750539Y-107750002D01*
X139750541Y-107750000D01*
X139750383Y-107749617D01*
X139750382Y-107749616D01*
X139750383Y-107749616D01*
X139750100Y-107749500D01*
X139750081Y-107749492D01*
X139750001Y-107749459D01*
X139747820Y-107749459D01*
X139747614Y-107749500D01*
X133252386Y-107749500D01*
X133252180Y-107749459D01*
X133249999Y-107749459D01*
X133249919Y-107749492D01*
X133249900Y-107749500D01*
X133249617Y-107749616D01*
X133249459Y-107750000D01*
X133249460Y-107752188D01*
X133249500Y-107752385D01*
X133249500Y-114247614D01*
X133249459Y-114247820D01*
X133249459Y-114249998D01*
X133249459Y-114249999D01*
X133249459Y-114250000D01*
X130750541Y-114250000D01*
X130750540Y-114249998D01*
X130750541Y-114249997D01*
X130750541Y-114247820D01*
X130750500Y-114247614D01*
X130750500Y-107752385D01*
X130750539Y-107752188D01*
X130750539Y-107750002D01*
X130750541Y-107750000D01*
X130750383Y-107749617D01*
X130750382Y-107749616D01*
X130750383Y-107749616D01*
X130750100Y-107749500D01*
X130750081Y-107749492D01*
X130750001Y-107749459D01*
X130747820Y-107749459D01*
X130747614Y-107749500D01*
X124252386Y-107749500D01*
X124252180Y-107749459D01*
X124249999Y-107749459D01*
X124249919Y-107749492D01*
X124249900Y-107749500D01*
X124249617Y-107749616D01*
X124249459Y-107750000D01*
X124249460Y-107752188D01*
X124249500Y-107752385D01*
X124249500Y-114247614D01*
X124249459Y-114247820D01*
X124249459Y-114249998D01*
X124249459Y-114249999D01*
X124249459Y-114250000D01*
X121750541Y-114250000D01*
X121750540Y-114249998D01*
X121750541Y-114249997D01*
X121750541Y-114247820D01*
X121750500Y-114247614D01*
X121750500Y-107752385D01*
X121750539Y-107752188D01*
X121750539Y-107750002D01*
X121750541Y-107750000D01*
X121750383Y-107749617D01*
X121750382Y-107749616D01*
X121750383Y-107749616D01*
X121750100Y-107749500D01*
X121750081Y-107749492D01*
X121750001Y-107749459D01*
X121747820Y-107749459D01*
X121747614Y-107749500D01*
X115252386Y-107749500D01*
X115252180Y-107749459D01*
X115249999Y-107749459D01*
X115249919Y-107749492D01*
X115249900Y-107749500D01*
X115249617Y-107749616D01*
X115249459Y-107750000D01*
X115249460Y-107752188D01*
X115249500Y-107752385D01*
X115249500Y-114247614D01*
X115249459Y-114247820D01*
X115249459Y-114249998D01*
X115249459Y-114249999D01*
X115249459Y-114250000D01*
X112750541Y-114250000D01*
X112750540Y-114249998D01*
X112750541Y-114249997D01*
X112750541Y-114247820D01*
X112750500Y-114247614D01*
X112750500Y-107752385D01*
X112750539Y-107752188D01*
X112750539Y-107750002D01*
X112750541Y-107750000D01*
X112750383Y-107749617D01*
X112750382Y-107749616D01*
X112750383Y-107749616D01*
X112750100Y-107749500D01*
X112750081Y-107749492D01*
X112750001Y-107749459D01*
X112747820Y-107749459D01*
X112747614Y-107749500D01*
X106252386Y-107749500D01*
X106252180Y-107749459D01*
X106249999Y-107749459D01*
X106249919Y-107749492D01*
X106249900Y-107749500D01*
X106249617Y-107749616D01*
X106249459Y-107750000D01*
X106249460Y-107752188D01*
X106249500Y-107752385D01*
X106249500Y-114247614D01*
X106249459Y-114247820D01*
X106249459Y-114249998D01*
X106249459Y-114249999D01*
X106249459Y-114250000D01*
X102750541Y-114250000D01*
X102750540Y-114249998D01*
X102750541Y-114249997D01*
X102750541Y-114247820D01*
X102750500Y-114247614D01*
X102750500Y-107752385D01*
X102750539Y-107752188D01*
X102750539Y-107750002D01*
X102750541Y-107750000D01*
X102750383Y-107749617D01*
X102750382Y-107749616D01*
X102750383Y-107749616D01*
X102750100Y-107749500D01*
X102750081Y-107749492D01*
X102750001Y-107749459D01*
X102747820Y-107749459D01*
X102747614Y-107749500D01*
X96252386Y-107749500D01*
X96252180Y-107749459D01*
X96249999Y-107749459D01*
X96249919Y-107749492D01*
X96249900Y-107749500D01*
X96249617Y-107749616D01*
X96249459Y-107750000D01*
X96249460Y-107752188D01*
X96249500Y-107752385D01*
X96249500Y-114247614D01*
X96249459Y-114247820D01*
X96249459Y-114249998D01*
X96249459Y-114249999D01*
X96249459Y-114250000D01*
X93000500Y-114250000D01*
X93000500Y-104750000D01*
X96500000Y-104750000D01*
X96500000Y-106750000D01*
X102499999Y-106750000D01*
X102500000Y-106750000D01*
X102500000Y-104750000D01*
X106500000Y-104750000D01*
X106500000Y-106750000D01*
X112499999Y-106750000D01*
X112500000Y-106750000D01*
X112500000Y-104750000D01*
X115500000Y-104750000D01*
X115500000Y-106750000D01*
X121499999Y-106750000D01*
X121500000Y-106750000D01*
X121500000Y-104750000D01*
X124500000Y-104750000D01*
X124500000Y-106750000D01*
X130499999Y-106750000D01*
X130500000Y-106750000D01*
X130500000Y-104750000D01*
X133500000Y-104750000D01*
X133500000Y-106750000D01*
X139499999Y-106750000D01*
X139500000Y-106750000D01*
X139500000Y-104750000D01*
X142500000Y-104750000D01*
X142500000Y-106750000D01*
X148499999Y-106750000D01*
X148500000Y-106750000D01*
X148500000Y-104750000D01*
X151500000Y-104750000D01*
X151500000Y-106750000D01*
X157499999Y-106750000D01*
X157500000Y-106750000D01*
X157500000Y-104750000D01*
X160500000Y-104750000D01*
X160500000Y-106750000D01*
X166499999Y-106750000D01*
X166500000Y-106750000D01*
X166500000Y-104750000D01*
X169500000Y-104750000D01*
X169500000Y-106750000D01*
X175499999Y-106750000D01*
X175500000Y-106750000D01*
X175500000Y-104750000D01*
X179500000Y-104750000D01*
X179500000Y-106750000D01*
X185499999Y-106750000D01*
X185500000Y-106750000D01*
X185500000Y-104750000D01*
X179500000Y-104750000D01*
X175500000Y-104750000D01*
X169500000Y-104750000D01*
X166500000Y-104750000D01*
X160500000Y-104750000D01*
X157500000Y-104750000D01*
X151500000Y-104750000D01*
X148500000Y-104750000D01*
X142500000Y-104750000D01*
X139500000Y-104750000D01*
X133500000Y-104750000D01*
X130500000Y-104750000D01*
X124500000Y-104750000D01*
X121500000Y-104750000D01*
X115500000Y-104750000D01*
X112500000Y-104750000D01*
X106500000Y-104750000D01*
X102500000Y-104750000D01*
X96500000Y-104750000D01*
X93000500Y-104750000D01*
X93000500Y-103250000D01*
X151249459Y-103250000D01*
X151249492Y-103250080D01*
X151249496Y-103250101D01*
X151249500Y-103250100D01*
X151249616Y-103250382D01*
X151249617Y-103250383D01*
X151250000Y-103250541D01*
X151250002Y-103250539D01*
X151252188Y-103250539D01*
X151252385Y-103250500D01*
X157747615Y-103250500D01*
X157747811Y-103250539D01*
X157749997Y-103250539D01*
X157750000Y-103250541D01*
X157750383Y-103250383D01*
X157750499Y-103250102D01*
X157750500Y-103250100D01*
X157750506Y-103250102D01*
X157750508Y-103250078D01*
X157750541Y-103250000D01*
X160249459Y-103250000D01*
X160249492Y-103250080D01*
X160249496Y-103250101D01*
X160249500Y-103250100D01*
X160249616Y-103250382D01*
X160249617Y-103250383D01*
X160250000Y-103250541D01*
X160250002Y-103250539D01*
X160252188Y-103250539D01*
X160252385Y-103250500D01*
X166747615Y-103250500D01*
X166747811Y-103250539D01*
X166749997Y-103250539D01*
X166750000Y-103250541D01*
X166750383Y-103250383D01*
X166750499Y-103250102D01*
X166750500Y-103250100D01*
X166750506Y-103250102D01*
X166750508Y-103250078D01*
X166750541Y-103250000D01*
X169249459Y-103250000D01*
X169249492Y-103250080D01*
X169249496Y-103250101D01*
X169249500Y-103250100D01*
X169249616Y-103250382D01*
X169249617Y-103250383D01*
X169250000Y-103250541D01*
X169250002Y-103250539D01*
X169252188Y-103250539D01*
X169252385Y-103250500D01*
X175747615Y-103250500D01*
X175747811Y-103250539D01*
X175749997Y-103250539D01*
X175750000Y-103250541D01*
X175750383Y-103250383D01*
X175750499Y-103250102D01*
X175750500Y-103250100D01*
X175750506Y-103250102D01*
X175750508Y-103250078D01*
X175750541Y-103250000D01*
X179249459Y-103250000D01*
X179249492Y-103250080D01*
X179249496Y-103250101D01*
X179249500Y-103250100D01*
X179249616Y-103250382D01*
X179249617Y-103250383D01*
X179250000Y-103250541D01*
X179250002Y-103250539D01*
X179252188Y-103250539D01*
X179252385Y-103250500D01*
X185747615Y-103250500D01*
X185747811Y-103250539D01*
X185749997Y-103250539D01*
X185750000Y-103250541D01*
X185750383Y-103250383D01*
X185750499Y-103250102D01*
X185750500Y-103250100D01*
X185750506Y-103250102D01*
X185750508Y-103250078D01*
X185750541Y-103250000D01*
X185750540Y-103249998D01*
X185750541Y-103249997D01*
X185750541Y-103247820D01*
X185750500Y-103247614D01*
X185750500Y-96752385D01*
X185750539Y-96752188D01*
X185750539Y-96750002D01*
X185750541Y-96750000D01*
X185750383Y-96749617D01*
X185750382Y-96749616D01*
X185750383Y-96749616D01*
X185750100Y-96749500D01*
X185750081Y-96749492D01*
X185750001Y-96749459D01*
X185747820Y-96749459D01*
X185747614Y-96749500D01*
X179252386Y-96749500D01*
X179252180Y-96749459D01*
X179249999Y-96749459D01*
X179249919Y-96749492D01*
X179249900Y-96749500D01*
X179249617Y-96749616D01*
X179249459Y-96750000D01*
X179249460Y-96752188D01*
X179249500Y-96752385D01*
X179249500Y-103247614D01*
X179249459Y-103247820D01*
X179249459Y-103249998D01*
X179249459Y-103249999D01*
X179249459Y-103250000D01*
X175750541Y-103250000D01*
X175750540Y-103249998D01*
X175750541Y-103249997D01*
X175750541Y-103247820D01*
X175750500Y-103247614D01*
X175750500Y-96752385D01*
X175750539Y-96752188D01*
X175750539Y-96750002D01*
X175750541Y-96750000D01*
X175750383Y-96749617D01*
X175750382Y-96749616D01*
X175750383Y-96749616D01*
X175750100Y-96749500D01*
X175750081Y-96749492D01*
X175750001Y-96749459D01*
X175747820Y-96749459D01*
X175747614Y-96749500D01*
X169252386Y-96749500D01*
X169252180Y-96749459D01*
X169249999Y-96749459D01*
X169249919Y-96749492D01*
X169249900Y-96749500D01*
X169249617Y-96749616D01*
X169249459Y-96750000D01*
X169249460Y-96752188D01*
X169249500Y-96752385D01*
X169249500Y-103247614D01*
X169249459Y-103247820D01*
X169249459Y-103249998D01*
X169249459Y-103249999D01*
X169249459Y-103250000D01*
X166750541Y-103250000D01*
X166750540Y-103249998D01*
X166750541Y-103249997D01*
X166750541Y-103247820D01*
X166750500Y-103247614D01*
X166750500Y-96752385D01*
X166750539Y-96752188D01*
X166750539Y-96750002D01*
X166750541Y-96750000D01*
X166750383Y-96749617D01*
X166750382Y-96749616D01*
X166750383Y-96749616D01*
X166750100Y-96749500D01*
X166750081Y-96749492D01*
X166750001Y-96749459D01*
X166747820Y-96749459D01*
X166747614Y-96749500D01*
X160252386Y-96749500D01*
X160252180Y-96749459D01*
X160249999Y-96749459D01*
X160249919Y-96749492D01*
X160249900Y-96749500D01*
X160249617Y-96749616D01*
X160249459Y-96750000D01*
X160249460Y-96752188D01*
X160249500Y-96752385D01*
X160249500Y-103247614D01*
X160249459Y-103247820D01*
X160249459Y-103249998D01*
X160249459Y-103249999D01*
X160249459Y-103250000D01*
X157750541Y-103250000D01*
X157750540Y-103249998D01*
X157750541Y-103249997D01*
X157750541Y-103247820D01*
X157750500Y-103247614D01*
X157750500Y-96752385D01*
X157750539Y-96752188D01*
X157750539Y-96750002D01*
X157750541Y-96750000D01*
X157750383Y-96749617D01*
X157750382Y-96749616D01*
X157750383Y-96749616D01*
X157750100Y-96749500D01*
X157750081Y-96749492D01*
X157750001Y-96749459D01*
X157747820Y-96749459D01*
X157747614Y-96749500D01*
X151252386Y-96749500D01*
X151252180Y-96749459D01*
X151249999Y-96749459D01*
X151249919Y-96749492D01*
X151249900Y-96749500D01*
X151249617Y-96749616D01*
X151249459Y-96750000D01*
X151249460Y-96752188D01*
X151249500Y-96752385D01*
X151249500Y-103247614D01*
X151249459Y-103247820D01*
X151249459Y-103249998D01*
X151249459Y-103249999D01*
X151249459Y-103250000D01*
X93000500Y-103250000D01*
X93000500Y-100940000D01*
X120750000Y-100940000D01*
X121050000Y-101240000D01*
X146449998Y-101240000D01*
X146450000Y-101240000D01*
X146750000Y-100940000D01*
X146750000Y-93750000D01*
X151500000Y-93750000D01*
X151500000Y-95750000D01*
X157499999Y-95750000D01*
X157500000Y-95750000D01*
X157500000Y-93750000D01*
X160500000Y-93750000D01*
X160500000Y-95750000D01*
X166499999Y-95750000D01*
X166500000Y-95750000D01*
X166500000Y-93750000D01*
X169500000Y-93750000D01*
X169500000Y-95750000D01*
X175499999Y-95750000D01*
X175500000Y-95750000D01*
X175500000Y-93750000D01*
X179500000Y-93750000D01*
X179500000Y-95750000D01*
X185499999Y-95750000D01*
X185500000Y-95750000D01*
X185500000Y-93750000D01*
X179500000Y-93750000D01*
X175500000Y-93750000D01*
X169500000Y-93750000D01*
X166500000Y-93750000D01*
X160500000Y-93750000D01*
X157500000Y-93750000D01*
X151500000Y-93750000D01*
X146750000Y-93750000D01*
X146750000Y-92740000D01*
X146750000Y-92540000D01*
X146450000Y-92240000D01*
X121050000Y-92240000D01*
X120750000Y-92540000D01*
X120750000Y-100740000D01*
X120750000Y-100940000D01*
X93000500Y-100940000D01*
X93000500Y-90840128D01*
X104903209Y-90840128D01*
X104903377Y-90840443D01*
X104904342Y-90841619D01*
X104905141Y-90842819D01*
X104906466Y-90843368D01*
X109497963Y-95434864D01*
X109498086Y-95435048D01*
X109499615Y-95436576D01*
X109499616Y-95436576D01*
X109499617Y-95436577D01*
X109500000Y-95436736D01*
X109500001Y-95436736D01*
X109500383Y-95436577D01*
X109501951Y-95435001D01*
X109502053Y-95434847D01*
X114094831Y-90842068D01*
X114094969Y-90841977D01*
X114096575Y-90840383D01*
X114096577Y-90840383D01*
X114096736Y-90840000D01*
X114096577Y-90839617D01*
X114096576Y-90839616D01*
X114096576Y-90839615D01*
X114095048Y-90838086D01*
X114094864Y-90837963D01*
X109502040Y-86245138D01*
X109501928Y-86244970D01*
X109500383Y-86243424D01*
X109500383Y-86243423D01*
X109500381Y-86243422D01*
X109500001Y-86243264D01*
X109499998Y-86243264D01*
X109499617Y-86243422D01*
X109498110Y-86244922D01*
X109497978Y-86245119D01*
X104905102Y-90837994D01*
X104904902Y-90838128D01*
X104903422Y-90839616D01*
X104903209Y-90840128D01*
X93000500Y-90840128D01*
X93000500Y-84490128D01*
X98553209Y-84490128D01*
X98553377Y-84490443D01*
X98554342Y-84491619D01*
X98555141Y-84492819D01*
X98556466Y-84493368D01*
X103147963Y-89084864D01*
X103148086Y-89085048D01*
X103149615Y-89086576D01*
X103149616Y-89086576D01*
X103149617Y-89086577D01*
X103150000Y-89086736D01*
X103150001Y-89086736D01*
X103150383Y-89086577D01*
X103151951Y-89085001D01*
X103152053Y-89084847D01*
X107744831Y-84492068D01*
X107744969Y-84491977D01*
X107746575Y-84490383D01*
X107746577Y-84490383D01*
X107746683Y-84490128D01*
X111253209Y-84490128D01*
X111253377Y-84490443D01*
X111254342Y-84491619D01*
X111255141Y-84492819D01*
X111256466Y-84493368D01*
X115847963Y-89084864D01*
X115848086Y-89085048D01*
X115849615Y-89086576D01*
X115849616Y-89086576D01*
X115849617Y-89086577D01*
X115850000Y-89086736D01*
X115850001Y-89086736D01*
X115850383Y-89086577D01*
X115851951Y-89085001D01*
X115852053Y-89084847D01*
X117254873Y-87682027D01*
X129317300Y-87682027D01*
X129344905Y-87802971D01*
X129398731Y-87914739D01*
X129476078Y-88011728D01*
X129573068Y-88089074D01*
X129684838Y-88142898D01*
X129805782Y-88170501D01*
X129867809Y-88170500D01*
X129868309Y-88170500D01*
X152089491Y-88170500D01*
X152090090Y-88170500D01*
X152092428Y-88170500D01*
X152092469Y-88170491D01*
X152152017Y-88170492D01*
X152272959Y-88142889D01*
X152384727Y-88089066D01*
X152481716Y-88011722D01*
X152559061Y-87914735D01*
X152612886Y-87802968D01*
X152634077Y-87710128D01*
X164643209Y-87710128D01*
X164643377Y-87710443D01*
X164644342Y-87711619D01*
X164645141Y-87712819D01*
X164646466Y-87713368D01*
X169237963Y-92304864D01*
X169238086Y-92305048D01*
X169239615Y-92306576D01*
X169239616Y-92306576D01*
X169239617Y-92306577D01*
X169240000Y-92306736D01*
X169240001Y-92306736D01*
X169240383Y-92306577D01*
X169241951Y-92305001D01*
X169242053Y-92304847D01*
X173834831Y-87712068D01*
X173834969Y-87711977D01*
X173836575Y-87710383D01*
X173836577Y-87710383D01*
X173836736Y-87710000D01*
X173836577Y-87709617D01*
X173836576Y-87709616D01*
X173836576Y-87709615D01*
X173835048Y-87708086D01*
X173834864Y-87707963D01*
X169242040Y-83115138D01*
X169241928Y-83114970D01*
X169240383Y-83113424D01*
X169240383Y-83113423D01*
X169240381Y-83113422D01*
X169240001Y-83113264D01*
X169239998Y-83113264D01*
X169239617Y-83113422D01*
X169238110Y-83114922D01*
X169237978Y-83115119D01*
X164645102Y-87707994D01*
X164644902Y-87708128D01*
X164643422Y-87709616D01*
X164643209Y-87710128D01*
X152634077Y-87710128D01*
X152640491Y-87682026D01*
X152640491Y-87620000D01*
X152640491Y-87619500D01*
X152641636Y-81300128D01*
X171003209Y-81300128D01*
X171003377Y-81300443D01*
X171004342Y-81301619D01*
X171005141Y-81302819D01*
X171006466Y-81303368D01*
X175597963Y-85894864D01*
X175598086Y-85895048D01*
X175599615Y-85896576D01*
X175599616Y-85896576D01*
X175599617Y-85896577D01*
X175600000Y-85896736D01*
X175600001Y-85896736D01*
X175600383Y-85896577D01*
X175601951Y-85895001D01*
X175602053Y-85894847D01*
X180194831Y-81302068D01*
X180194969Y-81301977D01*
X180196575Y-81300383D01*
X180196577Y-81300383D01*
X180196736Y-81300000D01*
X180196735Y-81299999D01*
X180196734Y-81299998D01*
X180196680Y-81299719D01*
X180195053Y-81298090D01*
X180194865Y-81297964D01*
X175602040Y-76705138D01*
X175601928Y-76704970D01*
X175600383Y-76703424D01*
X175600383Y-76703423D01*
X175600381Y-76703422D01*
X175600001Y-76703264D01*
X175599998Y-76703264D01*
X175599617Y-76703422D01*
X175598110Y-76704922D01*
X175597978Y-76705119D01*
X171005102Y-81297994D01*
X171004902Y-81298128D01*
X171003422Y-81299616D01*
X171003209Y-81300128D01*
X152641636Y-81300128D01*
X152642551Y-76250000D01*
X160094507Y-76250000D01*
X160114353Y-76375301D01*
X160114353Y-76375302D01*
X160114354Y-76375304D01*
X160171950Y-76488342D01*
X160261658Y-76578050D01*
X160374696Y-76635646D01*
X160410350Y-76641293D01*
X160468478Y-76650500D01*
X160468481Y-76650500D01*
X160531519Y-76650500D01*
X160531521Y-76650500D01*
X160575655Y-76643509D01*
X160596660Y-76640182D01*
X160603680Y-76641293D01*
X160608706Y-76646319D01*
X160609817Y-76653339D01*
X160594507Y-76749999D01*
X160614353Y-76875301D01*
X160614353Y-76875302D01*
X160614354Y-76875304D01*
X160671950Y-76988342D01*
X160761658Y-77078050D01*
X160874696Y-77135646D01*
X160912210Y-77141587D01*
X160968478Y-77150500D01*
X160968481Y-77150500D01*
X161031519Y-77150500D01*
X161031522Y-77150500D01*
X161078411Y-77143072D01*
X161125304Y-77135646D01*
X161238342Y-77078050D01*
X161328050Y-76988342D01*
X161385646Y-76875304D01*
X161405492Y-76750000D01*
X161390182Y-76653338D01*
X161391293Y-76646319D01*
X161396319Y-76641293D01*
X161403338Y-76640182D01*
X161410353Y-76641293D01*
X161468479Y-76650500D01*
X161468481Y-76650500D01*
X161531519Y-76650500D01*
X161531522Y-76650500D01*
X161578411Y-76643073D01*
X161625304Y-76635646D01*
X161738342Y-76578050D01*
X161828050Y-76488342D01*
X161885646Y-76375304D01*
X161905492Y-76250000D01*
X161885646Y-76124696D01*
X161828050Y-76011658D01*
X161738342Y-75921950D01*
X161625304Y-75864354D01*
X161625302Y-75864353D01*
X161625301Y-75864353D01*
X161531522Y-75849500D01*
X161531519Y-75849500D01*
X161468481Y-75849500D01*
X161468478Y-75849500D01*
X161403339Y-75859816D01*
X161396319Y-75858705D01*
X161391293Y-75853679D01*
X161390182Y-75846659D01*
X161405157Y-75752113D01*
X161407578Y-75746675D01*
X161412394Y-75743176D01*
X161418314Y-75742554D01*
X161468479Y-75750500D01*
X161468481Y-75750500D01*
X161531519Y-75750500D01*
X161531522Y-75750500D01*
X161581688Y-75742554D01*
X161625304Y-75735646D01*
X161738342Y-75678050D01*
X161828050Y-75588342D01*
X161885646Y-75475304D01*
X161905492Y-75350000D01*
X161885646Y-75224696D01*
X161834510Y-75124336D01*
X183499500Y-75124336D01*
X183540428Y-75369613D01*
X183621172Y-75604810D01*
X183739526Y-75823509D01*
X183892262Y-76019744D01*
X184029759Y-76146319D01*
X184075217Y-76188166D01*
X184283394Y-76324174D01*
X184511116Y-76424062D01*
X184511117Y-76424062D01*
X184511119Y-76424063D01*
X184752179Y-76485108D01*
X184937933Y-76500500D01*
X185062064Y-76500500D01*
X185062067Y-76500500D01*
X185247821Y-76485108D01*
X185488881Y-76424063D01*
X185716607Y-76324173D01*
X185924785Y-76188164D01*
X186107738Y-76019744D01*
X186260474Y-75823509D01*
X186378828Y-75604810D01*
X186459571Y-75369614D01*
X186487791Y-75200500D01*
X186500500Y-75124336D01*
X186500500Y-74875664D01*
X186459571Y-74630386D01*
X186446120Y-74591205D01*
X186378828Y-74395190D01*
X186260474Y-74176491D01*
X186107738Y-73980256D01*
X185951855Y-73836756D01*
X185924782Y-73811833D01*
X185716605Y-73675825D01*
X185488883Y-73575937D01*
X185247823Y-73514892D01*
X185173519Y-73508735D01*
X185062067Y-73499500D01*
X184937933Y-73499500D01*
X184845056Y-73507195D01*
X184752176Y-73514892D01*
X184511116Y-73575937D01*
X184283394Y-73675825D01*
X184075217Y-73811833D01*
X183892259Y-73980259D01*
X183739526Y-74176490D01*
X183621172Y-74395189D01*
X183540428Y-74630386D01*
X183499500Y-74875664D01*
X183499500Y-75124336D01*
X161834510Y-75124336D01*
X161828050Y-75111658D01*
X161738342Y-75021950D01*
X161625304Y-74964354D01*
X161625302Y-74964353D01*
X161625301Y-74964353D01*
X161531522Y-74949500D01*
X161531519Y-74949500D01*
X161468481Y-74949500D01*
X161468478Y-74949500D01*
X161374698Y-74964353D01*
X161261657Y-75021950D01*
X161171950Y-75111657D01*
X161114353Y-75224698D01*
X161094842Y-75347886D01*
X161090244Y-75355391D01*
X161081685Y-75357445D01*
X161031522Y-75349500D01*
X161031519Y-75349500D01*
X160968481Y-75349500D01*
X160968478Y-75349500D01*
X160918314Y-75357445D01*
X160909755Y-75355391D01*
X160905157Y-75347886D01*
X160897104Y-75297039D01*
X160885646Y-75224696D01*
X160828050Y-75111658D01*
X160738342Y-75021950D01*
X160625304Y-74964354D01*
X160625302Y-74964353D01*
X160625301Y-74964353D01*
X160531522Y-74949500D01*
X160531519Y-74949500D01*
X160468481Y-74949500D01*
X160468478Y-74949500D01*
X160374698Y-74964353D01*
X160261657Y-75021950D01*
X160171950Y-75111657D01*
X160114353Y-75224698D01*
X160094507Y-75349999D01*
X160114353Y-75475301D01*
X160114353Y-75475302D01*
X160114354Y-75475304D01*
X160171950Y-75588342D01*
X160261658Y-75678050D01*
X160374696Y-75735646D01*
X160403948Y-75740279D01*
X160468478Y-75750500D01*
X160468481Y-75750500D01*
X160531519Y-75750500D01*
X160531521Y-75750500D01*
X160544706Y-75748411D01*
X160581688Y-75742553D01*
X160587605Y-75743175D01*
X160592421Y-75746674D01*
X160594842Y-75752112D01*
X160609817Y-75846659D01*
X160608706Y-75853679D01*
X160603680Y-75858705D01*
X160596660Y-75859816D01*
X160531522Y-75849500D01*
X160531519Y-75849500D01*
X160468481Y-75849500D01*
X160468478Y-75849500D01*
X160374698Y-75864353D01*
X160261657Y-75921950D01*
X160171950Y-76011657D01*
X160114353Y-76124698D01*
X160094507Y-76250000D01*
X152642551Y-76250000D01*
X152642691Y-75479910D01*
X152642692Y-75417982D01*
X152615089Y-75297039D01*
X152561265Y-75185270D01*
X152483919Y-75088281D01*
X152386930Y-75010935D01*
X152386929Y-75010934D01*
X152275162Y-74957111D01*
X152218959Y-74944284D01*
X152154218Y-74929508D01*
X152154216Y-74929508D01*
X152092191Y-74929509D01*
X129870009Y-74929509D01*
X129807983Y-74929508D01*
X129807982Y-74929508D01*
X129767667Y-74938708D01*
X129687037Y-74957111D01*
X129575269Y-75010935D01*
X129478281Y-75088281D01*
X129400935Y-75185269D01*
X129347111Y-75297037D01*
X129319508Y-75417983D01*
X129319509Y-75480009D01*
X129319509Y-75480509D01*
X129317309Y-87615229D01*
X129317300Y-87615252D01*
X129317300Y-87620000D01*
X129317300Y-87682027D01*
X117254873Y-87682027D01*
X120444831Y-84492068D01*
X120444969Y-84491977D01*
X120446575Y-84490383D01*
X120446577Y-84490383D01*
X120446736Y-84490000D01*
X120446577Y-84489617D01*
X120446576Y-84489616D01*
X120446576Y-84489615D01*
X120445048Y-84488086D01*
X120444864Y-84487963D01*
X115852040Y-79895138D01*
X115851928Y-79894970D01*
X115850383Y-79893424D01*
X115850383Y-79893423D01*
X115850381Y-79893422D01*
X115850001Y-79893264D01*
X115849998Y-79893264D01*
X115849617Y-79893422D01*
X115848110Y-79894922D01*
X115847978Y-79895119D01*
X111255102Y-84487994D01*
X111254902Y-84488128D01*
X111253422Y-84489616D01*
X111253209Y-84490128D01*
X107746683Y-84490128D01*
X107746736Y-84490000D01*
X107746577Y-84489617D01*
X107746576Y-84489616D01*
X107746576Y-84489615D01*
X107745048Y-84488086D01*
X107744864Y-84487963D01*
X103152040Y-79895138D01*
X103151928Y-79894970D01*
X103150383Y-79893424D01*
X103150383Y-79893423D01*
X103150381Y-79893422D01*
X103150001Y-79893264D01*
X103149998Y-79893264D01*
X103149617Y-79893422D01*
X103148110Y-79894922D01*
X103147978Y-79895119D01*
X98555102Y-84487994D01*
X98554902Y-84488128D01*
X98553422Y-84489616D01*
X98553209Y-84490128D01*
X93000500Y-84490128D01*
X93000500Y-78130128D01*
X104903209Y-78130128D01*
X104903377Y-78130443D01*
X104904342Y-78131619D01*
X104905141Y-78132819D01*
X104906466Y-78133368D01*
X109497963Y-82724864D01*
X109498086Y-82725048D01*
X109499615Y-82726576D01*
X109499616Y-82726576D01*
X109499617Y-82726577D01*
X109500000Y-82726736D01*
X109500001Y-82726736D01*
X109500383Y-82726577D01*
X109501951Y-82725001D01*
X109502053Y-82724847D01*
X114094831Y-78132068D01*
X114094969Y-78131977D01*
X114096575Y-78130383D01*
X114096577Y-78130383D01*
X114096736Y-78130000D01*
X114096577Y-78129617D01*
X114096576Y-78129616D01*
X114096576Y-78129615D01*
X114095048Y-78128086D01*
X114094864Y-78127963D01*
X113466901Y-77500000D01*
X120099459Y-77500000D01*
X120099492Y-77500080D01*
X120099496Y-77500101D01*
X120099500Y-77500100D01*
X120099616Y-77500382D01*
X120099617Y-77500383D01*
X120100000Y-77500541D01*
X120100002Y-77500539D01*
X120102188Y-77500539D01*
X120102385Y-77500500D01*
X124097615Y-77500500D01*
X124097811Y-77500539D01*
X124099997Y-77500539D01*
X124100000Y-77500541D01*
X124100383Y-77500383D01*
X124100499Y-77500102D01*
X124100500Y-77500100D01*
X124100506Y-77500102D01*
X124100508Y-77500078D01*
X124100541Y-77500000D01*
X124100540Y-77499998D01*
X124100541Y-77499997D01*
X124100541Y-77497820D01*
X124100500Y-77497614D01*
X124100500Y-75202385D01*
X124100539Y-75202188D01*
X124100539Y-75200002D01*
X124100541Y-75200000D01*
X124100383Y-75199617D01*
X124100382Y-75199616D01*
X124100383Y-75199616D01*
X124100100Y-75199500D01*
X124100081Y-75199492D01*
X124100001Y-75199459D01*
X124097820Y-75199459D01*
X124097614Y-75199500D01*
X120102386Y-75199500D01*
X120102180Y-75199459D01*
X120099999Y-75199459D01*
X120099919Y-75199492D01*
X120099900Y-75199500D01*
X120099617Y-75199616D01*
X120099459Y-75200000D01*
X120099460Y-75202188D01*
X120099500Y-75202385D01*
X120099500Y-77497614D01*
X120099459Y-77497820D01*
X120099459Y-77499998D01*
X120099459Y-77499999D01*
X120099459Y-77500000D01*
X113466901Y-77500000D01*
X109916902Y-73950000D01*
X115000000Y-73950000D01*
X115000000Y-75330000D01*
X117499999Y-75330000D01*
X117500000Y-75330000D01*
X117500000Y-74922535D01*
X118587544Y-74922535D01*
X118587577Y-74922615D01*
X118587581Y-74922636D01*
X118587585Y-74922635D01*
X118587701Y-74922917D01*
X118587702Y-74922918D01*
X118588085Y-74923076D01*
X118588087Y-74923074D01*
X118590273Y-74923074D01*
X118590470Y-74923035D01*
X118918715Y-74923035D01*
X118918913Y-74923035D01*
X119399028Y-74923035D01*
X119399234Y-74923076D01*
X119401414Y-74923076D01*
X119403594Y-74923076D01*
X119403800Y-74923035D01*
X120891278Y-74923035D01*
X120891484Y-74923076D01*
X120893664Y-74923076D01*
X120895844Y-74923076D01*
X120896050Y-74923035D01*
X121222480Y-74923035D01*
X121223259Y-74923150D01*
X121223857Y-74923091D01*
X121224619Y-74923053D01*
X121224743Y-74922995D01*
X121224828Y-74922900D01*
X121224903Y-74922688D01*
X121403844Y-74922688D01*
X121403930Y-74922870D01*
X121404087Y-74923010D01*
X121404283Y-74923069D01*
X121404985Y-74923035D01*
X121891807Y-74923035D01*
X121892005Y-74923035D01*
X122222537Y-74923035D01*
X122222735Y-74923035D01*
X122702850Y-74923035D01*
X122703056Y-74923076D01*
X122705236Y-74923076D01*
X122707416Y-74923076D01*
X122707622Y-74923035D01*
X123498187Y-74923035D01*
X123498393Y-74923076D01*
X123500573Y-74923076D01*
X123502753Y-74923076D01*
X123502959Y-74923035D01*
X124423700Y-74923035D01*
X124423906Y-74923076D01*
X124426086Y-74923076D01*
X124428266Y-74923076D01*
X124428472Y-74923035D01*
X124984787Y-74923035D01*
X124984985Y-74923035D01*
X125313230Y-74923035D01*
X125313426Y-74923074D01*
X125315612Y-74923074D01*
X125315615Y-74923076D01*
X125315998Y-74922918D01*
X125316114Y-74922637D01*
X125316115Y-74922635D01*
X125316121Y-74922637D01*
X125316123Y-74922613D01*
X125316156Y-74922535D01*
X125316155Y-74922533D01*
X125316156Y-74922532D01*
X125316156Y-74920355D01*
X125316115Y-74920149D01*
X125316115Y-73299850D01*
X125316154Y-73299653D01*
X125316154Y-73297467D01*
X125316156Y-73297465D01*
X125315998Y-73297082D01*
X125315997Y-73297081D01*
X125315998Y-73297081D01*
X125315715Y-73296965D01*
X125315696Y-73296957D01*
X125315616Y-73296924D01*
X125313435Y-73296924D01*
X125313229Y-73296965D01*
X124984985Y-73296965D01*
X122222735Y-73296965D01*
X121893820Y-73296965D01*
X121893040Y-73296849D01*
X121892443Y-73296909D01*
X121891722Y-73296944D01*
X121891570Y-73297016D01*
X121891474Y-73297122D01*
X121891257Y-73297730D01*
X121890991Y-73298382D01*
X121890880Y-73299145D01*
X121404071Y-74921837D01*
X121403844Y-74922481D01*
X121403844Y-74922688D01*
X121224903Y-74922688D01*
X121225092Y-74922155D01*
X121225314Y-74921617D01*
X121225428Y-74920823D01*
X121712220Y-73298184D01*
X121712455Y-73297524D01*
X121712455Y-73297466D01*
X121712456Y-73297465D01*
X121712455Y-73297463D01*
X121712456Y-73297314D01*
X121712368Y-73297127D01*
X121712217Y-73296990D01*
X121712015Y-73296930D01*
X121711314Y-73296965D01*
X121224493Y-73296965D01*
X120893763Y-73296965D01*
X118918913Y-73296965D01*
X118590471Y-73296965D01*
X118590265Y-73296924D01*
X118588084Y-73296924D01*
X118588004Y-73296957D01*
X118587985Y-73296965D01*
X118587702Y-73297081D01*
X118587544Y-73297465D01*
X118587545Y-73299653D01*
X118587585Y-73299850D01*
X118587585Y-74920149D01*
X118587544Y-74920355D01*
X118587544Y-74922533D01*
X118587544Y-74922534D01*
X118587544Y-74922535D01*
X117500000Y-74922535D01*
X117500000Y-73950000D01*
X115000000Y-73950000D01*
X109916902Y-73950000D01*
X109502040Y-73535138D01*
X109501928Y-73534970D01*
X109500383Y-73533424D01*
X109500383Y-73533423D01*
X109500381Y-73533422D01*
X109500001Y-73533264D01*
X109499998Y-73533264D01*
X109499617Y-73533422D01*
X109498110Y-73534922D01*
X109497978Y-73535119D01*
X104905102Y-78127994D01*
X104904902Y-78128128D01*
X104903422Y-78129616D01*
X104903209Y-78130128D01*
X93000500Y-78130128D01*
X93000500Y-75124336D01*
X95499500Y-75124336D01*
X95540428Y-75369613D01*
X95621171Y-75604809D01*
X95621172Y-75604810D01*
X95739526Y-75823509D01*
X95892262Y-76019744D01*
X96029759Y-76146319D01*
X96075217Y-76188166D01*
X96283394Y-76324174D01*
X96511116Y-76424062D01*
X96511117Y-76424062D01*
X96511119Y-76424063D01*
X96752179Y-76485108D01*
X96937933Y-76500500D01*
X97062064Y-76500500D01*
X97062067Y-76500500D01*
X97247821Y-76485108D01*
X97488881Y-76424063D01*
X97716607Y-76324173D01*
X97924785Y-76188164D01*
X98107738Y-76019744D01*
X98260474Y-75823509D01*
X98378828Y-75604810D01*
X98459571Y-75369614D01*
X98487791Y-75200500D01*
X98500500Y-75124336D01*
X98500500Y-74875664D01*
X98459571Y-74630386D01*
X98446120Y-74591205D01*
X98378828Y-74395190D01*
X98260474Y-74176491D01*
X98107738Y-73980256D01*
X97951855Y-73836756D01*
X97924782Y-73811833D01*
X97716605Y-73675825D01*
X97488883Y-73575937D01*
X97247823Y-73514892D01*
X97173519Y-73508735D01*
X97062067Y-73499500D01*
X96937933Y-73499500D01*
X96845056Y-73507195D01*
X96752176Y-73514892D01*
X96511116Y-73575937D01*
X96283394Y-73675825D01*
X96075217Y-73811833D01*
X95892259Y-73980259D01*
X95739526Y-74176490D01*
X95621172Y-74395189D01*
X95540428Y-74630386D01*
X95499500Y-74875664D01*
X95499500Y-75124336D01*
X93000500Y-75124336D01*
X93000500Y-74000297D01*
X93000516Y-73999695D01*
X93004397Y-73925648D01*
X93007497Y-73866486D01*
X93017947Y-73680412D01*
X93018066Y-73679305D01*
X93042611Y-73524331D01*
X93070620Y-73359481D01*
X93070844Y-73358460D01*
X93112438Y-73203234D01*
X93157692Y-73046154D01*
X93157988Y-73045273D01*
X93216100Y-72893888D01*
X93216151Y-72893758D01*
X93278135Y-72744116D01*
X93278471Y-72743387D01*
X93352451Y-72598195D01*
X93352587Y-72597938D01*
X93430522Y-72456926D01*
X93430896Y-72456302D01*
X93519903Y-72319243D01*
X93520062Y-72319010D01*
X93613091Y-72187899D01*
X93613491Y-72187371D01*
X93716426Y-72060258D01*
X93716705Y-72059930D01*
X93823706Y-71940195D01*
X93824078Y-71939801D01*
X93939801Y-71824078D01*
X93940195Y-71823706D01*
X94059930Y-71716705D01*
X94060258Y-71716426D01*
X94187371Y-71613491D01*
X94187899Y-71613091D01*
X94319010Y-71520062D01*
X94319243Y-71519903D01*
X94456302Y-71430896D01*
X94456926Y-71430522D01*
X94597938Y-71352587D01*
X94598195Y-71352451D01*
X94743387Y-71278471D01*
X94744116Y-71278135D01*
X94893758Y-71216151D01*
X94893888Y-71216100D01*
X95045273Y-71157988D01*
X95046154Y-71157692D01*
X95203261Y-71112430D01*
X95358460Y-71070844D01*
X95359481Y-71070620D01*
X95524331Y-71042611D01*
X95524369Y-71042605D01*
X95524377Y-71042652D01*
X95524491Y-71042586D01*
X95679305Y-71018066D01*
X95680412Y-71017947D01*
X95866486Y-71007497D01*
X95866617Y-71007490D01*
X95866617Y-71007506D01*
X95866654Y-71007488D01*
X95999694Y-71000516D01*
X96000297Y-71000500D01*
X96000500Y-71000500D01*
X185999500Y-71000500D01*
X185999703Y-71000500D01*
X186000305Y-71000516D01*
G37*
G04 #@! TD.AperFunction*
G04 #@! TD*
G04 #@! TA.AperFunction,NonConductor*
G36*
X124055505Y-73647937D02*
G01*
X124058873Y-73656069D01*
X124058873Y-73817806D01*
X124055505Y-73825938D01*
X124047373Y-73829306D01*
X123502959Y-73829306D01*
X123502753Y-73829265D01*
X123500572Y-73829265D01*
X123500492Y-73829298D01*
X123500473Y-73829306D01*
X123500190Y-73829422D01*
X123500032Y-73829806D01*
X123500033Y-73831994D01*
X123500073Y-73832191D01*
X123500073Y-74014745D01*
X123500032Y-74014951D01*
X123500032Y-74017129D01*
X123500032Y-74017130D01*
X123500032Y-74017131D01*
X123500065Y-74017211D01*
X123500069Y-74017232D01*
X123500073Y-74017231D01*
X123500189Y-74017513D01*
X123500190Y-74017514D01*
X123500573Y-74017672D01*
X123500575Y-74017670D01*
X123502761Y-74017670D01*
X123502958Y-74017631D01*
X124047373Y-74017631D01*
X124055505Y-74020999D01*
X124058873Y-74029131D01*
X124058873Y-74190869D01*
X124055505Y-74199001D01*
X124047373Y-74202369D01*
X123502959Y-74202369D01*
X123502753Y-74202328D01*
X123500572Y-74202328D01*
X123500492Y-74202361D01*
X123500473Y-74202369D01*
X123500190Y-74202485D01*
X123500032Y-74202869D01*
X123500033Y-74205057D01*
X123500073Y-74205254D01*
X123500073Y-74563931D01*
X123496705Y-74572063D01*
X123488573Y-74575431D01*
X123326836Y-74575431D01*
X123318704Y-74572063D01*
X123315336Y-74563931D01*
X123315336Y-73656069D01*
X123318704Y-73647937D01*
X123326836Y-73644569D01*
X124047373Y-73644569D01*
X124055505Y-73647937D01*
G37*
G04 #@! TD.AperFunction*
G04 #@! TA.AperFunction,NonConductor*
G36*
X124981018Y-73647937D02*
G01*
X124984386Y-73656069D01*
X124984386Y-73817806D01*
X124981018Y-73825938D01*
X124972886Y-73829306D01*
X124428472Y-73829306D01*
X124428266Y-73829265D01*
X124426085Y-73829265D01*
X124426005Y-73829298D01*
X124425986Y-73829306D01*
X124425703Y-73829422D01*
X124425545Y-73829806D01*
X124425546Y-73831994D01*
X124425586Y-73832191D01*
X124425586Y-74014745D01*
X124425545Y-74014951D01*
X124425545Y-74017129D01*
X124425545Y-74017130D01*
X124425545Y-74017131D01*
X124425578Y-74017211D01*
X124425582Y-74017232D01*
X124425586Y-74017231D01*
X124425702Y-74017513D01*
X124425703Y-74017514D01*
X124426086Y-74017672D01*
X124426088Y-74017670D01*
X124428274Y-74017670D01*
X124428471Y-74017631D01*
X124972886Y-74017631D01*
X124981018Y-74020999D01*
X124984386Y-74029131D01*
X124984386Y-74190869D01*
X124981018Y-74199001D01*
X124972886Y-74202369D01*
X124428472Y-74202369D01*
X124428266Y-74202328D01*
X124426085Y-74202328D01*
X124426005Y-74202361D01*
X124425986Y-74202369D01*
X124425703Y-74202485D01*
X124425545Y-74202869D01*
X124425546Y-74205057D01*
X124425586Y-74205254D01*
X124425586Y-74563931D01*
X124422218Y-74572063D01*
X124414086Y-74575431D01*
X124252348Y-74575431D01*
X124244216Y-74572063D01*
X124240848Y-74563931D01*
X124240848Y-73656069D01*
X124244216Y-73647937D01*
X124252348Y-73644569D01*
X124972886Y-73644569D01*
X124981018Y-73647937D01*
G37*
G04 #@! TD.AperFunction*
G04 #@! TA.AperFunction,NonConductor*
G36*
X122799643Y-73637411D02*
G01*
X122801877Y-73637844D01*
X122888057Y-73663639D01*
X122890238Y-73664547D01*
X122919513Y-73680434D01*
X122969458Y-73707539D01*
X122971333Y-73708809D01*
X123043799Y-73769164D01*
X123045280Y-73770647D01*
X123105624Y-73843195D01*
X123106899Y-73845079D01*
X123149895Y-73924601D01*
X123150801Y-73926790D01*
X123176598Y-74013451D01*
X123177028Y-74015682D01*
X123185649Y-74109739D01*
X123185648Y-74111846D01*
X123177029Y-74205199D01*
X123176595Y-74207440D01*
X123150802Y-74293610D01*
X123149893Y-74295797D01*
X123106899Y-74375021D01*
X123105627Y-74376896D01*
X123045275Y-74449357D01*
X123043799Y-74450833D01*
X122971337Y-74511186D01*
X122969462Y-74512457D01*
X122890241Y-74555450D01*
X122888054Y-74556360D01*
X122801881Y-74582153D01*
X122799640Y-74582587D01*
X122706290Y-74591205D01*
X122704183Y-74591206D01*
X122610124Y-74582586D01*
X122607893Y-74582156D01*
X122521232Y-74556359D01*
X122519043Y-74555453D01*
X122439521Y-74512457D01*
X122437637Y-74511182D01*
X122365089Y-74450838D01*
X122363606Y-74449357D01*
X122303249Y-74376889D01*
X122301979Y-74375014D01*
X122272138Y-74320028D01*
X122258984Y-74295790D01*
X122258078Y-74293610D01*
X122232286Y-74207436D01*
X122231853Y-74205200D01*
X122231602Y-74202486D01*
X122223234Y-74111841D01*
X122223234Y-74110851D01*
X122407863Y-74110851D01*
X122407880Y-74110880D01*
X122429315Y-74221176D01*
X122429320Y-74221344D01*
X122429706Y-74223189D01*
X122429726Y-74223284D01*
X122429735Y-74223330D01*
X122429920Y-74223593D01*
X122430988Y-74225217D01*
X122431145Y-74225373D01*
X122495231Y-74318978D01*
X122495338Y-74319137D01*
X122495387Y-74319211D01*
X122495964Y-74319550D01*
X122589456Y-74383297D01*
X122589600Y-74383442D01*
X122591380Y-74384610D01*
X122591448Y-74384655D01*
X122591529Y-74384710D01*
X122591531Y-74384710D01*
X122591535Y-74384713D01*
X122591720Y-74384750D01*
X122591829Y-74384773D01*
X122591829Y-74384772D01*
X122593962Y-74385222D01*
X122594168Y-74385219D01*
X122704944Y-74406522D01*
X122705258Y-74406591D01*
X122705688Y-74406518D01*
X122706330Y-74406433D01*
X122706782Y-74406280D01*
X122816019Y-74385235D01*
X122816279Y-74385240D01*
X122818443Y-74384772D01*
X122818444Y-74384773D01*
X122818474Y-74384766D01*
X122818755Y-74384712D01*
X122819071Y-74384492D01*
X122820732Y-74383412D01*
X122820925Y-74383211D01*
X122913023Y-74320025D01*
X122913451Y-74319813D01*
X122913962Y-74319417D01*
X122914426Y-74319086D01*
X122914771Y-74318497D01*
X122977889Y-74225459D01*
X122978065Y-74225287D01*
X122978684Y-74224331D01*
X122979069Y-74223854D01*
X122979389Y-74223329D01*
X122979537Y-74222735D01*
X122979602Y-74222118D01*
X122979863Y-74220891D01*
X122979860Y-74220664D01*
X122982619Y-74206343D01*
X123000876Y-74111538D01*
X123001035Y-74110931D01*
X123001037Y-74110829D01*
X123000958Y-74110471D01*
X122979936Y-74000154D01*
X122979946Y-73999963D01*
X122979590Y-73998243D01*
X122979530Y-73997660D01*
X122979402Y-73997145D01*
X122979146Y-73996779D01*
X122978073Y-73995134D01*
X122977935Y-73994995D01*
X122947536Y-73950001D01*
X122914384Y-73900931D01*
X122914356Y-73900888D01*
X122914354Y-73900886D01*
X122914351Y-73900882D01*
X122914350Y-73900881D01*
X122914302Y-73900849D01*
X122914161Y-73900754D01*
X122862227Y-73865124D01*
X122820877Y-73836754D01*
X122820713Y-73836585D01*
X122818907Y-73835399D01*
X122818756Y-73835299D01*
X122818740Y-73835288D01*
X122818604Y-73835260D01*
X122816609Y-73834839D01*
X122816396Y-73834836D01*
X122705378Y-73813448D01*
X122705335Y-73813421D01*
X122705330Y-73813421D01*
X122705327Y-73813438D01*
X122705241Y-73813421D01*
X122705239Y-73813421D01*
X122705235Y-73813421D01*
X122705233Y-73813421D01*
X122705121Y-73813442D01*
X122705121Y-73813443D01*
X122593660Y-73834877D01*
X122593498Y-73834882D01*
X122591609Y-73835272D01*
X122591568Y-73835280D01*
X122591543Y-73835284D01*
X122591531Y-73835289D01*
X122591528Y-73835289D01*
X122591440Y-73835349D01*
X122591389Y-73835383D01*
X122589680Y-73836515D01*
X122589563Y-73836629D01*
X122495455Y-73900795D01*
X122495438Y-73900807D01*
X122495331Y-73900878D01*
X122495176Y-73901033D01*
X122494887Y-73901526D01*
X122430841Y-73995459D01*
X122430707Y-73995605D01*
X122429844Y-73996919D01*
X122429770Y-73997031D01*
X122429732Y-73997086D01*
X122429730Y-73997091D01*
X122429730Y-73997093D01*
X122429729Y-73997096D01*
X122429713Y-73997174D01*
X122429669Y-73997389D01*
X122429322Y-73999082D01*
X122429318Y-73999226D01*
X122425771Y-74017671D01*
X122407927Y-74110464D01*
X122407884Y-74110686D01*
X122407880Y-74110705D01*
X122407863Y-74110793D01*
X122407863Y-74110851D01*
X122223234Y-74110851D01*
X122223234Y-74109739D01*
X122230622Y-74029131D01*
X122231855Y-74015674D01*
X122232282Y-74013460D01*
X122258080Y-73926789D01*
X122258986Y-73924601D01*
X122271778Y-73900943D01*
X122301985Y-73845076D01*
X122303253Y-73843202D01*
X122363610Y-73770638D01*
X122365080Y-73769168D01*
X122437642Y-73708812D01*
X122439515Y-73707544D01*
X122519043Y-73664544D01*
X122521232Y-73663639D01*
X122607902Y-73637840D01*
X122610115Y-73637413D01*
X122704186Y-73628792D01*
X122706284Y-73628792D01*
X122799643Y-73637411D01*
G37*
G04 #@! TD.AperFunction*
G04 #@! TA.AperFunction,NonConductor*
G36*
X120707400Y-73644789D02*
G01*
X120806767Y-73664493D01*
X120812624Y-73667605D01*
X120854178Y-73708809D01*
X120869904Y-73724403D01*
X120873080Y-73730295D01*
X120892937Y-73828733D01*
X120893164Y-73831007D01*
X120893164Y-74563931D01*
X120889796Y-74572063D01*
X120881664Y-74575431D01*
X120718339Y-74575431D01*
X120710207Y-74572063D01*
X120706839Y-74563931D01*
X120706839Y-73832191D01*
X120706878Y-73831994D01*
X120706878Y-73829808D01*
X120706880Y-73829806D01*
X120706722Y-73829423D01*
X120706721Y-73829422D01*
X120706722Y-73829422D01*
X120706439Y-73829306D01*
X120706420Y-73829298D01*
X120706340Y-73829265D01*
X120704159Y-73829265D01*
X120703953Y-73829306D01*
X120197550Y-73829306D01*
X120197344Y-73829265D01*
X120195163Y-73829265D01*
X120195083Y-73829298D01*
X120195064Y-73829306D01*
X120194781Y-73829422D01*
X120194623Y-73829806D01*
X120194624Y-73831994D01*
X120194664Y-73832191D01*
X120194664Y-74563931D01*
X120191296Y-74572063D01*
X120183164Y-74575431D01*
X120021427Y-74575431D01*
X120013295Y-74572063D01*
X120009927Y-74563931D01*
X120009927Y-73656069D01*
X120013295Y-73647937D01*
X120021427Y-73644569D01*
X120705163Y-73644569D01*
X120707400Y-73644789D01*
G37*
G04 #@! TD.AperFunction*
G04 #@! TA.AperFunction,NonConductor*
G36*
X119495822Y-73637411D02*
G01*
X119498056Y-73637844D01*
X119584229Y-73663637D01*
X119586414Y-73664545D01*
X119607198Y-73675825D01*
X119665641Y-73707541D01*
X119667516Y-73708812D01*
X119739974Y-73769161D01*
X119741455Y-73770644D01*
X119801803Y-73843195D01*
X119803078Y-73845079D01*
X119846074Y-73924601D01*
X119846980Y-73926790D01*
X119872776Y-74013452D01*
X119873206Y-74015683D01*
X119881828Y-74109739D01*
X119881827Y-74111846D01*
X119873208Y-74205198D01*
X119872774Y-74207439D01*
X119846981Y-74293610D01*
X119846072Y-74295797D01*
X119803078Y-74375021D01*
X119801806Y-74376896D01*
X119741450Y-74449360D01*
X119739974Y-74450836D01*
X119667519Y-74511183D01*
X119665644Y-74512455D01*
X119586415Y-74555452D01*
X119584228Y-74556361D01*
X119498060Y-74582153D01*
X119495819Y-74582587D01*
X119402468Y-74591205D01*
X119400361Y-74591206D01*
X119306303Y-74582586D01*
X119304072Y-74582156D01*
X119217411Y-74556359D01*
X119215222Y-74555453D01*
X119135700Y-74512457D01*
X119133816Y-74511182D01*
X119061268Y-74450838D01*
X119059785Y-74449357D01*
X118999428Y-74376889D01*
X118998158Y-74375014D01*
X118968317Y-74320028D01*
X118955163Y-74295790D01*
X118954257Y-74293610D01*
X118928465Y-74207436D01*
X118928032Y-74205200D01*
X118927781Y-74202486D01*
X118919412Y-74111841D01*
X118919412Y-74110851D01*
X119104042Y-74110851D01*
X119104059Y-74110880D01*
X119125494Y-74221176D01*
X119125499Y-74221344D01*
X119125885Y-74223189D01*
X119125905Y-74223284D01*
X119125914Y-74223330D01*
X119126099Y-74223593D01*
X119127167Y-74225217D01*
X119127324Y-74225373D01*
X119191409Y-74318978D01*
X119191516Y-74319137D01*
X119191565Y-74319211D01*
X119192142Y-74319550D01*
X119265652Y-74369671D01*
X119285633Y-74383295D01*
X119285780Y-74383443D01*
X119287559Y-74384610D01*
X119287627Y-74384655D01*
X119287708Y-74384710D01*
X119287710Y-74384710D01*
X119287714Y-74384713D01*
X119287899Y-74384750D01*
X119288008Y-74384773D01*
X119288008Y-74384772D01*
X119290141Y-74385222D01*
X119290347Y-74385219D01*
X119401122Y-74406522D01*
X119401436Y-74406591D01*
X119401866Y-74406518D01*
X119402508Y-74406433D01*
X119402960Y-74406280D01*
X119512198Y-74385235D01*
X119512458Y-74385240D01*
X119514622Y-74384772D01*
X119514623Y-74384773D01*
X119514653Y-74384766D01*
X119514934Y-74384712D01*
X119515250Y-74384492D01*
X119516911Y-74383412D01*
X119517104Y-74383211D01*
X119609202Y-74320025D01*
X119609630Y-74319813D01*
X119610141Y-74319417D01*
X119610605Y-74319086D01*
X119610950Y-74318497D01*
X119674068Y-74225459D01*
X119674244Y-74225287D01*
X119674863Y-74224331D01*
X119675248Y-74223854D01*
X119675568Y-74223329D01*
X119675716Y-74222735D01*
X119675781Y-74222118D01*
X119676041Y-74220894D01*
X119676038Y-74220671D01*
X119696900Y-74112337D01*
X119697060Y-74111870D01*
X119697139Y-74111255D01*
X119697212Y-74110820D01*
X119697136Y-74110471D01*
X119676114Y-74000154D01*
X119676125Y-73999963D01*
X119675769Y-73998243D01*
X119675709Y-73997660D01*
X119675581Y-73997145D01*
X119675325Y-73996779D01*
X119674252Y-73995134D01*
X119674114Y-73994995D01*
X119643715Y-73950001D01*
X119610563Y-73900931D01*
X119610535Y-73900888D01*
X119610533Y-73900886D01*
X119610530Y-73900882D01*
X119610529Y-73900881D01*
X119610481Y-73900849D01*
X119610340Y-73900754D01*
X119558406Y-73865124D01*
X119517056Y-73836754D01*
X119516892Y-73836585D01*
X119515086Y-73835399D01*
X119514935Y-73835299D01*
X119514919Y-73835288D01*
X119514783Y-73835260D01*
X119512788Y-73834839D01*
X119512576Y-73834836D01*
X119401557Y-73813448D01*
X119401514Y-73813421D01*
X119401508Y-73813421D01*
X119401505Y-73813438D01*
X119401419Y-73813421D01*
X119401417Y-73813421D01*
X119401413Y-73813421D01*
X119401411Y-73813421D01*
X119401299Y-73813442D01*
X119401299Y-73813443D01*
X119289839Y-73834877D01*
X119289677Y-73834882D01*
X119287788Y-73835272D01*
X119287747Y-73835280D01*
X119287722Y-73835284D01*
X119287710Y-73835289D01*
X119287707Y-73835289D01*
X119287619Y-73835349D01*
X119287568Y-73835383D01*
X119285854Y-73836518D01*
X119285743Y-73836627D01*
X119191692Y-73900756D01*
X119191539Y-73900859D01*
X119191505Y-73900881D01*
X119191501Y-73900886D01*
X119191501Y-73900887D01*
X119191471Y-73900931D01*
X119191463Y-73900943D01*
X119127020Y-73995459D01*
X119126886Y-73995605D01*
X119126023Y-73996919D01*
X119125949Y-73997031D01*
X119125911Y-73997086D01*
X119125909Y-73997091D01*
X119125909Y-73997093D01*
X119125908Y-73997096D01*
X119125892Y-73997174D01*
X119125848Y-73997389D01*
X119125501Y-73999082D01*
X119125497Y-73999226D01*
X119121950Y-74017671D01*
X119104106Y-74110464D01*
X119104063Y-74110686D01*
X119104059Y-74110705D01*
X119104042Y-74110793D01*
X119104042Y-74110851D01*
X118919412Y-74110851D01*
X118919412Y-74109739D01*
X118928034Y-74015674D01*
X118928461Y-74013460D01*
X118954259Y-73926789D01*
X118955165Y-73924601D01*
X118967957Y-73900943D01*
X118998164Y-73845076D01*
X118999432Y-73843202D01*
X119059789Y-73770638D01*
X119061259Y-73769168D01*
X119133821Y-73708812D01*
X119135694Y-73707544D01*
X119215222Y-73664544D01*
X119217411Y-73663639D01*
X119304081Y-73637840D01*
X119306294Y-73637413D01*
X119400364Y-73628792D01*
X119402462Y-73628792D01*
X119495822Y-73637411D01*
G37*
G04 #@! TD.AperFunction*
G04 #@! TA.AperFunction,NonConductor*
G36*
X161103680Y-76141293D02*
G01*
X161108706Y-76146319D01*
X161109817Y-76153339D01*
X161094507Y-76249999D01*
X161109817Y-76346659D01*
X161108706Y-76353679D01*
X161103680Y-76358705D01*
X161096660Y-76359816D01*
X161031522Y-76349500D01*
X161031519Y-76349500D01*
X160968481Y-76349500D01*
X160968478Y-76349500D01*
X160903339Y-76359816D01*
X160896319Y-76358705D01*
X160891293Y-76353679D01*
X160890182Y-76346659D01*
X160893744Y-76324174D01*
X160905492Y-76250000D01*
X160890182Y-76153338D01*
X160891293Y-76146319D01*
X160896319Y-76141293D01*
X160903338Y-76140182D01*
X160910353Y-76141293D01*
X160968479Y-76150500D01*
X160968481Y-76150500D01*
X161031519Y-76150500D01*
X161031521Y-76150500D01*
X161075655Y-76143509D01*
X161096660Y-76140182D01*
X161103680Y-76141293D01*
G37*
G04 #@! TD.AperFunction*
G04 #@! TA.AperFunction,Conductor*
G04 #@! TO.N,SLIDER_TOUCH_1*
G36*
X132746632Y-92743368D02*
G01*
X132750000Y-92751500D01*
X132750000Y-93229035D01*
X132746823Y-93236971D01*
X132739048Y-93240521D01*
X122250000Y-93739999D01*
X122250000Y-93740000D01*
X122250000Y-95240000D01*
X132739049Y-95739478D01*
X132746823Y-95743029D01*
X132750000Y-95750965D01*
X132750000Y-96229035D01*
X132746823Y-96236971D01*
X132739048Y-96240521D01*
X122250000Y-96739999D01*
X122250000Y-96740000D01*
X122250000Y-98240000D01*
X132739049Y-98739478D01*
X132746823Y-98743029D01*
X132750000Y-98750965D01*
X132750000Y-99229035D01*
X132746823Y-99236971D01*
X132739048Y-99240521D01*
X122250000Y-99739999D01*
X122250000Y-99740000D01*
X122250000Y-100728500D01*
X122246632Y-100736632D01*
X122238500Y-100740000D01*
X121261500Y-100740000D01*
X121253368Y-100736632D01*
X121250000Y-100728500D01*
X121250000Y-92751500D01*
X121253368Y-92743368D01*
X121261500Y-92740000D01*
X132738500Y-92740000D01*
X132746632Y-92743368D01*
G37*
G04 #@! TD.AperFunction*
G04 #@! TD*
G04 #@! TA.AperFunction,Conductor*
G04 #@! TO.N,SLIDER_TOUCH_3*
G36*
X146246632Y-92743368D02*
G01*
X146250000Y-92751500D01*
X146250000Y-100728500D01*
X146246632Y-100736632D01*
X146238500Y-100740000D01*
X134761500Y-100740000D01*
X134753368Y-100736632D01*
X134750000Y-100728500D01*
X134750000Y-100250965D01*
X134753177Y-100243029D01*
X134760949Y-100239478D01*
X145250000Y-99740000D01*
X145250000Y-98240000D01*
X134760951Y-97740521D01*
X134753177Y-97736971D01*
X134750000Y-97729035D01*
X134750000Y-97250965D01*
X134753177Y-97243029D01*
X134760949Y-97239478D01*
X145250000Y-96740000D01*
X145250000Y-95240000D01*
X145249999Y-95239999D01*
X134760951Y-94740521D01*
X134753177Y-94736971D01*
X134750000Y-94729035D01*
X134750000Y-94250965D01*
X134753177Y-94243029D01*
X134760949Y-94239478D01*
X145250000Y-93740000D01*
X145250000Y-92751500D01*
X145253368Y-92743368D01*
X145261500Y-92740000D01*
X146238500Y-92740000D01*
X146246632Y-92743368D01*
G37*
G04 #@! TD.AperFunction*
G04 #@! TD*
G04 #@! TA.AperFunction,Conductor*
G04 #@! TO.N,SLIDER_TOUCH_2*
G36*
X144746632Y-92743368D02*
G01*
X144750000Y-92751500D01*
X144750000Y-93229035D01*
X144746823Y-93236971D01*
X144739048Y-93240521D01*
X134250000Y-93739999D01*
X134250000Y-93740000D01*
X134250000Y-95240000D01*
X144739049Y-95739478D01*
X144746823Y-95743029D01*
X144750000Y-95750965D01*
X144750000Y-96229035D01*
X144746823Y-96236971D01*
X144739048Y-96240521D01*
X134250000Y-96739999D01*
X134250000Y-96740000D01*
X134250000Y-98240000D01*
X144739049Y-98739478D01*
X144746823Y-98743029D01*
X144750000Y-98750965D01*
X144750000Y-99229035D01*
X144746823Y-99236971D01*
X144739048Y-99240521D01*
X134250000Y-99739999D01*
X134250000Y-99740000D01*
X134250000Y-100728500D01*
X134246632Y-100736632D01*
X134238500Y-100740000D01*
X122761500Y-100740000D01*
X122753368Y-100736632D01*
X122750000Y-100728500D01*
X122750000Y-100250965D01*
X122753177Y-100243029D01*
X122760949Y-100239478D01*
X133250000Y-99740000D01*
X133250000Y-98240000D01*
X122760951Y-97740521D01*
X122753177Y-97736971D01*
X122750000Y-97729035D01*
X122750000Y-97250965D01*
X122753177Y-97243029D01*
X122760949Y-97239478D01*
X133250000Y-96740000D01*
X133250000Y-95240000D01*
X133249999Y-95239999D01*
X122760951Y-94740521D01*
X122753177Y-94736971D01*
X122750000Y-94729035D01*
X122750000Y-94250965D01*
X122753177Y-94243029D01*
X122760949Y-94239478D01*
X133250000Y-93740000D01*
X133250000Y-92751500D01*
X133253368Y-92743368D01*
X133261500Y-92740000D01*
X144738500Y-92740000D01*
X144746632Y-92743368D01*
G37*
G04 #@! TD.AperFunction*
G04 #@! TD*
M02*
