<?xml version="1.0" encoding="UTF-8" standalone="no"?>
<svg
   version="1.1"
   id="svg851"
   xml:space="preserve"
   width="10.266441cm"
   height="8.5220833cm"
   viewBox="0 0 388.02297 322.09447"
   sodipodi:docname="wnm_logo.svg"
   inkscape:version="1.1.2 (0a00cf5339, 2022-02-04)"
   xmlns:inkscape="http://www.inkscape.org/namespaces/inkscape"
   xmlns:sodipodi="http://sodipodi.sourceforge.net/DTD/sodipodi-0.dtd"
   xmlns="http://www.w3.org/2000/svg"
   xmlns:svg="http://www.w3.org/2000/svg"
   xmlns:rdf="http://www.w3.org/1999/02/22-rdf-syntax-ns#"
   xmlns:cc="http://creativecommons.org/ns#"
   xmlns:dc="http://purl.org/dc/elements/1.1/"><metadata
     id="metadata857"><rdf:RDF><cc:Work
         rdf:about=""><dc:format>image/svg+xml</dc:format><dc:type
           rdf:resource="http://purl.org/dc/dcmitype/StillImage" /></cc:Work></rdf:RDF></metadata><defs
     id="defs855" /><sodipodi:namedview
     pagecolor="#ffffff"
     bordercolor="#666666"
     borderopacity="1"
     objecttolerance="10"
     gridtolerance="10"
     guidetolerance="10"
     inkscape:pageopacity="0"
     inkscape:pageshadow="2"
     inkscape:window-width="1918"
     inkscape:window-height="1037"
     id="namedview853"
     showgrid="false"
     inkscape:zoom="3.1387968"
     inkscape:cx="171.24396"
     inkscape:cy="205.17416"
     inkscape:window-x="1"
     inkscape:window-y="22"
     inkscape:window-maximized="0"
     inkscape:current-layer="g865"
     inkscape:pagecheckerboard="0"
     units="cm"
     fit-margin-top="1"
     fit-margin-left="1"
     fit-margin-right="1"
     fit-margin-bottom="1"
     inkscape:document-units="cm" /><g
     id="g859"
     inkscape:groupmode="layer"
     inkscape:label="new order"
     transform="matrix(1.3333333,0,0,-1.3333333,5.0351154,2638.7376)"><g
       id="g865"
       transform="matrix(0.37297468,0,0,0.37297468,252.81496,1868.1093)"><path
         d="M 0,0 V 204.312 H -595.658 V -44.112 l 141.804,9.541 36.136,26.834 19.134,-29.071 45.709,107.329 29.764,-140.871 73.34,243.728 26.576,-203.477 35.256,67.078 27.46,-77.141 7.442,7.827 L 0,-43.009 16.3,-44.142 v -230.087 h -628.258 v 181.062 h 16.3 V -257.085 H 0 v 207.792 l -133.91,-12.045 -40.388,-38.082 -18.07,46.96 -46.773,-124.1 -24.449,174.972 -65.899,-217.46 -35.079,168.823 -25.512,-57.023 -38.261,55.905 -6.378,-9.995 -160.939,11.531 -16.3,1.163 v 270.1 H 16.3 V 0 Z"
         style="fill:#000000;fill-opacity:1;fill-rule:nonzero;stroke:none"
         id="path867" /></g></g></svg>
