<?xml version="1.0" encoding="UTF-8" standalone="no"?>
<!-- Created with Inkscape (http://www.inkscape.org/) -->

<svg
   width="86.352791mm"
   height="54.847687mm"
   viewBox="0 0 86.352791 54.847687"
   version="1.1"
   id="svg53050"
   inkscape:version="1.1.2 (0a00cf5339, 2022-02-04)"
   sodipodi:docname="lfo-sub.svg"
   xmlns:inkscape="http://www.inkscape.org/namespaces/inkscape"
   xmlns:sodipodi="http://sodipodi.sourceforge.net/DTD/sodipodi-0.dtd"
   xmlns="http://www.w3.org/2000/svg"
   xmlns:svg="http://www.w3.org/2000/svg">
  <sodipodi:namedview
     id="namedview53052"
     pagecolor="#ffffff"
     bordercolor="#666666"
     borderopacity="1.0"
     inkscape:pageshadow="2"
     inkscape:pageopacity="0.0"
     inkscape:pagecheckerboard="0"
     inkscape:document-units="mm"
     showgrid="true"
     inkscape:zoom="1.0772486"
     inkscape:cx="-87.259342"
     inkscape:cy="110.46661"
     inkscape:window-width="1918"
     inkscape:window-height="1037"
     inkscape:window-x="1"
     inkscape:window-y="22"
     inkscape:window-maximized="0"
     inkscape:current-layer="layer1"
     fit-margin-top="3"
     fit-margin-left="3"
     fit-margin-right="3"
     fit-margin-bottom="3"
     inkscape:snap-page="true"
     inkscape:snap-grids="false"
     inkscape:snap-to-guides="false">
    <inkscape:grid
       type="xygrid"
       id="grid53151"
       originx="5.7478512"
       originy="1.3191912" />
  </sodipodi:namedview>
  <defs
     id="defs53047">
    <marker
       style="overflow:visible"
       id="TriangleInM"
       refX="0"
       refY="0"
       orient="auto"
       inkscape:stockid="TriangleInM"
       inkscape:isstock="true">
      <path
         transform="scale(-0.4)"
         style="fill:context-stroke;fill-rule:evenodd;stroke:context-stroke;stroke-width:1pt"
         d="M 5.77,0 -2.88,5 V -5 Z"
         id="path3590" />
    </marker>
    <marker
       style="overflow:visible"
       id="TriangleOutM"
       refX="0"
       refY="0"
       orient="auto"
       inkscape:stockid="TriangleOutM"
       inkscape:isstock="true">
      <path
         transform="scale(0.4)"
         style="fill:context-stroke;fill-rule:evenodd;stroke:context-stroke;stroke-width:1pt"
         d="M 5.77,0 -2.88,5 V -5 Z"
         id="path3599" />
    </marker>
    <marker
       style="overflow:visible"
       id="Arrow2Mend"
       refX="0"
       refY="0"
       orient="auto"
       inkscape:stockid="Arrow2Mend"
       inkscape:isstock="true">
      <path
         transform="scale(-0.6)"
         d="M 8.7185878,4.0337352 -2.2072895,0.01601326 8.7185884,-4.0017078 c -1.7454984,2.3720609 -1.7354408,5.6174519 -6e-7,8.035443 z"
         style="fill:context-stroke;fill-rule:evenodd;stroke:context-stroke;stroke-width:0.625;stroke-linejoin:round"
         id="path3481" />
    </marker>
  </defs>
  <g
     inkscape:label="Layer 1"
     inkscape:groupmode="layer"
     id="layer1"
     transform="translate(5.747852,1.3191932)">
    <rect
       style="fill:#dddddd;stroke:none;stroke-width:0.497821;stroke-linecap:round;stroke-linejoin:round;stroke-opacity:1"
       id="rect85398"
       width="86.352791"
       height="54.847687"
       x="-5.7478518"
       y="-1.3191932" />
    <path
       style="fill:none;fill-rule:evenodd;stroke:#000000;stroke-width:0.5;stroke-linecap:butt;stroke-linejoin:miter;stroke-miterlimit:4;stroke-dasharray:none;stroke-opacity:1;marker-start:url(#TriangleInM);marker-end:url(#TriangleOutM)"
       d="M 11.794638,3.171926 V 45.50526 h 52.916666 9.260417"
       id="path53205"
       sodipodi:nodetypes="cccc" />
    <g
       aria-label="Time"
       id="text70785"
       style="font-size:3.46576px;line-height:1.25;letter-spacing:0px;word-spacing:0px;stroke-width:0.0866442px"
       transform="translate(11.876508,1.5339827)">
      <path
         d="m 57.421098,46.418882 h 2.137331 v 0.287685 h -0.8969 v 2.238868 h -0.34353 v -2.238868 h -0.896901 z"
         id="path79051" />
      <path
         d="m 59.76827,47.050097 h 0.311377 v 1.895338 H 59.76827 Z m 0,-0.737828 h 0.311377 v 0.394298 H 59.76827 Z"
         id="path79053" />
      <path
         d="m 62.206825,47.413934 q 0.116766,-0.209841 0.279224,-0.309684 0.162457,-0.09984 0.382452,-0.09984 0.296146,0 0.456912,0.208149 0.160765,0.206456 0.160765,0.588908 v 1.143972 h -0.313069 v -1.133818 q 0,-0.272455 -0.09646,-0.404452 -0.09646,-0.131997 -0.294455,-0.131997 -0.241994,0 -0.382452,0.160766 -0.140458,0.160765 -0.140458,0.438296 v 1.071205 h -0.313069 v -1.133818 q 0,-0.274147 -0.09646,-0.404452 -0.09646,-0.131997 -0.297839,-0.131997 -0.238609,0 -0.379067,0.162458 -0.140458,0.160765 -0.140458,0.436604 v 1.071205 h -0.313069 v -1.895338 h 0.313069 v 0.294454 q 0.106613,-0.174303 0.255532,-0.257224 0.148919,-0.08292 0.353683,-0.08292 0.206457,0 0.350299,0.10492 0.145535,0.104921 0.214918,0.304608 z"
         id="path79055" />
      <path
         d="m 65.72843,47.919922 v 0.152304 h -1.431657 q 0.02031,0.32153 0.192918,0.490757 0.174304,0.167534 0.483988,0.167534 0.17938,0 0.346915,-0.044 0.169226,-0.044 0.335068,-0.131997 v 0.294454 q -0.167534,0.07108 -0.34353,0.108305 -0.175995,0.03723 -0.357068,0.03723 -0.453527,0 -0.719213,-0.263993 -0.263993,-0.263994 -0.263993,-0.714136 0,-0.465373 0.250455,-0.737828 0.252148,-0.274147 0.678599,-0.274147 0.382452,0 0.604139,0.247071 0.223379,0.245378 0.223379,0.668446 z m -0.311377,-0.09138 q -0.0034,-0.255532 -0.143843,-0.407836 -0.138765,-0.152304 -0.368914,-0.152304 -0.260609,0 -0.417989,0.147227 -0.155689,0.147228 -0.17938,0.414606 z"
         id="path79057" />
    </g>
    <g
       aria-label="Output"
       transform="translate(22.489012,5.7586856)"
       id="text70785-0"
       style="font-size:3.46576px;line-height:1.25;letter-spacing:0px;word-spacing:0px;stroke-width:0.0866442px">
      <path
         d="m -24.065816,-3.8003472 q -0.372299,0 -0.592293,0.2775316 -0.218303,0.2775315 -0.218303,0.7564427 0,0.4772189 0.218303,0.7547505 0.219994,0.2775315 0.592293,0.2775315 0.372298,0 0.588908,-0.2775315 0.218302,-0.2775316 0.218302,-0.7547505 0,-0.4789112 -0.218302,-0.7564427 -0.21661,-0.2775316 -0.588908,-0.2775316 z m 0,-0.2775316 q 0.531371,0 0.849517,0.3570681 0.318146,0.3553758 0.318146,0.9544378 0,0.5973698 -0.318146,0.9544378 -0.318146,0.3553758 -0.849517,0.3553758 -0.533064,0 -0.852902,-0.3553758 -0.318146,-0.3553758 -0.318146,-0.9544378 0,-0.599062 0.318146,-0.9544378 0.319838,-0.3570681 0.852902,-0.3570681 z"
         id="path79019" />
      <path
         d="m -22.409088,-2.2536164 v -1.1473561 h 0.311377 v 1.1355102 q 0,0.2690702 0.10492,0.4044515 0.104921,0.133689 0.314761,0.133689 0.252148,0 0.397683,-0.1607653 0.147227,-0.1607652 0.147227,-0.4382967 v -1.0745887 h 0.311377 v 1.8953375 h -0.311377 v -0.2910697 q -0.113382,0.1726111 -0.263993,0.2572244 -0.14892,0.082921 -0.346915,0.082921 -0.326607,0 -0.495834,-0.2030719 -0.169226,-0.2030719 -0.169226,-0.5939852 z m 0.783519,-1.1930473 z"
         id="path79021" />
      <path
         d="m -19.872382,-3.939113 v 0.5381405 h 0.641368 v 0.241994 h -0.641368 v 1.0288975 q 0,0.2318404 0.06261,0.2978387 0.06431,0.065998 0.258916,0.065998 h 0.319838 v 0.2606089 h -0.319838 q -0.360452,0 -0.497526,-0.133689 -0.137073,-0.1353813 -0.137073,-0.490757 v -1.0288975 h -0.228456 v -0.241994 h 0.228456 V -3.939113 Z"
         id="path79023" />
      <path
         d="m -18.520262,-1.7899356 v 1.00520573 h -0.313069 V -3.4009725 h 0.313069 v 0.2876851 q 0.09815,-0.1692265 0.247071,-0.2504553 0.150612,-0.082921 0.35876,-0.082921 0.345223,0 0.56014,0.274147 0.21661,0.2741471 0.21661,0.7209052 0,0.4467581 -0.21661,0.7209051 -0.214917,0.2741471 -0.56014,0.2741471 -0.208148,0 -0.35876,-0.081229 -0.148919,-0.082921 -0.247071,-0.2521473 z m 1.059359,-0.6616759 q 0,-0.3435299 -0.142151,-0.5381405 -0.140458,-0.1963028 -0.387529,-0.1963028 -0.24707,0 -0.389221,0.1963028 -0.140458,0.1946106 -0.140458,0.5381405 0,0.3435299 0.140458,0.5398327 0.142151,0.1946106 0.389221,0.1946106 0.247071,0 0.387529,-0.1946106 0.142151,-0.1963028 0.142151,-0.5398327 z"
         id="path79025" />
      <path
         d="m -16.653693,-2.2536164 v -1.1473561 h 0.311377 v 1.1355102 q 0,0.2690702 0.104921,0.4044515 0.10492,0.133689 0.314761,0.133689 0.252148,0 0.397683,-0.1607653 0.147227,-0.1607652 0.147227,-0.4382967 v -1.0745887 h 0.311377 v 1.8953375 h -0.311377 v -0.2910697 q -0.113382,0.1726111 -0.263994,0.2572244 -0.148919,0.082921 -0.346914,0.082921 -0.326607,0 -0.495834,-0.2030719 -0.169227,-0.2030719 -0.169227,-0.5939852 z m 0.783519,-1.1930473 z"
         id="path79027" />
      <path
         d="m -14.116986,-3.939113 v 0.5381405 h 0.641368 v 0.241994 h -0.641368 v 1.0288975 q 0,0.2318404 0.06261,0.2978387 0.06431,0.065998 0.258917,0.065998 h 0.319838 v 0.2606089 h -0.319838 q -0.360452,0 -0.497526,-0.133689 -0.137073,-0.1353813 -0.137073,-0.490757 v -1.0288975 h -0.228456 v -0.241994 h 0.228456 V -3.939113 Z"
         id="path79029" />
    </g>
    <g
       aria-label="Base value"
       id="text70785-0-4"
       style="font-size:3.46576px;line-height:1.25;letter-spacing:0px;word-spacing:0px;stroke-width:0.0866442px"
       transform="translate(11.513582,-23.47793)">
      <path
         d="m -9.4152209,31.405273 v 0.925669 h 0.548294 q 0.2758393,0 0.4078361,-0.113382 0.1336889,-0.115074 0.1336889,-0.350299 0,-0.236917 -0.1336889,-0.348606 -0.1319968,-0.113382 -0.4078361,-0.113382 z m 0,-1.039051 v 0.761519 h 0.5059874 q 0.2504553,0 0.3722984,-0.09307 0.1235354,-0.09477 0.1235354,-0.287685 0,-0.191226 -0.1235354,-0.285993 -0.1218431,-0.09477 -0.3722984,-0.09477 z m -0.3418377,-0.280916 h 0.8732091 q 0.3909133,0 0.6024466,0.162457 0.2115332,0.162458 0.2115332,0.461989 0,0.23184 -0.108305,0.368914 -0.108305,0.137073 -0.318146,0.170919 0.2521476,0.05415 0.3909134,0.226763 0.140458,0.170919 0.140458,0.428143 0,0.338453 -0.2301481,0.52291 -0.2301481,0.184457 -0.6549068,0.184457 h -0.9070544 z"
         style="text-align:center;text-anchor:middle"
         id="path79032" />
      <path
         d="m -6.5316004,31.659113 q -0.3773752,0 -0.5229101,0.0863 -0.1455348,0.08631 -0.1455348,0.294455 0,0.165842 0.108305,0.263993 0.1099972,0.09646 0.2978387,0.09646 0.2589167,0 0.4146051,-0.182765 0.1573807,-0.184456 0.1573807,-0.489064 v -0.06938 z m 0.6210615,-0.128612 v 1.081357 h -0.3113769 v -0.287685 q -0.1066127,0.172611 -0.2656857,0.255532 -0.159073,0.08123 -0.3892211,0.08123 -0.2910697,0 -0.4636808,-0.162457 -0.1709188,-0.16415 -0.1709188,-0.438297 0,-0.319838 0.2132255,-0.482296 0.2149177,-0.162457 0.6396764,-0.162457 h 0.4366045 v -0.03046 q 0,-0.214918 -0.1421503,-0.331684 -0.1404581,-0.118459 -0.3959902,-0.118459 -0.1624575,0 -0.3164536,0.03892 -0.1539962,0.03892 -0.2961465,0.116767 v -0.287686 q 0.1709188,-0.066 0.331684,-0.09815 0.1607653,-0.03385 0.3130692,-0.03385 0.4112205,0 0.6142924,0.213225 0.2030719,0.213226 0.2030719,0.646446 z"
         style="text-align:center;text-anchor:middle"
         id="path79034" />
      <path
         d="m -4.0608923,30.772366 v 0.294454 q -0.1319968,-0.06769 -0.2741471,-0.101536 -0.1421503,-0.03384 -0.2944542,-0.03384 -0.2318404,0 -0.3486067,0.07108 -0.1150741,0.07107 -0.1150741,0.213225 0,0.108305 0.082921,0.170919 0.082921,0.06092 0.3333764,0.116766 l 0.1066127,0.02369 q 0.3316841,0.07108 0.4704498,0.20138 0.1404581,0.128612 0.1404581,0.360452 0,0.263994 -0.2098409,0.41799 -0.2081487,0.153996 -0.5736781,0.153996 -0.1523039,0 -0.3181459,-0.03046 -0.1641498,-0.02877 -0.3469145,-0.088 v -0.32153 q 0.1726111,0.08969 0.3401454,0.135381 0.1675343,0.044 0.3316841,0.044 0.2199945,0 0.3384531,-0.07446 0.1184586,-0.07615 0.1184586,-0.213225 0,-0.12692 -0.086306,-0.194611 -0.084613,-0.06769 -0.3739907,-0.130304 l -0.108305,-0.02538 q -0.2893774,-0.06092 -0.4179896,-0.186149 -0.1286122,-0.12692 -0.1286122,-0.346915 0,-0.267378 0.1895338,-0.412912 0.1895337,-0.145535 0.5381405,-0.145535 0.1726111,0 0.324915,0.02538 0.1523039,0.02538 0.2809161,0.07615 z"
         style="text-align:center;text-anchor:middle"
         id="path79036" />
      <path
         d="m -1.8423326,31.586345 v 0.152304 h -1.4316568 q 0.020307,0.321531 0.1929183,0.490757 0.1743034,0.167535 0.483988,0.167535 0.1793802,0 0.3469144,-0.044 0.1692266,-0.044 0.3350686,-0.131997 v 0.294454 q -0.1675343,0.07108 -0.3435299,0.108305 -0.1759956,0.03723 -0.357068,0.03723 -0.4535272,0 -0.7192129,-0.263993 -0.2639935,-0.263994 -0.2639935,-0.714136 0,-0.465374 0.2504554,-0.737828 0.2521475,-0.274147 0.6785985,-0.274147 0.382452,0 0.6041388,0.24707 0.2233791,0.245379 0.2233791,0.668446 z m -0.3113769,-0.09138 q -0.00338,-0.255532 -0.1438426,-0.407836 -0.1387658,-0.152304 -0.3689139,-0.152304 -0.2606089,0 -0.4179896,0.147227 -0.1556884,0.147227 -0.1793802,0.414605 z"
         style="text-align:center;text-anchor:middle"
         id="path79038" />
      <path
         d="m -10.507578,35.048721 h 0.329991 l 0.5922934,1.59073 0.592293,-1.59073 h 0.3299918 l -0.7107516,1.895337 h -0.4230664 z"
         style="text-align:center;text-anchor:middle"
         id="path79040" />
      <path
         d="m -7.3718102,35.991313 q -0.3773753,0 -0.5229101,0.08631 -0.1455349,0.08631 -0.1455349,0.294455 0,0.165842 0.108305,0.263993 0.1099973,0.09646 0.2978388,0.09646 0.2589166,0 0.4146051,-0.182765 0.1573807,-0.184456 0.1573807,-0.489064 v -0.06938 z m 0.6210614,-0.128612 v 1.081357 h -0.3113768 v -0.287685 q -0.1066128,0.172611 -0.2656857,0.255532 -0.159073,0.08123 -0.3892211,0.08123 -0.2910697,0 -0.4636808,-0.162457 -0.1709188,-0.16415 -0.1709188,-0.438297 0,-0.319838 0.2132254,-0.482296 0.2149178,-0.162457 0.6396764,-0.162457 h 0.4366046 v -0.03046 q 0,-0.214918 -0.1421503,-0.331684 -0.1404581,-0.118459 -0.3959902,-0.118459 -0.1624575,0 -0.3164537,0.03892 -0.1539961,0.03892 -0.2961465,0.116767 v -0.287686 q 0.1709189,-0.066 0.3316841,-0.09815 0.1607652,-0.03384 0.3130691,-0.03384 0.4112206,0 0.6142925,0.213225 0.2030718,0.213226 0.2030718,0.646446 z"
         style="text-align:center;text-anchor:middle"
         id="path79042" />
      <path
         d="m -6.1093803,34.310893 h 0.3113769 v 2.633165 h -0.3113769 z"
         style="text-align:center;text-anchor:middle"
         id="path79044" />
      <path
         d="m -5.1786342,36.196077 v -1.147356 h 0.3113769 v 1.13551 q 0,0.26907 0.1049205,0.404452 0.1049205,0.133689 0.3147614,0.133689 0.2521476,0 0.3976824,-0.160766 0.1472271,-0.160765 0.1472271,-0.438296 v -1.074589 h 0.3113769 v 1.895337 h -0.3113769 v -0.291069 q -0.1133818,0.172611 -0.2639934,0.257224 -0.1489194,0.08292 -0.3469145,0.08292 -0.3266072,0 -0.4958338,-0.203072 -0.1692266,-0.203072 -0.1692266,-0.593985 z m 0.783519,-1.193047 z"
         style="text-align:center;text-anchor:middle"
         id="path79046" />
      <path
         d="m -1.3287298,35.918545 v 0.152304 h -1.4316567 q 0.020307,0.321531 0.1929183,0.490757 0.1743033,0.167535 0.4839879,0.167535 0.1793802,0 0.3469145,-0.044 0.1692266,-0.044 0.3350686,-0.131997 v 0.294454 q -0.1675343,0.07108 -0.3435299,0.108305 -0.1759957,0.03723 -0.3570681,0.03723 -0.4535272,0 -0.7192129,-0.263993 -0.2639934,-0.263994 -0.2639934,-0.714136 0,-0.465374 0.2504553,-0.737828 0.2521476,-0.274147 0.6785985,-0.274147 0.3824521,0 0.6041389,0.24707 0.223379,0.245379 0.223379,0.668446 z m -0.3113769,-0.09138 q -0.00338,-0.255532 -0.1438425,-0.407836 -0.1387658,-0.152304 -0.3689139,-0.152304 -0.260609,0 -0.4179897,0.147227 -0.1556884,0.147227 -0.1793801,0.414605 z"
         style="text-align:center;text-anchor:middle"
         id="path79048" />
    </g>
    <path
       style="fill:none;fill-rule:evenodd;stroke:#fe0000;stroke-width:0.5;stroke-linecap:butt;stroke-linejoin:miter;stroke-miterlimit:4;stroke-dasharray:0.5, 1;stroke-dashoffset:0;stroke-opacity:1"
       d="M 14.552083,11.112498 H 74.083332"
       id="path79241" />
    <path
       style="fill:none;fill-rule:evenodd;stroke:#000000;stroke-width:0.5;stroke-linecap:butt;stroke-linejoin:miter;stroke-miterlimit:4;stroke-dasharray:none;stroke-opacity:1"
       d="m 17.086304,42.859426 c 10.583334,0 5.291666,-31.75 15.875,-31.75 10.583334,0 5.291667,31.75 15.875,31.75 10.583333,0 5.291667,-31.75 15.875,-31.75 v 0"
       id="path53705"
       sodipodi:nodetypes="czzcc" />
  </g>
</svg>
